<svg id="图层_1" data-name="图层 1" xmlns="http://www.w3.org/2000/svg" viewBox="0 0 278 72"><defs><style>.cls-1,.cls-2{fill:#005bac;}.cls-1{fill-rule:evenodd;}</style></defs><title>logo合集</title><path class="cls-1" d="M41.79,49.09l.54-.27h.05v1.91a.66.66,0,0,0,0,.24.21.21,0,0,0,.06.08l.2,0v.07h-.85v-.07l.2,0a.16.16,0,0,0,.07-.07,1.17,1.17,0,0,0,0-.24V49.52a2.38,2.38,0,0,0,0-.32.14.14,0,0,0,0-.07.11.11,0,0,0-.08,0,.37.37,0,0,0-.17,0Z"/><path class="cls-1" d="M43.35,51.15v-.06a.87.87,0,0,0,.41-.11.93.93,0,0,0,.35-.34,1.27,1.27,0,0,0,.24-.53.88.88,0,0,1-.47.16.52.52,0,0,1-.4-.18.67.67,0,0,1-.17-.49.87.87,0,0,1,.17-.54.63.63,0,0,1,1-.05,1,1,0,0,1,.25.7,1.41,1.41,0,0,1-.19.7A1.63,1.63,0,0,1,44,51a1.1,1.1,0,0,1-.58.18h-.09Zm1-1.16a1.51,1.51,0,0,0,0-.34,1.14,1.14,0,0,0-.05-.35,1,1,0,0,0-.15-.29.34.34,0,0,0-.23-.1.32.32,0,0,0-.27.14.57.57,0,0,0-.12.39.9.9,0,0,0,.16.55.3.3,0,0,0,.26.14.39.39,0,0,0,.18,0A.39.39,0,0,0,44.39,50Z"/><path class="cls-1" d="M46.63,48.86l-.13.28h-.68l-.15.3a1.11,1.11,0,0,1,.69.34.7.7,0,0,1,.23.53.75.75,0,0,1-.07.33,1,1,0,0,1-.42.43.81.81,0,0,1-.4.09.52.52,0,0,1-.29-.06.2.2,0,0,1-.09-.15s0-.07,0-.08a.13.13,0,0,1,.1,0h.08l.11.07a.43.43,0,0,0,.6-.07.47.47,0,0,0,.15-.35.64.64,0,0,0-.12-.38.81.81,0,0,0-.37-.28,1.66,1.66,0,0,0-.5-.09l.43-.88Z"/><path class="cls-1" d="M48.59,50.69l-.16.43H47.09v-.06a6.11,6.11,0,0,0,.83-.88,1.11,1.11,0,0,0,.24-.62A.5.5,0,0,0,48,49.2a.43.43,0,0,0-.32-.14.51.51,0,0,0-.49.38h-.07a.77.77,0,0,1,.22-.47.57.57,0,0,1,.43-.16.62.62,0,0,1,.46.18.52.52,0,0,1,.19.42.71.71,0,0,1-.08.34,2.06,2.06,0,0,1-.4.57c-.28.31-.46.49-.52.55h.85l.13,0a.63.63,0,0,0,.1-.12Z"/><path class="cls-1" d="M66,30.85c-.12,0-.23,0-.23-.1-.23-.1-.52-1-.54-1.21s.21-.36.09-.34a.39.39,0,0,0-.13-.22.51.51,0,0,1-.14-.33c-.11,0-.11,0-.22-.1l-.12-.11c-.11-.1-.13-.21-.25-.31s-.12-.1-.13-.22a.25.25,0,0,1-.24-.2,1.18,1.18,0,0,1-.6-.41c-.14-.45,1-.41,1.12-.19s-.2.24-.19.47c.11,0,.1-.13.22-.13s.21-.12.44-.14l.1-.11a.39.39,0,0,0,.22-.13.84.84,0,0,1,.43-.25.1.1,0,0,1,.1-.12c.12.1.12.1.13.22a.92.92,0,0,1-.65.49c-.23,0-.33.14-.56.16a.11.11,0,0,1-.1.12s-.1.12,0,.12a.11.11,0,0,0,.12.1.45.45,0,0,1,.33-.14h.23c0-.12.1-.12.21-.13s.1-.13.22-.13.1-.12.22-.12.34.09.24.21a.25.25,0,0,1-.21.24,1.45,1.45,0,0,1-.23,0c0,.11-.1.12-.21.12l-.23,0h-.12a.46.46,0,0,1-.21.13s-.12,0-.1.12h.11c.12,0,.23.1.34.09a.52.52,0,0,1,.22-.13c.12.1,0,.23.13.22s.11.1.11,0a.44.44,0,0,1-.12-.22c0-.11.21-.13.33-.14l.1-.11.11,0a.38.38,0,0,0,.14.33c.23.11.55-.26.69.07,0,.11,0,.23,0,.34a.32.32,0,0,1-.44.14c-.12-.1,0-.23-.24-.22l-.12,0c0,.11-.1.11-.1.23s-.34-.09-.46-.08h-.23l0,.12h-.12c-.1.11-.09.34.14.33s.1-.11.1-.23h.12c.11.1.14.33.35.32a.8.8,0,0,1,.2-.47c.22,0,.14.44.38.54l.21-.12c.12,0,.11-.23.11-.23l.11,0c0,.12.11.11.11.11s.25.21.36.31,0,.23,0,.35v.11c-.2.24-.45,0-.69-.06l-.34,0a.37.37,0,0,1-.35-.09l-.33,0c-.11,0-.11,0-.22-.1v.23c.12.1.24.21.24.32a.48.48,0,0,1,0,.56C66.12,30.72,66,30.73,66,30.85Z"/><path class="cls-1" d="M64.4,30.39c-.34-.09-.24-.22-.37-.43s-.11-.1-.13-.22a.36.36,0,0,0-.12-.21c-.12,0-.33.14-.45.14l-.1.12a.86.86,0,0,1-.23,0c-.21.12-1-.16-1-.39s.29-.7.51-.82c0,0,.1-.13.11,0a.41.41,0,0,1,.14.34c0,.11,0,.11.12.1.12.21.14.33.35.2l.35,0c.08-.35-.51-.77-.42-1.23.11,0,.1-.11.21-.12a.39.39,0,0,1,.13.21c.11,0,.11.1.13.22s.14.44.15.56.33,0,.44,0h.23l-.11-.1c-.13-.1-.13-.22-.24-.22,0-.23,0-.45.19-.47l.11.1c0,.12,0,.35.14.45s.13.22.26.32.24.21.35.2.14.45,0,.56h-.23c0-.11-.11-.1-.13-.21a3.87,3.87,0,0,0-.58-.31c-.1.23.14.45.27.66a.37.37,0,0,0,.12.22.11.11,0,0,1-.1.13C64.5,30.26,64.4,30.28,64.4,30.39Z"/><path class="cls-1" d="M61.44,25.67a.74.74,0,0,1-.55-.47.24.24,0,0,1-.22-.23c-.11-.11-.21-.23-.21-.23v-.11c0-.12,0-.23,0-.34s0-.46,0-.56.14-.91.14-.91-.34,0-.45.1h-.35a.52.52,0,0,1-.56,0,.73.73,0,0,1-.54-.47c0-.12-.12-.12-.11-.23S58.84,22,59,22l.33.36a1.27,1.27,0,0,0,1.13-.08v-.11c0-.12,0-.12-.11-.12a2.34,2.34,0,0,0-.44-.58l-.1-.12s0-.11,0-.22A.12.12,0,0,1,59.9,21a.21.21,0,0,1,.34-.1c.12,0,.12.11.22.23l.11.11.22.23H61c.11.12.1.23.33.25s.46-.33.46-.45.12-.44.45-.44a.12.12,0,0,1,.12-.12c.11.12.11.12.21.12a.4.4,0,0,0,.11.34c0,.11.1.11.1.23v.11a.59.59,0,0,1-.57.44c-.12,0-.23,0-.23.1-.23.1.21.23.21.23.23,0,.56.24.44.47h0c-.12.11,0,.23-.13.33s-.35,0-.45-.13a.38.38,0,0,0-.21-.11c0-.12-.33-.25-.45-.13a.39.39,0,0,0-.11.23,2.77,2.77,0,0,0,0,1c.12.12,0,.23.1.35,0,.34,0,.57,0,.9a.42.42,0,0,1,.1.34Z"/><path class="cls-1" d="M56.72,21.05a2.2,2.2,0,0,1-1.4-.62c-.1-.13-.18-.37-.28-.48a4.71,4.71,0,0,0-.32-1.18v-.12c-.11,0-.1-.13-.21-.14a.62.62,0,0,1-.6.27,1.94,1.94,0,0,1-1.12-.13c-.1-.13-.22-.14-.2-.25a.38.38,0,0,1,.14-.22c.11,0,.31.15.43.17a2.16,2.16,0,0,0,.93-.23c.13-.11-.17-.47-.15-.59s0-.23.15-.32.74.44.89.11a.9.9,0,0,0,.06-.56c-.1-.13-.29-.39,0-.58l.23,0c.11,0,.32.15.55.18l.44.05c.23,0,.56.06.66.19s.11.13.09.24-.15.32-.26.31l-.12,0v.12c-.12,0-.35.07-.46.06s-.22-.14-.33,0v.12c0,.11.1.12.1.12.21.14.55.18.63.42s-.15.32-.26.31c-.35.08-.66-.19-.91,0-.11,0,0,.34.08.36.09.24.06.45.15.58a1.14,1.14,0,0,0,.38.61,1.83,1.83,0,0,0,.59.75c0,.12.22.14.19.26l.1.12C56.73,20.94,56.72,21.05,56.72,21.05Z"/><path class="cls-1" d="M40.82,17.71c-.23,0-.34,0-.34-.11-.12-.46.22-.46.44-.46a.85.85,0,0,0,.45-.23.11.11,0,0,0,.11-.12c0-.11-.23-.23-.34-.34v-.23s-.12-.11,0-.11.11-.12.23-.12.11-.11.22-.23.12-.23.23-.34.12-.46.23-.67a.42.42,0,0,1,.35-.12.52.52,0,0,0,.34-.34s0-.12-.11-.12a.42.42,0,0,1-.35.12c-.11.11-.23.11-.34.23a.35.35,0,0,0-.23.11c-.12,0-.23.12-.45.23s-.44.23-.56.34-.11.12-.11.12l-.33.34h-.12L40,15.55a.62.62,0,0,1-.23-.46c0-.23.45-.79.68-.79s.22.12.11.12v.22c.11.12.67-.22.67-.22s.12-.12.23-.12c-.23,0-.23-.23-.34-.34a.38.38,0,0,0-.23-.12.11.11,0,0,0-.11-.11c-.12-.12.23-.23.34-.34a1.14,1.14,0,0,0,.56-.12c.11,0,.23.12.34.23s.23.34.12.46-.12.11-.12.11a1,1,0,0,0,.56-.11h.23c.12,0,.23-.12.34-.12s.35.12.45.23.23.23.23.35c-.23.11-.23.22-.45.22H43c-.12.12-.12.12-.23.12h-.12c-.11,0,0,.11,0,.23v.11c-.11.12-.23.23-.34.23a1.61,1.61,0,0,0-.45.46l-.11.11c.11,0,.67-.23.79-.11a.62.62,0,0,1-.35.57H42c-.11.12,0,.12,0,.23l-.11.11c.34,0,.78-.22,1-.11s.23.11.35.23,0,.34-.12.34-.23,0-.34,0-.23.12-.45.12-.23.11-.34.11H41.7c-.12,0-.12.12-.23.12s-.23.11-.35.11A.35.35,0,0,1,40.82,17.71Z"/><path class="cls-1" d="M41.26,15.67H41c0-.11-.12-.34,0-.45s.22,0,.34,0l.23-.12v.12c0,.11,0,.11-.12.11v.23C41.38,15.67,41.38,15.67,41.26,15.67Z"/><polygon class="cls-1" points="42.87 24.18 42.29 27.14 39.16 27.63 42.26 28.3 42.78 31.33 43.4 28.25 46.35 27.76 43.38 27.2 42.87 24.18"/><path class="cls-1" d="M26.92,31.37c-.12,0-.23-.11-.35-.11s-.23,0-.23-.12.12-.23.12-.34-.12-.57-.12-.68-.22-.23-.34-.23c-.44-.45-.44.46-.9.35s0-.68-.12-.79c-.23-.34-.56-.11-.79-.34s.12-.79.35-.91a1,1,0,0,1,.56,0,.79.79,0,0,1,.33.23c.11.12.23.23.34.23.23.23.56.34.79.57,0,.12.12.12.23.23v.35c0,.11.11.22.11.34a.83.83,0,0,1,.12.46A.51.51,0,0,1,26.92,31.37Z"/><path class="cls-1" d="M27.15,28.2h-.23a1.67,1.67,0,0,0-.68-.23.11.11,0,0,0-.11-.11c-.12-.11-.35-.11-.45-.23l-.34-.34h-.23a.52.52,0,0,1-.56-.35c-.11-.11,0-.34,0-.45s.23-.12.34-.23c.35,0,.35.45.56.45s.12-.11.12-.22v-.12a.36.36,0,0,1,.34-.34.35.35,0,0,1,.23.11v.12c.12.23,0,.45,0,.56s-.11.11-.11.23l.23.22a.11.11,0,0,1,.11.12.88.88,0,0,0,.45.23H27a.42.42,0,0,0,.12-.35c0-.22.11-.34.11-.45a.38.38,0,0,0,.23-.12c.12-.11.23,0,.33,0s.23.12.23.23c0,.34-.44.9-.56,1.13C27.36,28.09,27.15,28.09,27.15,28.2Z"/><path class="cls-1" d="M29.74,25.38h-.23c-.11-.12-.44-.46-.33-.57s.33,0,.33-.12.23-.23.23-.11v.23C29.85,25,30,25.26,29.74,25.38Z"/><path class="cls-1" d="M31.2,22.89H31c-.11,0-.11,0-.22-.12H30.4l-.11-.11a1.09,1.09,0,0,1,.9-.68.11.11,0,0,0,.11.12c.12.11.23.46.12.57A.23.23,0,0,1,31.2,22.89Z"/><path class="cls-1" d="M27.6,23.46a.36.36,0,0,1-.23-.12.11.11,0,0,1-.11-.11c-.11-.23.23-.34.33-.46a1,1,0,0,1,.23-.46c0-.11.11-.22.11-.34a.21.21,0,0,0,0-.34h-.11c-.11.11-.45.23-.45-.12v-.34c.12,0,.23-.12.34-.23s.11-.11.22-.23.45.12.45.34c.23,0,.23-.22.34-.22l.12-.12c.11-.11.56-.67.67-.46a.12.12,0,0,1,.12.12c-.12.11-.23.23-.23.34s-.23.12-.35.23c-.23.34-.56.57-.67.9s-.11.35-.23.46v.23a.87.87,0,0,0-.23.46c-.11.11,0,.23-.11.34S27.72,23.46,27.6,23.46Z"/><path class="cls-1" d="M30.76,24.25h-.23c-.12,0-.56,0-.56-.12s.23-.11.23-.23v-.11c0-.12-.35-.34-.45-.34s-.23.22-.34.22-.9-.57-.9-.67a1.26,1.26,0,0,0,.23-.56c.11-.11.11-.23.22-.46a.38.38,0,0,0,.12-.23c.11-.11.23-.11.23-.22s.23-.35.34-.23h.12c.11,0,.11,0,.11.11a1.21,1.21,0,0,1-.11.56v.23c0,.11.22.11.22.34v.12a.11.11,0,0,1-.11.11,5.63,5.63,0,0,1,.79.68.11.11,0,0,0,.11.11.66.66,0,0,1,.12.46.7.7,0,0,1-.14.23ZM29.18,23a4.65,4.65,0,0,0,.12-.56h-.12v0C29.07,22.54,28.85,22.89,29.18,23Z"/><path class="cls-1" d="M34.66,17.52l-.11-.12c-.12-.22.11-.34.23-.45a.39.39,0,0,1,.11-.23c0-.23-.34-.12-.34-.23s.11-.46.11-.57a.88.88,0,0,0,.45-.23c.11-.12.44,0,.44.23v.34h0c.12.11.45-.46.68-.34,0,.11,0,.23-.12.23a.52.52,0,0,1-.34.34.74.74,0,0,0-.34.23c-.12,0-.12.11-.23.11A1.54,1.54,0,0,1,34.66,17.52Z"/><path class="cls-1" d="M34.09,20.46c-.44-.12-.34-.79-.56-.79l-.11.11a.42.42,0,0,0-.12.23l-.23.12c-.23,0-.23-.23-.23-.35s0-.23.12-.23.11-.11.23-.11a.91.91,0,0,0,.23-.46c0-.11,0-.11-.12-.23a.87.87,0,0,0-.11-.57c-.12-.11-.23-.11-.23-.23s-.23-.11-.23-.23.11-.34.11-.46-.11-.67.12-.78.11-.12.23-.12.23-.11.34-.11a.43.43,0,0,0,.23.11c0,.12.11.23,0,.46s-.33.34-.45.46-.11.11-.22.11-.12.12-.12.23a.12.12,0,0,0,.12.12c.11.11.11.11.22.11v-.23c0-.11.12-.23.12-.34a.39.39,0,0,1,.33-.12c.34-.11.44.35.56.56V18c.11.23.23.34.23.57a.45.45,0,0,1,.11.35,1.69,1.69,0,0,1,.45,1.24c0,.12-.23.12-.23.12s-.12-.23-.23-.35-.34-.22-.45-.45a.12.12,0,0,1,.12-.12l.23.23h.11c0-.11-.11-.46-.23-.46V19l-.11-.12c-.12.12-.12.12-.12.23l-.22.23v.23c0,.24.22.7.11.92Zm-.33-1.81v-.11c0-.12-.23-.35,0-.35H34c0-.11,0-.23-.12-.23s-.22-.34-.22-.22-.12.11-.12.22v.35C33.53,18.42,33.65,18.65,33.76,18.65Z"/><path class="cls-1" d="M35.45,19.55a.43.43,0,0,1-.23-.11v-.23c0-.23-.11-.34-.11-.46v-.67a1,1,0,0,0-.12-.34.12.12,0,0,0,.12-.12c.11,0,.23-.11.33-.11.11-.23.11-.58.34-.58.45-.23.23.35.35.58a.6.6,0,0,0,.34.56.11.11,0,0,0,.11.11c.12.11.68,0,.68-.11s-.12-.35-.12-.46v-.12a.12.12,0,0,1,.12.12c.11,0,.11.11.23.23l.34.34c0,.11.11.23,0,.34s-.11.12-.23.23a.36.36,0,0,0-.23.12c-.23,0-.9,0-1.13-.23s-.23-.46-.33-.68-.12-.22-.23-.22h-.11c-.23.22,0,.57,0,.78a1.13,1.13,0,0,1-.12,1Zm-.11-.78v-.58h-.12v.12A.68.68,0,0,0,35.34,18.77Z"/><path class="cls-1" d="M49.91,14.76c-.23,0-.56-.23-.56-.46s0-.11.12-.11.11-.12.23-.12h.57a.11.11,0,0,0,.11.12C50.47,14.42,50.13,14.64,49.91,14.76Z"/><path class="cls-1" d="M47.43,14.19h-.11a.57.57,0,0,1,.23-.46c.11-.12.11-.12.11-.23s.23-.23.35-.23a.41.41,0,0,1,.34.12s.23,0,.23.11.11.11.11.23c-.11.46-.44.23-.79.23h-.11C47.65,14.07,47.55,14.19,47.43,14.19Z"/><path class="cls-1" d="M50.24,17.81a.76.76,0,0,1-.44-.23.93.93,0,0,1-.45-.67c0-.23,0-.68.12-.79V16h-.12a.37.37,0,0,0-.23.11c-.11.23-.22.34-.34.57-.11,0-.11.12-.23.23a.4.4,0,0,1-.34.12c-.12,0-.23,0-.23-.12s.34-.23.45-.23v-.11c.11-.23.22-.35.34-.56s-.12-.35,0-.46h.11c.23,0,.23.23.45.23s.23-.23.44-.23.23,0,.23.23c0,0-.23.11-.23.23a1.62,1.62,0,0,0-.23.67c0,.12,0,.12.12.23s.34.34.44.23.12-.23.23-.34h.12l.11.11s0,.68-.11.68S50.36,17.7,50.24,17.81Z"/><path class="cls-1" d="M48.78,15.32h-.23l-.11-.12v-.11c.11,0,.11,0,.11-.12H49.8c.23,0,.34-.11.44-.11s.12-.11.23-.11h.12a.21.21,0,0,1,.11.34c-.11,0-.34.11-.44.11h-.58a.63.63,0,0,1-.44.12h-.46Z"/><path class="cls-1" d="M47.55,17.35h-.12c-.11-.11-.34-.9-.11-.9h0l.11.23c.12-.12.23-.57.12-.67a2.71,2.71,0,0,0-.56.22c-.23.12-.45.68-.68.68v-.35c.12-.11.23-.11.35-.34-.12-.11-.23,0-.35,0H46.2c-.23-.11,0-.57.11-.67s.23.11.35.11h.23a.11.11,0,0,0,.11-.11.85.85,0,0,0,.12-.58c.11-.11.11-.34.22-.45s0-.12.12-.12,0,.35,0,.56h.23l.11.12h.12l.11-.35a.57.57,0,0,0-.34-.11V14.5l.11-.11c.23,0,.45-.11.56.11v.23l-.11.12c0,.11-.12.34-.12.46a.25.25,0,0,0-.23.22H48c.11,0,.11.12.11.12v.11c-.11.12-.23.12-.23.23v.23c0,.12-.11.23-.11.34,0,.35,0,.58-.24.79Zm-.12-1.69V15.2h-.11a.42.42,0,0,1-.12.35v.11Z"/><path class="cls-1" d="M43.13,34.35a12.59,12.59,0,0,0-3.05-.55l0-.17,1.72-.78V33l-1.34.61a20.65,20.65,0,0,1,2.61.5A1.23,1.23,0,0,1,43.13,34.35Z"/><polygon class="cls-1" points="52.43 27.91 56.66 25.96 56.76 26.1 42.19 47.61 42.04 47.52 44.65 39.94 44.86 39.63 42.48 46.85 56.39 26.28 52.22 28.23 52.43 27.91"/><path class="cls-1" d="M56.53,38.85,56.2,37.6H49.28l-.84,1.25ZM45.17,37.62H43.06c-.09.36-.26.77-.38,1.23h2.18c.13-.45.23-.87.31-1.23Zm-2.53,0h-10l-.33,1.24h10Z"/><path class="cls-1" d="M32.13,35.55c0-3.48,4.24-6.39,9.86-7a7.45,7.45,0,0,0-4.78,7,8.1,8.1,0,0,0,.17,1.65h-5a4.51,4.51,0,0,1-.29-1.58Zm5.39,2a8.47,8.47,0,0,0,.5,1.26H33.51a5.22,5.22,0,0,1-.88-1.26Zm.68,1.6c.08.14.16.28.25.42H34.27a5.89,5.89,0,0,1-.45-.42Zm.49.75a7.28,7.28,0,0,0,1.24,1.3h-3a11.8,11.8,0,0,1-2.21-1.3Zm1.68,1.64a7.9,7.9,0,0,0,1,.58c0,.11-.08.23-.13.34a17.4,17.4,0,0,1-3.5-.92Zm1.25.7a7.12,7.12,0,0,0,1.09.4c-.39,0-.81-.08-1.18-.13a2.14,2.14,0,0,0,.09-.27Zm5.84-13.71a18.44,18.44,0,0,1,2.86.66l-1,.46a7,7,0,0,0-1.86-1.12ZM53.89,31a5.77,5.77,0,0,1,2.8,4.57,4.39,4.39,0,0,1-.34,1.71H51.82A7.48,7.48,0,0,0,52,35.48,6.94,6.94,0,0,0,51.88,34l2-3Zm2.31,6.61a6.19,6.19,0,0,1-.87,1.26H51.22a6.62,6.62,0,0,0,.5-1.26ZM55,39.19l-.44.42H50.79c.09-.14.18-.28.26-.42Zm-.87.75a11.58,11.58,0,0,1-2.22,1.3H49.3a7.28,7.28,0,0,0,1.24-1.3Zm-3,1.64a17.93,17.93,0,0,1-4.37,1.05,7.3,7.3,0,0,0,2.13-1.05Z"/><path class="cls-1" d="M54.3,24.68l-15,7.19a7.94,7.94,0,0,1,2.83.78h0a2.35,2.35,0,0,1,1.37,2.09v.06h0v0c-.14,2.66-3.34,11.67-3.34,11.67L54.3,24.68ZM43.54,34.75v.07h0Z"/><path class="cls-1" d="M56.62,40l.54,1.28H46.8L47.71,40ZM44.33,41.24h-.41l.73-1.3h.11c-.14.42-.28.86-.43,1.3Zm-.73,0,.84-1.3H42.36c-.13.41-.24.83-.4,1.29Zm-2,0H32l.28-.79,0,0,.15-.47H42C41.85,40.4,41.76,40.83,41.62,41.24Z"/><path class="cls-1" d="M45.19,19a17,17,0,1,1-17,17,17,17,0,0,1,17-17Zm0,.62A16.37,16.37,0,1,0,61.56,36,16.4,16.4,0,0,0,45.19,19.63Z"/><path class="cls-1" d="M45.19,10.94A25.06,25.06,0,1,1,20.14,36a25.11,25.11,0,0,1,25-25.06Zm0,.63A24.43,24.43,0,1,0,69.63,36,24.48,24.48,0,0,0,45.19,11.57Z"/><path class="cls-1" d="M64.27,41.9l.19-.55,0,0v0a.17.17,0,0,0,0,.1.18.18,0,0,0,0,.13l.11.18.45.59.38.13a.29.29,0,0,0,.19,0,.15.15,0,0,0,.09-.13v-.05l0,0-.23.66,0,0,0-.05a.18.18,0,0,0,0-.16s-.08,0-.16-.09L65,42.6l-.79.2-.18.06a.22.22,0,0,0-.1.08.43.43,0,0,0,0,.07h0l.23-.68h0v0a.25.25,0,0,0,0,.12.08.08,0,0,0,.07.07s.09,0,.16,0L65,42.4l-.37-.47a.27.27,0,0,0-.14-.13H64.4a.05.05,0,0,0-.05,0,.24.24,0,0,0,0,.09Z"/><path class="cls-1" d="M63.23,44.42l.34.17,0,0-.14,0a.32.32,0,0,0-.14,0,.32.32,0,0,0-.1.13l-.1.2,1.09.59a.39.39,0,0,0,.18.06s.07-.05.11-.1l0,0,0,0-.32.62,0,0,0,0a.16.16,0,0,0,0-.16.33.33,0,0,0-.14-.1L63,45.17l-.09.18a.77.77,0,0,0-.06.15.24.24,0,0,0,0,.14.29.29,0,0,0,.12.13l0,0-.33-.19Z"/><path class="cls-1" d="M62.8,47.93l0,0-.42.57,0,0,0,0a.17.17,0,0,0,0-.15.41.41,0,0,0-.12-.14l-.84-.64-.14-.09-.08,0s-.06,0-.09.07l0,0,0,0,.42-.57,0,0,0,0a.19.19,0,0,0,0,.16s0,.07.13.14l.83.63.14.09h.08s.06,0,.09-.08Z"/><path class="cls-1" d="M60,49l.42.38,0,0a.6.6,0,0,0-.24-.12.31.31,0,0,0-.21,0,.27.27,0,0,0-.18.13.3.3,0,0,0-.08.2.23.23,0,0,0,.08.18.2.2,0,0,0,.14,0,1.3,1.3,0,0,0,.4-.12,2.41,2.41,0,0,1,.35-.11.67.67,0,0,1,.2,0,.41.41,0,0,1,.31.41.53.53,0,0,1-.14.36.31.31,0,0,1-.11.09.55.55,0,0,1-.14.09.56.56,0,0,0-.12.09s0,0,0,0,0,0,0,.08l0,0-.42-.37,0,0a.86.86,0,0,0,.26.11.39.39,0,0,0,.21,0,.7.7,0,0,0,.21-.14.39.39,0,0,0,.1-.23A.26.26,0,0,0,60.9,50a.13.13,0,0,0-.11-.05h-.15l-.28.09-.33.1h-.21a.29.29,0,0,1-.16-.09.43.43,0,0,1-.14-.3.52.52,0,0,1,.35-.51l.09-.05s0,0,0-.06l0-.07Z"/><path class="cls-1" d="M55.17,53.27l.33.56.3-.19c.08,0,.13-.09.14-.14a.31.31,0,0,0,0-.2l0,0,.29.5,0,0-.11-.11-.08,0a.26.26,0,0,0-.14.07l-.31.19.28.47c0,.06.06.1.08.11s0,0,0,0l.09,0,.23-.15.16-.13a.31.31,0,0,0,.06-.13.76.76,0,0,0,0-.28l0,0,.08.43-1.06.67,0,0,0,0s.07,0,.08-.08a.09.09,0,0,0,0-.07.23.23,0,0,0-.08-.14l-.54-.92a.33.33,0,0,0-.13-.15.19.19,0,0,0-.15,0l0,0,0,0,1.07-.67.2.3,0,0L55.82,53a.25.25,0,0,0-.12,0,.37.37,0,0,0-.15.08Z"/><path class="cls-1" d="M53.46,54.16v0l-.1.1a.38.38,0,0,0,0,.22l0,1.53h0L52.22,55c-.07,0-.09-.09-.12-.1l-.09,0-.11,0,0,0,.62-.26v0a.26.26,0,0,0-.12.11.09.09,0,0,0,0,.07.75.75,0,0,0,.13.15l.76.73,0-1a.43.43,0,0,0,0-.2s0,0-.06-.06a.16.16,0,0,0-.13,0h0l0,0Z"/><path class="cls-1" d="M50.75,56.92l0,0-.68.18v0h.05a.19.19,0,0,0,.13-.1.5.5,0,0,0,0-.19l-.26-1c0-.08,0-.13,0-.16l-.07,0a.11.11,0,0,0-.11,0h0l0,0,.68-.18v0h0a.25.25,0,0,0-.13.09.35.35,0,0,0,0,.19l.26,1c0,.08,0,.13.05.16l.07,0a.11.11,0,0,0,.11,0Z"/><path class="cls-1" d="M46.44,55.91l.43-.06L48,57l-.1-.95c0-.1,0-.17,0-.19a.21.21,0,0,0-.14,0h-.05v0l.56-.06v.05h-.05c-.07,0-.12,0-.14.08A.5.5,0,0,0,48,56l.15,1.38h0L46.92,56.2l.12,1c0,.1,0,.16.05.19a.32.32,0,0,0,.14,0h.05v0l-.56.07v0l.05,0a.2.2,0,0,0,.14-.07.51.51,0,0,0,0-.18l-.13-1.15c-.05,0-.08-.09-.11-.1l-.11,0h-.11Z"/><path class="cls-1" d="M44.44,56v0H45v0H45a.19.19,0,0,0-.15.08.48.48,0,0,0,0,.18v.67a.94.94,0,0,1-.06.38.53.53,0,0,1-.19.23.76.76,0,0,1-.4.09.7.7,0,0,1-.39-.1.55.55,0,0,1-.19-.26,1,1,0,0,1,0-.4l0-.65a.48.48,0,0,0,0-.21.19.19,0,0,0-.13-.05h-.06v0l.7,0V56h-.07a.14.14,0,0,0-.14.06.34.34,0,0,0,0,.18v.72a1.7,1.7,0,0,0,0,.22.38.38,0,0,0,.07.19.21.21,0,0,0,.13.11.39.39,0,0,0,.2.06.73.73,0,0,0,.29-.07.39.39,0,0,0,.18-.18.83.83,0,0,0,0-.36v-.68a.66.66,0,0,0,0-.19.16.16,0,0,0-.14-.05Z"/><path class="cls-1" d="M39.29,55.07l-.12.5h0a.77.77,0,0,0-.07-.33.47.47,0,0,0-.3-.25.49.49,0,0,0-.52.09.81.81,0,0,0-.28.43,1,1,0,0,0-.05.44.58.58,0,0,0,.14.35.49.49,0,0,0,.25.18,1,1,0,0,0,.18,0h.18l.15-.46a.73.73,0,0,0,0-.16s0,0,0-.08a.4.4,0,0,0-.13-.06v0l.6.2v0h0a.12.12,0,0,0-.14,0,.47.47,0,0,0-.07.17l-.15.48a1.06,1.06,0,0,1-.3,0,1.74,1.74,0,0,1-.29-.07.87.87,0,0,1-.58-.52.83.83,0,0,1,0-.56,1.2,1.2,0,0,1,.23-.37.88.88,0,0,1,.43-.24.85.85,0,0,1,.44,0L39,55l.18.13.07.05h0a.29.29,0,0,0,0-.08Z"/><path class="cls-1" d="M34.93,53.17l.39.2.35,1.57.42-.85a.29.29,0,0,0,0-.19.27.27,0,0,0-.1-.12l0,0,0,0,.51.25,0,0-.05,0a.17.17,0,0,0-.15,0,.55.55,0,0,0-.1.16l-.61,1.24,0,0-.37-1.68-.44.91c0,.09-.07.16,0,.19a.27.27,0,0,0,.1.12l0,0,0,0-.51-.25,0,0,0,0a.21.21,0,0,0,.17,0,.55.55,0,0,0,.1-.16l.51-1c0-.07,0-.12,0-.15a.57.57,0,0,0-.08-.09l-.09-.06Z"/><path class="cls-1" d="M29.94,50l.54.54.33-.35a.58.58,0,0,0,.1-.12.11.11,0,0,0,0-.08.13.13,0,0,0-.06-.1l0,0,0,0,.5.5,0,0,0,0-.1-.07h-.08l-.12.11-.73.76a.49.49,0,0,0-.11.13s0,0,0,.07,0,.08.07.1l0,0,0,0-.49-.5,0,0,0,0a.17.17,0,0,0,.14.07s.07,0,.15-.12l.34-.35-.53-.54-.34.36a.29.29,0,0,0-.1.13,0,0,0,0,0,0,.07.16.16,0,0,0,0,.1l0,0,0,0-.5-.5,0,0,0,0a.17.17,0,0,0,.14.07s.07,0,.15-.12l.74-.76a.4.4,0,0,0,.1-.13s0,0,0-.07a.14.14,0,0,0-.07-.1l0,0,0,0,.5.5,0,0,0,0a.18.18,0,0,0-.1-.07h-.07a.64.64,0,0,0-.13.1Z"/><path class="cls-1" d="M27.86,49l0,0-.42-.57,0,0,0,0a.26.26,0,0,0,.14.09.37.37,0,0,0,.16-.09l.84-.64.13-.11a.19.19,0,0,0,0-.08.15.15,0,0,0,0-.1l0,0,0,0,.42.58,0,0,0,0a.26.26,0,0,0-.13-.09.34.34,0,0,0-.17.09l-.84.64a.69.69,0,0,0-.12.11.11.11,0,0,0,0,.08.21.21,0,0,0,0,.1Z"/><path class="cls-1" d="M27.41,45.25l-.54.34.19.31a.63.63,0,0,0,.12.14.36.36,0,0,0,.21,0l0,0-.48.3,0,0a.44.44,0,0,0,.12-.11.36.36,0,0,0,0-.1A.24.24,0,0,0,27,46l-.19-.31-.46.29-.1.08a.07.07,0,0,0,0,.05.2.2,0,0,0,0,.09l.14.24a.68.68,0,0,0,.12.17.52.52,0,0,0,.13.06.74.74,0,0,0,.27,0l0,0-.42.1-.65-1.08,0,0,0,0a.15.15,0,0,0,.07.07.08.08,0,0,0,.08,0,.29.29,0,0,0,.14-.08l.9-.56c.09-.05.14-.1.14-.13s0-.09,0-.15l0,0,0,0,.65,1.09-.3.2,0,0a.38.38,0,0,0,.11-.14.15.15,0,0,0,0-.11.78.78,0,0,0-.08-.16Z"/><path class="cls-1" d="M25.77,43.4a.51.51,0,0,1,0,.28.4.4,0,0,1-.22.22.31.31,0,0,1-.25,0,.33.33,0,0,1-.22-.14,1.1,1.1,0,0,1-.2-.37l-.29-.72,0,0,0,.07c0,.06.06.1.11.11s.09,0,.18,0l1-.39a.51.51,0,0,0,.17-.1.14.14,0,0,0,0-.15l0-.07h0l.27.66a1.4,1.4,0,0,1,.09.31.54.54,0,0,1,0,.29.34.34,0,0,1-.22.2c-.15.07-.29,0-.43-.14Zm-.18-.62c0,.06,0,.14.07.22s.18.3.29.31a.29.29,0,0,0,.18,0,.28.28,0,0,0,.19-.24.71.71,0,0,0,0-.32.49.49,0,0,0-.1-.19l-.59.24Zm-.73.29a.77.77,0,0,0,.07.27.63.63,0,0,0,.19.25.31.31,0,0,0,.31,0,.31.31,0,0,0,.21-.33.66.66,0,0,0-.06-.29c0-.1-.06-.17-.09-.19Z"/><path class="cls-1" d="M32.64,53l-.52-.37-.24.16a.25.25,0,0,0-.12.09c0,.05,0,.11.1.19l0,0-.42-.3,0,0,.14,0a1.13,1.13,0,0,0,.26-.11l1.26-.78,0,0-.33,1.47a.64.64,0,0,0,0,.21.27.27,0,0,0,.1.18l0,0-.54-.38,0,0c.09.06.16.06.19,0a.53.53,0,0,0,.06-.16l0-.26Zm0-.1.15-.71-.62.38Z"/><path class="cls-1" d="M59.48,52l-.33.29-.93-.22-.08.07s0,0,0,0l.32.35a.32.32,0,0,0,.15.13.2.2,0,0,0,.14-.05l0,0,0,0-.54.47,0,0,.05,0s.08-.1.06-.15a.32.32,0,0,0-.1-.15l-.7-.8a.32.32,0,0,0-.15-.13.2.2,0,0,0-.14,0l-.05,0,0,0,.46-.39a2.13,2.13,0,0,1,.26-.21.48.48,0,0,1,.31-.06.36.36,0,0,1,.23.13.43.43,0,0,1,0,.58L59,52a1.76,1.76,0,0,0,.27,0,.51.51,0,0,0,.24-.09v0ZM58,52.17l0,0s0,0,0,0a.54.54,0,0,0,.19-.28.3.3,0,0,0-.07-.32.34.34,0,0,0-.25-.13.38.38,0,0,0-.25.1.92.92,0,0,0-.13.14Z"/><path class="cls-2" d="M194.91,33.77a.63.63,0,0,0-.58.19c-.26.36-.14,1-.59,1.57s-2.22,0-2.54-.59a8.53,8.53,0,0,1-.31-4.07c.12-.36.89-.82.89-1.2,0-.59-.78-.59-1.17-.59a1,1,0,0,0-.78.39,2.54,2.54,0,0,1-1.17.79c-.59.19-1-.48-1.76-.39a.72.72,0,0,0-.58.39c-.23.55.39,1.17.39,1.76a9.28,9.28,0,0,1-.42,2.42,1.94,1.94,0,0,1-.45.72c-.49.38-1.92,1-1.47,1.55.18.22.55.1,1,0a2.76,2.76,0,0,0,1.56-.77,6.75,6.75,0,0,0,.59-1.17,28.34,28.34,0,0,0,1-2.93c.07-.27.57-.42,1-.58s.19.19.19.39a28.87,28.87,0,0,0,.19,3.52c.2,1,1.58,2.11,2.54,2.55a3.12,3.12,0,0,0,2.34.39c.45-.18.93-.55,1-1a16.31,16.31,0,0,0-.58-3.13C195.07,33.77,195,33.77,194.91,33.77Z"/><path class="cls-2" d="M185.13,29.28c.4,0,.91.28,1.17,0s5.64-2.3,6.06-2.4c.77-.2,1.31-.17,1.56-.52.48-.68-.32-1.78-1-1.37a18,18,0,0,1-6.84,2.73c-.66.11-1,.09-1.18.28s-.18.36-.18.89A.44.44,0,0,0,185.13,29.28Z"/><path class="cls-2" d="M189.83,25.57a3.39,3.39,0,0,0,.78,0c.68-.2,2-2.3,1.17-2.73a1.39,1.39,0,0,0-.58-.2c-.39,0-1,.17-1.37.2s-.82-.16-1.17,0a2,2,0,0,0-.78.58.93.93,0,0,0-.22.84C187.87,24.92,188.08,25.4,189.83,25.57Z"/><path class="cls-2" d="M183.77,27.13c.15-.35-.1-.61-.19-.78-.53-1-1.81-.55-2.35-.19a3.59,3.59,0,0,0-.59.58c-.1.11-.25.48,0,.59a2.32,2.32,0,0,0,.59,0,3.35,3.35,0,0,1,.79,0c.42.1.23,1.37.09,1.65,0,0-.09.1-.28.1a2.54,2.54,0,0,1-.59-.19c-.48-.15-.55.09-1,.19-.06,0-.43.19-.39,0s0,0,0-.19c0-.59.38-2-.4-2.35-.18-.08-.47.23-.58.58a8.55,8.55,0,0,0,0,2.15A9.63,9.63,0,0,1,178.7,32a1,1,0,0,1-1.17.58c-.4,0-1.5-.69-1.76-.19s-.74,2.67.19,2.73c.35,0,1.44-.49,1.76-.19s-.51,1.19-.78,1.75c-.15.33-.06,1.52.18,1.56.88.14,1.19-2.7,2.16-3.69a6.85,6.85,0,0,1,2.15-1.17c.8,0,.56,2.24.46,2.67,0,.19-.06.42-.17.37s-.09-.46-.44-1.1c-.1-.17-.4-.31-.51-.14-.36.49-.09,1.32.46,2.31.42.76,1,2,1.56,1.57s.4-2.55.4-3.72c0-.58-.19-2.15-.19-2.54,0-.59.94-1,.78-1.76,0-.19-.39-.19-.58-.19s-.31,0-.42-.23a3.45,3.45,0,0,1,.37-1.33C183.38,28.71,183.67,27.39,183.77,27.13Zm-3.33,4.69h-.57V29.87h.38a4.26,4.26,0,0,1,.39,1.17A1.45,1.45,0,0,1,180.44,31.82Z"/><path class="cls-2" d="M183.58,21.65a4,4,0,0,0-2.54-.39c-1,.11-1.16,1.47-1.38,2.06-.39,1.07-1,1.39-.79,2.43.09.44,1-.8,1.38-1.17a2.68,2.68,0,0,1,1-.59c1.08-.16,2.73.4,2.73-1.56A.82.82,0,0,0,183.58,21.65Z"/><path class="cls-2" d="M170.09,23c-.6.17-1,.37-1.57.58a13.2,13.2,0,0,1-3.13.59c-.06-.12-.06-.26.4-.4.8-.24,0-1.75-.59-2.34a2.22,2.22,0,0,0-1.56-.58,9.82,9.82,0,0,0-1.53.34l-.93.14c-.43.09-1.58.75-1.26,1.27.14.24.37.23.59.4a10.13,10.13,0,0,1,1.55,1.62c.15.22.53.25.79.34.05,0,.15.08,0,.19-.32.21-3.68,1.76-3.91,1.17-.11-.28.12-.53.23-.81s-.21-.92-1-.57-2.54,2.55-2.54,3.53a2.25,2.25,0,0,0,.78,1.95,1.37,1.37,0,0,0,1.07.23,2.45,2.45,0,0,0,1.38-1.07,1.84,1.84,0,0,1,.48-.72,13.69,13.69,0,0,1,2.74-1.46c.62-.33,1.16-.73,1.77-1.07.38-.22.75-.33,1.14-.52a19.44,19.44,0,0,1,2.76-1.05c.19,0,.52.19.41.45a3.51,3.51,0,0,1-1.39,1.31c-.52.15-1.19,0-1.56.39-.64.74-.18,2.34-.78,3.13a21.25,21.25,0,0,1-2.35,2.29c-.15.13-.41.22-.78.46a.6.6,0,0,0-.19.59c.35,1.36.49,1,1.12,1.64.31.31.64.5.64.9,0,.19-.68.65-.68.65a6.22,6.22,0,0,1-1.47.53c-1.44.26-2.63.42-2.15,2.15.16.6.61.76,1.37.59a9.92,9.92,0,0,0,1.38-.59c.48-.21,2.62-1.54,8.8-2,.43,0,.62-1,.39-1.56a2.41,2.41,0,0,0-1.17-1c-.95-.43-3.55,1-4.3.79-.19,0,0-1.31.09-1.57s.54-.32.78-.44c.8-.43,1.47-.92,1.09-2.09-.15-.63-1.65,0-3,.42-.14,0-.31-.09-.17-.23l.46-.43a7.52,7.52,0,0,1,1.9-1.53c.58-.39,1.17-.58,1.37-1a1.17,1.17,0,0,0,.19-.77c0-.4-.44-.87-.19-1a15.67,15.67,0,0,1,2-.26c.39,0,1.37-.12,1.56-.12a1.68,1.68,0,0,0,1.76-1c.23-.55-.19-1-.78-1.57C171.65,23.61,170.86,22.8,170.09,23Z"/><path class="cls-2" d="M162.07,31c.27-.06.46-.34.59-.59a2.79,2.79,0,0,1,.39-.77,1.76,1.76,0,0,0,.4-.59.29.29,0,0,0-.19-.39c-.2,0-.79.36-1,.39a.56.56,0,0,1-.26,0c-.38-.09-.81-.35-1.12-.19-.48.27-.19,1.57.19,2A1.38,1.38,0,0,0,162.07,31Z"/><path class="cls-2" d="M135.59,26.14a12.26,12.26,0,0,1,1.84-.58,11,11,0,0,0,2.74-1,1.8,1.8,0,0,0,.39-1.57,1,1,0,0,0-.58-.77,9.33,9.33,0,0,0-1.37-.19,2.63,2.63,0,0,0-1-.19c-1.19.1-1.06,2.22-1.76,3.13-.34.43-1.56,1-1.56,1.37a1.89,1.89,0,0,0,.58,1.17,2.24,2.24,0,0,1,.4,1.17,11.79,11.79,0,0,1-.07,2.63c0,.19-.07.7-.13,1.08-.1.61-.91.94-1.53,1a4.11,4.11,0,0,0-1.3.19,1.52,1.52,0,0,0-.5.55c-.51.71-1,1.69-.19,2a1.87,1.87,0,0,0,1.17-.19c.4-.2.52-.36.9-.56.21-.11.28-.25.48-.22,1,.21-.6,2.92,1.17,3.72.29.12.75-2.27.92-3.31a1.6,1.6,0,0,1,.64-1,2.32,2.32,0,0,0,.78-.4,4.51,4.51,0,0,0,.77-1c.1-.16.19-.05.19,0s.18.77.19,1.17c0,.2.07,2-.19,2.15s-.6-1.24-.77-1.37c-.33-.24-.4.19-.4.39a2.14,2.14,0,0,0,.19,1,6.65,6.65,0,0,1,.59,1.57,4.08,4.08,0,0,0,.19,1.17c.25.36.76.76,1.17.39,1.13-1,.67-4,.67-5.43,0-.39.1-1.22.1-1.8a33.06,33.06,0,0,1,0-3.4c.14-1.18.36-2.48-.91-3a1.88,1.88,0,0,0-1.4-.12c-.27.12-.35.33-.55.52a4,4,0,0,0-.53.73,1.77,1.77,0,0,1-.58.68c-.14.07-.38-.5-.57-.7S135.26,26.44,135.59,26.14Zm1.07,3.53a2.72,2.72,0,0,1,.39-1c.23-.42.31-.67.79-.78s.85.78.94,1.16.1,1.33-.15,1.38c-.43.08-.84-.64-1-.77-.42-.42-.62,1-.58,1.37a.68.68,0,0,1-.19.59C136.46,31.23,136.56,30.28,136.66,29.67Z"/><path class="cls-2" d="M143.2,28.69a10.83,10.83,0,0,0,2.43-1.22c.42-.23.52-.45.8-.53a5.14,5.14,0,0,1,1.75,0,5.13,5.13,0,0,0,2.15-.58.68.68,0,0,0,.4-.78c-.26-.79-2.89.87-3.13.19,0-.15.39-.58.86-1.13s-.16-1.82-1.65-1.79a5.78,5.78,0,0,0-1.76.19c-.58.16-1.7.89-1.56,1.75.09.59,1.44.73,1.17,1.38-.15.39-.56.46-1,.58a7.53,7.53,0,0,0-.74.28c-.2.12-.82.5-.82,1.08,0,.4.08.74.39.79S142.88,28.76,143.2,28.69Z"/><path class="cls-2" d="M218.37,36.32a9.84,9.84,0,0,1-1.38-.4,36.31,36.31,0,0,1-3.52-1.37c-.76-.42-1.67-.9-2.34-1.37-1.81-1.24-3.14-2.53-2.8-3,.65-.85,1.9-.93,3-1.53.55-.29,1.56-1.13.59-1.56-1.2-.54-2.11-.09-3.13-.19-1.28-.14-1-.78-.78-1a3.55,3.55,0,0,1,1.17-.4c.6-.16,2.46-1.41,2-3.32a.92.92,0,0,0-.58-.58c-1-.43-2,.36-2.94.79a11.61,11.61,0,0,1-1.56.58c-.78.23-1.51.39-2.34.59a1.13,1.13,0,0,0-.59.39c-.7.91.64,1.35,1.17,1.76a3.66,3.66,0,0,1,1,2c0,1.56-2.89.4-3.32,1.75a1.51,1.51,0,0,0,.19,1.38c.31.3,2,.82,1.86,1.42-.28,1-2.27,2.46-3,2.68-.6.18-1.18.08-1.56.4a.8.8,0,0,0-.19,1c.19.39.78.39,1.17.39a6.74,6.74,0,0,0,4.1-1.37c.69-.7,1.12-1.6,1.76-2.35a.39.39,0,0,1,.58,0,5.4,5.4,0,0,1,.59.58,32.15,32.15,0,0,0,3.32,2.94,9,9,0,0,0,2.15,1.37,8.25,8.25,0,0,0,5.67-1,.44.44,0,0,0,.19-.19C218.84,36.53,218.56,36.36,218.37,36.32Z"/><path class="cls-2" d="M114.57,38.07c-.59,0-1-.7-1.57-.58s-.9,2.08-.83,2.52.26.73.45.8c1.35.42,1.55-.82,2-1.5.29-.47.51-.58.76-1.05C115.48,38,114.77,38.07,114.57,38.07Z"/><path class="cls-2" d="M124.14,34a2.34,2.34,0,0,0-.91.29.51.51,0,0,0-.26.48,11.63,11.63,0,0,0,2.15,3.13,1.34,1.34,0,0,0,1.38.19,3.08,3.08,0,0,0,1.17-2.15,1.41,1.41,0,0,0-.19-1C126.92,34,125.31,33.77,124.14,34Z"/><path class="cls-2" d="M124.14,30.06a11.81,11.81,0,0,0,1.17-1.14c.16-.17.39-.42.25-.6a1.44,1.44,0,0,1-.23-.42c-.11-.26-.78-.19-1.17-.19h-.79a9,9,0,0,0-1.38,0,22,22,0,0,0-2.74.85,18,18,0,0,1-2.89,1.11c-.83.08-.17,4.37.55,4.88s1.31-.15,1.75.39a4.66,4.66,0,0,1,.38,2.54.57.57,0,0,1-.38.4c-.46.21-1-.25-1.17-.19s-.2.14-.19.19c0,.46,1.37,1.76,1.56,2a2.1,2.1,0,0,1,.4.78c.09.21,1-.14,1.37-.4a2,2,0,0,0,.77-1.4c0-.19,0-.75,0-1a13.49,13.49,0,0,0-.19-4.3c-.07-.19,0-.16,0-.19s.44,0,.58,0,.46-.43.59-.59c.43-.49,0-1.2.39-1.75a3,3,0,0,1,.78-.59A3.27,3.27,0,0,0,124.14,30.06Zm-3.75.23a8.29,8.29,0,0,1-1.13.94c-.23.15-.79.62-1,.39-.6-.75.37-1.24,1-1.37a4.53,4.53,0,0,1,1.17-.19C120.59,30.17,120.43,30.26,120.39,30.29Z"/><path class="cls-2" d="M123.6,23.81c-.77,0-1.92.16-1.62-.2a1.41,1.41,0,0,0-.6-2.4,10.27,10.27,0,0,0-1.54-.07,4.31,4.31,0,0,0-1.38-.12,2.9,2.9,0,0,0-1.17.63c-1,1,.56,1.64,1.17,2a.35.35,0,0,1,.19.4.87.87,0,0,1-.56.82,22.63,22.63,0,0,1-3.93,1.33c-.84.17-2.1-.41-2.34.78a2.15,2.15,0,0,0,.39,1.57,1.31,1.31,0,0,0,1,.39c.59,0,.79-.76,1.17-1,.61-.35,2.3-.84,2.94-1.17a9.07,9.07,0,0,1,2-.79,32.47,32.47,0,0,1,4.88-.58,11.42,11.42,0,0,1,1.76,0,3.4,3.4,0,0,0,1.56,0c.4-.19.59-.39.59-.78C127.86,23.61,125.45,23.74,123.6,23.81Z"/><path class="cls-2" d="M230.11,31a1.29,1.29,0,0,1-.19-1.17c.1-.42,1.41-1.29,2.94-1.17.39,0,1.37-.43,1.17-1a10.41,10.41,0,0,0-.83-1.25c-.51-.71-1.72-.33-2.3.08-.17.11-1.47.8-1.38,0a3.13,3.13,0,0,1,.19-.78c.42-1,1.44-1.24.46-2.78-.39-.61-1-.54-1.44-.73a2.84,2.84,0,0,0-1.17-.39,1.89,1.89,0,0,0-1.17.58c-.76,1.07,0,1.78.4,2.74a3.87,3.87,0,0,1,0,2.54c-.4.59-3.46,1.17-4.3,1a1.87,1.87,0,0,0-1.17,0,1.21,1.21,0,0,0-.59,1.38,1.17,1.17,0,0,0,.19.39,2.47,2.47,0,0,0,1.38.79c1,.06,2.94,0,3.13,0a.63.63,0,0,1,.58.58c.15,1.58-1.83,3.06-2.94,3.32a10.39,10.39,0,0,0-1.75.4c-.41.16-1.13.93-.59,1.37a1.64,1.64,0,0,0,1.17.4,7,7,0,0,0,2.94-.4A6.86,6.86,0,0,0,227,34.21c.16-.36.58-1.31,1-1.38.61-.1,2.19,2.11,2.54,2.55s.92,1,1.38,1.56.84,1.27,1.37,1.37a18,18,0,0,0,2.94,0c.79,0,2,.39,2.34-.39a.57.57,0,0,0,0-.58,6.5,6.5,0,0,0-1.37-.78A33.69,33.69,0,0,1,230.11,31Z"/><path class="cls-2" d="M253,31.12a1.24,1.24,0,0,0-1,.11c-.7.39-2.67,1-2.73.39,0-.39,1.37-1.75,1.75-1.95s.73-.23,1-.59.39-.58.19-.79a2,2,0,0,0-2-.19c-.52.33-2.76,1.78-4.88,1.57-.19,0-.33.2-.4.39a.87.87,0,0,0,1.17,1,9.86,9.86,0,0,1,1.17-.59c.2-.05,1-.38,1-.19s-.38.74-.39.78c-.1.61.19,1.54-.59,1.75A10.28,10.28,0,0,1,245,33a11.42,11.42,0,0,0-1.17,0c-.45,0-.77.15-.78.58a1.2,1.2,0,0,0,.39.79c1.13,1,2.9-.34,4.5-.19a.61.61,0,0,1,.4.19,1.73,1.73,0,0,1,.19,1.17,1.69,1.69,0,0,1-.59,1.22,2.09,2.09,0,0,1-1.57.34c-.59-.07-1.21-.61-1.57,0a.49.49,0,0,0,0,.4,5.91,5.91,0,0,0,2.74,3.13.62.62,0,0,0,.39,0c1-.21,2.31-2.17,2.39-3.58.05-.89-.24-3.08.15-3.47a1.75,1.75,0,0,1,.72-.34,3.37,3.37,0,0,1,1-.24c1-.11,1.91.54,2-.59a1.26,1.26,0,0,0-.79-1.17Z"/><path class="cls-2" d="M105.76,33.77A13.55,13.55,0,0,0,104,34a4.49,4.49,0,0,1-2,0c-.33-.09-.39-.43-.39-.82a14,14,0,0,1,.19-2.55,5.76,5.76,0,0,1,.79-1.75,1.72,1.72,0,0,1,1-.4,6,6,0,0,0,2.73-.77,1.59,1.59,0,0,0,.4-1.76,2,2,0,0,0-2.34-.77c-.49.22-1.17,1-1.57.39-.58-1,1.76-1.56,1-3.13a2.26,2.26,0,0,0-1.56-1,2,2,0,0,0-1.76.59c-.84.93-.85,1.43-.62,2.83a6,6,0,0,1-.36,3.22,16.6,16.6,0,0,0-.19,3.13,19.38,19.38,0,0,0,.39,4.11c.27.65.74.85,1.38,1.17,1.13.57,4.44,1.05,5.47.58a1.55,1.55,0,0,0,.79-1.17,1.76,1.76,0,0,0-.4-1.37A2.06,2.06,0,0,0,105.76,33.77Z"/><path class="cls-2" d="M95,24.59c-1-.76-4.11-1.56-4.7.19-.39,1.17,1,2.15.19,3.52-.39,1-3.09.78-2.93,2.15.26,2.34,3.48.37,3,3.39a3.29,3.29,0,0,1-.86,1.7,13.77,13.77,0,0,1-2.53,1.81c-.61.1-.92-.36-1.76.15a1.22,1.22,0,0,0-.13,1.55c.25.46.25,1.1.51,1.38,1,1,2.54-.16,3.44-.86a19.25,19.25,0,0,0,1.63-1.36,8.42,8.42,0,0,1,1.39-1.29c.58-.4,1.21-.18,1.56-.79.22-.38,1-3.91,1.38-5.28.19-.78.91-3.13,1-3.72A2.86,2.86,0,0,0,95,24.59Z"/><path class="cls-2" d="M153.08,36.71c-.14-.57-.38-1.08-.59-1.75a5,5,0,0,0-.39-1.38c-.17-.23-.44-.53-.58-.39s-.12,2-.4,2.34-2.12-.31-2.48-.56a2.37,2.37,0,0,1-.74-.79,5.33,5.33,0,0,1-.3-2.76c.21-1,2.16-2.84.19-2.94a2.13,2.13,0,0,0-1.38.59,6.39,6.39,0,0,1-1.17.77,3.51,3.51,0,0,1-1.37.4c-.19,0-.3,0-.39,0-.37.23-.3.94-.4,1.37a18.65,18.65,0,0,1-.89,2.9c-.24.57-.43.85-.71,1.55a3.15,3.15,0,0,0-.36,1c-.05.4.16.56.59.59.61,0,1-.56,1.37-1.17a12.88,12.88,0,0,0,1-2.15c.49-1.28.22-2.7,1.38-3.13.1,0,.57.05.58.19s0,.79,0,1a11.13,11.13,0,0,0,.59,3.71c.3.75,2.68,2.34,3.71,2.55a2.38,2.38,0,0,0,1.17-.2c.36-.15.81.07,1.17-.19A1.59,1.59,0,0,0,153.08,36.71Z"/><path class="cls-2" d="M257.86,26.54a1.65,1.65,0,0,0-.19-1,2.16,2.16,0,0,0-2.15-.4,6.1,6.1,0,0,1-1.37.59c-.33,0-.93-.05-1-.29s.78-1.47,1-1.86.95-2.56,1.17-2.93c.35-.61,1.68-1.45,1-2.34-.17-.21-.64-.68-2.15-.58-.61,0-.7,1-1.38,1.17-.19,0-.61.2-.61.58,0,.19.42.4.61.59a1.76,1.76,0,0,1,0,1.37c-.44.55-2.44-.19-2.34.59s1.72,1.32,1.76,1.56c.1.65-1.55.31-1.76,1a.59.59,0,0,0,0,.4c.11.25.92.4.78,1-.1.42-1.6.61-1.76-.39a6.4,6.4,0,0,1,0-1c.11-.61,1.24-1.6.79-2.15-.18-.22-.39-.19-.58-.39a.46.46,0,0,1,0-.63c.39-.7.77-.39,1.22-.94a1.24,1.24,0,0,0-.19-1.56,3.47,3.47,0,0,0-1.38-.19c-1.37,0-.56,2.06-1.17,2.35a8.67,8.67,0,0,1-1.17.19c-.19,0-.25.45-.19.59a3.22,3.22,0,0,1,.19.58c.1.42-.4,1.27.4,1.37.19,0,.39-.19.58-.19h.4c.19,0-.11.35-.19.4s-.74,0-.84.16c-.32.56.12.84,0,1.2s-.68.72-.78,1-.06.44-.19.58c-.37.4-.39-.58-.39-.78s.19-2,.19-2.35v-1a2.65,2.65,0,0,1,.19-.79c.15-.36-.4-1-.78-1.17s-1.27,0-1.37.58c-.07.38.39.79.39,1.17s.19,1.76.19,2.15v2.15a.83.83,0,0,1-.39.59c-.26.1-.43,0-.54-.26a1.33,1.33,0,0,1-.05-.53c0-.79-.26-1.38-.19-2.15.1-1-.44-3-1.37-3.32-.19-.07-.48-.26-.59,0a1.26,1.26,0,0,0,0,.58,12.93,12.93,0,0,0,.69,2.1c.12.37.34,1.34.45,1.77a7.8,7.8,0,0,1,.12,1.81c0,.39.26.9.12,1a.34.34,0,0,1-.36,0c-.52-.26-.39-1.49-1-1.15-.92.49-2.5,4.31-.77,4.69.61.13,2.12-1.4,2.54-1.76a34.81,34.81,0,0,1,5.09-2.73c.25-.12.78,0,1.17-.19s.59-.59,1-.59.8.84,1.37,1c.86.21,5,.12,5.68-.39C257.89,27.16,257.86,26.74,257.86,26.54Z"/><path class="cls-2" d="M96.06,46.38h4a2.78,2.78,0,0,1,1.8.52,1.63,1.63,0,0,1,.63,1.31,1.59,1.59,0,0,1-.43,1.12,2.89,2.89,0,0,1-1.33.72,3.49,3.49,0,0,1,1.63.73,1.59,1.59,0,0,1,.55,1.25,1.68,1.68,0,0,1-.31,1,2.18,2.18,0,0,1-1,.75,4.07,4.07,0,0,1-1.64.31H96.06v-.39h.63a.73.73,0,0,0,.42-.09.28.28,0,0,0,.13-.22V47.22a.4.4,0,0,0-.13-.33.52.52,0,0,0-.38-.12h-.67Zm2.3,3.53h1.46a1.41,1.41,0,0,0,1.07-.39,1.78,1.78,0,0,0,.4-1.3,1.69,1.69,0,0,0-.19-.86,1.13,1.13,0,0,0-.55-.46,3.72,3.72,0,0,0-1.26-.14,1.93,1.93,0,0,0-.78.09.34.34,0,0,0-.15.32v2.74Zm0,.4v3a.36.36,0,0,0,.13.31.67.67,0,0,0,.44.11h.93a2,2,0,0,0,1.38-.41,1.73,1.73,0,0,0-1.29-3H98.36Z"/><path class="cls-2" d="M105.34,46.38h6.11l.14,2.59h-.34a3.28,3.28,0,0,0-.67-1.71,1.5,1.5,0,0,0-1.17-.5H107.9a.38.38,0,0,0-.28.1.46.46,0,0,0-.09.31v2.74h.66a1.09,1.09,0,0,0,.87-.38,1.87,1.87,0,0,0,.35-1.17h.36v3.58h-.36a2,2,0,0,0-.35-1.27,1.14,1.14,0,0,0-.92-.39h-.6v3.07a.29.29,0,0,0,.12.25.55.55,0,0,0,.37.09h1.19c1.3,0,2-.82,2.24-2.48h.37l-.13,2.88h-6.34v-.4h.52a.78.78,0,0,0,.43-.1.38.38,0,0,0,.13-.3V47.18a.35.35,0,0,0-.12-.3.48.48,0,0,0-.34-.11h-.64Z"/><path class="cls-2" d="M114.13,46.38h3.55v.39h-.61a.88.88,0,0,0-.51.1.66.66,0,0,0-.1.44v5.84a.66.66,0,0,0,.09.43.73.73,0,0,0,.46.11h.68v.4h-3.54v-.4h.67a.75.75,0,0,0,.46-.1.73.73,0,0,0,.1-.46V47.29c0-.21,0-.35-.09-.4a.88.88,0,0,0-.53-.12h-.61v-.39Z"/><path class="cls-2" d="M120,46.38h3.3v.39h-.61q-.33,0-.42.12a.86.86,0,0,0-.11.54v2.38h3.53V47.43a1,1,0,0,0-.09-.54.63.63,0,0,0-.43-.1h-.56v-.4h3.26v.4h-.59a.6.6,0,0,0-.32.06.36.36,0,0,0-.15.2,1.61,1.61,0,0,0,0,.46v5.55a1.27,1.27,0,0,0,.06.48.63.63,0,0,0,.5.18h.53v.39h-3.26v-.39h.56a.56.56,0,0,0,.45-.18,1.07,1.07,0,0,0,.07-.52V50.33h-3.53v2.73a1.12,1.12,0,0,0,.07.49.52.52,0,0,0,.44.18h.61v.4H120v-.4h.63a.49.49,0,0,0,.27-.06.37.37,0,0,0,.14-.19,2.71,2.71,0,0,0,0-.45V47.46a1,1,0,0,0-.1-.55.6.6,0,0,0-.42-.11H120v-.42Z"/><path class="cls-2" d="M133.48,46.21h.34l2.76,7a.69.69,0,0,0,.69.43h.24v.4h-3.08v-.4h.24a1.76,1.76,0,0,0,.68-.1.25.25,0,0,0,.14-.23.43.43,0,0,0,0-.19l-.64-1.64h-3.05l-.35.94a2,2,0,0,0-.14.6.5.5,0,0,0,.24.43,1,1,0,0,0,.68.18h.26v.39h-2.8v-.39a1.19,1.19,0,0,0,.71-.19,1.81,1.81,0,0,0,.49-.74Zm-.15,1.49-1.39,3.44h2.72Z"/><path class="cls-2" d="M139.28,46.38h1.84l4.65,6V48.05a1.37,1.37,0,0,0-.31-1,1.15,1.15,0,0,0-.83-.31v-.39h2.7v.39a1.26,1.26,0,0,0-.62.12.87.87,0,0,0-.36.41,1.5,1.5,0,0,0-.15.67v6.11h-.5l-4.81-6.3v4.65a1.26,1.26,0,0,0,.32.94,1.36,1.36,0,0,0,1,.32v.39h-2.94v-.39a1.23,1.23,0,0,0,.88-.36,1.16,1.16,0,0,0,.32-.84V47.27l-.09-.1c-.18-.19-.29-.31-.37-.33a.87.87,0,0,0-.39-.08h-.35v-.38Z"/><path class="cls-2" d="M154.92,47l.44-.78h.34l.19,3.08h-.34a5.35,5.35,0,0,0-.92-1.92,2,2,0,0,0-1.55-.75,2.07,2.07,0,0,0-1.21.38,2.44,2.44,0,0,0-.81,1.15,6.34,6.34,0,0,0-.28,2.13,6.22,6.22,0,0,0,.28,2.1,2.16,2.16,0,0,0,.79,1.11,1.94,1.94,0,0,0,1.17.36,1.87,1.87,0,0,0,1.41-.51,1.84,1.84,0,0,0,.49-1.33v-.72a.3.3,0,0,0-.12-.27.8.8,0,0,0-.44-.09h-.64v-.37H157v.37h-.44a.76.76,0,0,0-.42.1.38.38,0,0,0-.12.3v2.93h-.35c-.12-.45-.25-.9-.39-1.32a2.8,2.8,0,0,1-.93,1,2.36,2.36,0,0,1-1.22.32,3.5,3.5,0,0,1-1.81-.5A3.44,3.44,0,0,1,150,52.32a4.66,4.66,0,0,1,0-4.12,3.73,3.73,0,0,1,1.33-1.45,3.12,3.12,0,0,1,1.7-.54,2.49,2.49,0,0,1,.94.17A3.85,3.85,0,0,1,154.92,47Z"/><path class="cls-2" d="M163.26,46.38h3.56v.39h-.72a.65.65,0,0,0-.4.09.34.34,0,0,0-.12.29V51.5a3.39,3.39,0,0,0,.12,1,1.5,1.5,0,0,0,.65.82,2.6,2.6,0,0,0,2.83-.24,2,2,0,0,0,.55-1.46V48.12a3.8,3.8,0,0,0-.06-.71.76.76,0,0,0-.2-.38,1,1,0,0,0-.3-.21,2.76,2.76,0,0,0-.62-.06v-.39h2.91v.39h-.2a.89.89,0,0,0-.73.27,1.1,1.1,0,0,0-.24.76v3.79a2.51,2.51,0,0,1-.71,1.91,3,3,0,0,1-2.13.75,4.07,4.07,0,0,1-1.8-.33,2.13,2.13,0,0,1-1-.94,2.68,2.68,0,0,1-.23-1.17V47.14a.33.33,0,0,0-.12-.28.63.63,0,0,0-.37-.1h-.74v-.38Z"/><path class="cls-2" d="M173.49,46.38h1.85l4.64,6V48.05a1.37,1.37,0,0,0-.3-1,1.15,1.15,0,0,0-.83-.31v-.39h2.7v.39a1.3,1.3,0,0,0-.63.12.86.86,0,0,0-.35.41,1.38,1.38,0,0,0-.16.67v6.11h-.49l-4.81-6.3v4.65a1.22,1.22,0,0,0,.32.94,1.33,1.33,0,0,0,1,.32v.39h-2.94v-.39a1.24,1.24,0,0,0,.88-.36,1.2,1.2,0,0,0,.31-.84V47.27l-.08-.1a1.41,1.41,0,0,0-.37-.33.92.92,0,0,0-.4-.08h-.34v-.38Z"/><path class="cls-2" d="M183.54,46.38h3.55v.39h-.61a.88.88,0,0,0-.51.1.66.66,0,0,0-.1.44v5.84a.66.66,0,0,0,.09.43.73.73,0,0,0,.46.11h.68v.4h-3.54v-.4h.67a.75.75,0,0,0,.46-.1.73.73,0,0,0,.1-.46V47.29c0-.21,0-.35-.09-.4a.88.88,0,0,0-.53-.12h-.61v-.39Z"/><path class="cls-2" d="M188.83,46.38h3.25v.39h-.56a.83.83,0,0,0-.47.09.25.25,0,0,0-.13.23.87.87,0,0,0,.09.32l0,.11,2,5.17,1.8-4.94a1.18,1.18,0,0,0,.05-.35.6.6,0,0,0-.17-.46.69.69,0,0,0-.47-.17h-.52v-.39h2.85v.39h-.23a.77.77,0,0,0-.52.24,2.13,2.13,0,0,0-.47.82L193,54.28h-.38l-2.73-6.9a.88.88,0,0,0-.33-.47.83.83,0,0,0-.5-.12h-.26v-.41Z"/><path class="cls-2" d="M198.67,46.38h6.1l.14,2.59h-.34a3.37,3.37,0,0,0-.66-1.71,1.53,1.53,0,0,0-1.17-.5h-1.52a.41.41,0,0,0-.28.1.46.46,0,0,0-.09.31v2.74h.66a1.09,1.09,0,0,0,.87-.38,1.87,1.87,0,0,0,.36-1.17h.35v3.58h-.35a2,2,0,0,0-.36-1.27,1.14,1.14,0,0,0-.92-.39h-.59v3.07a.28.28,0,0,0,.11.25.55.55,0,0,0,.37.09h1.2c1.29,0,2-.82,2.23-2.48h.37L205,54.09h-6.35v-.4h.52a.78.78,0,0,0,.43-.1.38.38,0,0,0,.13-.3V47.18a.38.38,0,0,0-.11-.3.52.52,0,0,0-.35-.11h-.63v-.39Z"/><path class="cls-2" d="M207.34,46.38h4a2.75,2.75,0,0,1,1.79.52,1.74,1.74,0,0,1,.64,1.39,1.66,1.66,0,0,1-.25.9,1.76,1.76,0,0,1-.73.64,5.14,5.14,0,0,1-1.5.34,4,4,0,0,1,1,.39,1.36,1.36,0,0,1,.44.51,6.21,6.21,0,0,1,.4,1.26,2.71,2.71,0,0,0,.33.93.37.37,0,0,0,.29.19c.1,0,.2-.08.31-.24a1.86,1.86,0,0,0,.16-.84h.36c-.07,1.18-.5,1.77-1.31,1.77a1.19,1.19,0,0,1-.66-.19,1.11,1.11,0,0,1-.42-.58,7.3,7.3,0,0,1-.25-1.47,2.93,2.93,0,0,0-.24-1,1.17,1.17,0,0,0-.53-.47,1.9,1.9,0,0,0-.87-.18h-.63v3a.35.35,0,0,0,.1.27.7.7,0,0,0,.39.1h.74v.39h-3.57v-.39h.75a.63.63,0,0,0,.37-.1.37.37,0,0,0,.11-.27V47.14a.37.37,0,0,0-.11-.29.63.63,0,0,0-.37-.1h-.75v-.37Zm2.34,3.55h.92a2.54,2.54,0,0,0,1.43-.35,1.34,1.34,0,0,0,.53-1.23,2.06,2.06,0,0,0-.2-1,1,1,0,0,0-.5-.48,3.83,3.83,0,0,0-1.25-.13,1.88,1.88,0,0,0-.76.09.29.29,0,0,0-.14.29v2.78Z"/><path class="cls-2" d="M221.09,47l.47-.67h.38l0,2.81h-.35a3.73,3.73,0,0,0-1-1.88,2,2,0,0,0-1.46-.6,1.56,1.56,0,0,0-1.12.41,1.33,1.33,0,0,0-.43,1,1.28,1.28,0,0,0,.16.65,1.31,1.31,0,0,0,.5.46,5.58,5.58,0,0,0,1.24.37,7.42,7.42,0,0,1,1.81.57,2,2,0,0,1,.78.73,2.07,2.07,0,0,1,.25,1,2.31,2.31,0,0,1-.7,1.73,2.47,2.47,0,0,1-1.81.69,3,3,0,0,1-2.07-.78l-.58.73h-.39v-3h.39a3.31,3.31,0,0,0,1,1.95,2.45,2.45,0,0,0,1.71.71,1.76,1.76,0,0,0,1.26-.46,1.45,1.45,0,0,0,.49-1.11,1.32,1.32,0,0,0-.18-.65,1.46,1.46,0,0,0-.58-.47,8.65,8.65,0,0,0-1.56-.45,4.94,4.94,0,0,1-1.74-.68,1.83,1.83,0,0,1-.65-1.5,2.26,2.26,0,0,1,.65-1.66,2.22,2.22,0,0,1,1.65-.65,2.64,2.64,0,0,1,.93.17A3.32,3.32,0,0,1,221.09,47Z"/><path class="cls-2" d="M224.66,46.38h3.55v.39h-.61a.9.9,0,0,0-.51.1.66.66,0,0,0-.1.44v5.84a.66.66,0,0,0,.09.43.73.73,0,0,0,.46.11h.69v.4h-3.55v-.4h.67a.44.44,0,0,0,.56-.56V47.29c0-.21,0-.35-.09-.4a.88.88,0,0,0-.53-.12h-.61v-.39Z"/><path class="cls-2" d="M230.48,46.38h6.25l.16,2.91h-.36c-.24-1.72-.85-2.57-1.86-2.57a.72.72,0,0,0-.42.1.47.47,0,0,0-.11.35v6.15a.35.35,0,0,0,.11.28.53.53,0,0,0,.36.09h.78v.4h-3.58v-.4h.89a.33.33,0,0,0,.27-.09.32.32,0,0,0,.09-.23V47.13a.41.41,0,0,0-.12-.31.54.54,0,0,0-.38-.1,1.49,1.49,0,0,0-1.26.71,4.23,4.23,0,0,0-.59,1.86h-.39Z"/><path class="cls-2" d="M238.45,46.38h3.37v.39h-.37a1.56,1.56,0,0,0-.61.08.22.22,0,0,0-.14.2.38.38,0,0,0,.08.24l2,3,1.41-2.59a.78.78,0,0,0,.09-.37.54.54,0,0,0-.18-.43.76.76,0,0,0-.51-.17h-.35v-.39h2.93v.39a1.55,1.55,0,0,0-.78.18,1.65,1.65,0,0,0-.56.66L243,50.87v2.44a.32.32,0,0,0,.11.28.7.7,0,0,0,.44.12h.67v.39h-3.54v-.39h.7a.65.65,0,0,0,.41-.11.31.31,0,0,0,.12-.28V51l-2.39-3.73a.83.83,0,0,0-.37-.33,1.84,1.84,0,0,0-.7-.1v-.42Z"/></svg>