<svg id="图层_1" data-name="图层 1" xmlns="http://www.w3.org/2000/svg" viewBox="0 0 278 72"><defs><style>.cls-1{fill:#004da0;}</style></defs><title>logo合集</title><path class="cls-1" d="M33.19,47.54l-.28-.42a.61.61,0,0,0-.27-.25.31.31,0,0,0-.26.05.28.28,0,0,0-.14.21.56.56,0,0,0,.13.35l.28.42Zm-1,.69-.24-.36a.53.53,0,0,0-.24-.22.27.27,0,0,0-.24.05.28.28,0,0,0-.14.2.5.5,0,0,0,.11.3l.24.37Zm-.5,1.53-1-1.55a1,1,0,0,1-.2-.72.77.77,0,0,1,.34-.52.75.75,0,0,1,.5-.12.94.94,0,0,1,.37.17.91.91,0,0,1,0-.58.76.76,0,0,1,.33-.41.93.93,0,0,1,.44-.15.85.85,0,0,1,.44.09,1.06,1.06,0,0,1,.29.26,4,4,0,0,1,.28.34L34.31,48Z"/><polygon class="cls-1" points="29.29 45.86 28.3 43.41 28.93 43.15 29.55 44.69 30.02 44.5 29.45 43.07 30.05 42.83 30.63 44.25 31.21 44.01 30.57 42.43 31.24 42.16 32.26 44.66 29.29 45.86"/><rect class="cls-1" x="27.72" y="40.56" width="3.2" height="0.99" transform="translate(-8.83 8.04) rotate(-13.59)"/><path class="cls-1" d="M27.21,38l-.09-1,1.73-.16a2.74,2.74,0,0,1,.84,0,1,1,0,0,1,.52.34,1.36,1.36,0,0,1,.27.73,1.73,1.73,0,0,1-.06.76,1,1,0,0,1-.35.45,1.48,1.48,0,0,1-.6.23l-.22-.93a1.2,1.2,0,0,0,.31-.07.34.34,0,0,0,.16-.13.26.26,0,0,0,0-.16.3.3,0,0,0-.14-.24.87.87,0,0,0-.42,0Z"/><rect class="cls-1" x="28.26" y="33.43" width="0.99" height="3.2" transform="translate(-7.73 61.91) rotate(-86.99)"/><polygon class="cls-1" points="27.33 32.76 27.53 31.86 29.52 31.07 27.79 30.69 27.99 29.78 31.11 30.47 30.91 31.38 28.94 32.17 30.66 32.55 30.45 33.45 27.33 32.76"/><path class="cls-1" d="M31.09,27.46l-.6-.27.63-1.39,1.24.57a3,3,0,0,1,0,.87,2.65,2.65,0,0,1-.24.78,2,2,0,0,1-.56.76,1.34,1.34,0,0,1-.76.26,1.89,1.89,0,0,1-.88-.19,1.75,1.75,0,0,1-.74-.58,1.44,1.44,0,0,1-.27-.82,2,2,0,0,1,.23-.86,2.45,2.45,0,0,1,.41-.68,1.14,1.14,0,0,1,.46-.27,1.35,1.35,0,0,1,.57,0l-.24.94a.49.49,0,0,0-.34.06.71.71,0,0,0-.24.29.65.65,0,0,0,0,.56,1.17,1.17,0,0,0,.57.48,1.14,1.14,0,0,0,.76.13.7.7,0,0,0,.43-.4,1.58,1.58,0,0,0,.09-.31,1.67,1.67,0,0,0,0-.38l-.27-.13Z"/><polygon class="cls-1" points="32.1 21.91 32.72 21.23 34.84 21.55 33.54 20.35 34.17 19.66 36.52 21.83 35.89 22.52 33.79 22.2 35.08 23.39 34.45 24.08 32.1 21.91"/><path class="cls-1" d="M37.16,19.3a1,1,0,0,0,.54.46.61.61,0,0,0,.52-.1.64.64,0,0,0,.29-.46,1.2,1.2,0,0,0-.28-.71,1,1,0,0,0-.53-.43.59.59,0,0,0-.52.11.58.58,0,0,0-.28.45,1.08,1.08,0,0,0,.26.68m-.82.56A1.66,1.66,0,0,1,36,18.61a1.59,1.59,0,0,1,.75-1.05A1.64,1.64,0,0,1,38,17.2a1.62,1.62,0,0,1,1,.74,2,2,0,0,1,.38.86,1.37,1.37,0,0,1-.13.77,1.74,1.74,0,0,1-.61.67,2.2,2.2,0,0,1-.84.38,1.34,1.34,0,0,1-.78-.12,1.86,1.86,0,0,1-.72-.64"/><path class="cls-1" d="M41,16.67l.38-.17a.8.8,0,0,0,.22-.14.23.23,0,0,0,.11-.15.34.34,0,0,0,0-.2.31.31,0,0,0-.19-.18.64.64,0,0,0-.37.07l-.4.17Zm-.18,2.14-1.24-2.95,1.51-.64a2.22,2.22,0,0,1,.68-.2.7.7,0,0,1,.47.11.85.85,0,0,1,.34.42,1,1,0,0,1,.08.47.92.92,0,0,1-.17.41,1.34,1.34,0,0,1-.27.25.8.8,0,0,1,.28,0,1,1,0,0,1,.22.09l.2.13.8.67-1,.43-.86-.69a.92.92,0,0,0-.27-.16.44.44,0,0,0-.25,0l-.08,0,.51,1.2Z"/><polygon class="cls-1" points="43.91 14.21 45.19 13.97 46.04 15.79 46.18 13.79 47.45 13.55 48.03 16.7 47.24 16.85 46.8 14.45 46.62 16.96 45.9 17.09 44.85 14.81 45.29 17.21 44.49 17.35 43.91 14.21"/><path class="cls-1" d="M50.93,15.52l-.31-1.17-.39,1.14Zm.18.7-1.13,0-.17.52-1,0,1.33-3.15,1.07.05,1.08,3.24-1,0Z"/><polygon class="cls-1" points="53.76 13.84 54.73 14.06 54.18 16.41 55.68 16.76 55.5 17.53 53.03 16.95 53.76 13.84"/><path class="cls-1" d="M61.56,16.83l.85.49L61.46,19a1.78,1.78,0,0,1-.35.42,1,1,0,0,1-.46.24,1,1,0,0,1-.47,0,1.81,1.81,0,0,1-.66-.25c-.13-.08-.27-.17-.42-.28a1.39,1.39,0,0,1-.34-.35,1.19,1.19,0,0,1-.15-.4,1,1,0,0,1,0-.43,1.76,1.76,0,0,1,.19-.51l1-1.66.85.5-1,1.69a.62.62,0,0,0-.08.43.59.59,0,0,0,.28.33.54.54,0,0,0,.42.07.59.59,0,0,0,.33-.28Z"/><polygon class="cls-1" points="63.86 18.38 64.55 19 64.25 21.12 65.44 19.81 66.13 20.44 63.98 22.81 63.29 22.18 63.58 20.07 62.4 21.37 61.71 20.75 63.86 18.38"/><rect class="cls-1" x="64.66" y="22.6" width="3.2" height="0.99" transform="translate(-0.06 46.01) rotate(-38.28)"/><polygon class="cls-1" points="68.65 23.57 69.16 24.47 67.5 26.22 69.85 25.71 70.34 26.59 66.97 27.12 66.45 26.18 68.65 23.57"/><polygon class="cls-1" points="70.86 27.89 71.69 30.4 71.04 30.61 70.52 29.04 70.03 29.2 70.52 30.66 69.9 30.86 69.42 29.4 68.82 29.6 69.35 31.22 68.66 31.45 67.82 28.88 70.86 27.89"/><path class="cls-1" d="M70.88,33.18l.05.42a2,2,0,0,0,.08.25.29.29,0,0,0,.12.15.41.41,0,0,0,.19,0,.31.31,0,0,0,.22-.13.59.59,0,0,0,0-.38l0-.43Zm-2-.75L72.05,32l.2,1.64a2.36,2.36,0,0,1,0,.7.76.76,0,0,1-.25.42.79.79,0,0,1-.49.21.89.89,0,0,1-.47,0,.8.8,0,0,1-.35-.28,1,1,0,0,1-.17-.33.79.79,0,0,1-.08.27l-.15.18-.18.16-.87.59-.13-1.11L70,33.8a.74.74,0,0,0,.22-.21.43.43,0,0,0,0-.25v-.09L69,33.41Z"/><path class="cls-1" d="M70.29,36.23v.94a.73.73,0,0,0-.36.1.52.52,0,0,0-.22.42.48.48,0,0,0,.07.33.29.29,0,0,0,.22.13.27.27,0,0,0,.23-.09,1.3,1.3,0,0,0,.23-.49,2.21,2.21,0,0,1,.45-.89.81.81,0,0,1,.64-.24.93.93,0,0,1,.45.18,1,1,0,0,1,.32.46,2.07,2.07,0,0,1,.06.79,1.62,1.62,0,0,1-.3.92,1,1,0,0,1-.75.32l0-.93a.5.5,0,0,0,.32-.13.52.52,0,0,0,.12-.32.44.44,0,0,0,0-.27.23.23,0,0,0-.17-.1.2.2,0,0,0-.14.06.85.85,0,0,0-.15.33,3.89,3.89,0,0,1-.35.9,1,1,0,0,1-.38.38.8.8,0,0,1-.48.09,1,1,0,0,1-.56-.21,1.11,1.11,0,0,1-.35-.5,1.9,1.9,0,0,1-.08-.78,1.62,1.62,0,0,1,.4-1.11,1.24,1.24,0,0,1,.82-.29"/><rect class="cls-1" x="69.75" y="39.25" width="0.99" height="3.2" transform="translate(14.63 100.1) rotate(-76.99)"/><polygon class="cls-1" points="71.34 43.07 70.23 45.86 69.5 45.57 69.87 44.63 67.63 43.74 68 42.82 70.24 43.71 70.61 42.78 71.34 43.07"/><polygon class="cls-1" points="69.7 46.94 69.11 47.86 67.85 47.82 68.41 48.95 67.82 49.87 66.93 47.81 65.8 47.09 66.34 46.25 67.47 46.98 69.7 46.94"/><path class="cls-1" d="M49.66,17.9a18,18,0,1,0,18,18,18,18,0,0,0-18-18m17.15,18A17.16,17.16,0,1,1,49.66,18.75,17.17,17.17,0,0,1,66.81,35.9"/><path class="cls-1" d="M49.83,11a25,25,0,1,0,25,25,25,25,0,0,0-25-25M73.57,36A23.74,23.74,0,1,1,49.83,12.27,23.76,23.76,0,0,1,73.57,36"/><path class="cls-1" d="M44.71,57.91l-.45-.07c.14-.84.29-1.69.44-2.53a1.65,1.65,0,0,1-.44.2,2.79,2.79,0,0,1-.48.12c0-.13,0-.25.08-.38a2.23,2.23,0,0,0,.67-.26,1.53,1.53,0,0,0,.44-.37l.26,0c-.18,1.09-.35,2.17-.52,3.25"/><path class="cls-1" d="M48.39,56.07a.77.77,0,0,0-.17-.56.62.62,0,0,0-.44-.23.65.65,0,0,0-.5.19A.81.81,0,0,0,47,56a.65.65,0,0,0,.16.53.69.69,0,0,0,.48.23.67.67,0,0,0,.5-.17.74.74,0,0,0,.22-.53m-1.87,1.31h.42a.6.6,0,0,0,.18.41.62.62,0,0,0,.39.15.74.74,0,0,0,.37-.06.73.73,0,0,0,.27-.22,1.16,1.16,0,0,0,.18-.37,1.67,1.67,0,0,0,.08-.49v-.08A.91.91,0,0,1,48,57a.94.94,0,0,1-.5.1,1,1,0,0,1-.72-.36,1,1,0,0,1-.22-.8,1.08,1.08,0,0,1,.38-.77,1.06,1.06,0,0,1,.77-.25,1.14,1.14,0,0,1,.58.21,1.15,1.15,0,0,1,.39.5,2.52,2.52,0,0,1,.13.93,2.57,2.57,0,0,1-.18,1,1.13,1.13,0,0,1-.47.56,1.23,1.23,0,0,1-.72.15,1.08,1.08,0,0,1-.69-.27.87.87,0,0,1-.27-.63"/><path class="cls-1" d="M50.19,56.66a1.87,1.87,0,0,0,.24,1.07A.66.66,0,0,0,51,58a.69.69,0,0,0,.51-.3,1.88,1.88,0,0,0,.12-1.09,2,2,0,0,0-.27-1.06.61.61,0,0,0-.5-.23.52.52,0,0,0-.44.25,2.06,2.06,0,0,0-.19,1.11m-.44,0a3.41,3.41,0,0,1,.11-.94,1.15,1.15,0,0,1,.36-.55,1,1,0,0,1,.59-.22,1,1,0,0,1,.47.08,1,1,0,0,1,.36.28,1.73,1.73,0,0,1,.25.47,3.08,3.08,0,0,1,.15.76,2.72,2.72,0,0,1,0,.94,1.1,1.1,0,0,1-.35.58,1.14,1.14,0,0,1-.66.24,1.07,1.07,0,0,1-.85-.31,2,2,0,0,1-.38-1.33"/><path class="cls-1" d="M55.44,57.29c0,.12.06.25.08.38-.8.16-1.61.3-2.42.4a.71.71,0,0,1,0-.29,1.9,1.9,0,0,1,.24-.47,5.32,5.32,0,0,1,.5-.57,4,4,0,0,0,.65-.82.78.78,0,0,0,.11-.51.5.5,0,0,0-.25-.36.61.61,0,0,0-.48-.08.69.69,0,0,0-.45.24.66.66,0,0,0-.11.51h-.43a1,1,0,0,1,.23-.74,1.21,1.21,0,0,1,.71-.36,1.11,1.11,0,0,1,.8.13.85.85,0,0,1,.4.57.9.9,0,0,1,0,.4,1.45,1.45,0,0,1-.2.45,7.09,7.09,0,0,1-.56.69l-.45.48a2.36,2.36,0,0,0-.15.25c.59-.09,1.18-.19,1.77-.31"/><path class="cls-1" d="M52.43,32.79h0m.71-1-.68.12c-.18,0-.21.14-.21.19v.36a.25.25,0,0,0,.07.21.17.17,0,0,0,.12,0l.57-.13c.14-.05.17-.13.16-.18v-.2a.14.14,0,0,0-.05-.11.2.2,0,0,0-.14,0l-.42.08a.06.06,0,0,0-.05.06v.2l0,0a.07.07,0,0,0,.06,0l.27-.07s0,0,0-.07a.06.06,0,0,0-.07,0l-.2.05v-.07l.38-.07a0,0,0,0,1,0,0v.22s0,0-.07.06l-.58.12s0,0,0-.1v-.36s0-.06.11-.07l.69-.13s0,0,.06,0a.16.16,0,0,1,0,.11v.49h0s0,.07-.12.1l-.72.17a.17.17,0,0,0-.12,0,.15.15,0,0,0,0,.15v.59a.17.17,0,0,0,0,.14.21.21,0,0,0,.18,0l.72-.17a.19.19,0,0,0,.18-.19V33a.17.17,0,0,0-.06-.11.25.25,0,0,0-.2,0l-.51.14a.17.17,0,0,0-.15.17v.19a.15.15,0,0,0,.07.11.19.19,0,0,0,.15,0l.38-.1a.06.06,0,0,0,0-.06l0-.18a.08.08,0,0,0,0-.05h0l-.18,0a.07.07,0,0,0,0,.08.06.06,0,0,0,.08,0l.1,0v.06l-.32.08c-.06,0-.08,0-.08,0v-.18s0,0,.06,0l.51-.14a.11.11,0,0,1,.09,0s0,0,0,0v.38c0,.07-.06.08-.08.09l-.73.16a.08.08,0,0,1-.07,0,.1.1,0,0,1,0,0V33s0,0,0-.06,0,0,0,0h0l.73-.17c.24-.08.21-.23.21-.24V32a.25.25,0,0,0-.08-.2.16.16,0,0,0-.16,0"/><path class="cls-1" d="M53.76,32.48h0Zm.7-1-.67.12c-.18,0-.22.14-.21.2v.35a.23.23,0,0,0,.08.21.11.11,0,0,0,.11,0l.58-.12a.22.22,0,0,0,.16-.18v-.2a.15.15,0,0,0-.05-.12.14.14,0,0,0-.14,0l-.42.08a.05.05,0,0,0-.05.05v.2a.05.05,0,0,0,0,.05h0l.27-.07a.06.06,0,0,0,0-.08s0,0-.07,0L54,32v-.06l.38-.08h0v.22s0,0-.08.06l-.58.13s0,0,0-.11V31.8s0-.06.11-.07l.7-.12h0s0,.05,0,.11v.49h0s0,.07-.12.11l-.72.16a.18.18,0,0,0-.12,0,.24.24,0,0,0,0,.15v.6a.16.16,0,0,0,0,.13.21.21,0,0,0,.18,0l.72-.17a.2.2,0,0,0,.18-.2v-.39a.13.13,0,0,0-.06-.11.21.21,0,0,0-.2,0l-.5.13a.18.18,0,0,0-.16.18V33a.24.24,0,0,0,.07.11.2.2,0,0,0,.16,0l.38-.1a.06.06,0,0,0,0-.06v-.19l0,0a0,0,0,0,0,0,0l-.17,0a.05.05,0,0,0,0,.07s0,0,.07,0l.1,0s0,0,0,.06l-.33.09c-.06,0-.07,0-.08,0v-.17a.06.06,0,0,1,.06-.06l.51-.14a.2.2,0,0,1,.1,0,0,0,0,0,1,0,0v.38a.07.07,0,0,1-.08.08l-.72.17H53.7s0,0,0,0v-.6s0-.05,0-.06h.06l.74-.17c.23-.07.2-.23.2-.23v-.48a.26.26,0,0,0-.08-.21.2.2,0,0,0-.16,0"/><path class="cls-1" d="M55.78,31.07l-.68.22c-.22.06-.2.21-.2.21v.36a.2.2,0,0,0,.07.2.11.11,0,0,0,.12,0l.58-.21c.15-.08.15-.18.15-.19v-.2a.13.13,0,0,0-.05-.11.15.15,0,0,0-.15,0l-.41.14a.05.05,0,0,0,0,.06v.19a.08.08,0,0,0,0,.05h.06l.27-.11a.06.06,0,0,0,0-.12l-.19.08v-.06l.38-.13h0v.21s0,0-.08.08L55,32h0a.41.41,0,0,1,0-.09V31.5s0-.06.12-.1l.69-.22h.05a.16.16,0,0,1,0,.1v.49h0s0,.07-.12.13l-.73.26a.2.2,0,0,0-.11.06.21.21,0,0,0,0,.14h0V33h0a.17.17,0,0,0,.06.12s.1,0,.18,0l.72-.27a.22.22,0,0,0,.17-.22v-.38a.13.13,0,0,0-.06-.11.2.2,0,0,0-.2,0l-.51.21a.19.19,0,0,0-.14.18v.19a.12.12,0,0,0,.06.1.2.2,0,0,0,.17,0l.38-.15s0,0,0-.06v-.18a.09.09,0,0,0,0-.05h-.06l-.17.07a.06.06,0,1,0,.05.11l.1,0v.05l-.33.14h-.07v-.18a.07.07,0,0,1,.06-.07l.51-.21c.06,0,.09,0,.09,0a0,0,0,0,1,0,0v.38a.1.1,0,0,1-.08.1l-.73.27A.1.1,0,0,1,55,33a0,0,0,0,1,0,0v-.6c0-.07,0-.09.06-.09h0l.74-.27c.22-.11.19-.25.19-.26v-.48a.21.21,0,0,0-.08-.2.17.17,0,0,0-.16,0"/><path class="cls-1" d="M52.68,37.05h0Zm.71-1-.68.13c-.18,0-.21.14-.21.19v.36a.25.25,0,0,0,.07.21.17.17,0,0,0,.12,0l.57-.13c.14,0,.17-.14.16-.18v-.2a.14.14,0,0,0-.05-.11.2.2,0,0,0-.14,0l-.42.08a.06.06,0,0,0-.05.06v.19a.08.08,0,0,0,0,0,.07.07,0,0,0,.06,0l.27-.07a.06.06,0,0,0,0-.07s0-.05-.07-.05l-.2.06V36.5l.38-.07h0v.2s0,0-.07.07l-.58.12s0,0,0-.1v-.37s0,0,.11-.07l.69-.12s0,0,.06,0a.16.16,0,0,1,0,.11v.49h0s0,.07-.12.1l-.72.17a.17.17,0,0,0-.12,0,.15.15,0,0,0,0,.15v.59a.15.15,0,0,0,0,.13.21.21,0,0,0,.18,0l.72-.17a.19.19,0,0,0,.18-.19v-.39a.17.17,0,0,0-.06-.11.25.25,0,0,0-.2,0l-.51.14a.17.17,0,0,0-.15.17v.19a.15.15,0,0,0,.07.11.24.24,0,0,0,.15,0l.38-.1a.06.06,0,0,0,0-.06l0-.18a.08.08,0,0,0,0,0h0l-.18.05a.06.06,0,0,0,0,.08.07.07,0,0,0,.08,0l.1,0v.06l-.32.08c-.06,0-.08,0-.08,0v-.18s0,0,.06-.06l.51-.13a.11.11,0,0,1,.09,0l0,0v.38a.08.08,0,0,1-.08.08l-.73.17s-.06,0-.07,0a0,0,0,0,1,0,0v-.6s0-.05,0-.06,0,0,0,0h0l.74-.17c.23-.08.2-.23.2-.24v-.48a.26.26,0,0,0-.08-.21.25.25,0,0,0-.16,0"/><path class="cls-1" d="M54,36.76h0Zm.71-1-.68.12c-.18,0-.22.14-.21.2v.35a.24.24,0,0,0,.07.22.14.14,0,0,0,.11,0l.58-.13a.22.22,0,0,0,.16-.18v-.2a.13.13,0,0,0-.05-.11.19.19,0,0,0-.14,0l-.42.08a.06.06,0,0,0-.05.06v.19a.05.05,0,0,0,0,0,0,0,0,0,0,0,0l.27-.07a.08.08,0,0,0,0-.07.06.06,0,0,0-.08,0l-.2.05v-.07l.38-.07h0v.21s0,0-.08.06l-.58.12s0,0,0-.1v-.37s0,0,.11-.07l.69-.12a.08.08,0,0,1,0,0,.16.16,0,0,1,0,.11v.49h0s0,.07-.11.1l-.73.17a.14.14,0,0,0-.12,0,.21.21,0,0,0,0,.15v.59a.15.15,0,0,0,0,.13.21.21,0,0,0,.18,0l.72-.17a.18.18,0,0,0,.18-.19V37a.16.16,0,0,0-.06-.12.29.29,0,0,0-.2,0l-.5.14a.16.16,0,0,0-.15.17v.19a.17.17,0,0,0,.06.11.26.26,0,0,0,.16,0l.38-.1a0,0,0,0,0,0-.06V37.1a.05.05,0,0,0,0-.05h0l-.17.05a.06.06,0,0,0,0,.08.06.06,0,0,0,.07,0l.1,0a.13.13,0,0,1,0,.06l-.33.08c-.06,0-.07,0-.08,0v-.17s0,0,.06-.06l.51-.13c.06,0,.09,0,.1,0v.4a.07.07,0,0,1-.08.08l-.72.17s-.06,0-.08,0a0,0,0,0,1,0,0V37s0-.05,0-.06a.06.06,0,0,1,0,0s0,0,0,0l.74-.16c.23-.08.2-.23.2-.24V36a.26.26,0,0,0-.08-.21.22.22,0,0,0-.15,0"/><path class="cls-1" d="M56,35.36l-.68.21c-.22.07-.2.21-.2.22v.35c0,.11,0,.18.07.21a.13.13,0,0,0,.12,0l.58-.21c.15-.08.15-.18.15-.19v-.2a.11.11,0,0,0-.05-.11.13.13,0,0,0-.14,0l-.42.14s0,0,0,0V36a.08.08,0,0,0,0,0,.06.06,0,0,0,.06,0l.27-.11a.06.06,0,0,0,0-.07.07.07,0,0,0-.08,0l-.19.08v-.06l.38-.13h0V36s0,0-.08.08l-.58.21h0a.2.2,0,0,1,0-.08v-.38s0-.06.12-.09l.69-.22s0,0,.05,0a.16.16,0,0,1,0,.1v.49h0s0,.07-.12.12l-.73.27a.15.15,0,0,0-.11.06.19.19,0,0,0,0,.14h0v.59h0a.17.17,0,0,0,.06.12s.1,0,.18,0l.72-.27a.22.22,0,0,0,.17-.22v-.39a.11.11,0,0,0-.06-.1.2.2,0,0,0-.2,0l-.51.2a.2.2,0,0,0-.14.19V37a.14.14,0,0,0,.06.1.2.2,0,0,0,.17,0L56,37a.06.06,0,0,0,0-.07V36.7s0,0,0,0h-.05l-.18.08s0,0,0,.08a.06.06,0,0,0,.08,0l.1,0v.05l-.33.13s-.06,0-.06,0V36.8a.07.07,0,0,1,.06-.07l.51-.21a.16.16,0,0,1,.09,0v.4a.1.1,0,0,1-.08.1l-.73.27h-.07a0,0,0,0,1,0,0v-.6c0-.08,0-.09.06-.09h0l.74-.27c.22-.11.19-.26.19-.26v-.48c0-.1,0-.17-.08-.2a.17.17,0,0,0-.16,0"/><path class="cls-1" d="M47.06,32.79h0Zm-.87-1a.23.23,0,0,0-.08.2v.49s0,.15.2.23l.74.17h.06s0,0,0,0v.6a.11.11,0,0,1,0,0,.11.11,0,0,1-.08,0l-.71-.16s-.09,0-.09-.09V33a0,0,0,0,1,0,0,.15.15,0,0,1,.11,0l.49.13s.07,0,.07.07v.18a.07.07,0,0,1-.08,0l-.33-.08v-.06l.1,0s.07,0,.07,0a.06.06,0,0,0,0-.08l-.17,0h0a.08.08,0,0,0,0,.05l0,.18s0,.06,0,.06l.38.1a.21.21,0,0,0,.16,0s.06-.1.07-.1v-.19a.18.18,0,0,0-.17-.18l-.49-.14a.25.25,0,0,0-.2,0,.13.13,0,0,0-.06.11v.38a.21.21,0,0,0,.19.21l.71.16a.21.21,0,0,0,.18,0,.17.17,0,0,0,.05-.14V33a.21.21,0,0,0-.05-.15.18.18,0,0,0-.12,0l-.73-.17c-.11,0-.11-.08-.11-.1V32a.16.16,0,0,1,0-.11.08.08,0,0,1,.05,0L47,32c.09,0,.12,0,.12.06v.37c0,.09,0,.11,0,.11l-.6-.14c-.06,0-.07,0-.07,0v-.22s0,0,0,0l.39.07v.07l-.2-.05a.07.07,0,0,0-.08,0,.08.08,0,0,0,.05.07l.27.07a0,0,0,0,0,.05,0,.05.05,0,0,0,0,0v-.19a.06.06,0,0,0,0-.06l-.43-.08a.17.17,0,0,0-.13,0,.15.15,0,0,0,0,.12v.19a.22.22,0,0,0,.16.18l.59.13a.12.12,0,0,0,.1,0,.23.23,0,0,0,.08-.21v-.36s0-.16-.22-.19l-.68-.13a.2.2,0,0,0-.15,0"/><path class="cls-1" d="M45.73,32.52h0m-.87-1a.22.22,0,0,0-.08.2v.49s0,.15.19.23l.75.21h0a0,0,0,0,1,0,0s0,0,0,.06v.6a.06.06,0,0,1,0,0H45.7L45,33.15a.08.08,0,0,1-.09-.09v-.4s0,0,.1,0l.5.16a.07.07,0,0,1,.06.07v.18h0s0,0-.06,0l-.33-.1a.13.13,0,0,1,0-.06l.1,0a.05.05,0,0,0,.07,0,.05.05,0,0,0,0-.07l-.18-.06s0,0,0,0l0,0V33a.07.07,0,0,0,0,.07l.38.11a.21.21,0,0,0,.16,0,.15.15,0,0,0,.06-.1v-.19a.2.2,0,0,0-.16-.19l-.49-.16a.23.23,0,0,0-.21,0,.13.13,0,0,0-.06.1v.39a.21.21,0,0,0,.19.21l.7.21a.29.29,0,0,0,.19,0,.16.16,0,0,0,0-.13h0v-.59h0a.21.21,0,0,0,0-.14.24.24,0,0,0-.12,0l-.73-.2c-.11,0-.11-.1-.11-.11v-.5c0-.07,0-.1,0-.1h0l.7.17c.09,0,.12.06.12.07v.37c0,.09,0,.11,0,.11l-.6-.17c-.06,0-.07-.06-.07-.06v-.22h0l.39.1V32l-.2-.06a.06.06,0,0,0-.07,0,.06.06,0,0,0,0,.08l.28.08a0,0,0,0,0,0,0,.05.05,0,0,0,0,0v-.19a.06.06,0,0,0,0-.06l-.42-.1a.17.17,0,0,0-.14,0,.15.15,0,0,0,0,.12v.19s0,.12.15.18l.6.17a.12.12,0,0,0,.1,0c.05,0,.08-.1.07-.21v-.36s0-.15-.2-.2L45,31.49a.17.17,0,0,0-.15,0"/><path class="cls-1" d="M43.55,31.07a.22.22,0,0,0-.09.2v.49s0,.14.19.25l.75.27h0s.06,0,.06.09V33s0,0-.08,0l-.71-.26a.14.14,0,0,1-.1-.11v-.38s.05,0,.11,0l.5.21a.08.08,0,0,1,.07.08v.18h-.07l-.33-.14v-.05l.1,0a.07.07,0,0,0,.08,0,.06.06,0,0,0,0-.08l-.17-.07h0a.05.05,0,0,0,0,.05l0,.18a.08.08,0,0,0,0,.06l.38.15a.17.17,0,0,0,.16,0,.12.12,0,0,0,.07-.09v-.19a.21.21,0,0,0-.15-.2l-.49-.2a.23.23,0,0,0-.22,0,.18.18,0,0,0-.06.1v.39a.24.24,0,0,0,.19.22l.7.27a.2.2,0,0,0,.19,0A.15.15,0,0,0,44.6,33h0v-.59h0a.21.21,0,0,0-.05-.14.19.19,0,0,0-.11,0l-.74-.28c-.11-.05-.12-.1-.12-.12v-.5a.14.14,0,0,1,0-.1h0l.7.22c.12,0,.12.09.12.09v.37a.28.28,0,0,1,0,.1l-.6-.22c-.07,0-.07-.08-.07-.08v-.21h0l.39.13v.06L44,31.58a.06.06,0,0,0-.08,0,.06.06,0,0,0,0,.08l.27.11h.06a.08.08,0,0,0,0-.05v-.19a.05.05,0,0,0,0-.06l-.42-.14a.13.13,0,0,0-.14,0,.12.12,0,0,0-.06.11v.2a.22.22,0,0,0,.15.19l.59.22a.11.11,0,0,0,.11,0s.07-.1.07-.2V31.5s0-.15-.2-.21l-.69-.22a.17.17,0,0,0-.15,0"/><path class="cls-1" d="M46.73,37h0m-.87-.94a.22.22,0,0,0-.08.2v.48s0,.14.2.21l.74.17h.06a.07.07,0,0,1,0,0v.58a.06.06,0,0,1,0,0,.09.09,0,0,1-.08,0L46,37.66a.08.08,0,0,1-.09-.08V37.2h0s0,0,.11,0l.49.13s.07,0,.07.06v.17s0,0-.08,0l-.33-.08a.13.13,0,0,0,0-.06l.1,0s.07,0,.07,0a.07.07,0,0,0,0-.08l-.17,0s0,0,0,0l0,0v.18a.05.05,0,0,0,0,.06l.38.1a.2.2,0,0,0,.16,0,.15.15,0,0,0,.06-.1v-.18a.18.18,0,0,0-.17-.18L46,37.06a.24.24,0,0,0-.2,0,.13.13,0,0,0-.06.1v.38a.21.21,0,0,0,.19.2l.71.16a.21.21,0,0,0,.18,0,.15.15,0,0,0,0-.13v-.58a.21.21,0,0,0,0-.14.17.17,0,0,0-.12,0L46,36.85c-.11,0-.11-.09-.11-.09v-.49a.16.16,0,0,1,0-.11h0l.69.12a.15.15,0,0,1,.12.06v.36c0,.09,0,.1,0,.1l-.6-.13c-.06,0-.07-.05-.07-.05v-.21h0l.39.07v.06l-.2,0a.06.06,0,0,0-.08,0,.08.08,0,0,0,0,.07l.27.07h0a.05.05,0,0,0,0-.05v-.19a.06.06,0,0,0,0-.06l-.43-.08a.17.17,0,0,0-.13,0,.15.15,0,0,0,0,.12v.19a.2.2,0,0,0,.16.17l.59.13a.1.1,0,0,0,.1,0c.06,0,.08-.1.08-.2v-.35s0-.15-.22-.19L46,36a.2.2,0,0,0-.15,0"/><path class="cls-1" d="M45.44,36.79Zm-.87-1a.26.26,0,0,0-.08.21v.49s0,.14.19.23l.75.21h.06a.13.13,0,0,1,0,.06v.6a.06.06,0,0,1,0,0s0,0-.08,0l-.71-.2s-.09,0-.09-.09v-.41a.29.29,0,0,1,.1,0l.5.16s.06,0,.06.07v.18a0,0,0,0,1,0,0h-.06l-.33-.1s0,0,0-.06l.1,0a.06.06,0,0,0,.07,0,.06.06,0,0,0,0-.08L44.85,37H44.8l0,.05v.18a.05.05,0,0,0,0,.06l.38.12a.21.21,0,0,0,.16,0,.14.14,0,0,0,.06-.1v-.19a.18.18,0,0,0-.16-.18l-.49-.16c-.1,0-.16,0-.21,0a.13.13,0,0,0-.06.11v.39a.2.2,0,0,0,.19.2l.7.21a.2.2,0,0,0,.19,0,.15.15,0,0,0,0-.12h0V37h0a.18.18,0,0,0,0-.13.17.17,0,0,0-.12-.05l-.73-.21c-.11,0-.11-.09-.11-.1V36c0-.08,0-.1,0-.11h0l.7.16c.09,0,.12.06.12.08v.36c0,.09,0,.11,0,.11l-.6-.16a.12.12,0,0,1-.07-.07v-.22h0l.39.09v.07l-.2-.06s-.07,0-.07,0a0,0,0,0,0,0,.07l.28.09h0a.05.05,0,0,0,0,0v-.2a.05.05,0,0,0,0,0L44.89,36a.24.24,0,0,0-.14,0,.15.15,0,0,0,0,.12v.2s0,.11.15.18l.6.16a.09.09,0,0,0,.1,0c.05,0,.08-.1.07-.21v-.36s0-.15-.2-.19l-.69-.17a.22.22,0,0,0-.15,0"/><path class="cls-1" d="M43.3,35.33a.2.2,0,0,0-.09.2V36s0,.14.19.24l.75.28h0s.06,0,0,.08v.6s0,0,0,0a.13.13,0,0,1-.08,0L43.43,37a.11.11,0,0,1-.1-.1v-.39s0,0,.11,0l.5.21a.07.07,0,0,1,.07.07V37a.1.1,0,0,1-.07,0l-.33-.13v0l.1,0a.07.07,0,0,0,.08,0,.06.06,0,0,0,0-.08l-.17-.08h0a.05.05,0,0,0,0,0l0,.19a.08.08,0,0,0,0,.06l.38.15a.17.17,0,0,0,.16,0,.13.13,0,0,0,.07-.09v-.2a.21.21,0,0,0-.15-.19l-.5-.2a.22.22,0,0,0-.21,0,.15.15,0,0,0-.06.1v.39a.24.24,0,0,0,.19.22l.7.26a.18.18,0,0,0,.19,0,.17.17,0,0,0,.06-.12h0v-.59h0a.17.17,0,0,0-.06-.14.18.18,0,0,0-.1-.06l-.74-.27c-.11,0-.12-.11-.12-.12v-.5a.14.14,0,0,1,0-.1s0,0,0,0l.7.22c.12,0,.12.09.12.09v.37a.28.28,0,0,1,0,.1l-.6-.22c-.07,0-.07-.08-.07-.08v-.2h0l.39.13v.06l-.19-.08a.07.07,0,0,0-.08,0,.05.05,0,0,0,0,.07l.27.11a.06.06,0,0,0,.06,0,.08.08,0,0,0,0,0v-.2a.05.05,0,0,0,0,0l-.42-.14a.13.13,0,0,0-.14,0,.11.11,0,0,0-.06.11v.2s0,.11.14.19l.6.21s.06,0,.11,0,.07-.1.07-.21v-.36s0-.14-.2-.21l-.69-.22a.19.19,0,0,0-.15,0"/><path class="cls-1" d="M44.45,29.88a.14.14,0,0,1-.17.1.13.13,0,1,1,.17-.1m-.16-.4a.43.43,0,0,0-.51.3.46.46,0,1,0,.51-.3"/><path class="cls-1" d="M45.48,30.35a.13.13,0,0,1-.14-.13.14.14,0,0,1,.16-.12.14.14,0,0,1,.14.14.14.14,0,0,1-.16.11m0-.5a.39.39,0,1,0-.06.76.43.43,0,0,0,.48-.35.41.41,0,0,0-.42-.41"/><path class="cls-1" d="M46.81,30.59a.14.14,0,0,1-.17.1.14.14,0,0,1-.12-.15.15.15,0,0,1,.29.05m-.15-.4a.42.42,0,0,0-.51.29.42.42,0,0,0,.38.45.42.42,0,0,0,.51-.29.41.41,0,0,0-.38-.45"/><path class="cls-1" d="M55.21,30a.15.15,0,0,1-.17-.1.14.14,0,0,1,.13-.15.14.14,0,0,1,.17.1.14.14,0,0,1-.13.15m.49-.21a.41.41,0,0,0-.5-.29.41.41,0,0,0-.38.44.45.45,0,0,0,.88-.15"/><path class="cls-1" d="M54.05,30.39a.14.14,0,0,1-.16-.11.14.14,0,0,1,.14-.14.14.14,0,0,1,.16.11.14.14,0,0,1-.14.14m.51-.15a.43.43,0,0,0-.48-.35.41.41,0,0,0-.42.41.41.41,0,0,0,.47.34.42.42,0,0,0,.43-.4"/><path class="cls-1" d="M52.85,30.71a.14.14,0,0,1-.17-.1.13.13,0,0,1,.12-.15.14.14,0,0,1,.17.1.13.13,0,0,1-.12.15m.49-.21a.43.43,0,0,0-.51-.29.41.41,0,0,0-.38.45A.42.42,0,0,0,53,31a.42.42,0,0,0,.38-.45"/><path class="cls-1" d="M55.47,34.2a.15.15,0,0,1-.17-.1.16.16,0,0,1,.13-.16.16.16,0,0,1,.17.11c0,.07-.05.13-.13.15M56,34a.46.46,0,1,0-.38.45A.42.42,0,0,0,56,34"/><path class="cls-1" d="M54.24,34.62a.15.15,0,0,1-.16-.12.13.13,0,0,1,.14-.13.14.14,0,0,1,.16.11.14.14,0,0,1-.14.14m.51-.16a.43.43,0,0,0-.48-.34.41.41,0,0,0-.42.41.41.41,0,0,0,.47.34.43.43,0,0,0,.43-.41"/><path class="cls-1" d="M53,34.94a.14.14,0,0,1-.17-.1.14.14,0,0,1,.13-.15.14.14,0,0,1,.17.1.14.14,0,0,1-.13.15m.49-.21a.42.42,0,0,0-.51-.29.42.42,0,0,0-.38.45.43.43,0,0,0,.51.29.41.41,0,0,0,.38-.45"/><path class="cls-1" d="M55.75,38.32a.13.13,0,0,1-.16-.1.13.13,0,0,1,.12-.15.13.13,0,1,1,0,.25m.5-.2a.43.43,0,0,0-.51-.3.38.38,0,1,0,.12.74.42.42,0,0,0,.39-.44"/><path class="cls-1" d="M54.58,38.72a.15.15,0,0,1-.16-.12.15.15,0,0,1,.14-.14.15.15,0,0,1,.16.12.15.15,0,0,1-.14.14m.51-.16a.42.42,0,0,0-.48-.34.41.41,0,0,0-.42.41.42.42,0,0,0,.47.34.43.43,0,0,0,.43-.41"/><path class="cls-1" d="M53.38,39a.14.14,0,0,1-.17-.1.13.13,0,0,1,.12-.15c.09,0,.16,0,.17.1a.13.13,0,0,1-.12.15m.49-.2a.42.42,0,0,0-.51-.3.38.38,0,1,0,.13.74.42.42,0,0,0,.38-.44"/><path class="cls-1" d="M44.12,34.1a.14.14,0,0,1-.17.1.13.13,0,1,1,.17-.1M44,33.7a.41.41,0,0,0-.5.3.41.41,0,0,0,.38.44.42.42,0,0,0,.51-.29A.43.43,0,0,0,44,33.7"/><path class="cls-1" d="M45.19,34.64a.16.16,0,0,1-.14-.15.15.15,0,0,1,.3,0,.14.14,0,0,1-.16.11m0-.51a.42.42,0,0,0-.49.33.45.45,0,1,0,.49-.33"/><path class="cls-1" d="M46.65,34.84a.14.14,0,0,1-.17.1.13.13,0,1,1,0-.25c.08,0,.14.08.13.15m-.15-.4a.39.39,0,1,0-.13.75.43.43,0,0,0,.51-.3.44.44,0,0,0-.38-.45"/><path class="cls-1" d="M43.81,38.21a.14.14,0,0,1-.17.11c-.08,0-.14-.08-.12-.15a.14.14,0,0,1,.16-.11c.08,0,.14.08.13.15m-.15-.39a.41.41,0,0,0-.51.29.42.42,0,0,0,.38.45.38.38,0,1,0,.13-.74"/><path class="cls-1" d="M45,38.72a.13.13,0,0,1-.14-.13.15.15,0,0,1,.16-.12.15.15,0,0,1,.14.14.14.14,0,0,1-.16.11m0-.5a.39.39,0,1,0-.06.76.43.43,0,0,0,.48-.35.41.41,0,0,0-.42-.41"/><path class="cls-1" d="M46.35,38.92a.13.13,0,0,1-.16.1.14.14,0,0,1-.13-.15.14.14,0,0,1,.17-.1.13.13,0,0,1,.12.15m-.15-.4a.38.38,0,1,0-.12.74.38.38,0,1,0,.12-.74"/><path class="cls-1" d="M56.15,30.57a14.78,14.78,0,0,1-4.07,1.05.09.09,0,0,0-.08.09.11.11,0,0,0,.1.09,14.76,14.76,0,0,0,4-1c0,.22.13,1.92.13,2a15.5,15.5,0,0,1-4.1,1.06.09.09,0,0,0-.09.09h0a.11.11,0,0,0,.1.09A17.88,17.88,0,0,0,56.37,33l.06,0-.16-2.44Z"/><path class="cls-1" d="M43.36,30.57a15.19,15.19,0,0,0,4.09,1.07.08.08,0,0,1,.08.09.11.11,0,0,1-.1.09,15.25,15.25,0,0,1-4-1c0,.22-.13,1.92-.13,2a15.5,15.5,0,0,0,4.1,1.06.09.09,0,0,1,.09.09h0a.11.11,0,0,1-.1.09A17.88,17.88,0,0,1,43.14,33l-.06,0,.16-2.44Z"/><path class="cls-1" d="M56.45,34.82a14.86,14.86,0,0,1-4.35,1A.1.1,0,0,0,52,36a.11.11,0,0,0,.1.09,15.89,15.89,0,0,0,4.29-1c0,.23.13,1.93.13,2a14.11,14.11,0,0,1-4.18,1.06.09.09,0,0,0-.09.09h0a.1.1,0,0,0,.1.09,14.43,14.43,0,0,0,4.3-1.1l.06,0-.16-2.44Z"/><path class="cls-1" d="M43.07,34.82a14.82,14.82,0,0,0,4.34,1,.1.1,0,1,1,0,.19,15.74,15.74,0,0,1-4.29-1c0,.23-.13,1.93-.13,2a14,14,0,0,0,4.18,1.06.09.09,0,0,1,.09.09h0a.11.11,0,0,1-.1.09,14.65,14.65,0,0,1-4.31-1.1l-.05,0,.15-2.44Z"/><path class="cls-1" d="M48.49,33.79h-.31a.2.2,0,1,1,0-.4h.31a.2.2,0,0,1,0,.4m-.26-1.74h.34a.2.2,0,1,1,0,.4h-.34a.2.2,0,1,1,0-.4m0,1c-.25,0-.22-.17-.22-.17,0-.19.22-.19.22-.19l.78,0c.36-.08.28-.52.28-.52,0-.34-.18-.31-.35-.37a2,2,0,0,0-.65,0c-.27,0-.2-.24-.2-.24,0-.35-.28-.36-.28-.36-.28,0-.29.52-.29.52v2s0,.22,0,.37.22.2.34.21a.4.4,0,0,0,.2-.06h.45c.46,0,.55-.2.6-.35a0,0,0,0,0,0,0,1.83,1.83,0,0,0,0-.5c-.08-.42-.93-.27-.93-.27"/><path class="cls-1" d="M50,31.58l1.73,0s.31,0,.31.25c0,0-.05.32-.31.33l-.46,0s-.16,0-.16.19c0,0-.05.2.23.23,0,0,.72,0,.78.32a1,1,0,0,1,.08.84s-.22.55-.41,0l-.06-.35,0-.14a.35.35,0,0,0-.31-.18s-.26,0-.25.31l0,.59s-.11.36-.3.36c0,0-.31,0-.31-.46l0-.57s.06-.22-.28-.23c0,0-.33,0-.31.42l0,.27s-.06.26-.24.25c0,0-.25.06-.24-.38v-.57a.52.52,0,0,1,.46-.41H50s.37,0,.38-.3a.29.29,0,0,0-.32-.23h-.43s-.22,0-.21-.3c0,0,0-.27.39-.27Z"/><path class="cls-1" d="M48.23,35.4l.86,0s.29-.56.61-.57c0,0,.31,0,.56.57l1.24,0s.55,0,.59.4l.18.69a7.27,7.27,0,0,0,.5,1.74s.27.26.06.46c0,0-.28.27-.63-.35a5.79,5.79,0,0,1-.71-2.11s0-.36-.27-.35l-.77,0a10,10,0,0,1,.4,1.45,6.26,6.26,0,0,0,.25.73s.15.37-.13.52a.49.49,0,0,1-.52-.41l-.39-1.48-.18-.6s-.16-.39-.3-.07l-.15.61a6.31,6.31,0,0,1-.54,1.69s-.31.41-.51.26c0,0-.32-.14-.05-.62a4.22,4.22,0,0,0,.36-1.11l.18-1-.63,0s-.15-.12-.25.3l-.35,1.14-.31.86,0,.31a1.14,1.14,0,0,1-.15.14.43.43,0,0,1-.33.08c-.07,0-.18-.1-.19-.15a1.73,1.73,0,0,1,.05-.35s.14-.38.14-.38l.52-1.55.14-.57a.65.65,0,0,1,.41-.27l.24,0Z"/><path class="cls-1" d="M50,41.37a.07.07,0,0,0,0,.09,5,5,0,0,0,2.63,1.17s.06,0,.07-.05a.07.07,0,0,0-.06-.07A4.77,4.77,0,0,1,50,41.37a.06.06,0,0,0-.08,0"/><path class="cls-1" d="M49.18,40.41a.06.06,0,0,0,0,.08,3.36,3.36,0,0,0,.38.53.06.06,0,0,0,.09,0,.05.05,0,0,0,0-.08,2.63,2.63,0,0,1-.36-.52.05.05,0,0,0-.08,0"/><path class="cls-1" d="M49.76,41.56a.06.06,0,0,0,0,.09A5.13,5.13,0,0,0,52.64,43a.06.06,0,0,0,.06-.06.06.06,0,0,0-.05-.06,5,5,0,0,1-2.8-1.29.07.07,0,0,0-.09,0"/><path class="cls-1" d="M48.77,40.43a.07.07,0,0,0,0,.09,6.46,6.46,0,0,0,.58.7.05.05,0,0,0,.08,0,.06.06,0,0,0,0-.09,6.09,6.09,0,0,1-.57-.69s-.05,0-.08,0"/><path class="cls-1" d="M49.52,41.75a.05.05,0,0,0,0,.08,5.68,5.68,0,0,0,3.15,1.4.09.09,0,0,0,.07-.06.06.06,0,0,0-.06-.06,5.67,5.67,0,0,1-3.09-1.37.05.05,0,0,0-.08,0"/><path class="cls-1" d="M48.26,40.25a.05.05,0,0,0,0,.08,6.68,6.68,0,0,0,.86,1.1.06.06,0,0,0,.08-.08,7.57,7.57,0,0,1-.83-1.08.07.07,0,0,0-.09,0"/><path class="cls-1" d="M50.63,42.56a.82.82,0,0,0,0,.52,1.54,1.54,0,0,0,1.26.84.33.33,0,0,0,.4-.23.4.4,0,0,0-.1-.3.41.41,0,0,0-.29-.1s-.68,0-.69-.47a.06.06,0,0,0-.06-.06.06.06,0,0,0-.06.06c0,.53.78.58.81.59a.29.29,0,0,1,.21.07.27.27,0,0,1,.06.19s-.05.18-.27.13A1.44,1.44,0,0,1,50.77,43a.72.72,0,0,1,0-.45.08.08,0,0,0,0-.07s-.07,0-.07.05"/><path class="cls-1" d="M50.81,42.67s0,1,1.23,1a.05.05,0,0,0,.07-.05.07.07,0,0,0-.06-.07c-1.13,0-1.12-.84-1.12-.88a.06.06,0,0,0-.12,0"/><path class="cls-1" d="M53.88,41.68c.2.11.25.21.26.27a.12.12,0,0,1,0,.1.24.24,0,0,1-.15.09c-.26,0-.63-.29-.63-.29l-.11-.06c.42-.28.65-.12.66-.11m-2.1-.26a1.56,1.56,0,0,0-.92.58.05.05,0,0,0,0,.08.06.06,0,0,0,.08,0,1.39,1.39,0,0,1,.84-.53,2,2,0,0,1,1.46.41,1.27,1.27,0,0,0,.71.31.3.3,0,0,0,.23-.14.21.21,0,0,0,.06-.19c0-.12-.12-.24-.31-.35,0,0-.31-.23-.82.12a0,0,0,0,1,0,0,1.93,1.93,0,0,0-1.34-.31"/><path class="cls-1" d="M52.91,41.59a.05.05,0,0,0,0,.08.05.05,0,0,0,.08,0,.88.88,0,0,1,1.24,0,.54.54,0,0,1,.05.69s-.2.27-.72-.06c-.06,0-1.66-1.15-2.42-.15,0,0,0,.06,0,.08a.05.05,0,0,0,.08,0c.7-.91,2.25.17,2.26.18.63.4.88,0,.89,0a.67.67,0,0,0-.07-.85,1,1,0,0,0-1.4.05"/><path class="cls-1" d="M52.61,41.49a.07.07,0,0,0,0,.09.05.05,0,0,0,.08,0,1.21,1.21,0,0,1,1.79-.06.73.73,0,0,1-.09,1,.88.88,0,0,1-1.07-.14c-1.2-.89-1.93-.21-1.93-.21a.06.06,0,0,0,0,.09.06.06,0,0,0,.08,0s.67-.61,1.77.22c0,0,.65.56,1.22.13a.85.85,0,0,0,.11-1.21,1.33,1.33,0,0,0-2,.05"/><path class="cls-1" d="M53.09,40.34a.26.26,0,0,0-.18.12.4.4,0,0,0,0,.3.67.67,0,0,1,0,.51.06.06,0,0,0,0,.08.06.06,0,0,0,.08,0,.74.74,0,0,0,0-.61s0-.15,0-.21a.16.16,0,0,1,.09-.07.28.28,0,0,1,.21.06.79.79,0,0,1,.22.55.06.06,0,0,0,.06.06.07.07,0,0,0,.06-.07.87.87,0,0,0-.27-.64.34.34,0,0,0-.3-.07"/><path class="cls-1" d="M53.05,40.4a.08.08,0,0,0,0,.09,1.85,1.85,0,0,1,.21.68.08.08,0,0,0,.07,0s.06,0,0-.07a2,2,0,0,0-.23-.74.08.08,0,0,0-.09,0"/><path class="cls-1" d="M55.17,40.45c-.65.31-.51,1.35-.5,1.39s0,0,.07,0,0,0,0-.07-.13-1,.42-1.26c.07,0,.3-.05.37,0a.12.12,0,0,1,0,.1.41.41,0,0,1,0,.18,1.72,1.72,0,0,0-.33,1.06,1,1,0,0,1-.31.72.69.69,0,0,1-.66,0,.06.06,0,0,0-.08,0s0,.07,0,.08a.79.79,0,0,0,.78,0,1.08,1.08,0,0,0,.36-.82,1.6,1.6,0,0,1,.31-1h0a.37.37,0,0,0,0-.41c-.14-.16-.46-.08-.5-.07"/><path class="cls-1" d="M55.61,40.53a.65.65,0,0,0-.47.27,1.18,1.18,0,0,0-.18.68c0,.16,0,.28,0,.31a.66.66,0,0,1-.18.48.3.3,0,0,1-.21.08.07.07,0,0,0-.07.06.06.06,0,0,0,.06.06.36.36,0,0,0,.3-.11.79.79,0,0,0,.22-.57h0a1.39,1.39,0,0,1,.14-.9.6.6,0,0,1,.38-.23.06.06,0,0,0,0-.11"/><path class="cls-1" d="M52.59,42a.06.06,0,0,0-.06.06,4.74,4.74,0,0,0,.19,1.23s.45.84.06,1.21a.06.06,0,0,0,.08.08c.46-.43,0-1.3,0-1.34a4.68,4.68,0,0,1-.18-1.18.06.06,0,0,0-.06-.06"/><path class="cls-1" d="M52.85,42.22a1.09,1.09,0,0,0,0,.26,2.89,2.89,0,0,0,.31,1.12,1.91,1.91,0,0,1,.07.48.8.8,0,0,1-.29.72.05.05,0,0,0,0,.05s0,0,0,0a.07.07,0,0,0,.09,0s.51-.33.27-1.33h0a2.35,2.35,0,0,1-.27-1.3.06.06,0,0,0,0-.07.06.06,0,0,0-.08,0"/><path class="cls-1" d="M53.11,42.41a2.57,2.57,0,0,0,.19,1.06s.45,1-.22,1.5a.06.06,0,0,0,0,.08.07.07,0,0,0,.09,0c.75-.55.27-1.64.26-1.65a2.41,2.41,0,0,1-.18-1,.07.07,0,0,0-.06-.07.06.06,0,0,0-.06.06"/><path class="cls-1" d="M53.38,43.45a.08.08,0,0,0-.05.08.06.06,0,0,0,.07,0c.06,0,.22,0,.29,0a.07.07,0,0,0,.09,0,.05.05,0,0,0,0-.08.63.63,0,0,0-.38,0"/><path class="cls-1" d="M53.43,43.79a.06.06,0,0,0,.06.06l.16,0s.07,0,.07-.06a.05.05,0,0,0,0-.06l-.17,0s-.06,0-.07,0"/><path class="cls-1" d="M53.46,44.12a.05.05,0,0,0,0,.06h.17a.06.06,0,0,0,.06,0,.05.05,0,0,0-.05-.07h-.17a.06.06,0,0,0-.06.06"/><path class="cls-1" d="M56.48,41.71a.46.46,0,0,1,.37.08.61.61,0,0,1,0,.15.29.29,0,0,1,0,.09c0,.1-.13.17-.28.23s-.2.09-.39.5a1.61,1.61,0,0,1-1.27.59.86.86,0,0,0-.56.28.4.4,0,0,0,0,.34.75.75,0,0,0,.59.6h0a2.11,2.11,0,0,1,.93.85s.54,1.12,1.27,1.36a.35.35,0,0,1,.23.18c0,.06,0,.13,0,.22s-.19.27-.6,0l-.12-.07a2.89,2.89,0,0,1-1.06-1.27,1.88,1.88,0,0,0-1.05-.94,1.13,1.13,0,0,1-.73-1.22,1,1,0,0,1,1-.63s.93-.13,1.1-.75h0s.3-.52.67-.6m0-.12c-.42.09-.73.64-.74.66h0c-.14.55-1,.67-1,.67a1.15,1.15,0,0,0-1.08.72,1.25,1.25,0,0,0,.8,1.36,1.84,1.84,0,0,1,1,.87,2.84,2.84,0,0,0,1.11,1.33h0l.12.07a.63.63,0,0,0,.49.13.39.39,0,0,0,.27-.17.34.34,0,0,0,.05-.33.45.45,0,0,0-.3-.24c-.69-.23-1.2-1.3-1.2-1.31a2.12,2.12,0,0,0-1-.9h0a.63.63,0,0,1-.49-.51.28.28,0,0,1,0-.24.78.78,0,0,1,.47-.23,1.67,1.67,0,0,0,1.36-.65.9.9,0,0,1,.34-.45.52.52,0,0,0,.34-.3.48.48,0,0,0,0-.35h0a.56.56,0,0,0-.48-.11"/><path class="cls-1" d="M56.82,41.67a2.24,2.24,0,0,0-.9.91,1.54,1.54,0,0,1-1.14.55s-.86,0-.85.81a1.07,1.07,0,0,0,.75.88,2.07,2.07,0,0,1,1.06,1h0s.82,1.3,1.5,1.49a.06.06,0,0,0,.07,0h0a.05.05,0,0,0,0-.06c-.63-.18-1.41-1.42-1.42-1.45a2.25,2.25,0,0,0-1.13-1.09.93.93,0,0,1-.67-.76v0c0-.64.71-.67.74-.67A1.59,1.59,0,0,0,56,42.64a2.16,2.16,0,0,1,.86-.87.05.05,0,0,0,0-.05,0,0,0,0,0,0,0,.05.05,0,0,0-.08,0"/><path class="cls-1" d="M55.75,43.13a1.26,1.26,0,0,0,0,1.1.51.51,0,0,0,.38.21c.3,0,.42-.28.44-.44s0-.2-.11-.22-.16.07-.18.11l-.1.06a.15.15,0,0,1-.15,0,.35.35,0,0,1,0-.28.39.39,0,0,1,.19-.24.62.62,0,0,1,.62,1c-.35.61-1.1.29-1.13.27-.61-.28-.45-1.26-.45-1.27a.06.06,0,0,0,0-.07s-.07,0-.07,0-.18,1.08.51,1.4c0,0,.88.39,1.28-.31a.84.84,0,0,0-.22-1.15.72.72,0,0,0-.54,0,.49.49,0,0,0-.27.32.45.45,0,0,0,.05.39.3.3,0,0,0,.27.08.33.33,0,0,0,.17-.12l0-.05s0,0,0,.1,0,.34-.32.32a.39.39,0,0,1-.28-.16,1.21,1.21,0,0,1,0-1,.05.05,0,0,0,0-.07s-.07,0-.08,0"/><path class="cls-1" d="M55.41,43.3s-.27,1,.43,1.32a.74.74,0,0,0,.88-.34.66.66,0,0,0,0-.56.41.41,0,0,0-.38-.15.39.39,0,0,0-.41.35.06.06,0,1,0,.12,0c0-.22.28-.23.29-.23a.32.32,0,0,1,.29.1c.12.15,0,.44,0,.45a.6.6,0,0,1-.73.27c-.6-.25-.36-1.17-.35-1.18a.07.07,0,0,0,0-.08s-.07,0-.08,0"/><path class="cls-1" d="M54.11,45.83a1.24,1.24,0,0,0,.11.84.41.41,0,0,0,.29.15.35.35,0,0,0,.3-.1.4.4,0,0,0,0-.41A.34.34,0,0,1,55,45.9s.2-.14.49.14a.06.06,0,0,0,.08,0,.06.06,0,0,0,0-.09c-.37-.34-.63-.16-.64-.15a.44.44,0,0,0-.15.55c0,.14,0,.24,0,.29s-.19.06-.2.06a.28.28,0,0,1-.2-.1c-.18-.22-.09-.74-.09-.74a.64.64,0,0,1,.78-.47s.06,0,.07,0,0-.06,0-.07a.77.77,0,0,0-.92.56"/><path class="cls-1" d="M54.51,45.74a.75.75,0,0,0,.16,1,.05.05,0,0,0,.08,0,.06.06,0,0,0,0-.09.64.64,0,0,1-.13-.82c.16-.27.66-.17.67-.17a.08.08,0,0,0,.07-.05.06.06,0,0,0-.05-.07s-.59-.12-.79.23"/><path class="cls-1" d="M52.86,43.52a1.15,1.15,0,0,0-.68.63,1.19,1.19,0,0,0,.3,1.07h0c.15.11.51.45.47.67s-.13.18-.32.23a.4.4,0,0,0-.25.27.26.26,0,0,0,.12.23.86.86,0,0,0,1-.08,1,1,0,0,0,.23-.69,1.19,1.19,0,0,0-.48-.83.85.85,0,0,1-.35-.5.49.49,0,0,1,.14-.38.08.08,0,0,0,0-.09.06.06,0,0,0-.09,0,.58.58,0,0,0-.17.47.92.92,0,0,0,.4.58,1.06,1.06,0,0,1,.43.74.84.84,0,0,1-.2.61.75.75,0,0,1-.81.07.19.19,0,0,1-.07-.12h0c0-.08.13-.15.17-.17.23-.06.37-.16.39-.31a.17.17,0,0,0,0-.07c0-.31-.43-.66-.51-.72a1.34,1.34,0,0,1-.31-.75.52.52,0,0,1,0-.21,1,1,0,0,1,.59-.54.06.06,0,0,0,0-.06v0a.06.06,0,0,0-.07,0"/><path class="cls-1" d="M52.92,43.79a.86.86,0,0,0-.48.44.68.68,0,0,0,.1.6,2.25,2.25,0,0,0,.4.43s.42.42.34.81c0,.21-.23.38-.56.5a0,0,0,0,0,0,.07.06.06,0,0,0,.07,0c.37-.14.59-.33.64-.59.1-.45-.36-.89-.38-.91a1.92,1.92,0,0,1-.37-.42.55.55,0,0,1-.1-.49.72.72,0,0,1,.41-.36.07.07,0,0,0,0-.08.06.06,0,0,0-.08,0"/><path class="cls-1" d="M51.21,44.05a.07.07,0,0,0,0,.09,1.53,1.53,0,0,0,1,.36.06.06,0,0,0,0-.11A1.64,1.64,0,0,1,51.3,44a.07.07,0,0,0-.09,0"/><path class="cls-1" d="M51.13,44.28a.05.05,0,0,0,0,.08,4.55,4.55,0,0,0,1.1.44.08.08,0,0,0,.07,0s0-.07,0-.07a5.26,5.26,0,0,1-1.06-.42.05.05,0,0,0-.08,0"/><path class="cls-1" d="M51,44.51a.07.07,0,0,0,0,.09,4.11,4.11,0,0,0,1.4.51.08.08,0,0,0,.07,0s0-.07-.06-.07a4.13,4.13,0,0,1-1.35-.49.06.06,0,0,0-.08,0"/><path class="cls-1" d="M49.9,40.47a4.26,4.26,0,0,1-3.25,1.94s0,0,0,.07a.08.08,0,0,0,.07.05,4.43,4.43,0,0,0,3.34-2,.06.06,0,0,0,0-.08.05.05,0,0,0-.08,0"/><path class="cls-1" d="M50.3,40.48a5.31,5.31,0,0,1-3.69,2.25.08.08,0,0,0,0,.07.05.05,0,0,0,.06.05,5.46,5.46,0,0,0,3.78-2.3.05.05,0,0,0,0-.08.06.06,0,0,0-.08,0"/><path class="cls-1" d="M50.81,40.32A6,6,0,0,1,46.57,43a.07.07,0,0,0-.06.07s0,.06.07,0a6.08,6.08,0,0,0,4.33-2.74.06.06,0,1,0-.1-.06"/><path class="cls-1" d="M48.56,42.41s-.05,0-.05.07a.78.78,0,0,1,0,.44,1.46,1.46,0,0,1-1.16.78.21.21,0,0,1-.27-.15.24.24,0,0,1,.06-.17.31.31,0,0,1,.2-.08s.8,0,.82-.58a.06.06,0,0,0-.06-.06.05.05,0,0,0-.06.05c0,.42-.69.47-.7.47a.44.44,0,0,0-.28.11.34.34,0,0,0-.1.28.32.32,0,0,0,.41.25A1.55,1.55,0,0,0,48.6,43a.82.82,0,0,0,0-.52s0-.06-.07-.05"/><path class="cls-1" d="M48.39,42.51a.06.06,0,0,0-.06.06s0,.85-1.14.9a.07.07,0,0,0-.06.07.06.06,0,0,0,.06.06c1.25-.07,1.26-1,1.26-1a.06.06,0,0,0-.06-.06"/><path class="cls-1" d="M45.3,42a.24.24,0,0,1-.15-.09.13.13,0,0,1,0-.11c0-.06.06-.15.25-.26,0,0,.25-.18.66.11l-.1.06s-.38.32-.63.29m.84-.42s0,0,0,0c-.51-.36-.82-.13-.83-.12-.18.11-.29.23-.3.35a.25.25,0,0,0,.06.2.36.36,0,0,0,.22.13c.31,0,.71-.31.73-.32a1.91,1.91,0,0,1,1.45-.4,1.44,1.44,0,0,1,.84.52.05.05,0,0,0,.08,0,.07.07,0,0,0,0-.08,1.56,1.56,0,0,0-.92-.58,2,2,0,0,0-1.34.3"/><path class="cls-1" d="M45,41.43a.67.67,0,0,0-.06.86s.25.37.87,0c0,0,1.57-1.09,2.27-.18a.06.06,0,0,0,.08,0,.05.05,0,0,0,0-.08c-.76-1-2.36.1-2.42.15-.52.33-.71.07-.72.06a.55.55,0,0,1,.05-.7.88.88,0,0,1,1.24.06.06.06,0,0,0,.08,0,.07.07,0,0,0,0-.09,1,1,0,0,0-1.4,0"/><path class="cls-1" d="M44.69,41.34a.87.87,0,0,0,.1,1.21A1,1,0,0,0,46,42.41c1.1-.83,1.74-.24,1.77-.21a.05.05,0,0,0,.08,0,0,0,0,0,0,0-.08s-.73-.69-1.93.21c0,0-.58.5-1.07.13a.72.72,0,0,1-.09-1,1.21,1.21,0,0,1,1.79.06.05.05,0,0,0,.08,0,.06.06,0,0,0,0-.08,1.33,1.33,0,0,0-2,0"/><path class="cls-1" d="M45.87,40.31a.87.87,0,0,0-.27.64.06.06,0,0,0,.06.06.05.05,0,0,0,.06,0,.77.77,0,0,1,.22-.56.28.28,0,0,1,.2,0,.14.14,0,0,1,.1.06.37.37,0,0,1,0,.21.75.75,0,0,0,0,.62.06.06,0,0,0,.08,0,.05.05,0,0,0,0-.08.74.74,0,0,1,0-.52.43.43,0,0,0,0-.29.27.27,0,0,0-.18-.13.41.41,0,0,0-.3.08"/><path class="cls-1" d="M46.12,40.31a1.84,1.84,0,0,0-.23.74.06.06,0,0,0,.11,0,1.81,1.81,0,0,1,.21-.67.06.06,0,0,0,0-.09.06.06,0,0,0-.09,0"/><path class="cls-1" d="M43.58,40.42c-.08.09-.08.23,0,.41h0a1.56,1.56,0,0,1,.31,1,1.11,1.11,0,0,0,.36.82.8.8,0,0,0,.77,0,.06.06,0,0,0,0-.08.06.06,0,0,0-.08,0,.69.69,0,0,1-.66,0,1,1,0,0,1-.31-.72,1.68,1.68,0,0,0-.33-1.06.45.45,0,0,1,0-.19.14.14,0,0,1,0-.09c.08-.09.31-.06.38,0,.55.27.42,1.25.42,1.26a.08.08,0,0,0,.05.07s.07,0,.07,0,.14-1.08-.49-1.39c-.05,0-.37-.1-.52.07"/><path class="cls-1" d="M43.58,40.47s0,.07.06.07a.53.53,0,0,1,.38.23,1.39,1.39,0,0,1,.14.9h0a.75.75,0,0,0,.22.57.44.44,0,0,0,.3.11.06.06,0,0,0,.06-.06.07.07,0,0,0-.07-.06.33.33,0,0,1-.22-.08.71.71,0,0,1-.17-.48s0-.15,0-.31a1.14,1.14,0,0,0-.18-.68.66.66,0,0,0-.47-.28.08.08,0,0,0-.07,0"/><path class="cls-1" d="M46.61,42a4.79,4.79,0,0,1-.18,1.19s-.49.9,0,1.33a.06.06,0,0,0,.08,0s0-.06,0-.09c-.39-.36.05-1.18.06-1.19A4.89,4.89,0,0,0,46.73,42a.05.05,0,0,0-.06-.06.06.06,0,0,0-.06.06"/><path class="cls-1" d="M46.33,42.07a.07.07,0,0,0,0,.08,2.26,2.26,0,0,1-.28,1.3h0c-.24,1,.25,1.33.27,1.34s.07,0,.08,0a0,0,0,0,0,0,0,.14.14,0,0,0,0-.06s-.29-.18-.29-.71a1.79,1.79,0,0,1,.07-.48,3,3,0,0,0,.31-1.12,1.09,1.09,0,0,0,0-.26.07.07,0,0,0-.08,0"/><path class="cls-1" d="M46.08,42.25s0,0,0,.07a2.33,2.33,0,0,1-.19,1s-.48,1.09.27,1.64c0,0,.07,0,.08,0a.05.05,0,0,0,0-.08c-.67-.5-.23-1.49-.23-1.5a2.51,2.51,0,0,0,.2-1.06s0-.06-.07-.06"/><path class="cls-1" d="M45.5,43.39a.07.07,0,0,0,0,.09.05.05,0,0,0,.08,0,.49.49,0,0,1,.29,0,.05.05,0,0,0,.07,0,.06.06,0,0,0,0-.07s-.26-.05-.38,0"/><path class="cls-1" d="M45.76,43.63l-.17,0s-.06,0-.05.07a.05.05,0,0,0,.06.05l.17,0s.06,0,.06-.07a.08.08,0,0,0-.07,0"/><path class="cls-1" d="M45.74,44h-.17a.06.06,0,0,0-.06.06.07.07,0,0,0,.07.06h.17a.07.07,0,0,0,0-.07.05.05,0,0,0-.06,0"/><path class="cls-1" d="M42.78,41.61c.37.08.66.59.67.6v0c.17.63,1.06.75,1.09.75a1,1,0,0,1,1,.65,1.1,1.1,0,0,1-.73,1.2,1.94,1.94,0,0,0-1.06,1,2.77,2.77,0,0,1-1,1.26l-.12.07c-.41.28-.6,0-.61,0a.26.26,0,0,1,0-.22.36.36,0,0,1,.23-.17c.73-.24,1.25-1.32,1.27-1.37a2.18,2.18,0,0,1,.93-.85h0a.77.77,0,0,0,.59-.61.78.78,0,0,0,0-.14.41.41,0,0,0-.05-.19.86.86,0,0,0-.55-.28,1.59,1.59,0,0,1-1.28-.6,1.06,1.06,0,0,0-.39-.5.41.41,0,0,1-.28-.22.18.18,0,0,1,0-.1.32.32,0,0,1,0-.14.46.46,0,0,1,.37-.08m-.45,0h0a.5.5,0,0,0,0,.35.56.56,0,0,0,.36.3,1,1,0,0,1,.32.44,1.7,1.7,0,0,0,1.38.66.75.75,0,0,1,.46.22.28.28,0,0,1,0,.24.64.64,0,0,1-.49.52h0a2.29,2.29,0,0,0-1,.91s-.51,1.08-1.2,1.3a.52.52,0,0,0-.3.25.34.34,0,0,0,0,.32.45.45,0,0,0,.28.18.68.68,0,0,0,.49-.13l.12-.07a2.86,2.86,0,0,0,1.1-1.33,1.94,1.94,0,0,1,1-.88,1.24,1.24,0,0,0,.79-1.34,1.14,1.14,0,0,0-1.08-.74s-.85-.11-1-.66h0a1.39,1.39,0,0,0-.74-.66.56.56,0,0,0-.48.11"/><path class="cls-1" d="M42.36,41.59a0,0,0,0,0,0,0,.05.05,0,0,0,0,.05,2.19,2.19,0,0,1,.85.86,1.59,1.59,0,0,0,1.24.61s.74,0,.74.68v0a.94.94,0,0,1-.66.76,2.18,2.18,0,0,0-1.14,1.09S42.62,47,42,47.14a.05.05,0,0,0-.05,0v0a.06.06,0,0,0,.07,0c.68-.19,1.46-1.44,1.5-1.5h0a2.13,2.13,0,0,1,1.07-1,1,1,0,0,0,.74-.87c0-.78-.85-.81-.85-.81a1.49,1.49,0,0,1-1.14-.56,2.47,2.47,0,0,0-.9-.91.06.06,0,0,0-.08,0"/><path class="cls-1" d="M43.43,43a.07.07,0,0,0,0,.08,1.18,1.18,0,0,1,0,1,.35.35,0,0,1-.28.16c-.27,0-.32-.31-.32-.32s0-.08,0-.09l0,.05a.32.32,0,0,0,.16.11.28.28,0,0,0,.28-.07c.12-.13,0-.37,0-.39a.49.49,0,0,0-.27-.32.75.75,0,0,0-.53,0,.84.84,0,0,0-.23,1.16c.4.69,1.27.31,1.28.31.69-.32.52-1.36.51-1.4a.05.05,0,0,0-.07,0s0,0,0,.07.17,1-.45,1.27c0,0-.77.34-1.12-.27a.83.83,0,0,1-.13-.43.68.68,0,0,1,.32-.56.6.6,0,0,1,.42,0,.4.4,0,0,1,.18.52s-.08,0-.16,0-.08,0-.09-.07-.1-.13-.18-.11-.11.14-.11.22.14.46.44.44a.49.49,0,0,0,.38-.21,1.24,1.24,0,0,0,0-1.09.07.07,0,0,0-.08,0"/><path class="cls-1" d="M43.77,43.15a.06.06,0,0,0,0,.08s.25.92-.36,1.18a.62.62,0,0,1-.73-.29.85.85,0,0,1,0-.22.37.37,0,0,1,.06-.22.34.34,0,0,1,.29-.1s.28,0,.29.24a.05.05,0,0,0,.06,0,.06.06,0,0,0,.06-.06c0-.26-.27-.34-.41-.35a.47.47,0,0,0-.39.15.74.74,0,0,0,0,.56.76.76,0,0,0,.89.35c.7-.3.43-1.32.43-1.33a.06.06,0,0,0-.08,0"/><path class="cls-1" d="M44.22,45.17a.06.06,0,0,0,0,.07.08.08,0,0,0,.07,0,.63.63,0,0,1,.78.47,1.18,1.18,0,0,1-.09.74.24.24,0,0,1-.2.09.22.22,0,0,1-.2-.05s0-.16,0-.3a.44.44,0,0,0-.16-.55s-.26-.19-.63.16a.05.05,0,0,0,0,.08.06.06,0,0,0,.09,0c.29-.27.48-.14.48-.14a.34.34,0,0,1,.12.41.42.42,0,0,0,0,.42.36.36,0,0,0,.3.09.37.37,0,0,0,.29-.14c.21-.26.11-.81.11-.84a.77.77,0,0,0-.93-.56"/><path class="cls-1" d="M44,45.41a.05.05,0,0,0-.05.07.06.06,0,0,0,.07,0s.51-.1.67.18a.63.63,0,0,1-.14.82.05.05,0,0,0,0,.08.05.05,0,0,0,.08,0,.77.77,0,0,0,.16-1c-.2-.34-.77-.23-.79-.22"/><path class="cls-1" d="M46.32,43.46v0a.08.08,0,0,0,0,.06,1,1,0,0,1,.6.54.71.71,0,0,1,0,.2,1.32,1.32,0,0,1-.32.76c-.07.06-.5.41-.5.72v.06c0,.15.17.26.41.32,0,0,.15.09.16.17h0a.17.17,0,0,1-.08.12.75.75,0,0,1-.81-.08.91.91,0,0,1-.2-.6,1.09,1.09,0,0,1,.45-.74,1,1,0,0,0,.39-.58.61.61,0,0,0-.17-.48.08.08,0,0,0-.09,0,.06.06,0,0,0,0,.09.44.44,0,0,1,.14.37.82.82,0,0,1-.35.5,1.24,1.24,0,0,0-.49.84,1,1,0,0,0,.24.69.89.89,0,0,0,1,.09c.09-.08.14-.16.12-.25s-.21-.25-.23-.26c-.2-.06-.31-.13-.33-.23s.32-.56.47-.67h0a1.22,1.22,0,0,0,.3-1.08,1.12,1.12,0,0,0-.68-.62.07.07,0,0,0-.08,0"/><path class="cls-1" d="M46.26,43.73a.05.05,0,0,0,0,.07s.32.12.41.37a.55.55,0,0,1-.1.49,1.77,1.77,0,0,1-.37.41s-.48.47-.38.92c0,.25.27.45.64.59a.06.06,0,0,0,.07,0,.06.06,0,0,0,0-.08c-.33-.12-.52-.28-.57-.5-.08-.38.35-.8.35-.8a1.87,1.87,0,0,0,.39-.44.68.68,0,0,0,.11-.6.85.85,0,0,0-.49-.43.06.06,0,0,0-.07,0"/><path class="cls-1" d="M48.79,43.82a4.77,4.77,0,0,1-1.73.51.06.06,0,0,0-.05.06s0,.06.07.06a5.05,5.05,0,0,0,1.78-.53.07.07,0,0,0,0-.09.07.07,0,0,0-.09,0"/><path class="cls-1" d="M49.34,43.74a3.51,3.51,0,0,1-2.34.83.06.06,0,0,0-.06.06.06.06,0,0,0,.06.06,3.63,3.63,0,0,0,2.42-.86.06.06,0,0,0,0-.09.07.07,0,0,0-.09,0"/><path class="cls-1" d="M49.73,43.86a4.32,4.32,0,0,1-2.9,1,.06.06,0,0,0,0,.12,4.38,4.38,0,0,0,3-1.07.07.07,0,0,0,0-.09.06.06,0,0,0-.09,0"/><path class="cls-1" d="M48.57,43.16s-.59.43-.41,1a.06.06,0,0,0,.08,0,.06.06,0,0,0,0-.07c-.16-.45.35-.82.36-.82.82-.4,2.1.55,2.11.56a.06.06,0,1,0,.08-.1c-.06,0-1.36-1-2.26-.56"/><path class="cls-1" d="M49,43.34a.66.66,0,0,0-.56.62.06.06,0,0,0,.06.06.05.05,0,0,0,.06-.05.55.55,0,0,1,.45-.51,2.61,2.61,0,0,1,1.65.66.06.06,0,0,0,.09,0,.06.06,0,0,0,0-.08A2.67,2.67,0,0,0,49,43.34"/><path class="cls-1" d="M48.75,43.84a.05.05,0,0,0,0,.08.06.06,0,0,0,.09,0c.6-.45,1.65.4,1.66.4a.06.06,0,1,0,.08-.09c-.05,0-1.13-.91-1.81-.4"/><path class="cls-1" d="M50.28,43.45s0,.07.06.07c.33,0,.36.2.36.2h0a.28.28,0,0,1,0,.25c-.13.3-.68.51-.68.51a3.85,3.85,0,0,0-.63.28.07.07,0,0,0,0,.09.08.08,0,0,0,.08,0,3,3,0,0,1,.6-.27s.61-.23.76-.59a.4.4,0,0,0,0-.34v0s0-.29-.47-.31a.05.05,0,0,0-.06.05"/><path class="cls-1" d="M50.15,43.29a.05.05,0,0,0,0,.07.06.06,0,0,0,.08,0,.83.83,0,0,1,.55.05.48.48,0,0,1,.17.64h0c-.09.36-.89.67-1.18.76a.06.06,0,0,0,0,.07.08.08,0,0,0,.07,0s1.14-.35,1.27-.84h0a.63.63,0,0,0-.22-.8.87.87,0,0,0-.64-.06"/><path class="cls-1" d="M51.18,43.56a.05.05,0,0,0,0,.07.86.86,0,0,1-.07.69,1.71,1.71,0,0,1-1,.64.06.06,0,0,0,0,.07s0,0,.07,0a1.84,1.84,0,0,0,1.05-.69.94.94,0,0,0,.08-.79.06.06,0,0,0-.07,0"/><path class="cls-1" d="M49.86,43.16a.06.06,0,0,0,.06.1,1,1,0,0,1,.85,0,.05.05,0,0,0,.08,0,.05.05,0,0,0,0-.08,1.11,1.11,0,0,0-1,0"/><path class="cls-1" d="M48.86,44.51a.05.05,0,0,0,0,.08s.23.37,1.1.45c0,0,1,.35,1.14,1.05a.23.23,0,0,1-.18.27s-.23.08-.35-.2a1.17,1.17,0,0,0-.92-.75s-1.12-.15-1.25-.69a.06.06,0,0,0-.07,0s-.06,0-.05.07c.16.62,1.31.77,1.36.78a1.08,1.08,0,0,1,.82.67c.17.41.49.28.5.28a.36.36,0,0,0,.26-.41C51.09,45.3,50,44.94,50,44.93c-.82-.08-1-.4-1-.4a.05.05,0,0,0-.08,0"/><path class="cls-1" d="M48.59,44.61a0,0,0,0,0,0,.07,1.2,1.2,0,0,0,1.07.56s1.17.23,1.22,1.18a.07.07,0,0,0,.07.06.06.06,0,0,0,0-.06c-.06-1.05-1.31-1.3-1.32-1.3-.76,0-1-.47-1-.49a.05.05,0,0,0-.08,0"/><path class="cls-1" d="M48.75,45.2s-.57.32-.64.72a.55.55,0,0,0,.14.43h0a.49.49,0,0,0,.36,0,.46.46,0,0,0,.28-.32s.29-.48.56-.6a.07.07,0,0,0,0-.08s-.05,0-.08,0a1.85,1.85,0,0,0-.61.66.4.4,0,0,1-.22.26.27.27,0,0,1-.24,0,.36.36,0,0,1-.11-.26v-.06c.06-.34.57-.63.58-.63a.09.09,0,0,0,0-.06,0,0,0,0,0,0,0,.06.06,0,0,0-.08,0"/><path class="cls-1" d="M49,45.32a2.19,2.19,0,0,0-.72,1,.06.06,0,0,0,0,.08.06.06,0,0,0,.07,0,2,2,0,0,1,.68-.94.07.07,0,0,0,0-.09.06.06,0,0,0-.09,0"/><path class="cls-1" d="M42.58,27.08a.21.21,0,0,0,.09.28,16.7,16.7,0,0,0,14,0,.2.2,0,0,0,.09-.28.21.21,0,0,0-.28-.1,16.29,16.29,0,0,1-13.64,0,.2.2,0,0,0-.28.09"/><path class="cls-1" d="M56.54,27.43c0,.22,1.42,20.22,1.47,20.92a20,20,0,0,0-5-1.51,19.19,19.19,0,0,0-11.71,1.63c.05-.69,1.51-20.91,1.53-21.16.9-.4,7.72-3.25,13.72.12m-14-.45-.1.06-1.6,22.14.33-.18a18.68,18.68,0,0,1,11.76-1.75,19.33,19.33,0,0,1,5.24,1.63l.33.18L57,27.17l-.1-.06C50.22,23.31,42.6,27,42.52,27"/><path class="cls-1" d="M49.74,20.13c-2.72,0-2.89,4.62-2.9,4.82a7.4,7.4,0,0,1-.45,2,.22.22,0,0,0,.12.27.21.21,0,0,0,.27-.13A7.61,7.61,0,0,0,47.26,25s.17-4.46,2.48-4.41h0a1.33,1.33,0,0,1,1,.32c.53.43,1.2,1.47,1.32,4a4.46,4.46,0,0,0,.57,2.32.21.21,0,0,0,.3,0,.22.22,0,0,0,0-.3,4.15,4.15,0,0,1-.46-2c-.1-2.19-.61-3.65-1.5-4.34a1.67,1.67,0,0,0-1.27-.39"/><path class="cls-1" d="M49.15,21.65c-1,1-.84,5.09-.83,5.55a.22.22,0,0,0,.22.21.21.21,0,0,0,.2-.22c0-1.22,0-4.53.71-5.25a.26.26,0,0,1,.22-.1s.16,0,.35.23c.33.4.84,1.58.44,5a.21.21,0,0,0,.42,0c.4-3.49-.09-4.86-.58-5.39a.87.87,0,0,0-.63-.34.66.66,0,0,0-.52.23"/><path class="cls-1" d="M36.66,33.29l-.47-.1s-.09-.35.12-.42c0,0,1,.09,1.37.52a.92.92,0,0,1,.08.4l0,3.52s0,1.59-.32,1.63c0,0-.28.07-.23-1l.15-4.23s.07-.25-.36-.3L36.83,38s-.08.73-.4.71c0,0-.23,0-.15-.75Z"/><path class="cls-1" d="M38.76,33.36a.34.34,0,0,0-.38.36l.15,4.47s0,.59-.27.62c0,0-.29.06-.24-.64V33.65a.56.56,0,0,1,.39-.59s1-.53,1.19-.12c0,0,0,.3-.45.34l.34,4.88s.06.48-.23.52c0,0-.23.08-.31-.65Z"/><path class="cls-1" d="M60.93,33.15s.39-.06.45-.35c0,0,.28-.45.53,0,0,0-.09.28.48.38,0,0,1.12.19,1.1.46,0,0,0,.31-.66.16a4.6,4.6,0,0,1-1.19-.44h-.1a3.69,3.69,0,0,1-1.13.41s-.58.16-.69-.12c0,0,0-.22.44-.33l.57-.12Z"/><path class="cls-1" d="M62.19,35.19H61a.31.31,0,1,1,0-.62h1.21a.31.31,0,1,1,0,.62m.15-1H60.85a.67.67,0,0,0-.68.68v0a.68.68,0,0,0,.68.68h1.49a.68.68,0,0,0,.68-.68v0a.67.67,0,0,0-.68-.68"/><path class="cls-1" d="M61.32,35.43l0,3.12s0,.35.24.35c0,0,.17.09.21-.4l.06-3.09Z"/><path class="cls-1" d="M60.56,38.66s0,.37-.22.32c0,0-.22,0-.17-.52,0,0,.16-2.92,1.48-2.73,0,0,1.21-.21,1.41,2.82,0,0,0,.28-.17.32,0,0-.26.05-.31-.39,0,0-.18-2.45-1-2.48,0,0-.67-.31-1,2.52Z"/><path class="cls-1" d="M44,28.47a.16.16,0,0,1-.16.16.16.16,0,0,1-.15-.16.15.15,0,0,1,.15-.15.16.16,0,0,1,.16.15"/><path class="cls-1" d="M43.63,28.87a.16.16,0,0,1-.16.15.15.15,0,0,1-.15-.15.16.16,0,0,1,.15-.16.16.16,0,0,1,.16.16"/><path class="cls-1" d="M43.59,29.48a.16.16,0,0,1-.16.15.15.15,0,0,1-.15-.15.16.16,0,0,1,.15-.16.16.16,0,0,1,.16.16"/><path class="cls-1" d="M43.54,30.12a.16.16,0,0,1-.15.16.16.16,0,0,1-.16-.16.16.16,0,0,1,.16-.15.15.15,0,0,1,.15.15"/><path class="cls-1" d="M47.66,29.47a.16.16,0,0,1-.16.16.16.16,0,0,1-.15-.16.15.15,0,0,1,.15-.15.15.15,0,0,1,.16.15"/><path class="cls-1" d="M52.18,29.55a.16.16,0,0,1-.15.16.16.16,0,0,1-.16-.16A.15.15,0,0,1,52,29.4a.15.15,0,0,1,.15.15"/><path class="cls-1" d="M55.89,28.49a.15.15,0,0,1-.15.15.16.16,0,0,1-.16-.15.16.16,0,0,1,.16-.16.16.16,0,0,1,.15.16"/><path class="cls-1" d="M56.16,29a.16.16,0,0,1-.15.16.16.16,0,0,1-.16-.16.16.16,0,0,1,.16-.15.15.15,0,0,1,.15.15"/><path class="cls-1" d="M56.24,30.11a.16.16,0,0,1-.15.16.16.16,0,0,1-.16-.16.16.16,0,0,1,.16-.15.15.15,0,0,1,.15.15"/><path class="cls-1" d="M56.2,29.55a.15.15,0,0,1-.15.15.16.16,0,0,1-.16-.15.16.16,0,0,1,.16-.16.16.16,0,0,1,.15.16"/><path class="cls-1" d="M43.33,33.35a.16.16,0,0,1-.15.16.16.16,0,0,1-.16-.16.16.16,0,0,1,.16-.15.15.15,0,0,1,.15.15"/><path class="cls-1" d="M43.26,34.43a.15.15,0,0,1-.15.15.16.16,0,0,1-.16-.15.16.16,0,0,1,.16-.16.16.16,0,0,1,.15.16"/><path class="cls-1" d="M43.3,33.89a.16.16,0,0,1-.16.16.16.16,0,0,1-.15-.16.15.15,0,0,1,.15-.15.16.16,0,0,1,.16.15"/><path class="cls-1" d="M56.48,33.33a.16.16,0,0,1-.16.16.16.16,0,0,1-.15-.16.15.15,0,0,1,.15-.15.15.15,0,0,1,.16.15"/><path class="cls-1" d="M56.56,34.41a.16.16,0,0,1-.16.15.15.15,0,0,1-.15-.15.16.16,0,0,1,.15-.16.16.16,0,0,1,.16.16"/><path class="cls-1" d="M56.52,33.86a.16.16,0,0,1-.16.16.16.16,0,0,1-.15-.16.15.15,0,0,1,.15-.15.16.16,0,0,1,.16.15"/><path class="cls-1" d="M43.05,37.53a.16.16,0,0,1-.15.16.16.16,0,0,1-.16-.16.16.16,0,0,1,.16-.15.15.15,0,0,1,.15.15"/><path class="cls-1" d="M43,38a.16.16,0,0,1-.15.16.16.16,0,0,1-.16-.16.16.16,0,0,1,.16-.15A.15.15,0,0,1,43,38"/><path class="cls-1" d="M43,38.69a.16.16,0,0,1-.16.15.15.15,0,0,1-.15-.15.16.16,0,0,1,.15-.16.16.16,0,0,1,.16.16"/><path class="cls-1" d="M56.87,38.61a.16.16,0,0,1-.16.16.16.16,0,0,1-.15-.16.15.15,0,0,1,.15-.15.16.16,0,0,1,.16.15"/><path class="cls-1" d="M56.78,37.51a.16.16,0,0,1-.15.16.16.16,0,0,1-.16-.16.16.16,0,0,1,.16-.15.15.15,0,0,1,.15.15"/><path class="cls-1" d="M56.82,38a.16.16,0,0,1-.16.16.16.16,0,0,1-.15-.16.15.15,0,0,1,.15-.15.16.16,0,0,1,.16.15"/><path class="cls-1" d="M47.12,39a.15.15,0,0,1-.15.15.16.16,0,0,1-.16-.15.16.16,0,0,1,.16-.16.16.16,0,0,1,.15.16"/><path class="cls-1" d="M47.09,39.54a.16.16,0,0,1-.16.15.15.15,0,0,1-.15-.15.16.16,0,0,1,.15-.16.16.16,0,0,1,.16.16"/><path class="cls-1" d="M47.06,40.08a.16.16,0,0,1-.16.15.15.15,0,0,1-.15-.15.16.16,0,0,1,.15-.16.16.16,0,0,1,.16.16"/><path class="cls-1" d="M52.67,40.12a.16.16,0,0,1-.15.16.16.16,0,0,1-.16-.16.16.16,0,0,1,.16-.15.15.15,0,0,1,.15.15"/><path class="cls-1" d="M52.65,39.58a.16.16,0,0,1-.16.16.16.16,0,0,1-.15-.16.15.15,0,0,1,.15-.15.15.15,0,0,1,.16.15"/><path class="cls-1" d="M52.63,39a.16.16,0,0,1-.16.16.16.16,0,0,1-.15-.16.15.15,0,0,1,.15-.15.16.16,0,0,1,.16.15"/><path class="cls-1" d="M47.63,30a.16.16,0,0,1-.15.16.16.16,0,0,1-.16-.16.16.16,0,0,1,.16-.15.15.15,0,0,1,.15.15"/><path class="cls-1" d="M47.59,30.65a.16.16,0,0,1-.16.15.15.15,0,0,1-.15-.15.16.16,0,0,1,.15-.16.16.16,0,0,1,.16.16"/><path class="cls-1" d="M47.55,31.27a.16.16,0,0,1-.15.16.16.16,0,0,1-.16-.16.16.16,0,0,1,.16-.15.15.15,0,0,1,.15.15"/><path class="cls-1" d="M52.2,30a.15.15,0,0,1-.15.15.16.16,0,0,1-.16-.15.16.16,0,0,1,.16-.16.15.15,0,0,1,.15.16"/><path class="cls-1" d="M52.23,30.61a.15.15,0,0,1-.16.15.15.15,0,0,1-.15-.15.16.16,0,0,1,.15-.16.16.16,0,0,1,.16.16"/><path class="cls-1" d="M52.26,31.21a.15.15,0,0,1-.15.15.16.16,0,0,1-.16-.15.16.16,0,0,1,.16-.16.16.16,0,0,1,.15.16"/><path class="cls-1" d="M47.38,34.39a.16.16,0,0,1-.16.16.16.16,0,0,1-.15-.16.15.15,0,0,1,.15-.15.16.16,0,0,1,.16.15"/><path class="cls-1" d="M47.35,34.94a.16.16,0,0,1-.16.16.16.16,0,0,1-.15-.16.15.15,0,0,1,.15-.15.16.16,0,0,1,.16.15"/><path class="cls-1" d="M47.31,35.5a.16.16,0,0,1-.15.16A.16.16,0,0,1,47,35.5a.16.16,0,0,1,.16-.15.15.15,0,0,1,.15.15"/><path class="cls-1" d="M52.48,34.46a.15.15,0,0,1-.15.15.16.16,0,0,1-.16-.15.16.16,0,0,1,.16-.16.16.16,0,0,1,.15.16"/><path class="cls-1" d="M52.43,34.93a.15.15,0,0,1-.15.15.16.16,0,0,1-.16-.15.16.16,0,0,1,.16-.16.16.16,0,0,1,.15.16"/><path class="cls-1" d="M52.46,35.43a.16.16,0,0,1-.16.16.16.16,0,0,1-.15-.16.15.15,0,0,1,.15-.15.16.16,0,0,1,.16.15"/><path class="cls-1" d="M44.59,28.71a.16.16,0,0,1-.15.16.16.16,0,0,1-.16-.16.16.16,0,0,1,.16-.15.15.15,0,0,1,.15.15"/><path class="cls-1" d="M45.31,28.94a.16.16,0,0,1-.16.15.15.15,0,0,1-.15-.15.16.16,0,0,1,.15-.16.16.16,0,0,1,.16.16"/><path class="cls-1" d="M46.86,29.33a.16.16,0,0,1-.15.16.16.16,0,0,1-.16-.16.16.16,0,0,1,.16-.15.15.15,0,0,1,.15.15"/><path class="cls-1" d="M46.08,29.16a.16.16,0,0,1-.15.16.16.16,0,0,1-.16-.16.16.16,0,0,1,.16-.15.15.15,0,0,1,.15.15"/><path class="cls-1" d="M52.91,29.43a.16.16,0,0,1-.15.16.16.16,0,0,1-.16-.16.16.16,0,0,1,.16-.15.15.15,0,0,1,.15.15"/><path class="cls-1" d="M55.18,28.8A.16.16,0,0,1,55,29a.15.15,0,0,1-.15-.15.16.16,0,0,1,.15-.16.16.16,0,0,1,.16.16"/><path class="cls-1" d="M53.74,29.26a.16.16,0,0,1-.15.16.16.16,0,0,1-.16-.16.16.16,0,0,1,.16-.15.15.15,0,0,1,.15.15"/><path class="cls-1" d="M54.5,29a.16.16,0,0,1-.16.16.16.16,0,0,1-.15-.16.15.15,0,0,1,.15-.15.16.16,0,0,1,.16.15"/><path class="cls-1" d="M48.43,29.59a.16.16,0,0,1-.16.15.15.15,0,0,1-.15-.15.16.16,0,0,1,.15-.16.16.16,0,0,1,.16.16"/><path class="cls-1" d="M51.43,29.63a.15.15,0,0,1-.15.15.16.16,0,0,1-.16-.15.16.16,0,0,1,.16-.16.16.16,0,0,1,.15.16"/><path class="cls-1" d="M49.18,29.66a.16.16,0,0,1-.16.15.15.15,0,0,1-.15-.15A.15.15,0,0,1,49,29.5a.16.16,0,0,1,.16.16"/><path class="cls-1" d="M50.72,29.68a.16.16,0,0,1-.16.15.15.15,0,0,1-.15-.15.16.16,0,0,1,.15-.16.16.16,0,0,1,.16.16"/><path class="cls-1" d="M49.94,29.69a.16.16,0,0,1-.16.16.16.16,0,0,1-.15-.16.15.15,0,0,1,.15-.15.16.16,0,0,1,.16.15"/><path class="cls-1" d="M46.31,39.9a.15.15,0,0,1-.15.15.15.15,0,1,1,0-.3.15.15,0,0,1,.15.15"/><path class="cls-1" d="M43.62,39a.15.15,0,0,1-.15.15.16.16,0,0,1-.16-.15.16.16,0,0,1,.16-.16.16.16,0,0,1,.15.16"/><path class="cls-1" d="M45.62,39.72a.16.16,0,0,1-.15.16.16.16,0,0,1-.16-.16.16.16,0,0,1,.16-.15.15.15,0,0,1,.15.15"/><path class="cls-1" d="M44.23,39.26a.16.16,0,0,1-.16.16.16.16,0,0,1-.15-.16.15.15,0,0,1,.15-.15.16.16,0,0,1,.16.15"/><path class="cls-1" d="M44.91,39.5a.16.16,0,0,1-.16.15.15.15,0,0,1-.15-.15.16.16,0,0,1,.15-.16.16.16,0,0,1,.16.16"/><path class="cls-1" d="M53.48,40a.16.16,0,0,1-.16.16.16.16,0,0,1-.15-.16.15.15,0,0,1,.15-.15.16.16,0,0,1,.16.15"/><path class="cls-1" d="M56.35,38.94a.15.15,0,0,1-.15.15.16.16,0,0,1-.16-.15.16.16,0,0,1,.16-.16.16.16,0,0,1,.15.16"/><path class="cls-1" d="M54.24,39.78a.15.15,0,0,1-.15.15.15.15,0,0,1-.16-.15.16.16,0,0,1,.16-.16.16.16,0,0,1,.15.16"/><path class="cls-1" d="M55.68,39.27a.15.15,0,0,1-.15.15.16.16,0,0,1-.16-.15.16.16,0,0,1,.16-.16.16.16,0,0,1,.15.16"/><path class="cls-1" d="M55,39.54a.16.16,0,0,1-.16.15.15.15,0,0,1-.15-.15.16.16,0,0,1,.15-.16.16.16,0,0,1,.16.16"/><path class="cls-1" d="M49.76,40.37a.15.15,0,1,1-.3,0,.15.15,0,0,1,.3,0"/><path class="cls-1" d="M51.11,40.36a.15.15,0,0,1-.15.15.16.16,0,0,1-.16-.15A.16.16,0,0,1,51,40.2a.16.16,0,0,1,.15.16"/><path class="cls-1" d="M48.42,40.28a.16.16,0,0,1-.16.16.16.16,0,0,1-.15-.16.15.15,0,0,1,.15-.15.16.16,0,0,1,.16.15"/><path class="cls-1" d="M47.75,40.2a.16.16,0,0,1-.16.15.15.15,0,0,1-.15-.15.16.16,0,0,1,.15-.16.16.16,0,0,1,.16.16"/><path class="cls-1" d="M51.89,40.24a.15.15,0,0,1-.15.15.15.15,0,0,1-.16-.15.16.16,0,0,1,.16-.16.16.16,0,0,1,.15.16"/><path class="cls-1" d="M50.42,40.39a.15.15,0,0,1-.15.15.16.16,0,0,1-.16-.15.16.16,0,0,1,.16-.16.16.16,0,0,1,.15.16"/><path class="cls-1" d="M49.05,40.34a.16.16,0,0,1-.15.16.16.16,0,0,1-.16-.16.15.15,0,0,1,.16-.15.15.15,0,0,1,.15.15"/><path class="cls-1" d="M95.88,40.45A4.17,4.17,0,0,0,96,39.17c-.1,0-.11-.1-.23-.08-.17.3-.64,1.3.08,1.36m-1.06,2a7.69,7.69,0,0,1-.91.68c-.33.16-.78.16-1,.52C93,45,92.67,46,91.57,46.19c-.27,1-1.56,2.57-2.87,2.42-.58-.06-1.08-.66-1.51-1.13a3.6,3.6,0,0,1-1.06-1.59c-.13-.92.65-1.79,1.13-2.57,1.33-2.12,3-5.06,2.95-8a4.26,4.26,0,0,0-.38-1.59c-.49-1.06-1.48-.95-1.66-2.57a6,6,0,0,1,2.72.38A7.67,7.67,0,0,1,94,33c.69.65,1.65,2.46.15,3-.38.15-.82,0-1.29.23-.85.35-1,2.15-1.43,3.25A4.7,4.7,0,0,0,90.89,41a8,8,0,0,0,2.34-1.43c.75-.51,1.58-.83,2.34-1.36a78,78,0,0,1-.07-7.86c.21-3.56.4-6.94.68-10.58.06-.87.07-1.79.15-2.64.18-2,.38-3.69-.45-5.22,0-.12.07-.13.07-.22,1.15.29,4.17,2.15,4.38,3.47a7.29,7.29,0,0,1-.22,2c-.27,1.88-.56,4.14-.68,6.05-.1,1.52,0,3.13-.08,4.68-.18,4-.16,7.78,0,11.94a9.73,9.73,0,0,1,0,2.42A2.68,2.68,0,0,1,97.16,44c-1.2,0-1.59-1.27-2.34-1.58"/><path class="cls-1" d="M109.48,25a12.5,12.5,0,0,0,1.2-.91c1-1,.65-1.91-.07-3a49.51,49.51,0,0,1-2.8-5c-.15,0-.14-.23-.3-.08a18.94,18.94,0,0,0,.38,2.5,62.19,62.19,0,0,1,.38,7.17c.39,0,.8-.37,1.21-.67m-1.59,13.52c1.17.27,2-.78,3.1-1.29s4-1.22,4.38.53a3.4,3.4,0,0,1-.3,1.82c-.37.55-1.82.75-2.65,1a13.75,13.75,0,0,1-5.66.75A3.39,3.39,0,0,1,104,39.92c-1.14-2.08.78-5.06-.08-7.4-1.44-.45-2.57,1-3.93.53,0-.36.29-.59.46-.76a8.88,8.88,0,0,1,2.19-1.36c.53-.27,1.32-.5,1.51-.9a6.45,6.45,0,0,0,.07-1.82,41,41,0,0,1,0-6,22.58,22.58,0,0,1,1.66-6c.25-.56.46-1.4.84-1.67.9-.63,1.31.48,1.73,1.36a18,18,0,0,0,2,3.55c.41.51.92.85,1.36,1.36.94,1.08,3,4.22,2.12,6.43a9,9,0,0,1-1.29,1.81c-.22.27-.49.52-.75.83s-.47.71-.76.76c-.52.08-.73-.33-1.28-.31-1.78.09-1.72,2.82-1.89,4.76-.1,1.16,0,2.31-.15,3.33"/><path class="cls-1" d="M184.67,19.66c-.07-.46.45-.6.68-.83a22.36,22.36,0,0,0,2-2.34c-1.36-.25-2.21.26-3.4,1-.51.31-1.37.83-1.43,1.13-.11.53.5,1,.45,1.59a1.9,1.9,0,0,1-1.59,1.51c-.81,0-1.35-1.26-1.58-2-.29-.13-.36-.44-.68-.6-.52-.28-1.3,0-1.66-.53a1.1,1.1,0,0,1,.45-.68,3.42,3.42,0,0,1,.68-.38c1-.3,2.29.2,3.25.15a6.32,6.32,0,0,0,2-.9c1.2-.65,2.75-1.14,4-1.74.79-.38,1.65-1.07,2.5-.83.43.12,1.54,1,1.43,1.66-.14.88-1.76,1-2.57,1.36a18.11,18.11,0,0,0-2.94,1.89,2.5,2.5,0,0,1-1.67.6"/><path class="cls-1" d="M175.38,21.93a2.32,2.32,0,0,1-.45,2,2.31,2.31,0,0,1-2.57-2c-.36-2.24,1.74-4.36,2.49-5.44.12,0,.13.07.23.07.39,1-.12,2.52.15,3.63.1.4.6.67.6,1s-.45.44-.45.76"/><path class="cls-1" d="M172.59,37.57c-.41.37-1.09.66-1,1.28A21.9,21.9,0,0,0,175.15,37a3.15,3.15,0,0,0,.15-.91c-1.29-.34-2,.78-2.71,1.44m6-2.35c.82-.19.49-1.49.53-2.11-.1,0-.11-.1-.23-.08a7.87,7.87,0,0,0-.3,2.19m.83-5.74c.65-.15.91-.7,1.13-1.28-.72-.24-1.76.63-1.13,1.28M179,23.59c-.33,1.08.59,1.56.6,2.19s-.78.78-.68,1.74c.86-.12,2.18-.73,3,0a4.75,4.75,0,0,1-1.58,3.32c-.25.26-.7.45-.68.91.34.11.49-.61,1.05-.53.12.53-.47.92-.68,1.36.17.52.08,1,.31,1.66.16.48.65.76.68,1.14,0,.58-.9,1.48-1.14,1.66-.58.45-1.64.71-2,1.28a11.69,11.69,0,0,0-.45,2.12c-.32,1.48-.5,2.55-.91,4.08-.18.66-.39,1.83-1.21,1.81-.41,0-.84-.58-1.06-.91a4.52,4.52,0,0,1-.68-1.28A6.18,6.18,0,0,1,174.1,42a11.52,11.52,0,0,0,.52-2.12,9.73,9.73,0,0,0-3.17,1.36,3,3,0,0,1-1.06.46c-1.22,0-1.51-1.44-.83-2.27.16-.19.47-.4.76-.68.67-.63,1.32-1.32,2.11-2s2.77-2.16,2.8-2.79-.62-.78-.61-1.14c0-.7,1.24-.77,1.21-1.43-.3-.2-.77.05-1.05.22-.81.48-1.65,1.8-2.88,1.44A2.4,2.4,0,0,1,173,30.09c.32.29-.13.54.07.9,1.42-.45,2.2-1.53,3.33-2.26a4.67,4.67,0,0,0,.07-1.21c-.13-.33-.73-.18-.83-.53.25-1.24,1.34-1.64,2-2.49,0-.48-.3-.55-.23-.91.17-.8,1.06-.35,1.59,0"/><path class="cls-1" d="M189.21,25.33c-.69-.25-2.05.48-2.42-.3.22-.52.75-.42,1.21-.61.77-.31,1.49-.94,2.11-1.13.83-.25,2.18.21,2,1.43-.1.56-.66.92-1.06,1.36l-2.27,2.5c-.39.44-.92,1.08-.9,1.43,0,.86,1.6,1,1.73,1.82A1.19,1.19,0,0,1,187.77,33c-.1-.05-.1-.21-.23-.3s-.3-.09-.37-.15A3.16,3.16,0,0,1,186,30.84a4.62,4.62,0,0,1,1.36-3c.32-.42.58-.92.91-1.28s.91-.65.91-1.21"/><path class="cls-1" d="M185.5,28.12c.4.23.23.8.23,1.14,0,1.26-.06,2.41,0,3.55,0,.62.24,1.28.23,1.89,0,1.28-.87,2.46-.53,3.77.45.64,1.31.44,2.11.38,1.68-.12,3.07-.23,4.69-.45.59-.08,1.72-.1,2.11-.45s.39-3.09.23-4.08c-.22-1.35-.86-2.22-.91-3.55.31-.14.57.28.76.52a10,10,0,0,1,1.51,3.25c.2.79.19,1.62.45,2.34.35,1,1.33,2.51.46,3.63a4.08,4.08,0,0,1-2.42.83c-1.12.13-1.9.08-2.95.15a30.64,30.64,0,0,1-3.7.15c-1.68-.08-3.7-.2-4.38-1-.85-1.07-.78-3.18-.53-5a20,20,0,0,1,.38-2.57,29,29,0,0,1,2-4.23c.08-.07,0-.28.22-.23"/><path class="cls-1" d="M143.82,29.93c-.74-.44,0-1.14.23-1.52a56.35,56.35,0,0,0,4.68-7c.55-1.07,1.19-2.13,1.59-3.1a4.63,4.63,0,0,0,.45-2c-.12-.61-.78-.61-1.06-1.13,0-.19.12-.24.23-.31A9.82,9.82,0,0,1,153.27,16a1.5,1.5,0,0,1,.45,1.36c-.1.82-1.75,2.1-2.27,2.72-2.21,2.69-4.33,6-6.19,8.62-.45.38-.64,1.42-1.44,1.21"/><path class="cls-1" d="M159.31,32.64c.23.16.71,0,1.06.08A15.19,15.19,0,0,0,162.63,30a5.89,5.89,0,0,0,.91-1.43c-2.81-1.13-4.4,1.94-4.23,4.07m6-4.68c.15,1.53-1.08,2.3-1.88,3.25-.6.7-1.09,1.37-1.74,2.11-.32.38-1,1.22-1.29,1.29-.52.13-.88-.24-1.28-.3-.28.46-.1,1-.08,1.51.11,2.35,0,4.36-.15,6.65,0,.5.06,1,0,1.58s-.38,2.17-1.13,2.27-1.34-.75-1.44-1.36a16,16,0,0,1,.23-3c.19-3.2.57-7,.6-9.9a6.27,6.27,0,0,0-1.43,1.44c-.44.5-1,1.26-1.74.75.47-.94,1.77-1.75,2.65-2.57a2.72,2.72,0,0,0,1.05-1.81,3.59,3.59,0,0,0,.15-.91c0-.48-.43-.71-.45-1.21a1.45,1.45,0,0,1,.53-1.05c.27-.28.77-.52.76-.84-.05-.91-1.9-.46-2.35-.9.23-1,1.46-1.41,2.42-2,.44-.25,1-.49,1.44-.75a7.88,7.88,0,0,1,1.36-.76c.6-.17,1.27-.15,1.81-.37s1.8-.24,2,.37-.65,1.34-1.2,1.74c-1.31,1-2.12,1.59-3.4,2.49-.41.29-1.7.85-1.74,1.21s.93,1.16,1.36,1.21,1-.43,1.51-.6c1.22-.44,2.88-.52,3.47.45"/><path class="cls-1" d="M153.19,24.79c1.24,1.39-1.07,3.27-1.74,4.3.68.26,1.45.74,1.14,1.74a3.26,3.26,0,0,1-2.42.45,1.9,1.9,0,0,1-.38-.75c-.65-.14-.77-1.13-.3-1.59-1-.23-2.11,1.3-3.1.38.22-1,1.38-1.49,2.27-2.19.19-.16.38-.36.6-.53s.48-.29.68-.45c.79-.63,1.64-1.83,3.25-1.36"/><path class="cls-1" d="M145.79,31.74c.69.09.49.87.68,1.51a12.41,12.41,0,0,1,1.13,3c.12,1.22-.34,3.16-1.29,3.25s-1.85-1.61-1.81-2.79.88-1.79,1.21-2.57a13.23,13.23,0,0,1-.07-2.42Z"/><path class="cls-1" d="M153.27,32.12a3.53,3.53,0,0,1-.38,2.19,17.25,17.25,0,0,1-.83,2,1.32,1.32,0,0,1-.08,1,1.8,1.8,0,0,1-1.21.84c-1.15.11-1.78-1.09-1.36-2.27.17-.48,1-.92.83-1.44s-1.45-.14-1.58-.68c.05-.36.55-.56.9-.75a4.55,4.55,0,0,1,3.71-.83"/><path class="cls-1" d="M213.08,14.21a6.32,6.32,0,0,1,1.89,1,3.21,3.21,0,0,1,1.66,3.32,21.11,21.11,0,0,1-.45,2.72c-.57,2.59-1.39,6.69-1.89,9.07a6.41,6.41,0,0,0,2-.75,16.64,16.64,0,0,0,2-.91c.42-.27.93-.72,1-1.14.12-.83-.55-1.14-.6-2,.35-.06.68.22,1.06.46s.59.5.9.68c.56.31,1.69.44,1.82,1.06s-1.13,1.89-1.74,2.26a19.94,19.94,0,0,0-6.58,2c-1.41,3.14-1.87,7.1-4.15,9.37-.49.49-1.08.76-1.59,1.28a10.61,10.61,0,0,1-4.83.76c-.66-.13-1.5-.55-1.51-1.36a10,10,0,0,0,2.11.23c1.86-.2,3.16-1.64,4.23-2.8a17.82,17.82,0,0,0,3.33-6.34,49.94,49.94,0,0,0-5.52,2.19c-.85.41-1.48,1.17-2.64,1a1.66,1.66,0,0,1-1.21-2.19c.48-.23.69.17,1.13.22a5.61,5.61,0,0,0,2.42-.6c2.09-.73,4.47-1.75,6.35-2.57a57.79,57.79,0,0,0,.9-16.92"/><path class="cls-1" d="M214.52,34.45c.06,0,.07,0,.07.08h.15c1,.91,1.86,2,2.95,2.87.1.08.32.1.38.15.38.34.63.79,1,1.14a9.85,9.85,0,0,0,5.89,2.57c.31.12-.09.38-.15.45-.37.43-.88.82-1.36,1.28-.92.89-1.85,2-3.62,1.59-1.54-.35-2.05-1.85-2.65-3.4-.79-2-1.81-4.72-2.64-6.5Z"/><path class="cls-1" d="M130.4,19.36c-.24-.66.36-.84.46-1.28.37-1.76-1.52-2.22-2-3.33.38-.57,2-.31,2.87-.07a6.57,6.57,0,0,1,2,1.06c.53.44,1.18,1.44.6,2.19s-1.85.67-2.87,1.05c-.43.17-.67.55-1.06.38"/><path class="cls-1" d="M131.84,23.89a24.35,24.35,0,0,0-3.55,2.42c-1.76,1.27-4,2.34-5.06,4.39a4.79,4.79,0,0,1-.38.75c-.51.61-1.9.91-2.34.3a7.17,7.17,0,0,1-.31-1.36c-.23-.93-.84-1.38-.45-2.49.19-.54.63-.77,1.36-.91.33.32.18,1.13.45,1.51a8.56,8.56,0,0,0,3.71-1.73c2.65-1.76,5.73-3.33,8.61-5a8.39,8.39,0,0,0,1.59-1.13c.46-.52.56-1.53,1.35-1.59.53,0,1,.4,1.52.68s1.11.59,1,1.13-.8.64-1.36.83A30.59,30.59,0,0,0,133.8,24c-.7.39-1.44.74-2.11,1.13s-1.32,1-2.12,1c-.12-.51.54-.78.91-1.06a11.67,11.67,0,0,0,1.28-1c0-.07,0-.08.08-.08Z"/><path class="cls-1" d="M135.09,26.69c-.84,1.68-2.52,2.52-3.25,4.31.34.32,1.26-.29,1.59.22-.12,1.4-1.61,1.42-2.42,2.12-.61,0-1.11.43-1.74.15-.4-1.25.68-2,1.28-2.72a6.94,6.94,0,0,0,1.74-2.49A6.07,6.07,0,0,0,130,29.86c-.68.61-1.7,1.34-2,2-.34.81.09,2.37-.38,2.79-1.36,1.21-2.9-3.24-1.59-4.38.47,0,.61.74,1.14.76s1-.86,1.51-1.36a21.07,21.07,0,0,1,2.34-2c.9-.75,2.77-2.13,4.08-1"/><path class="cls-1" d="M128.14,37.72a14.38,14.38,0,0,0-2,1.89,7,7,0,0,0-1.66,2,7.3,7.3,0,0,0,3.47.46,22.16,22.16,0,0,0,.38-4.31Zm.68-3.93c.8.13.52,1.34.9,1.89.52.17,1-.07,1.82.15a7.5,7.5,0,0,1,2.11,1.74c.3.31.66.64,1,1a3.14,3.14,0,0,1,.75,1.13c.27,1.91-2.33,2.29-3.55,1.14-.16-1.42.4-3.77-.76-4.38a3.16,3.16,0,0,0-1.05.07A44.16,44.16,0,0,0,130,42c0,1.33.33,2.77-.23,3.7a2.79,2.79,0,0,1-1.59-.3c-.36-.23-.62-.8-1.05-1.21A8.9,8.9,0,0,0,125,42.93c-.53-.26-1-.54-1.28-.45-.6.18-.46.84-.69,1.51-1.77,1.3-3.84-2-2-2.79.28.07.44.61.83.68.55.08,1.29-.61,1.82-1.14a32.62,32.62,0,0,1,3.92-3.47,3,3,0,0,0,.76-.68c.36-.88-.35-2.4.38-2.8"/><path class="cls-1" d="M245.44,20.39c.25,0,.18.62.09.75-.18-.25,0-.43-.09-.75"/><path class="cls-1" d="M241.22,38.3a21.35,21.35,0,0,0-5.56,1.75c-.3.65-2.22.93-2.24,1.71,0,.48,1,1,1.54,1.33a17.2,17.2,0,0,0,4.33,1.43,5.51,5.51,0,0,0,2.42.34,12.48,12.48,0,0,0,.47-3.41c0-.2-.15-.4-.16-.6s.12-.34.14-.53a14.23,14.23,0,0,0,0-2,1.08,1.08,0,0,0-1-.05m-7.81-5.69c.79-.57,1.6-1.09,2.47-1.63,1.74-1.08,3.39-2.3,5.08-3.18.72-.38,3.71-1.21,2.83-2.17h-.15A15.3,15.3,0,0,1,239.51,27a9.89,9.89,0,0,0-1.73.26,5.91,5.91,0,0,0-1.12.85,33.85,33.85,0,0,0-3.49,3.38,10.06,10.06,0,0,0-2.38,2.61,9.3,9.3,0,0,0,2.62-1.48m9.8-10.37c.09.6.88.7.85,1.27-.05,1-1.53.81-2.41.42-.58.56-1.43.85-1.71,1.69a11.85,11.85,0,0,0,4.35-1.73c-.08-.77.06-1.6,0-2.2,0-.22-.1-.56-.31-.67-.35.31-.83.61-.73,1.22m2.32-1.1c.09-.13.16-.73-.09-.75.11.32-.09.5.09.75m-4.68.24c.11-.19.53,0,.68,0a1,1,0,0,0,.29-.61c0-.18.42-.5.07-.53-.36.33-1,.73-1,1.16m-1.89-.2c.49-.12.56-.64.81-1a4.39,4.39,0,0,0,1-.85c-.57-.06-1.21.1-1.45-.43-.63.37-.52,1.45-.33,2.27m12.34-6.86a28.13,28.13,0,0,0-3.06,1.94c-.51.32-1.06.63-1.57.93s-1.2.55-1.42,1.09c.6.42,1.33.3,1.75.8,1.1,1.29-.13,4-.35,5.44a6.1,6.1,0,0,0,1.47-2.29,37,37,0,0,0,3.34-7.92h-.16m-6.83,2.53A51.58,51.58,0,0,0,250,14c.28-.14.65-.29,1-.47.56-.32.77-.57,1.58-.4.68,1.68-.38,3.48-.82,4.92-.65,2.08-1.56,4.19-2.31,6.24,1.49,0,3.57-.2,3.72,1.14.08.77-.77,1.36-1.48,1.84-1.72,1.17-3.22,2.23-5.08,3.26a6,6,0,0,1-1,.55c-.57.16-1.33,0-1.51.33.42.4,1.21.42,1.31,1,.14.78-1.24,1.52-.94,2.66a2.1,2.1,0,0,0,1.82.2c.35-.11.64-.43,1-.47,1.71-.21,3.34,2,2,3.51a27.47,27.47,0,0,1-5.06-.14,28.12,28.12,0,0,0-.22,4.69,34.69,34.69,0,0,1-.15,4.46c-1.9,1-3.51-.47-5.16-1.34-.51-.27-1.08-.53-1.61-.8-1-.53-1.73-.87-2.67-1.47-.37-.24-.72-.52-1.07-.74a12.8,12.8,0,0,1-2.14-1.4,2.35,2.35,0,0,1-.47-1.12c0-.78,1.71-1.61,2.39-1.93a38.82,38.82,0,0,1,9.76-3.19,9.39,9.39,0,0,0,.19-2.12c-.73-.28-2.16-.09-2.06-1.25.08-.94,1.32-.91,2.25-1.17,1.76-.5,3.06-1.65,4.72-2.35s3.42-1.2,4.18-2.72a3.8,3.8,0,0,0-2.87,0c-.81.29-1.32,1.08-2.1,1.25-.58.13-1.15,0-1.65.18a27.22,27.22,0,0,0-3.83,1.88c-.34.16-.73.24-1.05.4a19.88,19.88,0,0,0-5.82,4.1c-.41.41-1,.82-1.49,1.31-.86.79-1.35,1.65-2.92,1.41-.44-.56-1.15-.62-1-1.72.09-.72,1.27-1.81,1.77-2.29.75-.73,1.3-1.51,1.93-2.08,1-.93,2.48-1.83,3.65-2.78L237,27c.34-.25.62-.62,1-.93s.53-.28.75-.46A9.42,9.42,0,0,0,240.65,23c-.08-.46-.34-1.18,0-1.59-.66.2-1,.86-1.49,1.32a21.38,21.38,0,0,0-2.51,3.06c-.56.74-1.59,1.89-2.48.88-.71-.82-.22-2.78-.38-4.23,0-.52-.41-.9-.09-1.28a1.32,1.32,0,0,1,1.36.35c.6.63.39,2.1,1.11,2.55a2,2,0,0,0,1.33-1.23,8.17,8.17,0,0,0,.05-1.44,15.62,15.62,0,0,0-1.09-6.55c-.2-.54-.56-1-.56-1.43.85-.06,1.72.65,2.59,1.17.37.21.81.47,1.23.73.72.46,1.34.76,1.46,1.79a4.73,4.73,0,0,0,1.55-2.07,9.45,9.45,0,0,0,1.17-2.36c.1-.24-.23-.42,0-.53,0-.12.07-.13.07-.23,1.22.22,3.48,1.19,2.69,2.67-.19.38-.64.39-1,.7a4.89,4.89,0,0,0-.3.39,3.2,3.2,0,0,0-.81,1.14"/><path class="cls-1" d="M88.85,56.87h1a1.16,1.16,0,0,0,.74-.18.67.67,0,0,0,.22-.51.59.59,0,0,0-.22-.47,1.16,1.16,0,0,0-.74-.18h-1Zm0-2.6h.88a1,1,0,0,0,.66-.17.62.62,0,0,0,.19-.48.59.59,0,0,0-.19-.45,1,1,0,0,0-.65-.17h-.89Zm-2-2.61h3.8a2.1,2.1,0,0,1,1.46.47,1.55,1.55,0,0,1,.51,1.18,1.47,1.47,0,0,1-.37,1,1.57,1.57,0,0,1-.7.45,1.8,1.8,0,0,1,1,.59,1.65,1.65,0,0,1,.34,1A1.82,1.82,0,0,1,92,58a2,2,0,0,1-.77.21,7.5,7.5,0,0,1-.91.1H86.8Z"/><polygon class="cls-1" points="94.3 51.66 99.75 51.66 99.75 53.07 96.34 53.07 96.34 54.13 99.51 54.13 99.51 55.48 96.34 55.48 96.34 56.8 99.85 56.8 99.85 58.3 94.3 58.3 94.3 51.66"/><rect class="cls-1" x="101.4" y="51.66" width="2.04" height="6.65"/><path class="cls-1" d="M108,51.66h2v3.61a5.83,5.83,0,0,1-.2,1.73,2,2,0,0,1-.8,1,2.73,2.73,0,0,1-1.55.41,3.54,3.54,0,0,1-1.54-.27,2,2,0,0,1-.85-.8,2.92,2.92,0,0,1-.35-1.29l1.94-.27a2.06,2.06,0,0,0,.08.65.65.65,0,0,0,.24.35.66.66,0,0,0,.83-.17,1.69,1.69,0,0,0,.16-.87Z"/><rect class="cls-1" x="111.84" y="51.66" width="2.04" height="6.65"/><polygon class="cls-1" points="115.71 51.66 117.61 51.66 120.09 55.33 120.09 51.66 122 51.66 122 58.3 120.09 58.3 117.63 54.65 117.63 58.3 115.71 58.3 115.71 51.66"/><path class="cls-1" d="M127,55.9V54.52h3.14v2.82a6.26,6.26,0,0,1-1.59.85,5.34,5.34,0,0,1-1.65.23A4,4,0,0,1,125,58a2.76,2.76,0,0,1-1.14-1.2,4,4,0,0,1-.41-1.83,3.91,3.91,0,0,1,.44-1.89,2.82,2.82,0,0,1,1.31-1.22,4.07,4.07,0,0,1,1.8-.33,5.11,5.11,0,0,1,1.63.2,2.21,2.21,0,0,1,.9.62,2.76,2.76,0,0,1,.53,1.07l-2,.35a1.12,1.12,0,0,0-.41-.58A1.29,1.29,0,0,0,127,53a1.32,1.32,0,0,0-1.06.47,2.25,2.25,0,0,0-.4,1.49,2.33,2.33,0,0,0,.4,1.54A1.43,1.43,0,0,0,127,57a2,2,0,0,0,.65-.1,3.46,3.46,0,0,0,.71-.34V55.9Z"/><polygon class="cls-1" points="135.19 51.66 137.09 51.66 139.57 55.33 139.57 51.66 141.48 51.66 141.48 58.3 139.57 58.3 137.11 54.65 137.11 58.3 135.19 58.3 135.19 51.66"/><path class="cls-1" d="M145,55a2.26,2.26,0,0,0,.37,1.44,1.24,1.24,0,0,0,1,.44,1.21,1.21,0,0,0,1-.43,2.47,2.47,0,0,0,.36-1.54,2.09,2.09,0,0,0-.37-1.38,1.31,1.31,0,0,0-1-.43,1.21,1.21,0,0,0-1,.44A2.24,2.24,0,0,0,145,55m-2,0a3.46,3.46,0,0,1,.9-2.54,3.41,3.41,0,0,1,5.92,2.48,4.11,4.11,0,0,1-.39,1.91A2.73,2.73,0,0,1,148.26,58a3.64,3.64,0,0,1-1.83.42,4.13,4.13,0,0,1-1.84-.36,2.87,2.87,0,0,1-1.19-1.13A3.84,3.84,0,0,1,143,55"/><path class="cls-1" d="M153.3,54.35h.86a3.16,3.16,0,0,0,.54-.09.59.59,0,0,0,.33-.21.65.65,0,0,0,.12-.39.59.59,0,0,0-.2-.49,1.18,1.18,0,0,0-.76-.17h-.89Zm-2,4V51.66h3.39a4.92,4.92,0,0,1,1.44.16,1.51,1.51,0,0,1,.8.61,2.09,2.09,0,0,1,.07,2,2,2,0,0,1-.64.65,2.82,2.82,0,0,1-.72.26,2.07,2.07,0,0,1,.53.24,2.7,2.7,0,0,1,.32.36,2,2,0,0,1,.29.41l1,1.93h-2.3l-1.09-2a1.58,1.58,0,0,0-.37-.51.84.84,0,0,0-.49-.15h-.18v2.7Z"/><polygon class="cls-1" points="158.72 51.66 161.4 51.66 162.43 55.7 163.45 51.66 166.12 51.66 166.12 58.3 164.46 58.3 164.46 53.24 163.17 58.3 161.67 58.3 160.38 53.24 160.38 58.3 158.72 58.3 158.72 51.66"/><path class="cls-1" d="M171.41,55.77l-.73-2.39L170,55.77Zm.42,1.44h-2.31l-.32,1.1h-2.08l2.47-6.65h2.22l2.48,6.65h-2.13Z"/><polygon class="cls-1" points="175.3 51.66 177.34 51.66 177.34 56.67 180.51 56.67 180.51 58.3 175.3 58.3 175.3 51.66"/><path class="cls-1" d="M189.52,51.66h2v4a3.4,3.4,0,0,1-.18,1.11,2.49,2.49,0,0,1-.58.91,2.12,2.12,0,0,1-.81.56,4.24,4.24,0,0,1-1.42.22,10.26,10.26,0,0,1-1.05-.07,3,3,0,0,1-.95-.27,2.48,2.48,0,0,1-.7-.57,2.21,2.21,0,0,1-.43-.77,4.23,4.23,0,0,1-.19-1.12v-4h2v4.05a1.16,1.16,0,0,0,.3.85,1.08,1.08,0,0,0,.83.31,1.1,1.1,0,0,0,.82-.3,1.18,1.18,0,0,0,.3-.86Z"/><polygon class="cls-1" points="193.27 51.66 195.17 51.66 197.65 55.33 197.65 51.66 199.56 51.66 199.56 58.3 197.65 58.3 195.19 54.65 195.19 58.3 193.27 58.3 193.27 51.66"/><rect class="cls-1" x="201.37" y="51.66" width="2.04" height="6.65"/><polygon class="cls-1" points="204.57 51.66 206.7 51.66 208.18 56.44 209.64 51.66 211.71 51.66 209.27 58.3 207.06 58.3 204.57 51.66"/><polygon class="cls-1" points="212.74 51.66 218.19 51.66 218.19 53.07 214.78 53.07 214.78 54.13 217.95 54.13 217.95 55.48 214.78 55.48 214.78 56.8 218.29 56.8 218.29 58.3 212.74 58.3 212.74 51.66"/><path class="cls-1" d="M221.82,54.35h.86a3.16,3.16,0,0,0,.54-.09.59.59,0,0,0,.33-.21.65.65,0,0,0,.13-.39.59.59,0,0,0-.21-.49,1.16,1.16,0,0,0-.76-.17h-.89Zm-2,4V51.66h3.39a4.83,4.83,0,0,1,1.44.16,1.51,1.51,0,0,1,.8.61,1.78,1.78,0,0,1,.31,1.07,1.85,1.85,0,0,1-.24,1,1.89,1.89,0,0,1-.64.65,2.56,2.56,0,0,1-.72.26,2.07,2.07,0,0,1,.53.24A2.59,2.59,0,0,1,225,56a2.3,2.3,0,0,1,.28.41l1,1.93H224l-1.09-2a1.59,1.59,0,0,0-.36-.51.89.89,0,0,0-.5-.15h-.18v2.7Z"/><path class="cls-1" d="M226.92,56.11l1.93-.13a1.49,1.49,0,0,0,.26.73,1.05,1.05,0,0,0,.89.4,1,1,0,0,0,.67-.2.63.63,0,0,0,.24-.48.64.64,0,0,0-.23-.47,2.64,2.64,0,0,0-1-.38,4.29,4.29,0,0,1-1.9-.81,1.6,1.6,0,0,1-.58-1.28,1.83,1.83,0,0,1,.29-1,2,2,0,0,1,.89-.71,4,4,0,0,1,1.62-.27,3.24,3.24,0,0,1,1.92.48,2.07,2.07,0,0,1,.79,1.51l-1.92.11a1.08,1.08,0,0,0-.32-.66,1.06,1.06,0,0,0-.68-.2.82.82,0,0,0-.53.15.47.47,0,0,0-.18.37.38.38,0,0,0,.15.29,1.71,1.71,0,0,0,.68.24,8.58,8.58,0,0,1,1.91.59,1.93,1.93,0,0,1,.84.74,1.82,1.82,0,0,1,.26,1,2.07,2.07,0,0,1-.35,1.18,2.23,2.23,0,0,1-1,.82,4,4,0,0,1-1.59.28,3.2,3.2,0,0,1-2.32-.66,2.52,2.52,0,0,1-.73-1.65"/><rect class="cls-1" x="234.36" y="51.66" width="2.04" height="6.65"/><polygon class="cls-1" points="237.75 51.66 243.94 51.66 243.94 53.3 241.86 53.3 241.86 58.3 239.83 58.3 239.83 53.3 237.75 53.3 237.75 51.66"/><polygon class="cls-1" points="244.56 51.66 246.81 51.66 248.14 53.9 249.48 51.66 251.72 51.66 249.16 55.52 249.16 58.3 247.12 58.3 247.12 55.52 244.56 51.66"/></svg>