<svg id="图层_1" data-name="图层 1" xmlns="http://www.w3.org/2000/svg" viewBox="0 0 278 72"><defs><style>.cls-1,.cls-3{fill:#009fe8;}.cls-2{fill:#fff;}.cls-3{fill-rule:evenodd;}</style></defs><title>logo合集</title><circle class="cls-1" cx="58.03" cy="36" r="26.59" transform="translate(-1.61 2.73) rotate(-2.66)"/><circle class="cls-2" cx="58.03" cy="36" r="25.87" transform="translate(-1.61 2.73) rotate(-2.66)"/><path class="cls-3" d="M94.71,52V48.57H96a1.58,1.58,0,0,1,.62.1A.75.75,0,0,1,97,49a.82.82,0,0,1,.14.44.75.75,0,0,1-.12.41.85.85,0,0,1-.36.31.9.9,0,0,1,.48.31.8.8,0,0,1,.16.51,1,1,0,0,1-.1.44.79.79,0,0,1-.25.31,1,1,0,0,1-.37.17A2.12,2.12,0,0,1,96,52Zm.45-2h.73a1.89,1.89,0,0,0,.42,0,.5.5,0,0,0,.26-.17.48.48,0,0,0,.09-.29.56.56,0,0,0-.08-.3.5.5,0,0,0-.23-.18,2.15,2.15,0,0,0-.52,0h-.67v1Zm0,1.56H96l.3,0a.88.88,0,0,0,.26-.09.45.45,0,0,0,.17-.19A.61.61,0,0,0,96.8,51a.59.59,0,0,0-.1-.33.51.51,0,0,0-.27-.2,2,2,0,0,0-.49,0h-.78Z"/><polygon class="cls-3" points="98.15 51.95 98.15 48.57 100.59 48.57 100.59 48.97 98.59 48.97 98.59 50 100.47 50 100.47 50.4 98.59 50.4 98.59 51.55 100.67 51.55 100.67 51.95 98.15 51.95"/><rect class="cls-1" x="101.63" y="48.57" width="0.45" height="3.38"/><path class="cls-3" d="M102.9,51l.4-.06a.81.81,0,0,0,.15.53.43.43,0,0,0,.35.15.52.52,0,0,0,.29-.08.35.35,0,0,0,.17-.21,1.4,1.4,0,0,0,0-.42V48.57h.45v2.3a1.67,1.67,0,0,1-.11.66.73.73,0,0,1-.32.35,1.11,1.11,0,0,1-.52.13.9.9,0,0,1-.69-.26A1.06,1.06,0,0,1,102.9,51Z"/><rect class="cls-1" x="105.82" y="48.57" width="0.45" height="3.38"/><polygon class="cls-3" points="107.32 51.95 107.32 48.57 107.78 48.57 109.55 51.22 109.55 48.57 109.98 48.57 109.98 51.95 109.52 51.95 107.75 49.29 107.75 51.95 107.32 51.95"/><path class="cls-3" d="M112.58,50.62v-.39H114v1.26a2.77,2.77,0,0,1-.68.39,2,2,0,0,1-.72.14,2,2,0,0,1-.91-.22,1.44,1.44,0,0,1-.61-.61,1.94,1.94,0,0,1-.21-.91,2.07,2.07,0,0,1,.21-.92,1.39,1.39,0,0,1,.59-.63,1.87,1.87,0,0,1,.9-.21,1.76,1.76,0,0,1,.66.12,1.07,1.07,0,0,1,.46.33,1.56,1.56,0,0,1,.26.55l-.4.11a1.66,1.66,0,0,0-.19-.4A.83.83,0,0,0,113,49a1.14,1.14,0,0,0-.46-.09,1.22,1.22,0,0,0-.53.1,1,1,0,0,0-.58.58,1.83,1.83,0,0,0-.13.68,1.67,1.67,0,0,0,.16.75.9.9,0,0,0,.45.45,1.39,1.39,0,0,0,.63.15,1.56,1.56,0,0,0,.57-.11,1.16,1.16,0,0,0,.42-.24v-.63Z"/><path class="cls-3" d="M118.2,48.57h.45v2a2.23,2.23,0,0,1-.12.81,1,1,0,0,1-.42.49,1.51,1.51,0,0,1-.79.19,1.6,1.6,0,0,1-.77-.17.93.93,0,0,1-.43-.47,2.2,2.2,0,0,1-.13-.85v-2h.44v2a1.76,1.76,0,0,0,.09.65.62.62,0,0,0,.28.32,1,1,0,0,0,.49.11.93.93,0,0,0,.7-.22,1.3,1.3,0,0,0,.21-.86Z"/><polygon class="cls-3" points="119.65 51.95 119.65 48.57 120.11 48.57 121.88 51.22 121.88 48.57 122.31 48.57 122.31 51.95 121.85 51.95 120.08 49.29 120.08 51.95 119.65 51.95"/><rect class="cls-1" x="123.4" y="48.57" width="0.45" height="3.38"/><path class="cls-3" d="M125.87,52l-1.31-3.38H125l.88,2.45c.07.2.13.38.18.56.05-.19.11-.37.18-.56l.91-2.45h.46L126.32,52Z"/><polygon class="cls-3" points="128.32 51.95 128.32 48.57 130.77 48.57 130.77 48.97 128.77 48.97 128.77 50 130.64 50 130.64 50.4 128.77 50.4 128.77 51.55 130.84 51.55 130.84 51.95 128.32 51.95"/><path class="cls-3" d="M131.73,52V48.57h1.5a2.05,2.05,0,0,1,.69.09.76.76,0,0,1,.37.32.89.89,0,0,1,.14.51.84.84,0,0,1-.23.61,1.15,1.15,0,0,1-.72.31,1.05,1.05,0,0,1,.27.17,2.12,2.12,0,0,1,.37.45l.59.92h-.56l-.45-.71c-.13-.2-.24-.35-.32-.46a1.23,1.23,0,0,0-.23-.23.88.88,0,0,0-.2-.09h-.77V52Zm.45-1.89h1a1.52,1.52,0,0,0,.48-.06.5.5,0,0,0,.26-.21.53.53,0,0,0,.09-.3.48.48,0,0,0-.17-.39.79.79,0,0,0-.55-.16h-1.07Z"/><path class="cls-3" d="M135.25,50.86l.42,0a.87.87,0,0,0,.14.42.66.66,0,0,0,.34.26,1.21,1.21,0,0,0,.52.1,1.25,1.25,0,0,0,.45-.07.59.59,0,0,0,.29-.21.53.53,0,0,0,.1-.29.45.45,0,0,0-.1-.28.71.71,0,0,0-.3-.2c-.09,0-.29-.09-.6-.16a4.34,4.34,0,0,1-.66-.21.94.94,0,0,1-.36-.32.74.74,0,0,1-.12-.42.85.85,0,0,1,.15-.48,1,1,0,0,1,.42-.34,1.8,1.8,0,0,1,.62-.11,1.74,1.74,0,0,1,.67.12.93.93,0,0,1,.44.36,1,1,0,0,1,.16.53l-.42,0a.74.74,0,0,0-.24-.48.9.9,0,0,0-.59-.17,1,1,0,0,0-.59.15.45.45,0,0,0-.18.36.38.38,0,0,0,.13.3,1.67,1.67,0,0,0,.67.24,4.57,4.57,0,0,1,.75.22,1,1,0,0,1,.44.34.87.87,0,0,1,.14.48,1,1,0,0,1-.16.51,1,1,0,0,1-.44.37,1.55,1.55,0,0,1-.65.14,1.89,1.89,0,0,1-.77-.14,1.07,1.07,0,0,1-.67-1Z"/><rect class="cls-1" x="138.89" y="48.57" width="0.45" height="3.38"/><polygon class="cls-3" points="141.24 51.95 141.24 48.97 140.13 48.97 140.13 48.57 142.81 48.57 142.81 48.97 141.69 48.97 141.69 51.95 141.24 51.95"/><path class="cls-3" d="M144.48,52V50.52l-1.3-2h.54l.67,1c.12.19.24.38.34.57l.37-.6.66-1h.52l-1.35,2V52Z"/><path class="cls-3" d="M147.77,50.3a1.85,1.85,0,0,1,.45-1.32,1.56,1.56,0,0,1,1.17-.47,1.6,1.6,0,0,1,.84.22,1.47,1.47,0,0,1,.58.63,2,2,0,0,1,.19.9,2.08,2.08,0,0,1-.2.92,1.47,1.47,0,0,1-.59.62,1.7,1.7,0,0,1-.82.21,1.57,1.57,0,0,1-.86-.24,1.45,1.45,0,0,1-.57-.63,2,2,0,0,1-.19-.84Zm.46,0a1.33,1.33,0,0,0,.33,1,1.06,1.06,0,0,0,.83.35,1.11,1.11,0,0,0,.83-.35,1.49,1.49,0,0,0,.32-1,1.6,1.6,0,0,0-.14-.72,1.11,1.11,0,0,0-.4-.48,1.14,1.14,0,0,0-.61-.17,1.16,1.16,0,0,0-.82.33A1.5,1.5,0,0,0,148.23,50.31Z"/><polygon class="cls-3" points="151.87 51.95 151.87 48.57 154.15 48.57 154.15 48.97 152.31 48.97 152.31 50.01 153.9 50.01 153.9 50.41 152.31 50.41 152.31 51.95 151.87 51.95"/><path class="cls-3" d="M156,52V48.57h1.27a3.36,3.36,0,0,1,.52,0,1.11,1.11,0,0,1,.42.16.86.86,0,0,1,.27.32,1,1,0,0,1,.1.46,1.07,1.07,0,0,1-.27.74,1.39,1.39,0,0,1-1,.29h-.86V52Zm.45-1.78h.87A.94.94,0,0,0,158,50a.57.57,0,0,0,.18-.45.61.61,0,0,0-.11-.36.44.44,0,0,0-.28-.2,2,2,0,0,0-.42,0h-.86Z"/><path class="cls-3" d="M159.32,50.3a1.85,1.85,0,0,1,.45-1.32,1.55,1.55,0,0,1,1.16-.47,1.61,1.61,0,0,1,.85.22,1.45,1.45,0,0,1,.57.63,2,2,0,0,1,.2.9,2,2,0,0,1-.21.92,1.42,1.42,0,0,1-.59.62,1.64,1.64,0,0,1-.82.21,1.53,1.53,0,0,1-.85-.24,1.45,1.45,0,0,1-.57-.63,1.85,1.85,0,0,1-.19-.84Zm.46,0a1.37,1.37,0,0,0,.32,1,1.07,1.07,0,0,0,.83.35,1.09,1.09,0,0,0,.83-.35,1.45,1.45,0,0,0,.33-1,1.74,1.74,0,0,0-.14-.72,1.14,1.14,0,0,0-1.83-.32A1.45,1.45,0,0,0,159.78,50.31Z"/><path class="cls-3" d="M163.24,50.86l.42,0a.87.87,0,0,0,.14.42.66.66,0,0,0,.34.26,1.19,1.19,0,0,0,.51.1,1.27,1.27,0,0,0,.46-.07.64.64,0,0,0,.29-.21.52.52,0,0,0,.09-.29.45.45,0,0,0-.09-.28.71.71,0,0,0-.3-.2c-.09,0-.29-.09-.6-.16a4.34,4.34,0,0,1-.66-.21.94.94,0,0,1-.36-.32.74.74,0,0,1-.12-.42.85.85,0,0,1,.15-.48,1,1,0,0,1,.42-.34,1.87,1.87,0,0,1,1.29,0,.93.93,0,0,1,.44.36,1,1,0,0,1,.16.53l-.42,0a.74.74,0,0,0-.24-.48.9.9,0,0,0-.59-.17.93.93,0,0,0-.59.15.47.47,0,0,0-.19.36.39.39,0,0,0,.14.3,1.67,1.67,0,0,0,.67.24,4.57,4.57,0,0,1,.75.22,1,1,0,0,1,.44.34.87.87,0,0,1,.14.48,1,1,0,0,1-.16.51,1,1,0,0,1-.44.37,1.55,1.55,0,0,1-.65.14,1.89,1.89,0,0,1-.77-.14,1.07,1.07,0,0,1-.67-1Z"/><polygon class="cls-3" points="167.66 51.95 167.66 48.97 166.55 48.97 166.55 48.57 169.22 48.57 169.22 48.97 168.11 48.97 168.11 51.95 167.66 51.95"/><path class="cls-3" d="M169.79,50.86l.43,0a.87.87,0,0,0,.14.42.66.66,0,0,0,.34.26,1.19,1.19,0,0,0,.51.1,1.31,1.31,0,0,0,.46-.07.64.64,0,0,0,.29-.21.52.52,0,0,0,.09-.29.45.45,0,0,0-.09-.28.71.71,0,0,0-.3-.2c-.09,0-.29-.09-.6-.16a4,4,0,0,1-.66-.21.94.94,0,0,1-.36-.32.74.74,0,0,1-.12-.42.85.85,0,0,1,.15-.48.9.9,0,0,1,.42-.34,1.87,1.87,0,0,1,1.29,0,1,1,0,0,1,.44.36,1,1,0,0,1,.16.53l-.43,0a.69.69,0,0,0-.23-.48.9.9,0,0,0-.59-.17.93.93,0,0,0-.59.15.47.47,0,0,0-.19.36.39.39,0,0,0,.14.3,1.67,1.67,0,0,0,.67.24,4.57,4.57,0,0,1,.75.22,1,1,0,0,1,.43.34.8.8,0,0,1,.14.48,1,1,0,0,1-.15.51,1,1,0,0,1-.44.37,1.55,1.55,0,0,1-.65.14,1.89,1.89,0,0,1-.77-.14,1.08,1.08,0,0,1-.49-.4A1.16,1.16,0,0,1,169.79,50.86Z"/><path class="cls-3" d="M175.09,52l1.3-3.38h.48L178.25,52h-.51l-.39-1h-1.42l-.37,1Zm1-1.39h1.15l-.35-.94a6.55,6.55,0,0,1-.24-.7,5.31,5.31,0,0,1-.19.65Z"/><polygon class="cls-3" points="178.87 51.95 178.87 48.57 179.33 48.57 181.1 51.22 181.1 48.57 181.53 48.57 181.53 51.95 181.07 51.95 179.3 49.29 179.3 51.95 178.87 51.95"/><path class="cls-3" d="M182.54,52V48.57h1.17a2.38,2.38,0,0,1,.6,0,1.11,1.11,0,0,1,.5.24,1.44,1.44,0,0,1,.4.58,2.44,2.44,0,0,1,.13.8,2.33,2.33,0,0,1-.09.68,1.72,1.72,0,0,1-.23.49,1.3,1.3,0,0,1-.31.31,1.21,1.21,0,0,1-.4.17,2.26,2.26,0,0,1-.55.06Zm.45-.4h.72a1.84,1.84,0,0,0,.53-.06.8.8,0,0,0,.3-.18,1,1,0,0,0,.25-.43,2,2,0,0,0,.09-.65,1.52,1.52,0,0,0-.18-.81.81.81,0,0,0-.42-.38,1.64,1.64,0,0,0-.58-.07H183Z"/><polygon class="cls-3" points="188.04 51.95 188.04 48.97 186.93 48.97 186.93 48.57 189.61 48.57 189.61 48.97 188.49 48.97 188.49 51.95 188.04 51.95"/><polygon class="cls-3" points="190.34 51.95 190.34 48.57 192.78 48.57 192.78 48.97 190.78 48.97 190.78 50 192.66 50 192.66 50.4 190.78 50.4 190.78 51.55 192.86 51.55 192.86 51.95 190.34 51.95"/><polygon class="cls-3" points="193.72 51.95 193.72 48.57 194.17 48.57 194.17 51.55 195.83 51.55 195.83 51.95 193.72 51.95"/><polygon class="cls-3" points="196.64 51.95 196.64 48.57 199.08 48.57 199.08 48.97 197.09 48.97 197.09 50 198.96 50 198.96 50.4 197.09 50.4 197.09 51.55 199.16 51.55 199.16 51.95 196.64 51.95"/><path class="cls-3" d="M202.45,50.76l.45.12a1.5,1.5,0,0,1-.51.84,1.4,1.4,0,0,1-.89.29,1.61,1.61,0,0,1-.89-.23,1.38,1.38,0,0,1-.52-.64,2.31,2.31,0,0,1-.18-.91,2,2,0,0,1,.2-.92,1.46,1.46,0,0,1,.58-.6,1.74,1.74,0,0,1,.82-.2,1.39,1.39,0,0,1,.85.26,1.32,1.32,0,0,1,.48.72l-.44.11a1,1,0,0,0-.34-.54.93.93,0,0,0-.56-.17,1,1,0,0,0-.65.19.94.94,0,0,0-.37.5,2.06,2.06,0,0,0-.11.65,2.1,2.1,0,0,0,.13.75.86.86,0,0,0,.39.48,1.07,1.07,0,0,0,.57.16,1,1,0,0,0,.64-.21A1.14,1.14,0,0,0,202.45,50.76Z"/><path class="cls-3" d="M203.58,50.3A1.85,1.85,0,0,1,204,49a1.56,1.56,0,0,1,1.17-.47,1.6,1.6,0,0,1,.84.22,1.45,1.45,0,0,1,.57.63,1.87,1.87,0,0,1,.2.9,2,2,0,0,1-.21.92,1.45,1.45,0,0,1-.58.62,1.71,1.71,0,0,1-.83.21,1.56,1.56,0,0,1-.85-.24,1.45,1.45,0,0,1-.57-.63,1.85,1.85,0,0,1-.19-.84Zm.46,0a1.33,1.33,0,0,0,.33,1,1.05,1.05,0,0,0,.82.35,1.08,1.08,0,0,0,.83-.35,1.45,1.45,0,0,0,.33-1,1.74,1.74,0,0,0-.14-.72,1.07,1.07,0,0,0-.41-.48,1.17,1.17,0,0,0-1.42.16A1.45,1.45,0,0,0,204,50.31Z"/><path class="cls-3" d="M207.64,52V48.57h.67l.8,2.39c.07.22.13.39.16.5l.18-.54.81-2.35h.6V52h-.43V49.12l-1,2.83H209l-1-2.88V52Z"/><path class="cls-3" d="M211.83,52V48.57h.68L213.3,51c.08.22.13.39.17.5,0-.12.09-.3.18-.54l.81-2.35h.6V52h-.43V49.12l-1,2.83h-.4l-1-2.88V52Z"/><path class="cls-3" d="M218.26,48.57h.45v2a2.23,2.23,0,0,1-.12.81,1,1,0,0,1-.41.49,1.56,1.56,0,0,1-.79.19,1.61,1.61,0,0,1-.78-.17.93.93,0,0,1-.43-.47,2.2,2.2,0,0,1-.13-.85v-2h.45v2a1.8,1.8,0,0,0,.08.65.62.62,0,0,0,.28.32,1,1,0,0,0,.49.11.92.92,0,0,0,.7-.22,1.3,1.3,0,0,0,.21-.86Z"/><polygon class="cls-3" points="219.71 51.95 219.71 48.57 220.17 48.57 221.94 51.22 221.94 48.57 222.37 48.57 222.37 51.95 221.91 51.95 220.14 49.29 220.14 51.95 219.71 51.95"/><rect class="cls-1" x="223.46" y="48.57" width="0.45" height="3.38"/><path class="cls-3" d="M227.37,50.76l.45.12a1.5,1.5,0,0,1-.51.84,1.4,1.4,0,0,1-.89.29,1.61,1.61,0,0,1-.89-.23,1.38,1.38,0,0,1-.52-.64,2.31,2.31,0,0,1-.18-.91,2,2,0,0,1,.2-.92,1.46,1.46,0,0,1,.58-.6,1.74,1.74,0,0,1,.82-.2,1.39,1.39,0,0,1,.85.26,1.32,1.32,0,0,1,.48.72l-.44.11a1,1,0,0,0-.34-.54.91.91,0,0,0-.56-.17,1,1,0,0,0-.65.19.94.94,0,0,0-.37.5,2.06,2.06,0,0,0-.11.65,2.1,2.1,0,0,0,.13.75.86.86,0,0,0,.39.48,1.07,1.07,0,0,0,.57.16,1,1,0,0,0,.64-.21A1.14,1.14,0,0,0,227.37,50.76Z"/><path class="cls-3" d="M228.26,52l1.3-3.38H230L231.43,52h-.51l-.4-1h-1.41l-.37,1Zm1-1.39h1.14l-.35-.94a6.55,6.55,0,0,1-.24-.7,3.94,3.94,0,0,1-.18.65Z"/><polygon class="cls-3" points="232.56 51.95 232.56 48.97 231.44 48.97 231.44 48.57 234.12 48.57 234.12 48.97 233 48.97 233 51.95 232.56 51.95"/><rect class="cls-1" x="234.92" y="48.57" width="0.45" height="3.38"/><path class="cls-3" d="M236.28,50.3a1.85,1.85,0,0,1,.45-1.32,1.56,1.56,0,0,1,1.17-.47,1.6,1.6,0,0,1,.84.22,1.47,1.47,0,0,1,.58.63,2,2,0,0,1,.19.9,2,2,0,0,1-.2.92,1.47,1.47,0,0,1-.59.62,1.7,1.7,0,0,1-.82.21,1.53,1.53,0,0,1-.85-.24,1.34,1.34,0,0,1-.57-.63,1.86,1.86,0,0,1-.2-.84Zm.46,0a1.33,1.33,0,0,0,.33,1,1.07,1.07,0,0,0,.83.35,1.11,1.11,0,0,0,.83-.35,1.49,1.49,0,0,0,.32-1,1.6,1.6,0,0,0-.14-.72,1.11,1.11,0,0,0-.4-.48,1.14,1.14,0,0,0-.61-.17,1.12,1.12,0,0,0-.81.33A1.45,1.45,0,0,0,236.74,50.31Z"/><polygon class="cls-3" points="240.35 51.95 240.35 48.57 240.81 48.57 242.58 51.22 242.58 48.57 243.01 48.57 243.01 51.95 242.55 51.95 240.78 49.29 240.78 51.95 240.35 51.95"/><path class="cls-3" d="M243.87,50.86l.43,0a.87.87,0,0,0,.14.42.66.66,0,0,0,.34.26,1.19,1.19,0,0,0,.51.1,1.31,1.31,0,0,0,.46-.07.64.64,0,0,0,.29-.21.52.52,0,0,0,.09-.29.45.45,0,0,0-.09-.28.71.71,0,0,0-.3-.2,6.23,6.23,0,0,0-.61-.16,4.13,4.13,0,0,1-.65-.21.94.94,0,0,1-.36-.32.74.74,0,0,1-.12-.42.85.85,0,0,1,.15-.48.9.9,0,0,1,.42-.34,1.87,1.87,0,0,1,1.29,0,1,1,0,0,1,.44.36,1,1,0,0,1,.16.53l-.43,0a.69.69,0,0,0-.23-.48.9.9,0,0,0-.59-.17.93.93,0,0,0-.59.15.47.47,0,0,0-.19.36.39.39,0,0,0,.14.3,1.67,1.67,0,0,0,.67.24,4.57,4.57,0,0,1,.75.22,1,1,0,0,1,.43.34.8.8,0,0,1,.14.48,1,1,0,0,1-.15.51,1,1,0,0,1-.44.37,1.55,1.55,0,0,1-.65.14,1.89,1.89,0,0,1-.77-.14,1.08,1.08,0,0,1-.49-.4A1.16,1.16,0,0,1,243.87,50.86Z"/><path class="cls-3" d="M101.41,30.27s1.64-5.8.15-5.91-2.44,1.38-2,3.82.21,1.38.21,1.38S95.84,30,95.84,31s1.27,1.38,3.07.74,0,2.65,0,3.29-3,3-3.92,3.07-.21,2.65,2.86.75,8.38-5,8.38-5,0,2.87,1.8,3.82-2.44,1.27-1.7,2,3.93.22,5.62-1.8-2.12-2-3.28-2.75.21-4.78,4.24-4.67.32-2.44-3.18-1.8c0,0,.63-6.79-1.59-6.89s-3.29-.85-1.91,1.9.32,7.11.32,7.11a51,51,0,0,1-5.31,3.5C100.29,34.64,101.41,30.27,101.41,30.27Z"/><path class="cls-3" d="M127.3,23.39c-.23.11,1-2.55.23-3.12s5.9-.7,4.86,1.27-4.86,1.73-5.09,1.85Zm-8.79,6.36c-.92.46.7,2.66.7,2.66s13.06-5.78,17.34-6.71S139.1,23,139.1,23c-5.67-.92-19.66,6.25-20.59,6.71Zm10,5.77s-3.82-.43-2.21-3.14c1.31-2.21,4.75-4.86,6.68-3.73,1.29.76,1.11,1.38.49,2.34a7.86,7.86,0,0,1-1.82,2.24l-.43,2.88s5.43-.51,4.5,3c0,0-2.29,1.27-3.39-.51,0,0-1.11-1.44-1.28-1s.6,5.52-2.63,3c0,0-2.2-2.46-.25-1.69l.34-3.31Zm1.93-5.35s1.59-1.12.95.55-1.59,1.44-1.59,1.44c-2-.16.64-2,.64-2Zm-3.5,7.71c.08-.16-1.43.88-2.31.88s-3.1-.16-2.07,1.35,3.11,2.07,3.74,1A9.3,9.3,0,0,0,126.9,37.88Z"/><path class="cls-3" d="M146.4,23.35l4-4.71c.45-.53,4.34.22,2.47,1.79S150.37,22,150.37,22l.25.7S155.46,21,154,23.8l-3,1.8s-1.13,1.35,1,.67,4.49-.45,2.54,1.88-1.94,1.72-1.94,1.72-.6.9,1.87.9-.23,2-2.62,2.17l-.38,1.27,1.05.06c1.59.13,2.11.46.36,1.56s-5.2,1.07-5.3.7-.45-.6,1.35-1.12.45-1.12-.3-1a4.37,4.37,0,0,0-1.24.6c-.76.49-.66.82-1.37.27-.37-.27-.69-.66-.09-.87A9.74,9.74,0,0,0,148,33.24s-.52-2.17-1.49-1.5-4.64,1-2.7-.67a44.8,44.8,0,0,0,3.6-3.45s-1.58-1.2-.23-1.8,1.57-1,1.57-1l.08-1.87-2.47.37Zm2.42,4.87c1-.14.64-.57.51-1.14-.09-.41-1.86,1.34-.51,1.14ZM157.13,25c-1.12.88-1.12.88-1.31,2.46-.07.52-.13,1.21-.19,2.11-.2,3.15-.23,6.35-.16,9.5.13,6.33.87,7.56,1.68,7.41s.84-10.35.84-10.35c7.39-3.48,2.72-7.63,2.72-7.63s4.24-2.29,2.12-4.67c-1.52-1.71-4.28.05-5.7,1.17Zm3,2s-.39.92-1,1.13,2.85,2.9,1.52,4.38a6.74,6.74,0,0,1-3.18,1.91V28.07C157.42,25.48,161,24.6,160.09,27Z"/><path class="cls-3" d="M175.3,20.5s.43-2.63,3-.34-1.86,2.38-1.86,2.38l-4.92,3.73s-1.11,2.21,3.56-.25,3.14-3,8.91-2.13c0,0,4.49,2.55-1.44,4.76,0,0-2.21.25.5-1.7s-2.46-2.63-3.3-1.95-1.88.86.07,1.71c1.07.47,1.55.53,1.1,2.07A7.06,7.06,0,0,1,179,31.62s-1.94.93,1.27,1.15c1,.06,1.27,0,1.51,1.23.19,1-.25,2.62-3.63,4,0,0-1.69,3.39,4.25,2.61.43-.06,1.73-.25,1.17.73-.71,1.26-6.94.77-6.94-2.24h-3.52c-3.72,0-1.31-3.39.46-5.76-5,.42,1.14-5.78,1.78-5.27,1.18.95,0,1.27-.73,1.83-1,.84-2.09,2-.28,2.34,2.47.44,1.83.31,1.94-1.3l.12-2c.09-1.37.82-2.25-.81-2.06a5.36,5.36,0,0,0-4,2.6c-1.79,3-.87,2.14-1.11,2.38s-1.6,1.17-1.44-2.71c.05-1.26,2.81-4.8,4.66-6.37s1.58.35,1.7-2.29Zm.36,14.78c.29-1.35-1.93-.5-1.93,1.12s1.62,1.19,2.6.92c2.68-.71-1.1-.09-.67-2Zm2.49.88c.75.07,4-.51,1.88-2.07C178.14,32.7,178,36.14,178.15,36.16Z"/><path class="cls-3" d="M194.2,27.22l3.34-.71s.35-4.7-.12-5.25,3.69-.28,3.67,1.47-.53,1.47-1,1.55,0,1.59,0,1.59,3-1.51,3,.24-2.71.88-3.9,1.91c-.89.77-1.08,1.4-.32,1.86s1.1-.21,2.27,1.06c1.63,1.77,4.76,5.41,8,5.22,0,0-2.75,3.26-7-.74A20.05,20.05,0,0,1,200.39,33l-2.45-2.68s-5.17,6.68-7.16,6.84,4.45-3.9,5.25-7.24c0,0,.87-1.19-.48-1.12C193.8,29.16,193.56,27.3,194.2,27.22Z"/><path class="cls-3" d="M221.09,25.24s-.63,3.68-2.47,2.05c0,0-1.06-.7-1.42,1s-3,1.06-2.75-1.91,1.2-6.14,3-4.45c0,0,.7,2.55,1.2.35s1.84-3,2-.63,1.76,2.76,1.84.07-.5-3.68.49-4,.92.35,1,1.06,2.12-.78,2.19.5-1.13,1.48-1.7,1.62c0,0-.59.78-.17.9s2.67-.91,1.64.61-1.39.6-1.82,1,1.7.6,1.7,1.87a3,3,0,0,1-.61,1.94s3.7-.36,4.18.61.37,3.33-3.09,3.27-.91-.79-.48-1,.54-1.21-1.82-.6-5.33,2.36-6.48,2.6-2.55-1-1.64-1.57,5.64-1.64,6.42-2,2.55-2.25,0-3.4a4.05,4.05,0,0,0-1.22.08Zm-6.41,4.89c-.3-.18-3.7,2.3-2.55,5.15.36.89.82.55,1.27.51A2,2,0,0,0,215,33.22c-.48-1.94,0-2.91-.3-3.09Zm6.06,5a29.37,29.37,0,0,1-5.09,2.06c-2.73.79,1.45,2.67,2.3,1.76s3-1.88,3.09-1.21.73,2.9-.67,2.48S219,40,218.56,41s1.21,2.06,3.27,1.33,2-5.33,2-5.33a2.48,2.48,0,0,0,2.85-1.58c.84-1.57-3.52-.42-3.52-.42L223.1,34c1.39-.73,1.21-1.58,1.21-1.58.43-2.36-1.33-1.27-3.21-.91s-4.24,1.88-1.88,1.82S220.74,35.16,220.74,35.16Z"/><circle class="cls-1" cx="58.03" cy="36" r="20.63" transform="translate(-1.61 2.74) rotate(-2.67)"/><circle class="cls-2" cx="58.03" cy="36" r="20.34" transform="translate(-1.61 2.74) rotate(-2.67)"/><path class="cls-3" d="M37.55,36.28a2.07,2.07,0,0,1,.06.55H66.34s-3-6.45-3.39-7.21c-.14-.28-.11-.53.36-.21s1.44,1,2.91,4.13l1.57-.7c.29-.12.29-.24,0-.66-.51-.9-.93-1.71-1.5-2.6a9.65,9.65,0,0,0-1.76-1.84c-.16-.14-.32-.23.53-.83,0,0,.35.3.91.81a9,9,0,0,1,1.26,1.36,22.45,22.45,0,0,1,1.85,3.14s1.77-.81,2.1-1a1,1,0,0,0-.08-.58,17.86,17.86,0,0,0-1-2A13.2,13.2,0,0,0,66.88,25c-.35-.32-.09-.49.12-.76s.45-.53.91-.1A11.06,11.06,0,0,1,69.83,26a28,28,0,0,1,3.42,6.7l3-.67A18.57,18.57,0,0,0,72,23.58a18.34,18.34,0,0,0-14.23-6.24,17.87,17.87,0,0,0-11.7,4.26c-.12.16-.2.28.18.37a12.81,12.81,0,0,1,6.06,3.48,6,6,0,0,1,1.28,1.66,10.8,10.8,0,0,1,1.32,3.44,3.68,3.68,0,0,1-2,4.05,6.4,6.4,0,0,1-4.93.55c-1.49-.31-2.87-1.07-4.26-1s-2.12.22-4.06,1.65a2.34,2.34,0,0,1-2.17.52Zm8,13.52,2.31-2.37A15.5,15.5,0,0,0,58,51.19a12.28,12.28,0,0,0,6.17-1.49s-.83-1.82-.9-2l1.17-.59c.16-.09.31-.08.45.24a6.7,6.7,0,0,0,.94,1.74A21.18,21.18,0,0,0,68.6,46.9a14.72,14.72,0,0,0,4.46-7.82,16.11,16.11,0,0,0,.38-4.54l3.23-.25a27.84,27.84,0,0,1-.88,6.92,17.66,17.66,0,0,1-1.16,2.72A19.68,19.68,0,0,1,73,46.73a17,17,0,0,1-8.22,6.44c-.54.2-8.49,3.23-16-1.1a16.46,16.46,0,0,1-3.17-2.27ZM61.9,45l.64,1.36L64,45.65l-.62-1.35L61.9,45Zm-1.08-2.15.64,1.37,1.43-.65-.65-1.37-1.42.65Zm-1.08-2.2L60.35,42l1.41-.66L61.13,40l-1.39.64Zm-15.46,11-3,3.16-.49-.47a.64.64,0,0,1-.17-.23.68.68,0,0,1,0-.25.93.93,0,0,1,.12-.34,1.76,1.76,0,0,1,.26-.39,2.81,2.81,0,0,1,.3-.3,1,1,0,0,1,.37-.2l.17,0a1.54,1.54,0,0,1,0-.3,1.28,1.28,0,0,1,.16-.36,3.12,3.12,0,0,1,.33-.41,2.41,2.41,0,0,1,.39-.35,1,1,0,0,1,.33-.17.61.61,0,0,1,.26,0,.37.37,0,0,1,.21.06.75.75,0,0,1,.18.15l.5.47Zm-1.55,1.23.94-1-.24-.23a1.28,1.28,0,0,0-.19-.16.28.28,0,0,0-.15,0,.45.45,0,0,0-.23.09,1.33,1.33,0,0,0-.24.19,2.43,2.43,0,0,0-.2.25.9.9,0,0,0-.13.29.26.26,0,0,0,0,.18l.11.13.32.3Zm-.39.42-.28-.26a.53.53,0,0,0-.14-.1.25.25,0,0,0-.17,0,.78.78,0,0,0-.21.12,2.34,2.34,0,0,0-.23.22,1.05,1.05,0,0,0-.14.2.45.45,0,0,0-.07.18.22.22,0,0,0,0,.14.56.56,0,0,0,.1.15l.28.27.86-.92Zm-2.21-2.24.57.66-.91.81-.63-.72-.42.38.83.94,3.26-2.9-.84-1-.43.38.64.72-1.07,1-.58-.65-.42.38Zm1.12-2.73L37.79,51l.18.24,3.46-2.62-.18-.24Zm-2.15-.77L36.55,49.2l-.16-.26L39,47.27l.32-.18a1.19,1.19,0,0,1,.35-.15,1.39,1.39,0,0,1,.32,0,.63.63,0,0,1,.26.07.39.39,0,0,1,.18.18.43.43,0,0,1,0,.33,1.25,1.25,0,0,1-.18.34,1.42,1.42,0,0,1-.33.31l-.25.19-.16-.25.19-.14a1,1,0,0,0,.15-.14A.51.51,0,0,0,40,47.6a.21.21,0,0,0,0-.19.2.2,0,0,0-.11-.09.4.4,0,0,0-.19,0,1,1,0,0,0-.24.08,2.8,2.8,0,0,0-.33.18Zm.35-2.11-3.84,2,.14.27,3.84-2-.14-.27Zm-3.53.26,3-1.28.11.27-4,1.69-.11-.27L37.47,44l-2.93,1.24-.11-.28,4-1.69.11.26-2.63,2.22ZM34.8,42l-.19.09a1.84,1.84,0,0,0-.31.16,1.46,1.46,0,0,0-.28.21.88.88,0,0,0-.19.27.52.52,0,0,0,0,.35.46.46,0,0,0,.19.28.86.86,0,0,0,.32.15,3.82,3.82,0,0,0,.45.06,2.65,2.65,0,0,0,.65-.06c.25,0,.5-.1.73-.16l.57-.19a3.16,3.16,0,0,0,.5-.22,2,2,0,0,0,.44-.29,1,1,0,0,0,.27-.37.64.64,0,0,0,.06-.37,1.94,1.94,0,0,0-.07-.33l-.14-.43-2.14.64.2.63.59-.17-.11-.35,1-.3.08.27a1.42,1.42,0,0,1,.05.16.47.47,0,0,1,0,.2.57.57,0,0,1-.16.26,1.28,1.28,0,0,1-.38.27,5.16,5.16,0,0,1-.49.21L36,43.1c-.17,0-.33.08-.48.11a2.42,2.42,0,0,1-.47,0,2.25,2.25,0,0,1-.4,0,.49.49,0,0,1-.23-.12.34.34,0,0,1-.1-.16.36.36,0,0,1,0-.29.87.87,0,0,1,.23-.2l.26-.14L34.8,42Zm-1.95-4.24,0-.3,2.87-.27h.37a2.15,2.15,0,0,1,.43,0,1.12,1.12,0,0,1,.39.11.8.8,0,0,1,.29.23.55.55,0,0,1,.12.3.44.44,0,0,1-.07.32,1.1,1.1,0,0,1-.26.27,2.68,2.68,0,0,1-.33.18l-.37.1-.46,0L33,39.06l0-.29,2.76-.26a3.49,3.49,0,0,0,.5-.08.7.7,0,0,0,.3-.14.39.39,0,0,0,.15-.2.53.53,0,0,0,0-.22.34.34,0,0,0-.09-.21.43.43,0,0,0-.2-.11,1.06,1.06,0,0,0-.34,0,4.23,4.23,0,0,0-.49,0l-2.72.26Zm1-1.57,3.31,0v.29l-4.39,0v-.3l3.22-1-3.21,0v-.3l4.39.05v.28l-3.33,1Zm3.41-2.46,0,.3-4.33-.43,0-.3,4.33.43Zm.21-1.57-4.41,0,.06-.32,3.35.05-3.11-1.2.07-.32L37.55,32l0,.21Zm-1.76-3.38.55.17-.24.8,1.37.42.27-.89.55.16-.35,1.18L33.7,29.36l.35-1.17.54.17-.26.88,1.17.35.24-.8Zm2.81-.21-.12.28-4-1.63.28-.67a.5.5,0,0,1,.16-.22.54.54,0,0,1,.27-.11,1,1,0,0,1,.37,0,3,3,0,0,1,.49.15,4.19,4.19,0,0,1,.44.23,1.22,1.22,0,0,1,.23.21l.1.1h.15l.17,0a3.73,3.73,0,0,1,.38.1l1.52.48-.12.28-1.48-.48a.86.86,0,0,0-.27-.05.29.29,0,0,0-.2,0,.27.27,0,0,0-.1.14l-.15.35,1.89.76ZM35,27.16l1.11.45.15-.37a.31.31,0,0,0,0-.19.34.34,0,0,0-.12-.19,1,1,0,0,0-.32-.19l-.22-.06h-.2a.34.34,0,0,0-.17.08.3.3,0,0,0-.11.14l-.14.34Zm3.06-.65.13-.27.17.07.2.05a.57.57,0,0,0,.18,0,.3.3,0,0,0,.16-.05.37.37,0,0,0,.12-.13.69.69,0,0,0,.06-.13.23.23,0,0,0,0-.14.25.25,0,0,0,0-.14.48.48,0,0,0-.11-.15,2.11,2.11,0,0,0-.22-.14l-.23-.11a1.06,1.06,0,0,0-.23-.05.48.48,0,0,0-.25.08l-.31.18a1.5,1.5,0,0,1-.3.16.81.81,0,0,1-.32,0,1.76,1.76,0,0,1-.42-.09,2.19,2.19,0,0,1-.52-.25,1.73,1.73,0,0,1-.3-.24A.87.87,0,0,1,35.7,25a.67.67,0,0,1-.1-.21.74.74,0,0,1,0-.21.8.8,0,0,1,0-.18.42.42,0,0,1,.23-.24.74.74,0,0,1,.32-.07,1,1,0,0,1,.33,0,1.42,1.42,0,0,1,.28.07l.15.06-.12.26-.14,0a.61.61,0,0,0-.17,0,.67.67,0,0,0-.2,0,.32.32,0,0,0-.15.09.75.75,0,0,0-.07.12.34.34,0,0,0,0,.22.46.46,0,0,0,.08.19.75.75,0,0,0,.15.16.76.76,0,0,0,.19.12.81.81,0,0,0,.26.09.74.74,0,0,0,.21,0,.41.41,0,0,0,.18,0,1.51,1.51,0,0,0,.24-.13l.29-.16A.81.81,0,0,1,38,25a1.15,1.15,0,0,1,.31,0l.3.09a2.53,2.53,0,0,1,.29.14,2.28,2.28,0,0,1,.43.3,1.32,1.32,0,0,1,.24.3.69.69,0,0,1,.09.29.43.43,0,0,1,0,.25.51.51,0,0,1-.17.23.64.64,0,0,1-.25.12,1,1,0,0,1-.3,0,1.55,1.55,0,0,1-.31,0l-.3-.1-.16-.07Zm2.44-1.77-.17.25-3.69-2.34.16-.25,3.7,2.34Zm-2.61-3-.44-.33.47-.63.48-.62.44.33-.4.53L40,22.16l1.52,1.16-.17.24L39.76,22.4l-1.48-1.13-.37.48Zm5-.09-.21.23-1.47-1.38-2.25-1,.23-.25,1.7.77L40,18.39l.24-.26,1.22,2.17,1.45,1.36Zm6.36-9.26.63-.22a.69.69,0,0,1,.25,0,.44.44,0,0,1,.26.15,2,2,0,0,1,.22.29,1.94,1.94,0,0,1,.14.3c0,.09.08.18.11.27a3.6,3.6,0,0,1,.12.51,1.12,1.12,0,0,1,0,.41.52.52,0,0,1-.13.3.51.51,0,0,1-.23.15l-.29.1L51,16.4l-.27.1-1.39-4.1Zm.88,1.68.29-.1a.29.29,0,0,0,.16-.1.35.35,0,0,0,.07-.15.81.81,0,0,0,0-.22,1.41,1.41,0,0,0-.07-.28,1.79,1.79,0,0,0-.15-.31.44.44,0,0,0-.16-.17.18.18,0,0,0-.16,0l-.4.14.42,1.21Zm2.19-2.63a.6.6,0,0,1,.49.18,2.11,2.11,0,0,1,.52.73,5.31,5.31,0,0,1,.37,1.06,5.44,5.44,0,0,1,.12,1.1,2.12,2.12,0,0,1-.16.84c-.09.22-.22.34-.38.36a.58.58,0,0,1-.51-.2,2.38,2.38,0,0,1-.51-.72,5.3,5.3,0,0,1-.36-1,5.36,5.36,0,0,1-.12-1.1A2.12,2.12,0,0,1,52,11.8a.58.58,0,0,1,.38-.35Zm.12.56a.44.44,0,0,0-.24.26,1.45,1.45,0,0,0-.1.62,3.34,3.34,0,0,0,.1.82,3.48,3.48,0,0,0,.25.77,1.94,1.94,0,0,0,.35.53.41.41,0,0,0,.35.16.36.36,0,0,0,.26-.26,1.81,1.81,0,0,0,.09-.62,4,4,0,0,0-.09-.81,4.23,4.23,0,0,0-.27-.78,1.49,1.49,0,0,0-.36-.54.44.44,0,0,0-.34-.15Zm4.17-.62,0-.56h1.55l0,.56h-.65l.11,3.82h-.3l-.11-3.82Zm8.1.33.25.07c0,.74-.07,1.48-.12,2.22s-.12,1.49-.18,2.23l-.31-.09c0-.19,0-.39,0-.58s0-.39,0-.59l-.42-.11-.42-.12-.51,1-.29-.09c.31-.65.63-1.29,1-1.95s.65-1.34,1-2Zm-.22,2.71.06-.91.06-.9c-.13.27-.26.54-.4.81s-.26.55-.4.82l.34.09.34.09Zm2.19-1-1.23,3-.27-.1,1.63-4,.27.12-.27,3.29,1.2-2.92.27.11-1.63,4-.26-.1.29-3.41Zm.47,3.74,2-3.82.47.25a1.12,1.12,0,0,1,.23.18,1.27,1.27,0,0,1,.21.29,1.08,1.08,0,0,1,.08.42,2.32,2.32,0,0,1-.07.46,2.6,2.6,0,0,1-.17.49,4.8,4.8,0,0,1-.27.57,5.32,5.32,0,0,1-.35.61,4.06,4.06,0,0,1-.43.56,1.85,1.85,0,0,1-.38.31.65.65,0,0,1-.32.09.71.71,0,0,1-.26,0,1.31,1.31,0,0,1-.29-.13l-.49-.26Zm2-3.21L67.7,16.87l.18.1a1.08,1.08,0,0,0,.35.11.65.65,0,0,0,.33-.06,1.16,1.16,0,0,0,.31-.22,2.08,2.08,0,0,0,.28-.37c.09-.15.2-.33.31-.55a4.23,4.23,0,0,0,.26-.54,2.13,2.13,0,0,0,.1-.4,1,1,0,0,0,0-.34.86.86,0,0,0-.1-.25,1,1,0,0,0-.13-.16.72.72,0,0,0-.15-.11L69.24,14Zm3.91,2.43.37-.45c.19.17.39.33.59.49l.58.5-.37.45L73.84,17l-1.2,1.51c-.4.5-.81,1-1.21,1.44l-.23-.2c.4-.46.81-.94,1.21-1.43l1.2-1.51-.46-.38ZM75,19.71l-.41.41-.6-.6-1,1,.66.67-.4.41-.88-.88,3.08-3.12.87.88-.39.4-.67-.67-.86.88.61.6Zm-1.32,2.34L77,19.26l.2.23-2.88,2.42.65.77-.44.37-.85-1Zm4,.94-.47.33-.51-.69-1.18.83.56.77-.47.33-.74-1L78.44,21l.73,1-.46.33-.56-.76-1,.71.5.69Zm1.86,1.9-.16-.26.15-.1a.67.67,0,0,0,.14-.15.5.5,0,0,0,.09-.21.38.38,0,0,0-.31-.42,1.2,1.2,0,0,0-.42,0,2.13,2.13,0,0,0-.49.15l-.57.29c-.21.12-.39.24-.53.33a2,2,0,0,0-.38.33,1,1,0,0,0-.21.36.42.42,0,0,0,0,.33.38.38,0,0,0,.23.18.35.35,0,0,0,.25,0l.38-.15.16.26-.2.1-.32.13a1,1,0,0,1-.43.07,1,1,0,0,1-.37-.09.59.59,0,0,1-.23-.24.56.56,0,0,1-.06-.37.94.94,0,0,1,.19-.46,2.54,2.54,0,0,1,.46-.47c.19-.14.35-.26.49-.35l.46-.27a6.88,6.88,0,0,1,.62-.3,3.32,3.32,0,0,1,.59-.18,1.92,1.92,0,0,1,.51,0,.71.71,0,0,1,.37.12.64.64,0,0,1,.24.25.52.52,0,0,1,0,.42,1.41,1.41,0,0,1-.24.36,1.75,1.75,0,0,1-.33.28l-.15.09ZM81.37,26a.64.64,0,0,0-.44-.29,2.24,2.24,0,0,0-.9,0,5,5,0,0,0-2,.88,2.18,2.18,0,0,0-.6.63.57.57,0,0,0-.08.52.63.63,0,0,0,.45.31,2.4,2.4,0,0,0,.88,0,5,5,0,0,0,1.07-.32,4.91,4.91,0,0,0,1-.56,2.1,2.1,0,0,0,.61-.64.61.61,0,0,0,.07-.51Zm-.54.23a.45.45,0,0,0-.31-.19,1.62,1.62,0,0,0-.65,0,3.93,3.93,0,0,0-.8.26,3.43,3.43,0,0,0-.71.39,1.71,1.71,0,0,0-.45.44.41.41,0,0,0-.07.37c0,.1.15.16.32.19a1.76,1.76,0,0,0,.64,0,4.12,4.12,0,0,0,1.51-.66,1.79,1.79,0,0,0,.46-.45.4.4,0,0,0,.06-.35Zm1.24,1.63.1.36L79,29.92l3.57-.29.1.35L78.47,31.2l-.08-.27L81.58,30l-3.37.29L78.13,30l3-1.57-3.19.92-.09-.28,4.23-1.22Zm.87,3.19-4.35.65,0,.28,3.28-.49-3.17,1.15,0,.27,3.39.16-3.28.48,0,.29,4.35-.65,0-.36-3.58-.18L83,31.44l-.06-.36Zm.46,4.47,0,.29L80.55,36a2.38,2.38,0,0,1-.37,0l-.43,0a1.42,1.42,0,0,1-.38-.14.72.72,0,0,1-.27-.25.53.53,0,0,1-.11-.31.46.46,0,0,1,.09-.32,1.09,1.09,0,0,1,.27-.25,1.5,1.5,0,0,1,.34-.16l.37-.08.46,0,2.8-.11,0,.3-2.75.1a4.35,4.35,0,0,0-.51,0,.88.88,0,0,0-.31.13.37.37,0,0,0-.15.19.41.41,0,0,0,0,.22.29.29,0,0,0,.08.21.46.46,0,0,0,.19.13,1.17,1.17,0,0,0,.33.07,3.79,3.79,0,0,0,.49,0l2.72-.1Zm-1.11,1.51L79,36.85v-.29l4.38.27,0,.29-3.24.81,3.2.2,0,.29-4.37-.27v-.28l3.35-.81Zm-3.54,2.26,0-.3,4.32.67,0,.3-4.32-.67Zm2.58,3.19.07-.3.18,0a.69.69,0,0,0,.2,0,.4.4,0,0,0,.21-.09.38.38,0,0,0,.13-.18.35.35,0,0,0-.05-.33,1.07,1.07,0,0,0-.31-.28,2.17,2.17,0,0,0-.46-.22c-.17-.06-.37-.12-.61-.18l-.62-.13a2.83,2.83,0,0,0-.5,0,1,1,0,0,0-.4.11.39.39,0,0,0-.21.27.32.32,0,0,0,0,.28.33.33,0,0,0,.18.17l.37.15-.07.3L79.26,42a2.32,2.32,0,0,1-.32-.12,1.21,1.21,0,0,1-.35-.24.81.81,0,0,1-.2-.32.53.53,0,0,1,0-.33.64.64,0,0,1,.22-.31,1,1,0,0,1,.47-.19,2.38,2.38,0,0,1,.66,0,5.91,5.91,0,0,1,.6.08l.52.12c.24.06.46.13.66.2a3.15,3.15,0,0,1,.55.28,2,2,0,0,1,.4.32.75.75,0,0,1,.18.34.73.73,0,0,1,0,.33.48.48,0,0,1-.28.32,1.18,1.18,0,0,1-.43.1,1.53,1.53,0,0,1-.43,0l-.17,0Zm.54,2.05L78.08,42.3l-.11.28,1,.61-.31.81-1.17-.16-.12.3,4.41.66.1-.24Zm-2.68-.46.25-.65,1.55.94-1.8-.29Zm1.41,2.19.5.26L80.39,48l-.51-.26.3-.59-3.41-1.73.14-.27,3.41,1.73.28-.54ZM75.87,47l3.72,2.28.16-.26L76,46.7l-.16.26ZM78.41,51a.66.66,0,0,0,0-.53,1.94,1.94,0,0,0-.44-.77A4.23,4.23,0,0,0,77.2,49a4.52,4.52,0,0,0-.94-.55,2.23,2.23,0,0,0-.85-.21.61.61,0,0,0-.51.2.58.58,0,0,0-.05.54,2.31,2.31,0,0,0,.44.75A4.72,4.72,0,0,0,77.06,51a2,2,0,0,0,.86.21.68.68,0,0,0,.49-.2Zm-.47-.35a.43.43,0,0,0,0-.36,1.66,1.66,0,0,0-.33-.55,4.1,4.1,0,0,0-.61-.56,3.13,3.13,0,0,0-.69-.41,1.66,1.66,0,0,0-.61-.17.4.4,0,0,0-.36.12.38.38,0,0,0,0,.38,1.88,1.88,0,0,0,.33.53,3.25,3.25,0,0,0,.6.56,5.09,5.09,0,0,0,.71.42,1.57,1.57,0,0,0,.62.16.4.4,0,0,0,.34-.12ZM76.22,52l-3.11-1.48-.19.21,3.19,3,.2-.22L74,51.3l3,1.41.2-.21-3.19-3-.2.22L76.22,52Zm-2.85,0a.68.68,0,0,1-.12-.12,2.09,2.09,0,0,0-.22-.2l-.26-.16a1.24,1.24,0,0,0-.28-.11.66.66,0,0,0-.28,0,.6.6,0,0,0-.26.14.47.47,0,0,0-.17.2.5.5,0,0,0,0,.28.86.86,0,0,0,.07.34,2.1,2.1,0,0,0,.26.42l.21.24.26.23a.85.85,0,0,0,.29.18.63.63,0,0,0,.31.05l.34-.05.28,0a.66.66,0,0,1,.2,0,1,1,0,0,1,.2.08.87.87,0,0,1,.22.17.65.65,0,0,1,.15.18,1,1,0,0,1,.09.21.46.46,0,0,1,0,.2.35.35,0,0,1-.1.2.38.38,0,0,1-.12.09.23.23,0,0,1-.17,0,.76.76,0,0,1-.2-.06l-.15-.1-.12-.09-.21.21.13.1a1.91,1.91,0,0,0,.24.17,1.23,1.23,0,0,0,.31.14.86.86,0,0,0,.32.05.49.49,0,0,0,.32-.16.65.65,0,0,0,.11-.15.66.66,0,0,0,.06-.2,1,1,0,0,0,0-.24A1.34,1.34,0,0,0,75,54a1.87,1.87,0,0,0-.22-.33,2.75,2.75,0,0,0-.41-.42A1.84,1.84,0,0,0,74,53a.83.83,0,0,0-.32-.08,1.82,1.82,0,0,0-.35,0,1.82,1.82,0,0,1-.38,0,.41.41,0,0,1-.26,0,.94.94,0,0,1-.2-.16,2,2,0,0,1-.16-.2,1.13,1.13,0,0,1-.14-.22.38.38,0,0,1,0-.17.5.5,0,0,1,0-.13.26.26,0,0,1,.08-.11l.12-.08a.35.35,0,0,1,.17-.06.41.41,0,0,1,.16,0,.7.7,0,0,1,.17.09l.15.13.13.13c.08-.07.16-.13.24-.21ZM58,15.48A20.52,20.52,0,1,1,37.5,36,20.56,20.56,0,0,1,58,15.48Zm0-.2A20.72,20.72,0,1,1,37.3,36,20.76,20.76,0,0,1,58,15.28Zm0-5.5A26.22,26.22,0,1,1,31.8,36,26.27,26.27,0,0,1,58,9.78Zm0,.33A25.89,25.89,0,1,1,32.14,36,25.94,25.94,0,0,1,58,10.11ZM46.13,55.57,46,55.9a3.2,3.2,0,0,1,.4.17l.47.22c-.09.2-.18.4-.28.6l-.31.6a5,5,0,0,1-.58-.09,3.19,3.19,0,0,1-.54-.15c0,.17,0,.34,0,.49a1.81,1.81,0,0,1,.42,0l.59.07-.25.56.3.14a3.09,3.09,0,0,1,.17-.45c.2-.46.44-.91.66-1.36l.62-1.35a2.71,2.71,0,0,1,.2-.35l-.31-.15c-.06.15-.11.27-.16.37-.12.26-.23.53-.35.79l-.48-.23-.39-.2Zm2.17-.34-.14.32c-.22.45-.43.91-.65,1.37s-.45.91-.64,1.37c-.12.27-.06.47.17.57l.64.29a.29.29,0,0,0,.3,0,1.83,1.83,0,0,0,.39-.38.52.52,0,0,1-.23-.33,2.43,2.43,0,0,1-.26.36c-.05,0-.13,0-.24,0l-.34-.15c-.14-.06-.18-.18-.11-.35l.27-.62.3-.61.71,0a1.62,1.62,0,0,1,.59,0,2.89,2.89,0,0,1-.08-.47,4.73,4.73,0,0,1-.58.13,3,3,0,0,1-.5,0l.52-1.06a3.18,3.18,0,0,1,.17-.3l-.29-.16Zm3.32,4.19a8.53,8.53,0,0,1,.61,1,3.08,3.08,0,0,1,.33-.26c-.1-.15-.21-.31-.34-.48s-.19-.25-.28-.39c-.09.08-.22.08-.32.16Zm-1.27-.67a4.29,4.29,0,0,1-1.08.64,1.7,1.7,0,0,1,.21.31c.54-.32.9-.52,1.08-.61a3.13,3.13,0,0,1-.21-.34Zm0-1.52c0,.15-.09.43-.14.65l-.16.61,1,.24-.2.9c0,.15-.09.22-.16.22a.83.83,0,0,1-.38-.1,1.27,1.27,0,0,1,.06.46,2.42,2.42,0,0,0,.52,0c.1,0,.17-.14.21-.34l.24-1.05,1,.28a4.64,4.64,0,0,1,.36-1.22l-2.36-.63Zm.21.44-.14.61,1.72.44.16-.65-1.74-.4Zm1-1.37a3.11,3.11,0,0,0,0,.32v.21l-.43-.1-.48-.15L50,56.37c0,.11,0,.26-.05.37,1.1.24,2.24.52,3.32.86a2,2,0,0,1,.09-.33l-.62-.14L52,56.92v-.6l-.36,0Zm4.23,4.85.37,0,0-.42c0-.21,0-.37,0-.47l.18-2.54.48,0-.18.61s-.06.19-.18.51l.19.32.08.2c0,.07,0,.14.06.19a1,1,0,0,1,0,.17v.12c0,.22-.12.32-.32.31l-.24,0a1.35,1.35,0,0,1,.11.26l0,.13v.13a1.57,1.57,0,0,0,.46-.12.52.52,0,0,0,.22-.24.88.88,0,0,0,.1-.36,1.3,1.3,0,0,0,0-.35c0-.09-.05-.19-.08-.29a3,3,0,0,0-.27-.46l.34-.9.06-.19c0-.1.07-.2.11-.31H57l-.46,0a3,3,0,0,1-.4,0l0,.41a4.71,4.71,0,0,1,0,.48l-.14,2c0,.14,0,.28,0,.41s0,.29,0,.48Zm-.89-2.33.44,0,.07-.82L55,58l-.08.81ZM54.83,60l.43,0,.08-.85-.43,0-.08.85Zm-.64-1.22.44,0L54.7,58l-.44,0-.07.81Zm-.11,1.16.45,0,.07-.85-.44,0-.08.85ZM54,57.59,54,58c0,.18,0,.29,0,.34L53.77,60c0,.14,0,.27,0,.36s0,.22-.05.39a.92.92,0,0,1,.33,0v-.11a1.36,1.36,0,0,0,0-.16l0-.22,1.18.09v.14a1.49,1.49,0,0,1,0,.25h.16l.17,0,0-.34s0-.16,0-.34l.15-1.61c0-.12,0-.23,0-.32s0-.23,0-.4h-.41l-.35,0,0-.28c0-.05,0-.13,0-.22s0-.22.05-.35a1,1,0,0,1-.34,0v.29s0,.14,0,.29l0,.28-.36,0-.4-.06Zm4.27.17,0,.22s0,.11,0,.2l.09,1.3c0,.11,0,.2,0,.28s0,.19,0,.32l.13,0h.24v-.3l.83,0,.05.74a1.88,1.88,0,0,0,0,.28.27.27,0,0,0,.19.18,2.37,2.37,0,0,0,.78,0,4.8,4.8,0,0,0,.51,0,.48.48,0,0,0,.27-.09.54.54,0,0,0,.15-.18l.1-.22c0-.06,0-.12.08-.19a1,1,0,0,1-.29-.13,1,1,0,0,1-.18-.18,2.16,2.16,0,0,1,0,.33.58.58,0,0,1,0,.17.25.25,0,0,1-.15.11,1.3,1.3,0,0,1-.3.05,2.47,2.47,0,0,1-.66,0,.19.19,0,0,1-.09-.09.93.93,0,0,1,0-.21l0-.6.84,0v.22a1.9,1.9,0,0,1,.38,0l0-.25s0-.12,0-.25L61,58c0-.09,0-.16,0-.21v-.22l-.39.05-.81,0v-.15c0-.11,0-.19,0-.26V57l-.18,0h-.23l0,.31c0,.1,0,.18,0,.23v.14l-.8,0Zm.49,1.67.82,0,0-.53-.83,0,0,.53Zm-.06-.85.82-.06,0-.5-.83,0,0,.51Zm1.25.78.83,0,0-.54-.84.06,0,.53Zm-.06-.86.83,0,0-.5-.84,0,0,.5Zm2.65,1.91a.72.72,0,0,1,.32.16l.13.14.06-.05.42-.4.24-.3a1.86,1.86,0,0,0,.21-.39,3.34,3.34,0,0,0,.1-.36A.84.84,0,0,0,64,59a1,1,0,0,0,0-.18v-.26a3.26,3.26,0,0,0,.58.83,2.33,2.33,0,0,0,.68.46l.38.17.11.06,0-.19a.76.76,0,0,1,.27-.36H66a2,2,0,0,1-.44-.08,3.26,3.26,0,0,1-.48-.2,1.74,1.74,0,0,1-.51-.51,2.55,2.55,0,0,1-.33-.53,1.86,1.86,0,0,1-.09-.24l.86-.19.51-.08-.06-.19s0,0,0-.08a1.39,1.39,0,0,1,0-.15l-.52.14L64,57.6l0-.21s0-.13,0-.25,0-.22,0-.29l-.06-.42-.2.06-.22,0,.1.39,0,.11,0,.18c0,.14,0,.23.06.29l0,.19-.89.19s-.23,0-.53.09l0,.16s0,0,0,.06v.09s0,.07,0,.11l.53-.14.85-.19a4.44,4.44,0,0,1,0,.5,3,3,0,0,1-.06.54,1.45,1.45,0,0,1-.34.68,2.48,2.48,0,0,1-.67.58l-.1.06Zm4.2-1.6.47-.21,1.06-.38.11.31a1,1,0,0,1,.07.23.09.09,0,0,1,0,.09.29.29,0,0,1-.16.09.58.58,0,0,1-.17.05H68a1.6,1.6,0,0,1,.21.18l.07.11,0,.09c.33-.17.51-.3.51-.37a.39.39,0,0,0,0-.21l-.25-.69.86-.32.56-.17a.55.55,0,0,1-.08-.17l0-.09,0-.14-.53.23-.87.31-.05-.14.08-.09a2.64,2.64,0,0,1,.49-.46l.12-.08L69,56.87l0-.06,0-.08a.84.84,0,0,1,0-.14c-.16.08-.31.14-.44.19l-1.11.4-.52.16.05.12,0,.06a.23.23,0,0,1,0,.09.22.22,0,0,1,0,.09l.51-.21.9-.33a3.38,3.38,0,0,1-.35.37l-.06,0,.06.13,0,.07h0l0,.09-1,.38-.5.15.06.13,0,.07.06.2Zm-.37-1.13.22-.09.12,0-.07-.14,0-.12-.09-.24L69,56.13l.09.24a.22.22,0,0,1,0,.1.84.84,0,0,1,0,.14,1.17,1.17,0,0,1,.35-.13l0-.13,0-.09L69.29,56a.62.62,0,0,1,0-.1,1.67,1.67,0,0,1-.05-.19l-.38.16-.46.17,0-.29,0-.31,0-.18,0-.13a1.64,1.64,0,0,1-.38-.1v.17a4.58,4.58,0,0,1-.09,1l-1.64.6-.4.12.12.27.11.31a2.35,2.35,0,0,1,.09.28Zm-.17-1.59.13.07.2.14.14.11.09.11.12-.16a.58.58,0,0,1,.15-.12l-.59-.42a1.55,1.55,0,0,1-.24.27Zm1.13-.77a1.17,1.17,0,0,1-.3.19l0,.06.19.22.14.2.07.1a1.17,1.17,0,0,1,.3-.19l-.45-.58ZM54.88,14.17h-.29c.08.51.34,1.22.88,1.2a.48.48,0,0,0,.26-.07.63.63,0,0,0,.2-.2,1,1,0,0,0,.14-.35,2,2,0,0,0,0-.52c0-.11-.05-.33-.07-.42-.12-.53-.32-.64-.79-.91a2.86,2.86,0,0,1-.25-.16.67.67,0,0,1-.15-.14,1.76,1.76,0,0,1-.12-.2.76.76,0,0,1,.12-.86c.35-.27.63.15.71.47h.27c-.09-.42-.29-1.07-.82-1.06-.82.15-.71,1.4-.42,1.94a1.05,1.05,0,0,0,.21.27,1.77,1.77,0,0,0,.32.21c.48.27.74.2.67,1.14a.38.38,0,0,1-.06.17.31.31,0,0,1-.11.09c-.48.28-.69-.26-.73-.6ZM59.2,14l-.28-.05c0,.51.1,1.26.63,1.34a.5.5,0,0,0,.27,0,.59.59,0,0,0,.24-.17,1.18,1.18,0,0,0,.2-.31,2.4,2.4,0,0,0,.12-.51c0-.11,0-.33,0-.43,0-.53-.18-.68-.59-1l-.22-.21a.66.66,0,0,1-.12-.17,1,1,0,0,1-.08-.21c-.06-.26,0-.69.27-.82s.6.26.62.59l.26,0c0-.43-.08-1.11-.6-1.19-.84,0-1,1.24-.78,1.82a.82.82,0,0,0,.16.31,1.59,1.59,0,0,0,.26.26c.43.35.7.34.45,1.25a.36.36,0,0,1-.1.15.24.24,0,0,1-.12.07c-.52.18-.63-.38-.6-.73ZM43.52,15.4a.61.61,0,0,1,.52,0,1.6,1.6,0,0,1,.35.17,3.35,3.35,0,0,1,.4.31,4.89,4.89,0,0,1,.39.4,4.94,4.94,0,0,1,.36.44q.16.24.3.48a3.12,3.12,0,0,1,.23.49,2.12,2.12,0,0,1,.16.83A.58.58,0,0,1,46,19a.62.62,0,0,1-.54,0,2.17,2.17,0,0,1-.73-.46,5.3,5.3,0,0,1-.72-.83,5.18,5.18,0,0,1-.55-1,2.23,2.23,0,0,1-.17-.86.61.61,0,0,1,.21-.47Zm.33.48a.45.45,0,0,1,.36,0,1.68,1.68,0,0,1,.54.37,4,4,0,0,1,.54.62,3.24,3.24,0,0,1,.41.71,1.66,1.66,0,0,1,.14.6.35.35,0,0,1-.14.33.42.42,0,0,1-.38,0,1.63,1.63,0,0,1-.52-.36,3.87,3.87,0,0,1-.52-.6,4.16,4.16,0,0,1-.42-.73,1.53,1.53,0,0,1-.14-.62.42.42,0,0,1,.13-.33Zm2.7.43,1,1.73-.25.14L45.1,14.36l1.06-.58.29.51-.8.44.61,1.08L47,15.4l.29.5Z"/></svg>