<svg id="图层_1" data-name="图层 1" xmlns="http://www.w3.org/2000/svg" viewBox="0 0 278 72"><defs><style>.cls-1{fill:#fff;}.cls-2{fill:#0080cb;}.cls-3{fill:#3e3a39;}</style></defs><title>logo合集</title><rect class="cls-1" x="9.32" y="20.86" width="30.16" height="30.17"/><path class="cls-2" d="M38.47,20.37H10.34a1.56,1.56,0,0,0-1.56,1.57V50.07a1.56,1.56,0,0,0,1.56,1.56H38.47A1.56,1.56,0,0,0,40,50.07V21.94A1.56,1.56,0,0,0,38.47,20.37Zm-14.1,30A14.4,14.4,0,1,1,37.13,29.33H32.19a10.28,10.28,0,1,0,0,13.34h4.94A14.41,14.41,0,0,1,24.37,50.4Zm6.68-13.08a3.35,3.35,0,0,0-1.33-.51,5.5,5.5,0,0,1-2.45-1.09A2.24,2.24,0,0,1,26.54,34a2.37,2.37,0,0,1,.38-1.3,2.53,2.53,0,0,1,1.13-1,5,5,0,0,1,2.07-.35,4.06,4.06,0,0,1,2.46.64,2.75,2.75,0,0,1,1,2l-2.45.15a1.45,1.45,0,0,0-.41-.88,1.29,1.29,0,0,0-.87-.27,1,1,0,0,0-.68.2.63.63,0,0,0-.23.49.49.49,0,0,0,.19.39,2,2,0,0,0,.87.33,10.43,10.43,0,0,1,2.45.79,2.5,2.5,0,0,1,1.41,2.32,2.9,2.9,0,0,1-.45,1.57,2.81,2.81,0,0,1-1.25,1.11,4.83,4.83,0,0,1-2,.37,4,4,0,0,1-3-.87,3.58,3.58,0,0,1-.94-2.24l2.48-.16a2.06,2.06,0,0,0,.33,1,1.35,1.35,0,0,0,1.15.54,1.22,1.22,0,0,0,.86-.28.85.85,0,0,0,.3-.65A.84.84,0,0,0,31.05,37.32Zm-6.5-2.46v1.83H20.5v1.76H25v2h-7.1V31.54h7v1.9H20.5v1.42ZM38,40.47H35.42V31.54H38Z"/><path class="cls-3" d="M61,42a.7.7,0,0,0-.56.24.72.72,0,0,0-.21.52.7.7,0,0,0,.18.48.63.63,0,0,0,.5.21.75.75,0,0,0,.56-.24.76.76,0,0,0,.2-.53.71.71,0,0,0-.17-.47A.64.64,0,0,0,61,42Z"/><path class="cls-3" d="M124,42a.77.77,0,0,0-.78.76.7.7,0,0,0,.18.48.63.63,0,0,0,.5.21.72.72,0,0,0,.56-.24.76.76,0,0,0,.2-.53.67.67,0,0,0-.18-.47A.6.6,0,0,0,124,42Z"/><path class="cls-3" d="M188.7,42a.72.72,0,0,0-.57.24.71.71,0,0,0-.2.52.69.69,0,0,0,.17.48.63.63,0,0,0,.5.21.68.68,0,0,0,.56-.24.73.73,0,0,0,.2-.53.67.67,0,0,0-.18-.47A.59.59,0,0,0,188.7,42Z"/><path class="cls-3" d="M207.27,42a.77.77,0,0,0-.77.76.7.7,0,0,0,.18.48.63.63,0,0,0,.5.21.7.7,0,0,0,.56-.24.73.73,0,0,0,.2-.53.67.67,0,0,0-.18-.47A.61.61,0,0,0,207.27,42Z"/><path class="cls-3" d="M248.63,42a1.76,1.76,0,0,0-.93.24.76.76,0,0,0-.21.52.75.75,0,0,0,.18.48.64.64,0,0,0,.5.21.72.72,0,0,0,.57-.24.77.77,0,0,0,.19-.53.67.67,0,0,0-.17-.47C248.63,42,248.84,42,248.63,42Z"/><path class="cls-3" d="M51.16,48.16a2.43,2.43,0,0,1-1.88-.74,2.6,2.6,0,0,1-.68-1.8,2.67,2.67,0,0,1,.59-1.74,2.11,2.11,0,0,1,1.72-.69,3.11,3.11,0,0,1,1,.17l.15,0,.18-1.07-.11,0a4.41,4.41,0,0,0-1-.13,3.53,3.53,0,0,0-2.69,1.07,3.63,3.63,0,0,0-1,2.54,3.4,3.4,0,0,0,.9,2.38,3.45,3.45,0,0,0,2.68,1A5,5,0,0,0,52.39,49l.09,0,.09-1-.19.05A4.84,4.84,0,0,1,51.16,48.16Z"/><path class="cls-3" d="M58.44,46.51c0-.13,0-.3,0-.48s0-.31,0-.37A1.77,1.77,0,0,0,58,44.25a2.06,2.06,0,0,0-1.34-.4,2.57,2.57,0,0,0-1.53.52c0-.78,0-1.64,0-2.54v-.15l-1.24.07v.14a27.82,27.82,0,0,1,.14,3.27c0,1.63,0,2.84,0,3.71V49h1.16v-.14c0-.63,0-1.84,0-3.6a2.1,2.1,0,0,1,1.26-.44,1,1,0,0,1,.74.24,1.38,1.38,0,0,1,.26,1c0,1,0,1.93-.11,2.8V49h1.19v-.14C58.45,47.78,58.44,47,58.44,46.51Z"/><path class="cls-3" d="M61.36,46.6c0-1,0-1.85.06-2.54v-.17l-1.3.18,0,.14a14.51,14.51,0,0,1,.17,2.39c0,.85,0,1.61-.07,2.26l0,.15h1.2v-.14C61.38,48.15,61.36,47.38,61.36,46.6Z"/><path class="cls-3" d="M67.71,46.39c0-.06,0-.18,0-.36s0-.32,0-.38a1.72,1.72,0,0,0-.51-1.41,2.12,2.12,0,0,0-1.36-.39,2.44,2.44,0,0,0-1.52.56l-.08-.52-1.15.16,0,.15a11.56,11.56,0,0,1,.21,2.23c0,.49,0,1.31-.08,2.44V49h1.19v-.14c0-1.29,0-2.49,0-3.61a1.87,1.87,0,0,1,1.16-.43,1.18,1.18,0,0,1,.8.24,1.27,1.27,0,0,1,.27,1c0,1,0,2-.11,2.84V49h1.19v-.14C67.72,47.78,67.71,47,67.71,46.39Z"/><path class="cls-3" d="M73.4,47.26c0-.13,0-.41,0-.81s0-.7,0-.85a1.6,1.6,0,0,0-.54-1.36,2.35,2.35,0,0,0-1.44-.39,6.69,6.69,0,0,0-1.76.21l-.09,0-.12,1,.2-.06a6.34,6.34,0,0,1,1.5-.18,2,2,0,0,1,.92.17.81.81,0,0,1,.26.71v.14a4.31,4.31,0,0,0-2.36.51,1.59,1.59,0,0,0-.71,1.35,1.3,1.3,0,0,0,.47,1.06,1.67,1.67,0,0,0,1.07.37,2.59,2.59,0,0,0,1.59-.47c0,.09,0,.18,0,.26l0,.12,1,0,0-.16A8.38,8.38,0,0,1,73.4,47.26Zm-1,.59a2,2,0,0,1-1.17.33c-.74,0-.82-.31-.82-.54q0-.6.72-.81a4.3,4.3,0,0,1,1.24-.14C72.36,47,72.36,47.42,72.38,47.85Z"/><path class="cls-3" d="M82.68,48.06c0-.65,0-1.37,0-2.12.78,0,1.53,0,2.22,0H85V45h-.14c-.65,0-1.4.05-2.22.05,0-.73,0-1.34,0-1.8,1,0,1.89,0,2.76.05h.13l.06-1h-4v.14c0,.88.06,1.91.06,3.07s0,2.37-.06,3.4V49h4.28l0-1h-.14C84.74,48,83.73,48.06,82.68,48.06Z"/><path class="cls-3" d="M88.55,41.68l-1.31.07,0,.14a31.83,31.83,0,0,1,.14,3.27c0,1.37,0,2.62-.09,3.71V49h1.24v-.14c-.06-1.1-.1-2.35-.1-3.71s0-2.43.1-3.33Z"/><path class="cls-3" d="M92.66,43.79a2.12,2.12,0,0,0-1.77.84,3.06,3.06,0,0,0-.65,1.95A2.54,2.54,0,0,0,91,48.4a2.72,2.72,0,0,0,2.07.75,3.9,3.9,0,0,0,1.45-.21l.09,0,.11-1-.2,0a5.06,5.06,0,0,1-1.38.18,1.75,1.75,0,0,1-1.26-.45,1.64,1.64,0,0,1-.51-1l3.4-.07v-.12c0-.25,0-.44,0-.59a2.27,2.27,0,0,0-.54-1.55A2,2,0,0,0,92.66,43.79Zm0,.91c.67,0,1,.36,1,1.13l-2.27,0C91.53,45.09,91.94,44.7,92.62,44.7Z"/><path class="cls-3" d="M99.12,48.16a1.7,1.7,0,0,1-1.31-.49,1.77,1.77,0,0,1-.46-1.25,1.75,1.75,0,0,1,.38-1.15,1.26,1.26,0,0,1,1-.44,3,3,0,0,1,1,.18l.15.06.19-1.06L100,44a3.53,3.53,0,0,0-1-.12,2.62,2.62,0,0,0-2,.8,2.76,2.76,0,0,0-.76,1.93A2.57,2.57,0,0,0,97,48.39a2.73,2.73,0,0,0,2.07.76,2.36,2.36,0,0,0,1.15-.25l.06,0,.08-.93-.19,0A4,4,0,0,1,99.12,48.16Z"/><path class="cls-3" d="M104.06,48.15a.76.76,0,0,1-.69-.27,2.57,2.57,0,0,1-.19-1.28V45.05l1.3,0h.14l0-1h-.16c-.53,0-1,0-1.28,0,0-.3,0-.76.08-1.35V42.6l-1.06.11v.11c0,.62,0,1,0,1.29l-.71,0h-.14l0,1h.15l.68,0c0,.75,0,1.36,0,1.85a3,3,0,0,0,.35,1.7,1.57,1.57,0,0,0,1.34.52,2.14,2.14,0,0,0,.79-.16l.08,0,.08-.92-.18.05A2.56,2.56,0,0,1,104.06,48.15Z"/><path class="cls-3" d="M108.43,43.85a1.53,1.53,0,0,0-1.19.6c0-.11,0-.26-.07-.43l0-.13-1.15.16,0,.15a10.1,10.1,0,0,1,.23,2.23c0,.57,0,1.37-.08,2.44V49h1.16v-.14c0-.6,0-1.67,0-3.17a1,1,0,0,1,1.08-.78,1.82,1.82,0,0,1,.67.15l.14,0,.3-1.07-.13,0A3,3,0,0,0,108.43,43.85Z"/><path class="cls-3" d="M113,43.79a2.49,2.49,0,0,0-1.81.77,2.79,2.79,0,0,0-.78,2.1,2.49,2.49,0,0,0,.71,1.88,2.37,2.37,0,0,0,1.68.66,2.52,2.52,0,0,0,1.82-.75,2.79,2.79,0,0,0,.77-2.08,2.51,2.51,0,0,0-.7-1.9A2.36,2.36,0,0,0,113,43.79Zm-.09,4.52a1.11,1.11,0,0,1-1-.54,2.42,2.42,0,0,1-.37-1.31,2.22,2.22,0,0,1,.36-1.26,1.21,1.21,0,0,1,2,0,2.44,2.44,0,0,1,.37,1.31,2.19,2.19,0,0,1-.36,1.25A1.11,1.11,0,0,1,112.9,48.31Z"/><path class="cls-3" d="M121.49,46.39c0-.06,0-.18,0-.36s0-.32,0-.38a1.75,1.75,0,0,0-.5-1.41,2.15,2.15,0,0,0-1.37-.39,2.37,2.37,0,0,0-1.51.57l-.08-.53-1.16.16,0,.15a10.81,10.81,0,0,1,.22,2.23c0,.49,0,1.32-.09,2.44V49h1.18v-.14c0-1.29,0-2.49,0-3.61a1.83,1.83,0,0,1,1.16-.43,1.13,1.13,0,0,1,.79.24,1.27,1.27,0,0,1,.27,1c0,1,0,2-.11,2.84V49h1.19v-.14C121.5,47.78,121.49,47,121.49,46.39Z"/><path class="cls-3" d="M124.41,46.6c0-1,0-1.85.06-2.54v-.17l-1.3.18,0,.14a13.38,13.38,0,0,1,.18,2.39c0,.85,0,1.61-.07,2.26V49h1.19v-.14C124.43,48.15,124.41,47.39,124.41,46.6Z"/><path class="cls-3" d="M129,48.16a1.7,1.7,0,0,1-1.31-.49,1.77,1.77,0,0,1-.46-1.25,1.7,1.7,0,0,1,.39-1.15,1.24,1.24,0,0,1,1-.44,3,3,0,0,1,1,.18l.15.06L130,44l-.12,0a3.53,3.53,0,0,0-1-.12,2.64,2.64,0,0,0-2,.8,2.76,2.76,0,0,0-.76,1.93,2.54,2.54,0,0,0,.73,1.81,2.7,2.7,0,0,0,2.07.76,2.32,2.32,0,0,0,1.14-.25l.07,0,.07-.93L130,48A4,4,0,0,1,129,48.16Z"/><path class="cls-3" d="M134.56,46.48a4.17,4.17,0,0,0-1-.54,3.16,3.16,0,0,1-.8-.4.4.4,0,0,1-.17-.34c0-.11,0-.41.82-.41a3.14,3.14,0,0,1,1.2.2l.14.06.22-1-.12,0a5.36,5.36,0,0,0-1.41-.16,2,2,0,0,0-1.4.44,1.49,1.49,0,0,0-.47,1.08,1.26,1.26,0,0,0,.52,1,4,4,0,0,0,1.06.56,3.89,3.89,0,0,1,.77.38.43.43,0,0,1,.18.36c0,.12,0,.49-.95.49a3.52,3.52,0,0,1-1.35-.25l-.15-.05-.22,1,.13,0a6.56,6.56,0,0,0,1.57.18c1.65,0,2-.87,2-1.6A1.31,1.31,0,0,0,134.56,46.48Z"/><path class="cls-3" d="M146.31,45.75a5.48,5.48,0,0,0-1.38-.79,6.75,6.75,0,0,1-1-.51.71.71,0,0,1-.32-.58c0-.31.13-.72,1.15-.72a5.3,5.3,0,0,1,1.56.23l.16,0,.16-1.06-.11,0a5.68,5.68,0,0,0-1.66-.16,2.52,2.52,0,0,0-1.72.55,1.8,1.8,0,0,0,0,2.58,5.12,5.12,0,0,0,1.31.76,6.81,6.81,0,0,1,1.13.6.9.9,0,0,1,.38.71c0,.21,0,.83-1.56.83a4.63,4.63,0,0,1-1.53-.29l-.15,0-.24,1.05.12,0a6.33,6.33,0,0,0,1.71.22c1.79,0,2.7-.67,2.7-2A1.86,1.86,0,0,0,146.31,45.75Z"/><path class="cls-3" d="M150.91,48.15a.77.77,0,0,1-.69-.27A2.57,2.57,0,0,1,150,46.6V45.05l1.3,0h.14l0-1h-.15c-.53,0-1,0-1.28,0,0-.31,0-.76.08-1.35V42.6l-1.06.11v.11c0,.63,0,1,0,1.29l-.7,0h-.14l-.05,1h.15l.68,0c0,.75,0,1.36,0,1.85a3,3,0,0,0,.36,1.7,1.53,1.53,0,0,0,1.33.52,2.18,2.18,0,0,0,.79-.16l.08,0,.08-.92-.18.05A2.66,2.66,0,0,1,150.91,48.15Z"/><path class="cls-3" d="M156.92,47.26c0-.14,0-.41,0-.81s0-.7,0-.85a1.6,1.6,0,0,0-.54-1.36,2.36,2.36,0,0,0-1.45-.39,6.61,6.61,0,0,0-1.75.21l-.09,0-.12,1,.19-.06a6.43,6.43,0,0,1,1.51-.18,2,2,0,0,1,.92.17.81.81,0,0,1,.26.71.66.66,0,0,1,0,.14,4.29,4.29,0,0,0-2.35.51,1.59,1.59,0,0,0-.71,1.35,1.29,1.29,0,0,0,.46,1.06,1.68,1.68,0,0,0,1.08.37,2.59,2.59,0,0,0,1.59-.47,2,2,0,0,0,.05.26l0,.12,1.06,0,0-.16A8.38,8.38,0,0,1,156.92,47.26Zm-1,.59a2,2,0,0,1-1.18.33c-.73,0-.82-.31-.82-.54q0-.6.72-.81a4.43,4.43,0,0,1,1.25-.14C155.87,47,155.88,47.42,155.9,47.85Z"/><path class="cls-3" d="M163.27,46.39c0-.06,0-.18,0-.36s0-.32,0-.38a1.72,1.72,0,0,0-.5-1.41,2.14,2.14,0,0,0-1.36-.39,2.42,2.42,0,0,0-1.52.56l-.09-.52-1.15.16,0,.15a10.81,10.81,0,0,1,.22,2.23c0,.49,0,1.32-.09,2.44V49H160v-.14c0-1.29,0-2.49,0-3.61a1.83,1.83,0,0,1,1.16-.43,1.18,1.18,0,0,1,.8.24,1.27,1.27,0,0,1,.26,1c0,1,0,2-.11,2.84V49h1.19v-.14C163.28,47.78,163.27,47,163.27,46.39Z"/><path class="cls-3" d="M169.55,45.15c0-1.35,0-2.46.09-3.3V41.7l-1.24,0v.13c.05.71.07,1.45.07,2.18a2.07,2.07,0,0,0-1.06-.22,2.22,2.22,0,0,0-1.85.84,3.11,3.11,0,0,0-.66,2,2.66,2.66,0,0,0,.59,1.74,2,2,0,0,0,1.62.75,2.27,2.27,0,0,0,1.48-.45l0,.22,0,.11,1,0v-.15C169.58,47.78,169.55,46.53,169.55,45.15Zm-1,2.69a1.6,1.6,0,0,1-1.14.36,1.17,1.17,0,0,1-1-.47,1.94,1.94,0,0,1-.37-1.19,2.2,2.2,0,0,1,.39-1.32,1.35,1.35,0,0,1,1.16-.5,1.47,1.47,0,0,1,.87.26C168.55,45.89,168.58,46.85,168.58,47.84Z"/><path class="cls-3" d="M175.34,47.26c0-.14,0-.41,0-.81s0-.7,0-.85a1.6,1.6,0,0,0-.54-1.36,2.33,2.33,0,0,0-1.44-.39,6.69,6.69,0,0,0-1.76.21l-.09,0-.12,1,.2-.06a6.28,6.28,0,0,1,1.5-.18,2,2,0,0,1,.92.17.81.81,0,0,1,.26.71.66.66,0,0,1,0,.14,4.29,4.29,0,0,0-2.35.51,1.59,1.59,0,0,0-.71,1.35,1.32,1.32,0,0,0,.46,1.06,1.68,1.68,0,0,0,1.08.37,2.59,2.59,0,0,0,1.59-.47,2,2,0,0,0,0,.26l0,.12,1.05,0,0-.16A8.38,8.38,0,0,1,175.34,47.26Zm-1,.59a2,2,0,0,1-1.18.33c-.73,0-.81-.31-.81-.54,0-.4.23-.67.71-.81a4.43,4.43,0,0,1,1.25-.14C174.29,47,174.3,47.42,174.32,47.85Z"/><path class="cls-3" d="M179.47,43.85a1.53,1.53,0,0,0-1.19.6c0-.11,0-.26-.07-.43l0-.13-1.15.16,0,.15a10.81,10.81,0,0,1,.23,2.23c0,.57,0,1.37-.08,2.44V49h1.17v-.14c0-.6,0-1.67,0-3.17a1,1,0,0,1,1.08-.78,1.74,1.74,0,0,1,.67.15l.15,0,.3-1.07-.13,0A3,3,0,0,0,179.47,43.85Z"/><path class="cls-3" d="M186.06,45.15c0-1.36,0-2.46.1-3.3V41.7l-1.24,0v.13c0,.7.06,1.43.07,2.18a2.12,2.12,0,0,0-1.06-.22,2.24,2.24,0,0,0-1.86.84,3.16,3.16,0,0,0-.65,2A2.66,2.66,0,0,0,182,48.4a2,2,0,0,0,1.61.75,2.25,2.25,0,0,0,1.48-.45l0,.22,0,.11,1,0v-.15C186.1,47.78,186.06,46.53,186.06,45.15Zm-1,2.69a1.58,1.58,0,0,1-1.13.36,1.17,1.17,0,0,1-1-.47,1.88,1.88,0,0,1-.37-1.19,2.13,2.13,0,0,1,.39-1.32,1.32,1.32,0,0,1,1.15-.5A1.43,1.43,0,0,1,185,45C185.06,45.91,185.09,46.87,185.09,47.84Z"/><path class="cls-3" d="M189.08,46.6c0-1,0-1.86.06-2.54v-.17l-1.3.18,0,.14a13.23,13.23,0,0,1,.18,2.39c0,.85,0,1.62-.07,2.26V49h1.19v-.15C189.11,48.17,189.08,47.41,189.08,46.6Z"/><path class="cls-3" d="M192.16,48a12,12,0,0,1,1-1.42c.59-.75,1-1.28,1.3-1.58l0,0,.06-1h-3.73l0,1.06H191c.59,0,1.38-.07,2.35-.07a14.14,14.14,0,0,1-1.11,1.44c-.71.88-1.16,1.4-1.33,1.56l0,0-.05,1h3.91l0-1.08h-.15C193.89,48,193.08,48,192.16,48Z"/><path class="cls-3" d="M200.25,47.26c0-.13,0-.41,0-.81s0-.7,0-.85a1.6,1.6,0,0,0-.54-1.36,2.36,2.36,0,0,0-1.45-.39,6.61,6.61,0,0,0-1.75.21l-.09,0-.12,1,.19-.06a6.37,6.37,0,0,1,1.51-.18A1.9,1.9,0,0,1,199,45a.79.79,0,0,1,.26.71v.14a4.33,4.33,0,0,0-2.36.51,1.61,1.61,0,0,0-.7,1.35,1.29,1.29,0,0,0,.46,1.06,1.67,1.67,0,0,0,1.07.37,2.62,2.62,0,0,0,1.6-.47,2,2,0,0,0,.05.26l0,.12,1,0,0-.16A8.38,8.38,0,0,1,200.25,47.26Zm-1,.59a2,2,0,0,1-1.17.33c-.73,0-.81-.31-.81-.54,0-.4.23-.67.71-.81a4.43,4.43,0,0,1,1.25-.14C199.21,47.05,199.21,47.44,199.22,47.85Z"/><path class="cls-3" d="M204.43,48.15a.75.75,0,0,1-.69-.27,2.52,2.52,0,0,1-.2-1.28c0-.57,0-1.09,0-1.55l1.3,0H205l.05-1h-.15c-.54,0-1,0-1.28,0,0-.3,0-.76.07-1.35l0-.16-1.06.11v.11c0,.62,0,1-.05,1.29l-.7,0h-.14l0,1h.15l.68,0c0,.75,0,1.36,0,1.85a3,3,0,0,0,.35,1.7,1.57,1.57,0,0,0,1.34.52A2.18,2.18,0,0,0,205,49l.08,0,.08-.92-.18.05A2.66,2.66,0,0,1,204.43,48.15Z"/><path class="cls-3" d="M207.66,46.6c0-1,0-1.86.06-2.54v-.17l-1.3.18,0,.14a13.34,13.34,0,0,1,.17,2.39c0,.85,0,1.62-.06,2.26l0,.15h1.2v-.14C207.69,48.16,207.66,47.4,207.66,46.6Z"/><path class="cls-3" d="M212,43.79a2.51,2.51,0,0,0-1.82.77,2.82,2.82,0,0,0-.77,2.1,2.48,2.48,0,0,0,.7,1.88,2.38,2.38,0,0,0,1.69.66,2.53,2.53,0,0,0,1.82-.75,2.79,2.79,0,0,0,.77-2.08,2.52,2.52,0,0,0-.71-1.9A2.33,2.33,0,0,0,212,43.79Zm-.09,4.52a1.14,1.14,0,0,1-1-.54,2.44,2.44,0,0,1-.37-1.31,2.22,2.22,0,0,1,.37-1.26,1.21,1.21,0,0,1,2,0,2.41,2.41,0,0,1,.36,1.31,2.19,2.19,0,0,1-.36,1.25A1.09,1.09,0,0,1,211.88,48.31Z"/><path class="cls-3" d="M220.47,46.39V46c0-.19,0-.32,0-.38a1.75,1.75,0,0,0-.5-1.41,2.17,2.17,0,0,0-1.37-.39,2.4,2.4,0,0,0-1.52.57l-.08-.53-1.15.16,0,.15a10.81,10.81,0,0,1,.22,2.23c0,.49,0,1.32-.08,2.44V49h1.19v-.14c0-1.29,0-2.49,0-3.61a1.91,1.91,0,0,1,1.18-.43,1.17,1.17,0,0,1,.79.24,1.31,1.31,0,0,1,.27,1c0,1,0,2-.11,2.84l0,.15h1.2v-.14C220.47,47.78,220.47,47,220.47,46.39Z"/><path class="cls-3" d="M229.73,42.26H228.5v.14c.05.86.07,1.9.07,3.07s0,2.33-.07,3.4V49h1.23v-.14c0-1.07-.07-2.21-.07-3.4s0-2.16.07-3.07Z"/><path class="cls-3" d="M236.28,46.39c0-.06,0-.18,0-.36s0-.32,0-.38a1.72,1.72,0,0,0-.51-1.41,2.12,2.12,0,0,0-1.36-.39,2.42,2.42,0,0,0-1.51.56l-.09-.52-1.15.16,0,.15a11.55,11.55,0,0,1,.22,2.23c0,.49,0,1.28-.09,2.44V49H233v-.14c0-1.29,0-2.49,0-3.61a1.88,1.88,0,0,1,1.17-.43,1.15,1.15,0,0,1,.79.24,1.27,1.27,0,0,1,.27,1c0,1,0,2-.11,2.84V49h1.19v-.14C236.29,47.78,236.28,47,236.28,46.39Z"/><path class="cls-3" d="M241,46.48a4,4,0,0,0-1-.54,3.35,3.35,0,0,1-.8-.4.39.39,0,0,1-.16-.34c0-.11,0-.41.82-.41A3.13,3.13,0,0,1,241,45l.15.06.22-1-.13,0a5.28,5.28,0,0,0-1.4-.16,2,2,0,0,0-1.4.44,1.43,1.43,0,0,0-.47,1.08,1.28,1.28,0,0,0,.51,1,3.82,3.82,0,0,0,1.07.56,3.75,3.75,0,0,1,.76.38.41.41,0,0,1,.19.36c0,.12,0,.49-.95.49A3.58,3.58,0,0,1,238.2,48l-.14-.05-.22,1,.13,0a6.5,6.5,0,0,0,1.57.18c1.64,0,2-.87,2-1.6A1.29,1.29,0,0,0,241,46.48Z"/><path class="cls-3" d="M245.42,48.15a.77.77,0,0,1-.69-.27,2.57,2.57,0,0,1-.19-1.28c0-.57,0-1.09,0-1.55l1.29,0H246l0-1h-.15c-.53,0-1,0-1.28,0,0-.3,0-.76.08-1.35l0-.16-1.07.11v.11c0,.62-.05,1-.05,1.29l-.71,0h-.14l0,1h.15l.68,0V46.9a3,3,0,0,0,.35,1.7,1.53,1.53,0,0,0,1.33.52A2.14,2.14,0,0,0,246,49l.08,0,.09-.92-.2.05A2.31,2.31,0,0,1,245.42,48.15Z"/><path class="cls-3" d="M248.66,46.6c0-1,0-1.86.05-2.54v-.17l-1.3.18,0,.14a14.34,14.34,0,0,1,.17,2.39c0,.85,0,1.62-.07,2.26V49h1.19v-.14C248.68,48.16,248.66,47.4,248.66,46.6Z"/><path class="cls-3" d="M252.83,48.15a.75.75,0,0,1-.69-.27,2.52,2.52,0,0,1-.2-1.28c0-.57,0-1.09,0-1.55l1.3,0h.13l.05-1h-.15c-.54,0-1,0-1.29,0,0-.3,0-.76.08-1.35l0-.16-1.06.11v.11c0,.62,0,1-.05,1.29l-.7,0h-.14l0,1h.15l.68,0c0,.75,0,1.36,0,1.85a3.08,3.08,0,0,0,.35,1.7,1.57,1.57,0,0,0,1.34.52,2.05,2.05,0,0,0,.78-.16l.09,0,.08-.92-.19.05A2.39,2.39,0,0,1,252.83,48.15Z"/><path class="cls-3" d="M263.17,48.15a.74.74,0,0,1-.68-.27,2.57,2.57,0,0,1-.19-1.28V45.05l1.3,0h.13l0-1h-.15c-.54,0-1,0-1.29,0,0-.3,0-.76.08-1.35l0-.16-1.07.11v.11c0,.62,0,1-.05,1.29l-.7,0h-.14l0,1h.15l.68,0c0,.75,0,1.36,0,1.85a3,3,0,0,0,.36,1.7,1.55,1.55,0,0,0,1.33.52,2.1,2.1,0,0,0,.79-.16l.09,0,.08-.92-.19.05A2.46,2.46,0,0,1,263.17,48.15Z"/><path class="cls-3" d="M259.32,46.73c0-1.1,0-2,0-2.59V44l-1.18,0v.14c0,.64,0,1.86,0,3.65a2,2,0,0,1-1.17.33c-.41,0-.67-.12-.78-.39a6.31,6.31,0,0,1-.19-2c0-.46,0-1,.06-1.64V44l-1.22,0v.15c.05.65.08,1.23.08,1.7,0,.09,0,.25,0,.49s0,.41,0,.53a2.58,2.58,0,0,0,.43,1.76,1.77,1.77,0,0,0,1.35.47,2.52,2.52,0,0,0,1.54-.48,1.31,1.31,0,0,0,.06.27l0,.11,1,0,0-.16C259.35,48.13,259.32,47.41,259.32,46.73Z"/><path class="cls-3" d="M268.69,44.4a2,2,0,0,0-1.56-.61,2.15,2.15,0,0,0-1.78.84,3.06,3.06,0,0,0-.65,1.95,2.58,2.58,0,0,0,.72,1.82,2.75,2.75,0,0,0,2.07.75,4,4,0,0,0,1.46-.21l.08,0,.12-1-.2,0a5.11,5.11,0,0,1-1.38.18,1.78,1.78,0,0,1-1.27-.45,1.63,1.63,0,0,1-.5-1l3.39-.07v-.12c0-.25,0-.44,0-.59A2.31,2.31,0,0,0,268.69,44.4Zm-1.6.3c.66,0,1,.36,1,1.13l-2.27,0C266,45.09,266.4,44.7,267.09,44.7Z"/><path class="cls-3" d="M60,34.6h2.08c-.06-.66-.09-1.75-.09-2.47V28.54c0-.7,0-1.43.09-2.17-.65.06-1.31.1-2,.1H55.72v-2a8.45,8.45,0,0,1,.13-1.63H53.69a14.71,14.71,0,0,1,.12,1.63v2H49.68c-.69,0-1.41,0-2.13-.1a19.38,19.38,0,0,1,.1,2v3.74c0,.69,0,1.78-.1,2.47H49.6v-.69h4.21V38q0,1-.12,2h2.16a11.9,11.9,0,0,1-.13-2V33.91h4.34S60,34.54,60,34.6Zm-6.23-2.38H49.59v-4h4.22Zm1.91,0v-4h4.37v4Z"/><path class="cls-3" d="M70.27,34.72a14.89,14.89,0,0,1-1.61-.09v1.69a11.9,11.9,0,0,1,1.61-.1h6.65a10.79,10.79,0,0,1,1.47.1V34.63c-.43.06-1.55.09-1.55.09l1-1.3a12.13,12.13,0,0,0-1.61-1.68s1.09,0,1.53.1v-1.6a14.59,14.59,0,0,1-1.64.1H74.34V27.8h2.19a14.9,14.9,0,0,1,1.61.06V26.3a14.08,14.08,0,0,1-1.61.09H70.37a12.5,12.5,0,0,1-1.6-.1v1.57a13.91,13.91,0,0,1,1.6-.06h2.34v2.54H70.93a15.51,15.51,0,0,1-1.64-.1v1.6a14.59,14.59,0,0,1,1.64-.1h1.78v3Zm4.07-3h1.84L75.07,32.9a12,12,0,0,1,1.6,1.82H74.34Z"/><path class="cls-3" d="M79.1,39.6H81c-.07-1-.1-1.73-.1-2.31V25.83c0-.58,0-1.35.1-2.32a18.71,18.71,0,0,1-2.24.13H68.29a18.45,18.45,0,0,1-2.23-.13c.07.92.1,1.7.1,2.32V37.29c0,.58,0,1.36-.1,2.31h1.87v-.8H79.12S79.12,39.26,79.1,39.6Zm0-2.32H67.93V25.18H79.09Z"/><path class="cls-3" d="M100.53,37.17a10.25,10.25,0,0,1-1.73-.9c-.07.3-.18.86-.32,1.27a1,1,0,0,1-1,.83H93.3c-.82,0-.93-.5-.93-1V34.86h4.28l0,.55h2a17.25,17.25,0,0,1-.1-1.92V26.78a15.88,15.88,0,0,1,.1-1.77,14.27,14.27,0,0,1-1.74.1H92.37V24a9.48,9.48,0,0,1,.09-1.27h-2A9.48,9.48,0,0,1,90.5,24v1.15H86.38a14.69,14.69,0,0,1-1.7-.1,15,15,0,0,1,.1,1.77v6.71c0,.58,0,1.57-.1,2.17h2v-.8H90.5v3.39a1.69,1.69,0,0,0,1.75,1.68h6.17C99.2,39.93,100,39.43,100.53,37.17ZM92.37,26.76h4.28v2.56H92.37Zm0,4.15h4.28v2.4H92.37Zm-1.87,2.4H86.65v-2.4H90.5Zm0-4H86.65V26.76H90.5Z"/><path class="cls-3" d="M108.5,39.86c2.89,0,4.3-1.58,4.3-4.83V31.45h4.59a17.11,17.11,0,0,1,1.75.1V29.73a14.67,14.67,0,0,1-1.75.1h-5l-.22-.43s2.71-2.87,4.45-4.75v0l-.91-1.33c-.74.07-1.33.11-1.75.11h-6.55c-.49,0-1.19,0-2.1-.11v1.83c.88-.07,1.58-.1,2.1-.1h6.36l-2.56,2.82a14.48,14.48,0,0,0-1.61-1.52l-1.34,1.23c1,.69,2.16,1.85,2.14,2.29h-5.88a13.33,13.33,0,0,1-1.71-.1v1.82a13.44,13.44,0,0,1,1.71-.1h6.31l.08,3a5.34,5.34,0,0,1-.45,2.69c-.34.66-1.21,1-2.6.88a6.76,6.76,0,0,1,.51,1.85Z"/><path class="cls-3" d="M132.92,37.45a11.36,11.36,0,0,0,4.28,2.66c.32-.62.66-1.22,1-1.73a12.57,12.57,0,0,1-3.94-2.12,16.67,16.67,0,0,0,3.18-6l-.3-.49H134V27.32h2.22c.34,0,.9,0,1.68.1V25.56c-.78.06-1.34.1-1.68.1H134V23.77c0-.27,0-.65,0-1.12h-2a6.87,6.87,0,0,1,.08,1.12v1.89h-1.95c-.35,0-1,0-1.78-.11v1.87c.84-.07,1.43-.1,1.78-.1H132V29.8h-1.95c-.28,0-.83,0-1.64-.1v1.71c.77-.07,1.33-.1,1.64-.1h.83l-1.49.85a13.75,13.75,0,0,0,2.3,4A10,10,0,0,1,127,38.41c.34.61.67,1.2,1,1.77A13.85,13.85,0,0,0,132.92,37.45Zm-1.82-6.14h4.11A13.41,13.41,0,0,1,133.06,35,16.84,16.84,0,0,1,131.1,31.31Z"/><path class="cls-3" d="M155.68,37.94a18.76,18.76,0,0,1,1-1.82,19.3,19.3,0,0,1-7.12-7.6h4.33l2.41.11v-1.9c-.8.07-1.62.11-2.41.14h-4.53v-1.7l.17-2.37h-2.17c.06,1.06.1,1.87.1,2.4v1.71H143c-.76,0-1.54,0-2.32-.07v1.83c.79-.09,1.56-.13,2.32-.15h4.26s-1.42,3.77-7,7.82a9.92,9.92,0,0,1,1.09,1.73,24,24,0,0,0,6.15-6.13v5.61c0,.52,0,1.31-.1,2.35h2.1c-.07-1-.1-1.71-.1-2.2V32.07A21.52,21.52,0,0,0,155.68,37.94Z"/><path class="cls-3" d="M150.68,24.39a27.78,27.78,0,0,1,2.71,2.44l1.49-1.38a23.58,23.58,0,0,0-2.82-2.29Z"/><path class="cls-3" d="M161.33,39.9h2a14.94,14.94,0,0,1-.09-1.78V31.89a14.63,14.63,0,0,1,1.3,2.33l1.39-1.3a14.4,14.4,0,0,0-1.64-2.83l-1.05.83V28.45h.64a9.68,9.68,0,0,1,1.39.1V26.7a10.58,10.58,0,0,1-1.39.09h-.64V24.55a16.15,16.15,0,0,1,.09-1.75h-2a18.86,18.86,0,0,1,.1,2v2h-.93a13.77,13.77,0,0,1-1.57-.09v1.85a11.2,11.2,0,0,1,1.57-.1h.88a14.7,14.7,0,0,1-2.75,5.71,12,12,0,0,1,.62,2.13A12.32,12.32,0,0,0,161.42,33v5.12A17.39,17.39,0,0,1,161.33,39.9Z"/><path class="cls-3" d="M175.18,30.57V28.72c-.57.05-1.15.09-1.74.1H166.9c-.59,0-1.18-.05-1.78-.1v1.86a12.89,12.89,0,0,1,1.78-.11h2.34v7.22a.67.67,0,0,1-.72.73,7.49,7.49,0,0,1-1-.05,6.42,6.42,0,0,1,.34,1.79,6.86,6.86,0,0,0,2-.21c.68-.23,1.14-.62,1.14-1.29V30.47h2.47A15.37,15.37,0,0,1,175.18,30.57Z"/><path class="cls-3" d="M175.76,37.2a46,46,0,0,0-2.61-5l-1.61.91a33.93,33.93,0,0,1,2.7,5.55C174.67,38.23,175.18,37.73,175.76,37.2Z"/><path class="cls-3" d="M167.6,23.94a16.41,16.41,0,0,1-1.77-.1v1.88a11.25,11.25,0,0,1,1.77-.13h5.14a11.81,11.81,0,0,1,1.77.13V23.84a17.5,17.5,0,0,1-1.77.1Z"/><path class="cls-3" d="M165.35,38.87a18,18,0,0,0,3.13-5.59l-1.74-.77a11.61,11.61,0,0,1-3.08,5c.38.24.69.45.92.63A4.64,4.64,0,0,1,165.35,38.87Z"/><path class="cls-3" d="M179.18,38.22a16.87,16.87,0,0,0,3.31-5.73c-.48-.38-1.46-1.1-1.75-1.3a15.08,15.08,0,0,1-3,5.29C178.39,37.37,178.52,37.46,179.18,38.22Z"/><path class="cls-3" d="M185.26,38.61h6.67a17.77,17.77,0,0,1,1.92.1V37.05a16.88,16.88,0,0,1-1.92.1h-2.17v-2h1.39a17,17,0,0,1,1.71.1V33.57a13.67,13.67,0,0,1-1.71.1h-1.39V31.76H191a14.5,14.5,0,0,1,1.74.1V30.18a14.47,14.47,0,0,1-1.74.07h-1.25v-2h2a14.43,14.43,0,0,1,1.75.1V26.66c-.57.05-1.15.07-1.75.07h-6.85a17.8,17.8,0,0,0,1.12-2.95l-1.6-.8a16,16,0,0,1-3.62,6.55,9.22,9.22,0,0,1,1.39,1.57,13,13,0,0,0,1.27-1.64V38.1c0,.75,0,1.34-.07,1.8h1.86C185.25,39.69,185.26,38.61,185.26,38.61Zm0-10.37H188v2h-2.74Zm0,3.52H188v1.91h-2.74Zm0,5.39v-2H188v2Z"/><path class="cls-3" d="M187.22,23.78a16.92,16.92,0,0,1,1.16,2.69l1.75-.84A16,16,0,0,0,189,23Z"/><path class="cls-3" d="M178.32,25.52a16.39,16.39,0,0,1,2.23,2.19l1.4-1.59c-.73-.73-1.45-1.41-2.17-2Z"/><path class="cls-3" d="M199,39.64h2.12A13.52,13.52,0,0,1,201,38v-8.5a11.66,11.66,0,0,1,.1-1.53h-.57s1.41-2.75,2-4.05l-1.88-1c-.68,2-3.08,6.36-4.48,7.44a11.46,11.46,0,0,1,1,2.09c.67-.64,2-2.18,2-2.18V38A16.48,16.48,0,0,1,199,39.64Z"/><path class="cls-3" d="M212.17,38.12a15.2,15.2,0,0,0,.67-2.55,5.42,5.42,0,0,1-1.87-.45,7.81,7.81,0,0,1-.34,2,1.18,1.18,0,0,1-1.07.83,12.75,12.75,0,0,1-1.95,0,1,1,0,0,1-.89-.87V31.38a24.16,24.16,0,0,0,5.67-3.62l-1.5-1.44a12.94,12.94,0,0,1-4.17,3.06V25.53c0-.58,0-1.36.1-2.33h-2.11c.08,1,.11,1.76.11,2.33v4.58s-1.76.58-2.66.76a7.29,7.29,0,0,1,.9,1.92l1.76-.71v5.85a1.75,1.75,0,0,0,1.81,1.57c.91,0,2.72,0,3.63,0A2,2,0,0,0,212.17,38.12Z"/><path class="cls-3" d="M230.64,31.79a7.06,7.06,0,0,1,1.21.1v-1.7a4.53,4.53,0,0,1-1.21.13h-.87V25.05h.62a5.92,5.92,0,0,1,1.07.1v-1.7a6.44,6.44,0,0,1-1.07.09h-6.7a6.08,6.08,0,0,1-1.1-.1v1.7a6.53,6.53,0,0,1,1.1-.09h.66v5.27h-1.06a4.63,4.63,0,0,1-1.09-.13v1.7a7.26,7.26,0,0,1,1.22-.1h.93c0,4.88-2.25,6.18-3.46,7,.46.35,1,.77,1.47,1.23,1.36-1.05,3.72-2.78,3.72-8.23H228V38a17.28,17.28,0,0,1-.1,1.9h2c-.06-.61-.1-1.2-.1-1.76V31.79ZM228,30.32h-1.9V25.05H228Z"/><path class="cls-3" d="M221.42,38c0-.57-.06-1.14-.1-1.7V30.42a10.2,10.2,0,0,1,.09-1.35,10.06,10.06,0,0,1-1.41.09h-1.89a20.92,20.92,0,0,0,1.19-3.77h1.19a6.94,6.94,0,0,1,1.08.09V23.82a6.38,6.38,0,0,1-1.08.1h-4.37a7.47,7.47,0,0,1-1.07-.1v1.66a6.72,6.72,0,0,1,1.07-.09h1.38a13.84,13.84,0,0,1-3,5.9l.32,2.22c.35-.3,1.49-1.58,1.49-1.58V36.4c0,.5-.06,1-.09,1.55h1.75v-.5h1.73V38ZM218,36.12V30.63h1.58v5.49Z"/><path class="cls-3" d="M245.62,39.9c.79,0,2.2,0,2.93,0a1.61,1.61,0,0,0,1.37-1.15,11.5,11.5,0,0,0,.64-1.77,6.73,6.73,0,0,1-1.63-.77,8.1,8.1,0,0,1-.31,1.22c-.18.51-.43.82-.76.84a6.31,6.31,0,0,1-1.31,0,.52.52,0,0,1-.47-.61c0-.79,0-2.92.12-3.7s.18-1.42.29-2.05A12.54,12.54,0,0,1,245,32h-3.34s.18-1.28.19-2L240,29.78a9.94,9.94,0,0,1-.16,2.22h-3.27a12.88,12.88,0,0,1-1.5-.1v1.63a10.3,10.3,0,0,1,1.5-.1h2.88c-1.33,3.09-2.84,4.59-5.59,5.09a7.61,7.61,0,0,1,1,1.62,9.12,9.12,0,0,0,6.48-6.71h3s-.21,3.66-.19,5A1.68,1.68,0,0,0,245.62,39.9Z"/><path class="cls-3" d="M234.17,29H236c0-.31,0-.65,0-1v-1.3h12.18V28q0,.51-.06,1h2c0-.31,0-.65,0-1v-2c0-.31,0-.62,0-.93a15.1,15.1,0,0,1-1.66.1h-5.83l1-.57a14.6,14.6,0,0,0-1.43-2.29l-1.61.93a9.35,9.35,0,0,1,1.11,1.93h-5.8a16.47,16.47,0,0,1-1.7-.1c0,.31.05.62.06.92v2Q234.22,28.53,234.17,29Z"/><path class="cls-3" d="M236.65,31.5a13.61,13.61,0,0,0,2.14-1.56,26,26,0,0,0,1.9-1.87l-1.46-.89a12.26,12.26,0,0,1-4,3C235.7,30.6,236.17,31,236.65,31.5Z"/><path class="cls-3" d="M244.4,27.32l-1.24,1.19a25.57,25.57,0,0,1,4.64,3.55c.35-.56.69-1.08,1-1.57A31.1,31.1,0,0,0,244.4,27.32Z"/><path class="cls-3" d="M258.59,33.81a4.72,4.72,0,0,0-2-4.18s1.27-3.63,1.82-5.4l-.44-.55h-3.67a14.93,14.93,0,0,1-1.62-.09,12.46,12.46,0,0,1,.09,1.47V37.88a19,19,0,0,1-.1,2h1.82a19,19,0,0,1-.1-2V25.15h2s-.9,3-1.42,4.36v.55a4.23,4.23,0,0,1,1.9,3.1c0,1.05-.63,1.67-1.9,1.86a8.76,8.76,0,0,1,.77,1.87A3.47,3.47,0,0,0,258.59,33.81Z"/><path class="cls-3" d="M265.76,39.9a16.11,16.11,0,0,0,2,0,1.28,1.28,0,0,0,1.08-.87,10.68,10.68,0,0,0,.41-1.88,4.1,4.1,0,0,1-1.62-.51c0,.29-.06.61-.1,1a.82.82,0,0,1-.65.74h-.38c-.27,0-.58-.13-.58-.46,0-1.52,0-5,0-5H267a9.82,9.82,0,0,1,1.43.1V31.28a10.75,10.75,0,0,1-1.43.09h-6.59a12.3,12.3,0,0,1-1.46-.09v1.66a9.94,9.94,0,0,1,1.46-.1H261a6.85,6.85,0,0,1-.8,3.94,4.21,4.21,0,0,1-2.85,1.74,6.61,6.61,0,0,1,1,1.66,5.46,5.46,0,0,0,3.3-2.48,11.71,11.71,0,0,0,1.06-4.86h1.63v5.79A1.39,1.39,0,0,0,265.76,39.9Z"/><path class="cls-3" d="M258.56,25a17.93,17.93,0,0,1,.1,1.8s0,1.65-.1,2.26h1.88a10.93,10.93,0,0,1-.09-1.42V26.55h6.53v1.07a12,12,0,0,1-.09,1.42h1.91c-.07-.43-.13-2.26-.13-2.26a14.65,14.65,0,0,1,.13-1.8,9.83,9.83,0,0,1-1.34.1h-3.43l.79-.7c-.35-.51-.9-1.23-1.62-2.13l-1.45,1.2a11,11,0,0,1,1.17,1.63h-3A9.32,9.32,0,0,1,258.56,25Z"/><path class="cls-3" d="M262.44,28.33a11.11,11.11,0,0,1-1.5-.1V29.8a8.89,8.89,0,0,1,1.36-.1h2.64a9,9,0,0,1,1.32.1V28.23a8.29,8.29,0,0,1-1.32.1Z"/><path class="cls-3" d="M127.75,28.07V26.25c-.63.07-1.66.1-1.66.1v-1.7c0-.61,0-1.23.1-1.85h-1.92c.06.61.09,1.24.09,1.85v1.7H123.3c-.27,0-.79,0-1.57-.1v1.82c.73-.06,1.25-.1,1.57-.1h1.06v4.19a24,24,0,0,1-2.89,1.06l.57,1.93c.78-.37,2.32-1.28,2.32-1.28v3.69a.67.67,0,0,1-.73.72,7.43,7.43,0,0,1-1-.05A6.4,6.4,0,0,1,123,40a7,7,0,0,0,2-.21c.68-.23,1.14-.61,1.14-1.29V33.21a13.37,13.37,0,0,1,1.49-.83l.16-1.81c-.48.21-1.65.88-1.65.88V28S127.07,28,127.75,28.07Z"/></svg>