<svg id="图层_1" data-name="图层 1" xmlns="http://www.w3.org/2000/svg" viewBox="0 0 278 72"><defs><style>.cls-1,.cls-2{fill:#0051a2;}.cls-2{fill-rule:evenodd;}</style></defs><title>logo合集</title><path class="cls-1" d="M114.64,25.56c0,.47-.41.7-1.24.7a4.54,4.54,0,0,1-1-.13,4.12,4.12,0,0,1-.78-.24.69.69,0,0,1-.28-.25,2,2,0,0,1-.15-.66L111,24c0-.32,0-.56,0-.74a2.1,2.1,0,0,1,.39-1.38c.25-.31.48-.47.67-.47s.34.22.45.67a3.64,3.64,0,0,0,.91,1.48,3.49,3.49,0,0,1,1.24,2Z"/><path class="cls-1" d="M130.16,23.41a1.86,1.86,0,0,1-.51,1.07,5.21,5.21,0,0,0-.5,2.82,10.21,10.21,0,0,0,.1,1.61,7.7,7.7,0,0,1,.1,1.25,8.85,8.85,0,0,1-.12,1.36,18.68,18.68,0,0,0-.11,2.36,12.49,12.49,0,0,0,.15,2.32,15.83,15.83,0,0,1,.15,2.72l-.07,2.89a15.59,15.59,0,0,0,.14,2.39,7.81,7.81,0,0,1,.13,1.2q0,.84-.54.84a9.88,9.88,0,0,1-1.61-.45c-.92-.3-1.73-.56-2.43-.77a12.11,12.11,0,0,1-1.78-.66,7.33,7.33,0,0,1-1.68-1.14,15.33,15.33,0,0,1-1.23-1.11c-.18-.2-.27-.33-.27-.38s.06-.09.17-.09a4.39,4.39,0,0,1,.54.07,29.16,29.16,0,0,0,4.62.87c.61,0,1-.11,1.17-.35a2.59,2.59,0,0,0,.25-1.39l-.3-8.77c0-1.72-.13-3.14-.25-4.25a15.18,15.18,0,0,0-.45-2.53,2.51,2.51,0,0,0-.78-1.28,2,2,0,0,0-1.31-.4,12.78,12.78,0,0,0-5.24,1.68,4,4,0,0,1-1.41.5c-.27,0-.53-.2-.79-.6a2.09,2.09,0,0,1-.38-1c0-.4.22-.61.67-.61a6,6,0,0,0,1.64-.37,17.49,17.49,0,0,1,4-.83l1.34-.24a11.12,11.12,0,0,1,2-.2,14,14,0,0,1,2.75.38c1.17.26,1.75.63,1.75,1.1Z"/><path class="cls-1" d="M124,36.94a2.47,2.47,0,0,0-2.2-1.38,3.15,3.15,0,0,0-1.42.36,3.15,3.15,0,0,1-.93.35c-.13,0-.2-.21-.2-.64a1.21,1.21,0,0,1,.22-.84,2.15,2.15,0,0,1,1.19-.2l.91.07a.71.71,0,0,0,.57-.19,2,2,0,0,0,.32-.8,3.59,3.59,0,0,1,.29-.86,6.16,6.16,0,0,1,.94-1c.53-.53.8-.94.8-1.23s-.4-.61-1.21-1a5.92,5.92,0,0,0-2.79-.63l-.68,0c-.19,0-.29-.15-.29-.49a1.13,1.13,0,0,1,.24-.77.85.85,0,0,0,.23-.54c0-.18-.23-.31-.7-.42a5.68,5.68,0,0,0-1.11-.15c-.74,0-1.11.23-1.11.67a.61.61,0,0,0,.1.34,3,3,0,0,1,.17,1.24.59.59,0,0,1-.37.64,12.73,12.73,0,0,0-1.65.66,2.41,2.41,0,0,1-.9.26,2.13,2.13,0,0,0-1,.41,1,1,0,0,0-.51.79,7.26,7.26,0,0,0,1.28,2.3c.85,1.24,1.38,1.86,1.58,1.86a1.68,1.68,0,0,0,.55-.23,1.47,1.47,0,0,1,.63-.24c.13,0,.2.1.2.29a3.9,3.9,0,0,1-.15.87,1.22,1.22,0,0,1-.47.77,5.54,5.54,0,0,1-.93.39,12.78,12.78,0,0,1-1.91.4c-.43.07-.64.19-.64.35a2.56,2.56,0,0,0,.64,1.06c.42.54.72.81.89.81a1.11,1.11,0,0,0,.6-.24,9.07,9.07,0,0,1,1.58-.65,7.49,7.49,0,0,1,1.86-.45c.9-.07,1.43-.45,1.58-1.15a2.71,2.71,0,0,1,.37-.9,2.6,2.6,0,0,1,.72-.66,1.66,1.66,0,0,1,.81-.32.71.71,0,0,1,.57.34,1,1,0,0,1,.25.6.79.79,0,0,1-.63.76c-.43.14-.64.32-.64.54a1.18,1.18,0,0,0,.45.75,2.55,2.55,0,0,0,1.19.62,4.89,4.89,0,0,0,1.14.19c.27,0,.41-.22.41-.66A4.77,4.77,0,0,0,124,36.94Zm-4.55-6.08c0-.29,0-.47.16-.55a1.56,1.56,0,0,1,.8-.12c.44,0,.66.24.66.71a3.37,3.37,0,0,1-.16.87.93.93,0,0,1-.65.72,3.25,3.25,0,0,1-.64.15c-.13,0-.2-.12-.2-.37Zm-2.28,1.85c0,.45-.08.72-.23.81a1,1,0,0,1-.37.13.72.72,0,0,1-.58-.3,1.48,1.48,0,0,1-.23-.89,1,1,0,0,1,.49-.88,1.62,1.62,0,0,1,.72-.28c.16,0,.23.1.23.3Z"/><path class="cls-1" d="M111.85,29.22a1,1,0,0,1-.23.6c-.27.34-.55,1.86-.84,4.59a29.89,29.89,0,0,0-.3,5c.06.65.1,1.14.1,1.47s-.11.54-.34.61a3.27,3.27,0,0,0-.92.38.79.79,0,0,1-.47.19c-.15,0-.25-.15-.3-.44a12.63,12.63,0,0,1-.09-2l.14-7.79c0-1,0-1.74-.07-2.15l-.1-.9c0-.52.23-.78.7-.78a2.41,2.41,0,0,1,.69.19,11.75,11.75,0,0,0,1.46.39q.57.13.57.57Z"/><path class="cls-1" d="M146.74,21.06c.23,0,.4.16.54.5a2.78,2.78,0,0,0,.84,1l1.17,1.24c1.08,1.1,1.62,1.77,1.62,2s-.16.38-.47.67a1.62,1.62,0,0,1-1.13.44,4.71,4.71,0,0,1-1.78-.52,3.42,3.42,0,0,1-1.41-1,3.68,3.68,0,0,1-.28-1.76,6.56,6.56,0,0,1,.26-1.65c.18-.67.4-1,.64-1Z"/><path class="cls-1" d="M165.28,36.37a3.53,3.53,0,0,0-.7.13,14,14,0,0,1-2.56.14c-1.34,0-2.13,0-2.36,0s-.36-.25-.36-.7a2.94,2.94,0,0,1,.24-1.21,3.28,3.28,0,0,0,.3-1.28,3.63,3.63,0,0,1,.12-1c.08-.28.25-.8.52-1.56a10.21,10.21,0,0,1,.57-1.41,1.84,1.84,0,0,1,.47-.5c1.12-.76,1.83-1.27,2.13-1.51s.46-.44.46-.57a1.79,1.79,0,0,0,0-.36,1.83,1.83,0,0,1,0-.35,2.64,2.64,0,0,1,.07-.54c.08-.38-.13-.57-.64-.57a4.84,4.84,0,0,0-1,.14q-6.94,1.27-8,1.27a2,2,0,0,1-.52-.06,1,1,0,0,0-.32-.07c-.33,0-.5.21-.5.64a3.47,3.47,0,0,0,.13.73,7.73,7.73,0,0,1,.14,1.72c0,.78.21,1.17.64,1.17a1.51,1.51,0,0,0,.57-.15,2.6,2.6,0,0,1,1-.15c.46,0,.74.08.83.24a4.14,4.14,0,0,1,.13,1.37,15,15,0,0,1-.39,3,7,7,0,0,1-.62,2.11.78.78,0,0,1-.52.32c-.19,0-1,.25-2.43.67a12.76,12.76,0,0,1-2.89.64,1,1,0,0,0-.46.07c-.07,0-.11.14-.11.3a5,5,0,0,0,.23,1c.16.51.33.77.52.77a2.14,2.14,0,0,0,.76-.2,13,13,0,0,1,3.84-.84,48.82,48.82,0,0,1,5-.27q4.94,0,7,1a1.92,1.92,0,0,0,.68.2c.15,0,.23-.24.23-.71a2.45,2.45,0,0,0-.5-1.41,3.55,3.55,0,0,1-.57-1.27,1.13,1.13,0,0,0-1.18-.91Z"/><path class="cls-1" d="M150.44,32.14a10.75,10.75,0,0,1-.44,2.45,19.63,19.63,0,0,1-1,2.85l-2.25,4.67a11.1,11.1,0,0,1-.74,1.38.57.57,0,0,1-.44.2q-.54,0-1.71-1.38a5.6,5.6,0,0,1-1.18-3.79,23.83,23.83,0,0,1,.35-3.53c.24-1.45.41-2.42.51-2.89a5.92,5.92,0,0,0,.15-1.2l0-.74c0-.47.2-.71.6-.71a5,5,0,0,1,1.53.32c.61.21.92.48.92.79a2.06,2.06,0,0,1-.67,1.21,10,10,0,0,0-1.88,3,8.89,8.89,0,0,0-.71,3.35c0,1.32.3,2,.88,2s1.07-.45,1.86-1.35a31,31,0,0,0,3.48-6.14c.24-.54.43-.81.55-.81s.19.11.19.34Z"/><path class="cls-1" d="M192.21,24.72c0,.24.26.37.77.38a11.75,11.75,0,0,1,1.8.19,5.67,5.67,0,0,1,1.54.42,14.67,14.67,0,0,1,2,1.34,16.65,16.65,0,0,1,2,1.61,4.58,4.58,0,0,1,.69.93,1.68,1.68,0,0,1,.2.73c0,.23-.22.34-.66.34a4,4,0,0,0-1.22.18,5.86,5.86,0,0,1-1.75.19l-1.85-.1a1.46,1.46,0,0,0-.8.2,10.61,10.61,0,0,1-2.69,1.44c-.72.23-1.08.46-1.08.71a.94.94,0,0,0,.16.35,1.32,1.32,0,0,1,.16.62.61.61,0,0,0,.2.49.7.7,0,0,0,.49.08,31.9,31.9,0,0,1,4.13-.33c1.12,0,1.77,0,1.95,0s.36.23.56.6a4.67,4.67,0,0,1,.42,1.26,7.92,7.92,0,0,1,.13.94c0,.34-.2.51-.61.51a1.29,1.29,0,0,1-.63-.17,7.86,7.86,0,0,0-3.26-.5,10.74,10.74,0,0,0-2.6.16,1.29,1.29,0,0,0-.58.93,14.19,14.19,0,0,0-.2,2.63,16.8,16.8,0,0,1-.37,3.51,8.61,8.61,0,0,1-.63,2.12c-.19.32-.38.49-.57.49a1.69,1.69,0,0,1-.66-.17,16,16,0,0,0-1.78-.54,8.21,8.21,0,0,1-2.57-1.16c-.77-.52-1.16-.85-1.16-1s.21-.15.62-.09a8.59,8.59,0,0,0,1.41.11,15.26,15.26,0,0,0,1.63-.09,1.22,1.22,0,0,0,1.09-.6,6.24,6.24,0,0,0,.44-1.67,17.86,17.86,0,0,0,.19-2.75,3.2,3.2,0,0,0-.1-1,.38.38,0,0,0-.36-.2c-.17,0-1.1.14-2.8.42s-2.94.51-3.71.69a11.2,11.2,0,0,0-1.63.47,2.15,2.15,0,0,1-.71.2c-.15,0-.25-.13-.3-.4a1.42,1.42,0,0,0-.17-.56.54.54,0,0,1-.1-.25c0-.24.25-.41.74-.5a18.55,18.55,0,0,0,3.17-.94,39.77,39.77,0,0,1,5.13-1.45.72.72,0,0,0,.57-.8,1.25,1.25,0,0,0-.22-.76.82.82,0,0,1-.22-.45c0-.36.26-.56.77-.61a2.64,2.64,0,0,0,.79-.18,2.78,2.78,0,0,0,.69-.57,3.52,3.52,0,0,0,.62-.82,1.46,1.46,0,0,0,.19-.68c0-.38-.2-.57-.61-.57a2,2,0,0,0-1.74.91,2,2,0,0,1-.63.62,5.29,5.29,0,0,1-1.24.49,7.2,7.2,0,0,0-1.37.54,4.14,4.14,0,0,0-1,.77.91.91,0,0,1-.62.27c-.21,0-.5-.28-.85-.83a2.73,2.73,0,0,1-.54-1.12c0-.2.25-.36.74-.47a24.57,24.57,0,0,0,3.69-1.18,9.94,9.94,0,0,1,4.1-1,2.47,2.47,0,0,1,1.39.34c.35.22.74.45,1.18.7a2.35,2.35,0,0,0,.89.37,2.65,2.65,0,0,0,1.64-.76,2.13,2.13,0,0,0,.91-1.66,1.52,1.52,0,0,0-.87-1.39,3.22,3.22,0,0,0-1.55-.49,15.4,15.4,0,0,0-2.6.42,17.84,17.84,0,0,0-2.69.74,8.32,8.32,0,0,1-1.91.5,12.42,12.42,0,0,0-2.25.59,9.19,9.19,0,0,1-2.25.52,5.15,5.15,0,0,0-1.51.3,1.26,1.26,0,0,1-.56.19.45.45,0,0,1-.35-.2.73.73,0,0,1-.15-.44.37.37,0,0,1,.12-.32.92.92,0,0,1,.45-.08,3.87,3.87,0,0,0,1.28-.47,39,39,0,0,1,5.87-2.35,4.84,4.84,0,0,0,2.36-2.12c.85-1.23,1.75-2.71,2.72-4.43.26-.47.51-.71.72-.71s.6.26,1.17.79.86.87.86,1-.14.33-.42.49a4.83,4.83,0,0,0-.94.74,20.6,20.6,0,0,0-1.49,1.66c-.65.77-1,1.22-1.08,1.33a.53.53,0,0,0-.1.27Z"/><path class="cls-1" d="M189.62,19.17a.61.61,0,0,0-.37.14.81.81,0,0,1-.52.13,2.15,2.15,0,0,0-.52,0,3.18,3.18,0,0,0-.55.31,5.09,5.09,0,0,1-1.5.48c-.24,0-.37.17-.37.37a2.19,2.19,0,0,0,.84,1.38,2.36,2.36,0,0,0,1.52.81q.33,0,.48-.66A9,9,0,0,1,189.72,20a.82.82,0,0,0,.17-.53c0-.2-.09-.31-.27-.31Z"/><path class="cls-1" d="M185.36,24.48c0-.47-.44-1-1.31-1.71a5.62,5.62,0,0,1-1-1,.87.87,0,0,0-.67-.4,1.22,1.22,0,0,0-.76.32,1.16,1.16,0,0,0-.39,1,6.06,6.06,0,0,0,.15,1.31c.11.44.29.71.56.8a3.52,3.52,0,0,0,1.09.14,3.81,3.81,0,0,1,1,.11,1.24,1.24,0,0,0,.84-.05c.33-.11.49-.28.49-.5Z"/><path class="cls-1" d="M179.11,31.47a4.57,4.57,0,0,1,.07-1,3.07,3.07,0,0,0,.07-.54c0-.14-.09-.22-.27-.22a3.26,3.26,0,0,0-1.11.47,4.43,4.43,0,0,0-1.36,1.16,2.07,2.07,0,0,0-.52,1c0,.24.4.51,1.19.81a5.71,5.71,0,0,0,1.66.45.41.41,0,0,0,.47-.47,2.45,2.45,0,0,0-.1-.53,5.92,5.92,0,0,1-.1-1.21Z"/><path class="cls-1" d="M226.26,19.17a.5.5,0,0,1,.43.31c.12.2.31.48.58.84a5.3,5.3,0,0,0,.67.77A2.63,2.63,0,0,1,229,22.8a.76.76,0,0,1-.18.51.63.63,0,0,1-.46.2,4.57,4.57,0,0,1-1.34-.19,3.73,3.73,0,0,1-1-.45,1.44,1.44,0,0,1-.54-.57,1.88,1.88,0,0,1-.13-.76,6.85,6.85,0,0,1,.22-1.41q.21-1,.72-1Z"/><path class="cls-1" d="M222.11,28.8q-.18-.93-.45-.93c-.16,0-.33.14-.51.41-.44.62-.76,1-.94,1.27a.71.71,0,0,1-.52.34c-.17,0-.3-.2-.4-.61a4.61,4.61,0,0,1-.15-1.12,1.76,1.76,0,0,1,.38-1c.26-.35.87-1.07,1.83-2.17a.62.62,0,0,0,.21-.47c0-.38-.25-.66-.74-.84a4.51,4.51,0,0,0-1.55-.27,5,5,0,0,0-2,.54,11.61,11.61,0,0,1-1.34.5c-.63.21-1.07.33-1.33.39a.89.89,0,0,0-.6.6,17.55,17.55,0,0,0-.31,3.77c-.05,2.16-.08,4-.08,5.49l0,5.67c0,1.1,0,1.81,0,2.12a2.81,2.81,0,0,0,.11.91.63.63,0,0,0,.69.43,1.51,1.51,0,0,0,.76-.13.71.71,0,0,0,.27-.41c0-.17.11-1.34.2-3.5s.16-4.32.2-6.47c0-.43.11-.64.34-.64a10.18,10.18,0,0,1,2.28,1,1.53,1.53,0,0,0,.69.17.71.71,0,0,0,.57-.27,1.41,1.41,0,0,0,.22-.86,6.12,6.12,0,0,0-.07-1c0-.29.06-.44.3-.44l.81.1a6,6,0,0,0,.89.07c.26,0,.38-.28.38-.84A9.14,9.14,0,0,0,222.11,28.8Zm-4.72,2.57a2.45,2.45,0,0,1-1-.17.72.72,0,0,1-.34-.71c0-.06.05-.69.14-1.88s.17-1.91.23-2.18a3.07,3.07,0,0,1,.42-.89,2.75,2.75,0,0,1,.64-.72,1,1,0,0,1,.62-.24c.2,0,.31.17.31.51a3.4,3.4,0,0,1-.31,1.07,4.15,4.15,0,0,0-.3,1.58,4.2,4.2,0,0,0,.32,1.61,3.54,3.54,0,0,1,.32,1.18C218.4,31.09,218.06,31.37,217.39,31.37Z"/><path class="cls-1" d="M230.39,24.38a4.75,4.75,0,0,1,2.55.71,5.45,5.45,0,0,1,1.92,2.2,6,6,0,0,1,.77,2,.58.58,0,0,1-.32.6,3.12,3.12,0,0,1-1.11.14,8.22,8.22,0,0,1-1.9-.27l-2.11-.47c-.23,0-.37.13-.44.39a1.31,1.31,0,0,1-.42.65,8.68,8.68,0,0,1-1.34.81,10.75,10.75,0,0,1-1.88.79,5.52,5.52,0,0,1-1.41.25c-.37,0-.64-.25-.79-.74a4.17,4.17,0,0,1-.24-1.26.56.56,0,0,1,.44-.62c.65-.16,1.2-.31,1.64-.45s1.16-.44,2.12-.86a2.37,2.37,0,0,1,.94-.24,1.17,1.17,0,0,1,.74.27,1,1,0,0,0,.57.27,4.22,4.22,0,0,0,1.8-.55c.73-.37,1.09-.81,1.09-1.33q0-1.11-1.65-1.11a5.69,5.69,0,0,0-2.4.67,20.88,20.88,0,0,1-2,.89,5,5,0,0,1-1.12.29,7.16,7.16,0,0,0-2,.5,1.27,1.27,0,0,1-.52.1c-.19,0-.34-.12-.45-.37a1.56,1.56,0,0,1-.17-.7c0-.22.19-.38.57-.47a14.46,14.46,0,0,0,2.22-.81,11.91,11.91,0,0,1,4.9-1.24Z"/><path class="cls-1" d="M231.06,31.47a1.82,1.82,0,0,0-.7.13c-.23.09-1.46.49-3.7,1.21l-4.33,1.41a6.91,6.91,0,0,1-1.92.37c-.4,0-.6.17-.6.44a3.75,3.75,0,0,0,.44,1.32c.29.62.56.93.8.93a.65.65,0,0,0,.39-.22,2.89,2.89,0,0,1,.85-.51,2.7,2.7,0,0,1,.9-.28c.16,0,.25.16.25.49a3,3,0,0,1-.59,1.39,11.31,11.31,0,0,1-1.61,1.9,27.93,27.93,0,0,1-3.68,2.73.86.86,0,0,0-.44.68c0,.24.2.37.59.37a4.92,4.92,0,0,0,1.51-.32,13.51,13.51,0,0,0,2-.93,4.82,4.82,0,0,0,1.26-.82,2.59,2.59,0,0,0,.26-1,2.14,2.14,0,0,1,.33-1,4.48,4.48,0,0,1,.84-.74A6.59,6.59,0,0,0,225.62,37a6.85,6.85,0,0,1,.76-1.07,4.73,4.73,0,0,1,.82-.81,3.25,3.25,0,0,1,.74-.42,7.76,7.76,0,0,1,1.41-.33,9.51,9.51,0,0,1,1.71-.19,4.69,4.69,0,0,0,.91,0,.66.66,0,0,0,.4-.27,1.11,1.11,0,0,0,.17-.68,2.08,2.08,0,0,0-.37-1.08,1.23,1.23,0,0,0-1.11-.6Z"/><path class="cls-1" d="M236.7,37.11c.18,0,.42.51.73,1.54a20.86,20.86,0,0,1,.62,2.76c.11.8.23,1.48.35,2a6.7,6.7,0,0,1,.18,1.06.61.61,0,0,1-.18.42,1.08,1.08,0,0,1-.56.25l-1.94.2a19.74,19.74,0,0,1-2.47.2c-.6,0-1.23,0-1.92-.06a7.38,7.38,0,0,1-1.31-.17,5.49,5.49,0,0,1-1.1-.73,4.59,4.59,0,0,1-1.26-1.36,5.19,5.19,0,0,1-.62-1.62,9.73,9.73,0,0,1-.19-2.05,12.18,12.18,0,0,1,.27-2.47,5.54,5.54,0,0,1,.47-1.6.7.7,0,0,1,.62-.28,4.47,4.47,0,0,1,.82.08c.27.06.41.19.41.39a1,1,0,0,1-.1.47,6.67,6.67,0,0,0-.63,1.95,12.6,12.6,0,0,0-.28,2.57,2.07,2.07,0,0,0,.75,1.76,4.18,4.18,0,0,0,2.47.57,7.41,7.41,0,0,0,2.59-.34,2.87,2.87,0,0,0,1.17-.7,2.63,2.63,0,0,0,.47-1.16c.12-.53.25-1.57.41-3.14C236.51,37.3,236.59,37.11,236.7,37.11Z"/><path class="cls-1" d="M116.84,50.36l-2.17,5.94h-1.38l-2.05-5.94,0,0v5.9h-1.55V49.4h2.72l1.63,5h0l1.76-5h2.59v6.9h-1.55V50.36Zm5.2-1v6.9h-1.68V49.4ZM131,56.3h-2.38l-3-5.75,0,0V56.3H124V49.4h2.46l2.93,5.44,0,0V49.4H131v6.9Zm4.85-6.9h1.63V54c0,1.52-.89,2.3-2.59,2.35s-2.5-.73-2.59-2.27h1.67c0,.84.31,1.26.92,1.26s.88-.42,1-1.26V49.4Zm5.24,0v6.9h-1.67V49.4ZM144,56.3h-1.59l2.81-6.9h2l2.72,6.9H148.2l-.59-1.46h-3.05L144,56.3Zm1-2.61h2.21l-1-2.95h-.05L145,53.69Zm13.26,2.61h-2.38l-3-5.75,0,0V56.3h-1.54V49.4h2.46l2.93,5.44,0,0V49.4h1.55v6.9Zm7.11-2.54h-1.5V52.6H167v3.47a6.47,6.47,0,0,1-1.71.23,16.7,16.7,0,0,1-1.76.07q-3.56-.18-3.63-3.5c.05-2.27,1.26-3.47,3.63-3.62s3.63.74,3.6,2.24h-1.76c0-.78-.51-1.16-1.54-1.16-1.42,0-2.15.87-2.18,2.54s.76,2.47,2.18,2.49a8.37,8.37,0,0,0,1.46-.14s0,0,.08,0V53.76ZM176.6,49.4h1.67v4.32c-.08,1.72-1.2,2.6-3.34,2.65s-3.33-.93-3.39-2.65V49.4h1.67v3.76c-.11,1.52.46,2.25,1.72,2.2s1.78-.68,1.67-2.2V49.4Zm10.75,6.9H185l-3-5.75,0,0V56.3h-1.55V49.4h2.47l2.92,5.44,0,0V49.4h1.55v6.9Zm3.56-6.9v6.9h-1.67V49.4Zm4.19,6.9-2.84-6.9h1.8l2,5.44h.05l2-5.44h1.63l-2.84,6.9Zm6,0V49.4h5.18v1.15h-3.51v1.61H206v1.15h-3.26v1.83h3.64V56.3Zm8.78-5.75v1.83h1.38c.78,0,1.17-.32,1.17-1s-.39-.88-1.17-.86Zm0,3V56.3h-1.67V49.4h3.3c1.76,0,2.65.62,2.68,1.79q0,1.34-1.59,1.68v0q1.13.12,1.38,1.53a.84.84,0,0,1,0,.23,4,4,0,0,0,.42,1.64h-1.8a8.79,8.79,0,0,1-.29-1.87c-.05-.59-.29-.89-.71-.89Zm11.84-2.17h-1.59c0-.69-.44-1-1.25-1s-1.23.35-1.25.89.4.76,1.21.94l.21,0,.21,0c1.81.32,2.7,1,2.67,1.9,0,1.45-1.13,2.19-3.3,2.24-2,0-3-.76-3-2.27h1.67c0,.79.44,1.22,1.3,1.26s1.52-.32,1.55-.89-.49-.8-1.47-1a1,1,0,0,1-.29-.08c-1.7-.34-2.55-1-2.55-1.9.08-1.42,1.16-2.17,3.22-2.27,1.67.07,2.55.78,2.63,2.12Zm3.61-2v6.9H223.6V49.4Zm1.34,1.15V49.4h6.27v1.15h-2.3V56.3h-1.67V50.55Zm9.75,5.75V54.06l-2.63-4.66h2l1.59,3.17,1.63-3.17h1.67L238,54.06V56.3Z"/><path class="cls-2" d="M42.56,43.85l-.35-1.49,2.1-1.11-2.37,0-.35-1.49,3.68-.86.22.93-2.81.65,3,.07.2.84-2.65,1.38L46,42.06l.21.93-3.68.86ZM41.45,37.7l0-1.17,3.79-.08,0,1.17-3.79.08Zm-.12-3.2.19-1.08,2.31-1L41.76,32,42,30.93l3.73.65-.19,1.08L43.2,33.71l2,.35-.19,1.09-3.73-.65Zm1.61-6.92.42-1.1,1.92.74a3.06,3.06,0,0,1,.88.45,1.19,1.19,0,0,1,.38.64,1.6,1.6,0,0,1-.1.92A2.17,2.17,0,0,1,46,30a1.06,1.06,0,0,1-.6.29,1.57,1.57,0,0,1-.76-.07l.26-1.1a1,1,0,0,0,.36.09.32.32,0,0,0,.23-.06.3.3,0,0,0,.12-.16.33.33,0,0,0,0-.32,1,1,0,0,0-.42-.26l-2.19-.83Zm1.2-2.7,3.32,1.83.56-1L44.7,23.85l-.56,1Zm5.55-2.51-.86,1,.36.55-.76.91-2-3.52.82-1,3.82,1.33-.79.94-.59-.26ZM48.9,22l-1.31-.55.78,1.2L48.9,22Zm.55-4,2.23,3.06.89-.65-1.22-1.68,2.37.85.89-.65-2.23-3.06-.9.65,1.24,1.69-2.39-.85-.88.64Zm7.44-1.74-.29-.73,1.69-.65.58,1.5a3.44,3.44,0,0,1-.68.78,3,3,0,0,1-.84.46,2.24,2.24,0,0,1-1.11.19,1.6,1.6,0,0,1-.86-.41,2.24,2.24,0,0,1-.59-.88,2.16,2.16,0,0,1-.15-1.1,1.67,1.67,0,0,1,.45-.92A2.36,2.36,0,0,1,56,14a3.06,3.06,0,0,1,.91-.23,1.25,1.25,0,0,1,.61.14,1.56,1.56,0,0,1,.51.46L57,15a.67.67,0,0,0-.34-.22.77.77,0,0,0-.44,0,.73.73,0,0,0-.47.47,1.26,1.26,0,0,0,.09.87,1.35,1.35,0,0,0,.53.74.85.85,0,0,0,.7,0,1.13,1.13,0,0,0,.32-.19,2,2,0,0,0,.32-.33L57.62,16l-.73.28Zm8.8-4.09,1.17,0,0,2.26a1.9,1.9,0,0,1-.11.63,1.38,1.38,0,0,1-.34.52,1.43,1.43,0,0,1-.47.3,2.49,2.49,0,0,1-.82.12c-.19,0-.39,0-.6,0a1.62,1.62,0,0,1-.55-.16,1.35,1.35,0,0,1-.39-.33,1.24,1.24,0,0,1-.25-.44,2.4,2.4,0,0,1-.1-.65l0-2.25h1.16l0,2.31a.69.69,0,0,0,.16.49.76.76,0,0,0,1,0,.68.68,0,0,0,.17-.49l0-2.31Zm3.36.2,1,.28.84,2.39.54-2,1.07.29-1,3.66-1.07-.29-.84-2.37-.53,2-1.06-.28,1-3.66ZM74.18,14l1.08.46-1.47,3.49-1.08-.46L74.18,14Zm2.59,1.13,1,.68L77,18.51l2.21-1.79,1,.66L76.9,19.74,75.85,19l.92-3.94Zm4.73,3.43-2.81,2.54,2.15,2.36.63-.57-1.35-1.5.55-.5,1.22,1.35.57-.52-1.22-1.35.45-.4L83,21.39l.6-.54-2.1-2.32Zm0,5.73,3.28-1.9,1,1.68a2.83,2.83,0,0,1,.33.77.87.87,0,0,1-.06.57,1.17,1.17,0,0,1-1,.62,1,1,0,0,1-.51-.14,1.29,1.29,0,0,1-.33-.28,1.13,1.13,0,0,1,0,.34,1.34,1.34,0,0,1-.08.26,2.36,2.36,0,0,1-.12.26l-.67,1-.66-1.14.69-1.13a.71.71,0,0,0,.14-.33.43.43,0,0,0-.07-.29l0-.09-1.33.77-.59-1Zm2.54-.12.25.43a1.34,1.34,0,0,0,.2.24.31.31,0,0,0,.2.11.4.4,0,0,0,.41-.29A.74.74,0,0,0,85,24.2l-.26-.44-.67.38Zm.72,3.5a1.45,1.45,0,0,0-.75.71,1.85,1.85,0,0,0,.08,1.39,2.24,2.24,0,0,0,.45.8,1.22,1.22,0,0,0,.63.38,1.2,1.2,0,0,0,.7,0,1,1,0,0,0,.48-.32,1.17,1.17,0,0,0,.23-.6,4.66,4.66,0,0,0,0-1.14.93.93,0,0,1,0-.42.21.21,0,0,1,.13-.13.27.27,0,0,1,.23,0,.46.46,0,0,1,.18.27.56.56,0,0,1,0,.4.63.63,0,0,1-.29.3l.42,1a1.19,1.19,0,0,0,.67-.71,2,2,0,0,0-.11-1.14,2.35,2.35,0,0,0-.45-.83,1.12,1.12,0,0,0-.55-.34,1,1,0,0,0-.58,0,.91.91,0,0,0-.58.55A2.53,2.53,0,0,0,85.59,29a1.56,1.56,0,0,1,0,.64.37.37,0,0,1-.21.2.35.35,0,0,1-.3,0,.57.57,0,0,1-.24-.33.61.61,0,0,1,0-.56.75.75,0,0,1,.34-.28l-.43-1Zm3.87,4.21L88.83,33l-3.75.54-.17-1.16,3.75-.54ZM89,34.54V38.1h-.94V36.91H85.21V35.74h2.86v-1.2Zm-.17,5-.32,1.27-1.42.43,1.06,1-.31,1.25-1.78-2-1.54-.38.28-1.14,1.54.38Z"/><path class="cls-2" d="M64.71,46.82c.34,0,1.38-.49,1.87-2.17l0-10.92,5.49-3.14v6.17h0v3.62H72c.11,3.23-3.57,7.25-7.27,6.44Zm-.13-3.08V32.65l7.24-4.22c1-.51,1.31-1,.77-1.45-.77-.44-1.76,0-2.79.45l-7.18,4.15-2-1.15,7.43-4.32c.5-.29,1.21-.86.69-1.35s-1.76.09-2.33.34c-2.63,1.13-5.11,2.74-7.63,4.13l-.06,11.15s.31,4.9,3,5.32c1.28.25,2.11-.35,2.79-2Zm-7.92-3.36C57,45.06,60.06,49,65.41,49a8.67,8.67,0,0,0,8.65-8.52h0V36.67h0V29.55h0c1.2-1.06,1.57-2.23.47-3.7a3.57,3.57,0,0,0-3.22-.67,1.33,1.33,0,0,0-.55-1.53c-1.27-1.07-4.34-.8-6.39.29l-5.67,3h0l-.62.37-1.39.86Z"/><path class="cls-2" d="M65.41,18.65A17.35,17.35,0,1,1,48.06,36,17.38,17.38,0,0,1,65.41,18.65Zm0,1.88A15.47,15.47,0,1,0,80.88,36,15.5,15.5,0,0,0,65.41,20.53Z"/><path class="cls-2" d="M48.32,53.75l2.06-1.26,1.46-.92.77-.49.29,0a.6.6,0,0,0,.28-.07.15.15,0,0,0,0-.22,3.76,3.76,0,0,0-.52-.75,6.46,6.46,0,0,0-1-.9c-.16-.12-.53-.39-1.11-.79l-.34.26,0,.26.56.18.55.35a2.29,2.29,0,0,1,.54.42,1.07,1.07,0,0,1,.17.27.52.52,0,0,1,0,.3c-.59.49-1.18.94-1.78,1.36s-1.28.85-2,1.31a.93.93,0,0,1-.56-.3,1.86,1.86,0,0,1-.29-.6c-.12-.4-.19-.61-.19-.62l-.1.29A1.37,1.37,0,0,0,47.19,53a6.15,6.15,0,0,1,.43,1.1.55.55,0,0,0,.15.08.29.29,0,0,0,.21-.07.57.57,0,0,0,.17-.15l.17-.17Zm1.81-5.53,0,0-.08.08a.33.33,0,0,1-.24,0,3.18,3.18,0,0,1-.38-.51.36.36,0,0,1,.12-.51.48.48,0,0,1,.15-.07,1.25,1.25,0,0,1,.49-.12.59.59,0,0,1,.46.18l-.17.13a.86.86,0,0,0-.32.75Zm-1.72,4a.77.77,0,0,1-.1-.15,1.14,1.14,0,0,1-.1-.72.69.69,0,0,0,.3.13.39.39,0,0,0,.27,0c.07-.05.08-.13,0-.24a.39.39,0,0,0-.45-.07.59.59,0,0,1-.43,0l-.06-.09a1.57,1.57,0,0,0-.59-.4l-.73-.3a1.09,1.09,0,0,1,0-.2.88.88,0,0,1,.15-.42l.62.44a.63.63,0,0,0,.69.06.61.61,0,0,0,.14-.11s-.1-.08-.22-.11-.19,0-.2-.06,0-.06,0-.12.12-.27.17-.36a6.08,6.08,0,0,1,.45-.77l.37.16a5.42,5.42,0,0,1,.77.43,1.07,1.07,0,0,0,.22-.14l.18-.14a.43.43,0,0,1,.23-.07.31.31,0,0,1,.21.13s0,.1.11.23.09.22,0,.25a.31.31,0,0,1-.2,0l-.05,0-.1,0c-.09,0-.08.12,0,.2a2.2,2.2,0,0,1,.2.31,1.2,1.2,0,0,1,.12.78h-.43l-1,.07a.44.44,0,0,0,0-.09L49,50.87a1,1,0,0,0-.2-.18l-.23-.12-.22.14c-.05,0-.07.06-.06.1a.88.88,0,0,1,.6.31.61.61,0,0,1,.17.42.55.55,0,0,1-.19.42.31.31,0,0,1,0,.1.53.53,0,0,1-.16.17.26.26,0,0,1-.24,0Zm.34-3.94a5.43,5.43,0,0,0-1.37.43c-.27.13-.66.35-1.17.65l-.22.16-.22.17a.42.42,0,0,1-.21.06.31.31,0,0,1-.21-.1l-.18-.06a.29.29,0,0,1-.1-.06s0-.07.08-.1l.64-.39,1.08-.66c.46-.28.94-.58,1.47-.89v0l.12.1a1.25,1.25,0,0,1,.19.3,1,1,0,0,1,.09.37Zm1.17,1.91a.75.75,0,0,1-.14.12.61.61,0,0,1-.59,0l-.13-.07a3.13,3.13,0,0,1,.45-.22l.21-.07.2.23Zm-1.36-.28-.1-.08a.21.21,0,0,1,0-.3l.15-.12a1.32,1.32,0,0,1,.3.09l.12.07s-.05.08-.13.12l-.24.14-.1.08ZM62,59.87a.41.41,0,0,1-.16,0,.93.93,0,0,1-.3-.17,2.07,2.07,0,0,0-.5-.31,3.34,3.34,0,0,0-.38-.17L60.24,59a10.16,10.16,0,0,0-1.32-.36,8.66,8.66,0,0,0-1.75-.18.17.17,0,0,1-.15-.13.27.27,0,0,1,0-.23.23.23,0,0,1,.12-.12.14.14,0,0,1,.17,0l.3,0a6.93,6.93,0,0,0,1.44,0l.79-1.26a.22.22,0,0,0-.15-.24,1.5,1.5,0,0,0-.34,0,.65.65,0,0,1-.22,0l.16-1h.12a6.31,6.31,0,0,0,1.08.26c.1,0,.74.08,1.92.19,0,0,0,.05,0,.08a.35.35,0,0,1-.09.1l-.1.1a.12.12,0,0,0,.07.15.24.24,0,0,1-.09.07.61.61,0,0,1-.33.05l-.43.11a.66.66,0,0,0-.39.22,2.14,2.14,0,0,0-.43.49c-.38.57-.57.86-.6.89l.06.12,1.68.41a.71.71,0,0,1,.08.19,1.35,1.35,0,0,1,.07.88Zm-3.09-4.65a.65.65,0,0,1-.32.09.85.85,0,0,1-.31,0,2.16,2.16,0,0,1-.51-.31l-.26-.22s0-.05,0-.07a1.31,1.31,0,0,1,.1-.36,1.41,1.41,0,0,1,.21-.31,1.33,1.33,0,0,1,.34-.26.25.25,0,0,1,.2.22,1,1,0,0,0,0,.17c0,.14.08.25.11.34a4.42,4.42,0,0,0,.39.75ZM57.78,57l.11-.17a2,2,0,0,0,.12-.2.16.16,0,0,0,0-.08.08.08,0,0,0,0-.07,10.78,10.78,0,0,1-.84.74l-.39.31-.54.31a.83.83,0,0,1-.6.1.55.55,0,0,1-.2-.15,2.67,2.67,0,0,1,.14-.34,2.71,2.71,0,0,1,1-1.11,4.37,4.37,0,0,1,.65-.32.5.5,0,0,0-.13-.26.61.61,0,0,0-.31-.19l-.21,0h-.07a5.6,5.6,0,0,0-.69.91q-.25.42-.48.87l-.06.14,0,0-.12.37c0,.11.07.3.13.55a.7.7,0,0,0,.37.43A7.39,7.39,0,0,0,56.83,58a8,8,0,0,0,.71-.72l.24-.3Zm13-3.18-.08,1.06-.25,0a.78.78,0,0,1-.49-.17l-.12,0a.2.2,0,0,1-.12-.1c0-.1,0-.16.09-.2l.1,0a1.15,1.15,0,0,0,.3-.26,1.19,1.19,0,0,1,.36-.27,1,1,0,0,1,.21,0Zm-.58,1.75a.4.4,0,0,1-.22.18,2.65,2.65,0,0,1-.46.06.94.94,0,0,0-.28.05.31.31,0,0,1-.28,0,.61.61,0,0,1-.2-.24c0-.06,0-.13-.08-.21s0-.14-.05-.17a.38.38,0,0,0,.11-.13c.05-.07.08-.11.11-.12A.16.16,0,0,1,69,55c.06.09.32.18.79.28a.6.6,0,0,1,.41.27Zm4.73-.3c-.51-.27-.82-.42-.93-.47a1.85,1.85,0,0,0-1-.11l-1,.21.55-1.22c.13,0,.18-.1.14-.17a.23.23,0,0,0-.12-.12.9.9,0,0,0-.22-.1.34.34,0,0,1-.26-.05.29.29,0,0,0-.27,0c0,.11-.15.55-.35,1.34a2.83,2.83,0,0,1-.28.78,6.87,6.87,0,0,0-1,.67,3.32,3.32,0,0,0-.4.34l-.43.35-.13,0c-.07,0-.08.07-.05.14a.36.36,0,0,0,.17.15.27.27,0,0,0,.23,0,1.21,1.21,0,0,1,.52-.42,4.11,4.11,0,0,0,.52-.3c.13-.07.45-.28,1-.62a5.15,5.15,0,0,1,1-.53,2.21,2.21,0,0,1,.65-.13c.2,0,.33,0,.39.13a.33.33,0,0,1,0,.26.59.59,0,0,1-.14.27.28.28,0,0,1-.15.18.62.62,0,0,1-.3,0l-.36-.08a2.36,2.36,0,0,0-.51.12,3.45,3.45,0,0,0-.81.46c-.76.56-1.17.86-1.23.89a.14.14,0,0,0,0,.15.72.72,0,0,0,.27.19l.3.13a1,1,0,0,0,.39-.43.93.93,0,0,1,.46-.43,1,1,0,0,0,.36-.31,1,1,0,0,1,.36-.31.44.44,0,0,1,.09.11.41.41,0,0,1-.1.44,1.5,1.5,0,0,1-.34.29c-.13.06-.18.12-.16.16a.73.73,0,0,0,.2.14c.11.07.18.13.19.19q-.75.51-1.56,1l-.74.46q-.14,0-.09.15a.47.47,0,0,0,.1.11.46.46,0,0,0,.17.09.27.27,0,0,0,.27,0,.38.38,0,0,0,.21-.15,1.07,1.07,0,0,0,.15-.22l1.78-.94a1.64,1.64,0,0,1,.14.22,2.67,2.67,0,0,1,.17.54q0,.2.12.57a.78.78,0,0,1-.19.21,1.62,1.62,0,0,1-.26.12l-1,.21a2.65,2.65,0,0,0,1.27.29,3.91,3.91,0,0,0,.62-.05.83.83,0,0,1,.25,0,.47.47,0,0,0,.22,0,.14.14,0,0,0,.1-.17c-.07-.35-.18-.74-.31-1.16,0-.14-.1-.31-.17-.51s-.09-.21-.14-.33a.27.27,0,0,1,0-.29,13.84,13.84,0,0,1,1.42-.41l.69-.14a.53.53,0,0,0,0-.15,1,1,0,0,0-.2-.24,3.37,3.37,0,0,0-.43-.34l-1.82.75-.28-.31a2.52,2.52,0,0,0,.56-.44,2.31,2.31,0,0,0,.18-.23.58.58,0,0,1,.25-.19l.26-.06.26-.07.11,0a2.33,2.33,0,0,1,.47-.25c.27-.11.39-.23.38-.36ZM68.82,57.1a.19.19,0,0,1,.12.09.8.8,0,0,1,0,.23.37.37,0,0,0,0,.22.63.63,0,0,0,.17.18.72.72,0,0,1,.18.18c0,.07,0,.13-.14.18l-.89.06a.77.77,0,0,1-.09-.13.54.54,0,0,1,.08-.56,1.73,1.73,0,0,1,.48-.45Zm11.34-8.83,0,.11-.11.11a2.7,2.7,0,0,1-.66.46l-.13-.05-.12-.07a2.88,2.88,0,0,1-.34-.27.87.87,0,0,1-.2-.38c.07-.06.19-.06.36,0a.79.79,0,0,0,.37,0l.26,0a1.86,1.86,0,0,1,.6.08Zm2.72-.49-.81-.17a1.82,1.82,0,0,0-.82,0,1.55,1.55,0,0,0-.34.16,1.74,1.74,0,0,0-.25.23,2.8,2.8,0,0,0-.49,1.13c-.09.33-.15.55-.2.67s-.09.1,0,.13a.29.29,0,0,0,.14,0h.16a6,6,0,0,0,.32-.83c.06-.21.13-.48.22-.83l0,0,0-.06a1.09,1.09,0,0,1,.41-.27.43.43,0,0,1,.4,0,.27.27,0,0,1,.11.29c0,.12-.06.23-.09.32a.51.51,0,0,1-.1.21.25.25,0,0,1-.3,0l-.44,1.31a.28.28,0,0,0,.09.1l.21.07.23.1a4.1,4.1,0,0,0,.27-.62l.09-.27.12-.34a.18.18,0,0,0-.07-.25.25.25,0,0,0-.13,0,1.75,1.75,0,0,1,.39-.32,4.24,4.24,0,0,0,.68-.51,1,1,0,0,0,.17-.28Zm4,1.6a2.85,2.85,0,0,1-.19.36,4.86,4.86,0,0,1-.58.83,2.66,2.66,0,0,1-.28.29l-.17.16-.67.29a2,2,0,0,1-.7-.09,2.85,2.85,0,0,1-.64-.29,3.52,3.52,0,0,1-.38-.26c-.11-.08-.25-.21-.44-.38a.19.19,0,0,1,0-.25.59.59,0,0,1,.45-.18,4.07,4.07,0,0,0,.31.49,1.64,1.64,0,0,0,.42.37,1.42,1.42,0,0,0,.34.15,1.38,1.38,0,0,0,.38,0l.26-.18a3.68,3.68,0,0,0,.54-.5,3.19,3.19,0,0,0,.31-.44.72.72,0,0,0-.27-.45l-.8-.56-.08,0s-.08-.08-.07-.12c.21.06.68.21,1.41.47.36.13.64.22.86.28Zm-3.59-.27-.08.1a3.07,3.07,0,0,0-.38.51,2.44,2.44,0,0,0-.27.63,8,8,0,0,1,.32,1,1.36,1.36,0,0,0,.59.85,2.15,2.15,0,0,1,0,.62,1.05,1.05,0,0,1-.26.54.85.85,0,0,1-.29.23,6.18,6.18,0,0,0,0-1.26,3.44,3.44,0,0,0-.42-1.24c-.06,0-.1,0-.12,0s0,.07,0,.18a.41.41,0,0,1,0,.1l-.07.48-.24,0a2,2,0,0,1-.52-.14s0-.1.08-.2a1.43,1.43,0,0,0,.13-.2,7.58,7.58,0,0,0,.58-1.49c.13-.48.23-.8.29-.95h.22a1.09,1.09,0,0,1,.45.15l.14.1ZM80,50.28l.09.08a1.81,1.81,0,0,0,.3.11l.31.12a.26.26,0,0,1,.13.26l-.14.08a1.74,1.74,0,0,0-.28.24l.19.09.2.1a1.47,1.47,0,0,1,.29.23L81,51.7a3.21,3.21,0,0,1-.84.39l2.61,1.65a.15.15,0,0,1,0,.07.4.4,0,0,1-.08.16.31.31,0,0,1-.13.1l-.76-.41c-.26-.15-.66-.38-1.22-.68s-1-.53-1.24-.7-.5-.31-.71-.47A7.64,7.64,0,0,1,78,51.3a1.11,1.11,0,0,0,.11-.11,3.09,3.09,0,0,0,.34-.68,1.73,1.73,0,0,1,.22-.4,1.24,1.24,0,0,1,.22-.18,1.2,1.2,0,0,1,.32-.11,1,1,0,0,1,.09.52.59.59,0,0,0,.07.34l.13.1.2.14a2.44,2.44,0,0,0,.28.14l.29.11c0-.12-.06-.21-.09-.28a4.34,4.34,0,0,1-.12-.61Zm-1.26.34a.38.38,0,0,0-.13.09c-.08.09,0,.21.11.35l.42.38.73.51a.31.31,0,0,0,.1-.08l.09-.09a1,1,0,0,0,.11-.17.21.21,0,0,0-.12-.24,1,1,0,0,0-.3-.1,1.69,1.69,0,0,1-.26-.08l-.14-.06-.13-.07a1.38,1.38,0,0,1-.25-.19A1.09,1.09,0,0,1,78.75,50.62Z"/><path class="cls-2" d="M65.41,8a28,28,0,1,1-28,28,28.06,28.06,0,0,1,28-28Zm0,1.91A26.09,26.09,0,1,0,91.5,36,26.14,26.14,0,0,0,65.41,9.91Z"/></svg>