<svg id="图层_1" data-name="图层 1" xmlns="http://www.w3.org/2000/svg" viewBox="0 0 278 72"><defs><style>.cls-1{fill:#86006a;}</style></defs><title>logo合集</title><path class="cls-1" d="M240.91,62.18v0l.78-.17a3.57,3.57,0,0,1,.66-.69c.23-.38.49-.75.75-1.13a6.44,6.44,0,0,0,.34-2.1V56c0-.23,0-.47,0-.68a26.21,26.21,0,0,0-.76-4.75,2.61,2.61,0,0,0-.23-.24l-.35-.55-.16-.09a.72.72,0,0,1,0-.22,6.69,6.69,0,0,1,2.57-.45c.57,0,1.2,0,1.86,0h.15c.28,0,.55,0,.82,0a7.11,7.11,0,0,1,.49-.6,2.06,2.06,0,0,1,.33-.27,2.72,2.72,0,0,1,.1-.45,1.68,1.68,0,0,1,.33-.16v-.35c-.24-.23-.08-.45-.06-.55l-1-.67a34.37,34.37,0,0,0-4.35.5,4.57,4.57,0,0,0-1.05.17c-1.08.14-2.11.43-3,.61-1.35.56-2.68,1.15-4,1.73-.57.26-1.12.51-1.66.78-.86.59-1.85,1-2.63,1.51a7,7,0,0,0-.68.3,6.48,6.48,0,0,1-1.4.69c-.34,0-.59-.08-.77.09-.66.16-.84,0-.87.67.15.39.23.94.89,1l1.35.53h.88c.09,0,.17.21.5.21L231,55c.27-.06.35-.2.48-.45.16,0,.35.08.7,0,.18-.1.32-.41.63-.41.15-.13.15-.29.45-.33s.1-.2.38-.26.32-.35.47-.5a16.09,16.09,0,0,0,2-1,4,4,0,0,1,.29-.29c.54-.31,1.11-.6,1.67-.9a7.52,7.52,0,0,1,2-1,2.74,2.74,0,0,1,.51-.15,14,14,0,0,1,1.23,4.15,13,13,0,0,1-.2,4.71c-.14.18-.25.38-.37.57a4.77,4.77,0,0,1-1.37.64c-.32.06-.64.12-1,.2l-2.06.06a11.47,11.47,0,0,1-1.51-.14,34.89,34.89,0,0,1-3.86-.84,2,2,0,0,0-.29-.19c-.16,0-.41,0-.25.27a19.12,19.12,0,0,0,3.39,1.68l1.54.64c.56.14,1.13.27,1.71.43a3.36,3.36,0,0,1,1.66.18l.88,0c.27,0,.55,0,.82,0M193.57,43.77a14.09,14.09,0,0,0,.74-2.42c.25-.86.47-.72,1.19-1.15a4.89,4.89,0,0,0,1-.39,1.32,1.32,0,0,1,.3-.1c.6-.49,1.33-.51,2.05-1l.36,0s0-.06,0-.08l.15-.06c.14-.21.92-.39,1.31-.47a4,4,0,0,1,.54-.37,5.72,5.72,0,0,1,1.6-.41c.2,0,.63.14.92,0,.43-.37.74-.7,1.21-1a2.1,2.1,0,0,0,0-1.44,2.9,2.9,0,0,0-1.88,0c-.15.08-.8.3-.8.4-1.36.41-2.88,0-4.09,0a1,1,0,0,0,0,.24l.16.08a4.7,4.7,0,0,1,1.79.56.08.08,0,0,0,0,.07c-.51-.05-1.48-.36-1.69-.14a.82.82,0,0,0,0,.21c.43.06.87.21,1.44.35a.76.76,0,0,0,.41.22v.17c-.12.06-.62.2-.62.29a2.64,2.64,0,0,0-1.37.51c-.33,0-.31,0-.51.19h0l-.08,0a.14.14,0,0,0-.09,0l-.19.06h-.1v.06a.34.34,0,0,0-.15,0,11.31,11.31,0,0,1-1.9.59l-.07-.1a1.64,1.64,0,0,0,.25-.78.59.59,0,0,1,.1-.17c.14-.15.33-.25.33-.49.26-.82.51-1.64.76-2.45a1.31,1.31,0,0,0,.27-.69,2.44,2.44,0,0,0,.3-.79c.14-.38.27-.75.43-1.13a2.92,2.92,0,0,0,.15-.91c0-.22.09-.43.14-.65a4.69,4.69,0,0,0,.06-2,1,1,0,0,1-.53-.58,1.14,1.14,0,0,0-.25,0,2.58,2.58,0,0,1-.8-.56c-.68-.37-.57-.33-.71-.94-.6-.39-.85.1-1.14.49-.51.25-.14,1.35.09,1.87a20,20,0,0,1-.58,3.4c-.31,1-.6,2-.9,3-.08.46-.16.9-.21,1.37a14.67,14.67,0,0,0-.76,3,3,3,0,0,0-.31.48,5.33,5.33,0,0,1-1.39.45l-.78.35a3.39,3.39,0,0,1-1,.37,3.07,3.07,0,0,0-.45.2,4,4,0,0,1-1,.58l-1.56.39c-.33.16-1,.39-1.18.72a5.85,5.85,0,0,1-1.2.23,3.53,3.53,0,0,0-1-.73h-.17a4.55,4.55,0,0,0,0,.52c.09.21.19.43.29.64l.57.61c.1.08.23.08.38.31a3.72,3.72,0,0,1,.47.34.5.5,0,0,1,.16,0,8.92,8.92,0,0,0,2.54-.13c.25-.18.5-.33.75-.49.4-.32.8-.6,1.21-.9.14,0,.94-.27.94-.49.29-.21.37-.39.8-.46a1.9,1.9,0,0,1,1.31-.57,1.53,1.53,0,0,1-.26.62l-.41,1.33a16,16,0,0,1-.88,2.24,13.12,13.12,0,0,1-1.4,2.52,13.66,13.66,0,0,1-1.95,1.73,2.29,2.29,0,0,0-.27.27,33.37,33.37,0,0,1-3.94,2.58c-.22,0-.2.06-.31.13a17.35,17.35,0,0,1-3.14,1,1.88,1.88,0,0,0,0,.31c1.15-.15,2.32-.31,3.49-.45l1.05-.23a19.09,19.09,0,0,0,2.89-1,.43.43,0,0,1,.21,0,5.5,5.5,0,0,1,1-.3,16.73,16.73,0,0,1,1.62-1.3c.52-.58,1-1.16,1.59-1.73a10.93,10.93,0,0,0,1.62-3.06c.4-1,.8-1.91,1.21-2.84m60.68-21.55a48.85,48.85,0,0,1-3.56,6.88c-.17.25-.35.51-.52.78h-.08a6.5,6.5,0,0,1-.94,1.15c-.25.11-.67.41-.87.47v-.06h-.06c0,.23-.68.33-.72.33s0,0-.06,0c0-.27.1-.21.18-.29.31-.76.66-1.46.87-2.11,0-.12,0-.23,0-.33s.06-.23.1-.35a2.72,2.72,0,0,0-2.06-2.59l-.9.17a.74.74,0,0,1,.23-.41c.12-.31.25-.62.39-.91v-.65c-.1-.43-.39-.81-.39-1s.2-.44.51-.52V22.7c.35-.23.7-.46,1.07-.68l1.23-.58c.64-.24,1.28-.47,2-.68h.17v-.09a2.22,2.22,0,0,0,.65-.17,3.5,3.5,0,0,1,2.67.08,2,2,0,0,0,.19.24,2.88,2.88,0,0,1,0,1.4m-7.69,7.33a5.06,5.06,0,0,0,0,.56c-.09.16-.19.33-.27.51a1.68,1.68,0,0,1-.27.59,1,1,0,0,0-.26,0,3,3,0,0,1-.55-.68c0-.17-.07-.33-.09-.49,0-.33,0-.66.08-1,.18-.06.33-.33.41-.47a.68.68,0,0,1,.78.12c.06.14.39.5.19.82m-3.88-2.91c-.25.25-.31.9-.58,1.25,0,.18-.24.37-.33.39a10.87,10.87,0,0,0-1.82-.39s0-.06,0-.08c.43-.6,1.43-1,1.91-1.6,0,0,0-.07,0-.11.35-.14.51-.53,1-.36a.88.88,0,0,0,0,.2c-.08.23-.14.47-.2.7m-3.47.51a1.27,1.27,0,0,1-.45.41,11.56,11.56,0,0,1-1.49,1.34c0-.17.07-.33.11-.48,0-.49,0-1,0-1.47l1.07-.17a5.31,5.31,0,0,1,1.56-.39l-.82.76m-2-3.3a1,1,0,0,1,.25,0,2.07,2.07,0,0,1,1,.2h.2a.62.62,0,0,1,.21-.15c.08.15.84.32,1.15.38v.12a5.39,5.39,0,0,0-.76.86.21.21,0,0,0-.11,0,3.56,3.56,0,0,1-.89.76v.06l-.27.07a2.32,2.32,0,0,1-.68.29c0-.29,0-.56.08-.83-.08-.6-.13-1.19-.2-1.78m20-4a.72.72,0,0,0-.41-.49,2.09,2.09,0,0,0-1.17-1,6.39,6.39,0,0,0-1.41-.21c-.25,0-.48,0-.72,0a17.08,17.08,0,0,0-3,.64l-.57.41a13.16,13.16,0,0,0-1.32.79,7.36,7.36,0,0,0-1.42.86,10.15,10.15,0,0,0-.9.55v.1a.38.38,0,0,0-.16.05,3.53,3.53,0,0,1-.62.54v.06a.15.15,0,0,0-.1,0,.1.1,0,0,0,0,.08.43.43,0,0,0-.17,0c0-.23.49-.66.57-.75.67-.9,1.54-1.74,2.13-2.64l.06-.76h0V17.07h0c0-.12-.08-.22-.12-.31l-1.42-.24a8.83,8.83,0,0,0-.92.15,1.83,1.83,0,0,0-.39.21c-.43,1.07-1.15,2.2-1.68,3.25-.4.27-.74,1.15-1.22,1.52a5,5,0,0,0-.4.51c-.52.11-1.16-.06-1.36.13a13.1,13.1,0,0,1-3.25.81,4.63,4.63,0,0,0-.2-.75,4.36,4.36,0,0,0-.94-.72.45.45,0,0,0-.29-.24,1.84,1.84,0,0,1-.19-.25,4.81,4.81,0,0,1-1.49-1.22,4,4,0,0,1-.81-.55c-.45-.16-.74-.27-.88-.56a.87.87,0,0,0-.57,0,1.6,1.6,0,0,0-.29.19c0,.35-.08.68.39,1,.33.66.68,1.33,1,2,.18.45.36.91.53,1.39a22,22,0,0,1,1.23,6.3c0,.56,0,1.12,0,1.71-.16.17-.31.35-.47.54s-.54.67-.82,1-1.07,1.21-1.54,1.21l-.15-.22c0-.43-.05-.86-.05-1.28v-.78a10.22,10.22,0,0,0-.21-2c-.21-.25-.43-.49-.62-.73s-.27-.6-.53-.68a1,1,0,0,0-.49-.4c-.38-.55-.8-.2-1.16-.12v.25a3,3,0,0,0,.32.29,25.55,25.55,0,0,1,.63,6.42c0,.86-.07,1.73-.1,2.61a3.41,3.41,0,0,0,1,1.12h.41a4.37,4.37,0,0,1,.7-.63l.45-1.23c.08-.17.16-.35.24-.51a13.8,13.8,0,0,1,2.5-3.72.46.46,0,0,1,.07-.16.6.6,0,0,1,.2,0,3.16,3.16,0,0,0,.68.36c.2.2.49-.43.78-.43a2.42,2.42,0,0,1,.31-.25c.12-.31.26-.62.39-.93a1.89,1.89,0,0,1,0-.41.94.94,0,0,1,.07-.31,6.51,6.51,0,0,1,.43-.64,3.13,3.13,0,0,0,1.11-1.23c.39-.32.37-.2.88.15.12,0,1.23.86,1.23,1.21-.43.53-.86,1.05-1.27,1.6-.61.5-1.13,1-1.76,1.46l-.35.17a.25.25,0,0,0,0,.12,5.49,5.49,0,0,0,2.09-.64h.14v-.06a.49.49,0,0,1,.19,0v0c.49-.28,1-.53,1.46-.79.06-.13,0-.11.28-.11a3.67,3.67,0,0,1,.71,1.13,2.27,2.27,0,0,0,1.16.17c.15-.17.23-.35.48-.35a1,1,0,0,1,.3.65c-.55.54-1.1,1.1-1.64,1.67-.51.41-1,.82-1.5,1.25l-.16.06c-.27.41-.78.58-1.11.92s-1,.75-1.36.95c-.2.13-.37.27-.55.41-.74.41-1.48.83-2.22,1.27a10.3,10.3,0,0,0-1.82.89l-3.31,1.87-.84.53c-1,.6-2.08,1.19-3,1.78a10.09,10.09,0,0,0-1.89,1.07h-.3c-.52-.26-.7.42-.85.8a2.16,2.16,0,0,0-.37.37c-.06.23-.26.62,0,.85a3.07,3.07,0,0,1,.05.34l.27.29a2,2,0,0,1,.65.58,5.14,5.14,0,0,0,1.7.06,7.67,7.67,0,0,1,1.34-.68c.16-.1.33-.33.65-.33V48s.68-.24.68-.37c.66-.39,1.34-.78,2-1.15a4,4,0,0,1,1.38-.91c.19-.16.39-.32.61-.48.07-.15.15-.23.43-.23,0,0,0-.12.17-.12a1.09,1.09,0,0,1,.1-.25c.84-.64,1.67-1.26,2.53-1.89.14-.29.51-.27.67-.52.52-.3,1-.59,1.6-.86,0-.12.48-.36.48-.43a.62.62,0,0,1,.2,0,7.25,7.25,0,0,1,1.09-.66c.39-.2.77-.39,1.17-.57a2.7,2.7,0,0,1,.25-.18l1.17-.58a.51.51,0,0,1,.35-.18c.39-.25.59-.5,1.13-.5V38c.2,0,.55-.33.88-.33.17-.08.21-.2.52-.2v-.06c.24,0,1.45-.55,1.45.24-.82,1.17-1.72,2.35-2.67,3.53-.12.06-.14,0-.14.13l-1.68,1.81a14.15,14.15,0,0,0-2.1,2.07.39.39,0,0,0,0,.16c.12,0,.24,0,.35,0,.28-.19.53-.66.94-.85.17-.35.7-.68,1.09-1a5.7,5.7,0,0,1,.62-.24c.12-.26.18-.22.45-.3.86-.68,2.09-.9,3.08-1.56a3.19,3.19,0,0,1,.78-.6,2.12,2.12,0,0,1,.74-.86,4.32,4.32,0,0,0,1-.68,4.22,4.22,0,0,0,.44-2c-.11-.43-.21-.83-.31-1.24a1.9,1.9,0,0,0-1.95-.39,4.58,4.58,0,0,1-1.62.88,16,16,0,0,1-2.63.89c-.43.18-.86.35-1.26.53s-.55.33-.81.51-.64.19-.95.31a14.83,14.83,0,0,0-3.31,1.58v0l-.41.18c-.68.39-1.37.78-2.05,1.19l-.68.29a11.78,11.78,0,0,0-1.37.59,8.89,8.89,0,0,0-1.46.7v.08c-.37,0-1,.48-1.35.66s-.56.31-.83.49c-.61.29-1.21.58-1.82.89-.44.14-1,.49-1.38.38a.15.15,0,0,1,0-.1,28.39,28.39,0,0,1,2.49-1.43l.33-.33a20.38,20.38,0,0,1,1.93-.93c.22-.14.45-.26.68-.38s.28-.11.42-.17l2.45-1.28a.27.27,0,0,1,.16,0c1.4-.79,2.83-1.56,4.25-2.35a5.09,5.09,0,0,1,.45-.31.35.35,0,0,0,.27-.13c.74-.45,1.48-.9,2.22-1.33.24-.22.8-.87,1.21-.87s1.09-.94,1.23-.94c.2-.18.35-.45.6-.55a3.68,3.68,0,0,1,.32-.37c.29-.25.1-.35.58-.35a2.16,2.16,0,0,0,.9.19,1.82,1.82,0,0,0,1,.16c.53-.25,1.41-.33,1.85-.88a1.14,1.14,0,0,1,.22-.07c0-.18,0-.2.2-.2,0-.14.3-.35.38-.46h.06c.68-.9,1.25-1.8,1.85-2.68a.42.42,0,0,1,.09-.19h0c0-.29.27-.47.39-.64s.86-1.35,1-1.53a50.34,50.34,0,0,0,3.78-6.18q.06-.19.12-.36v-.67c0-.23-.06-.47-.08-.68m-48.84,28.8a.22.22,0,0,0-.1,0v0h-1.66v0c-.25,0-.5-.06-.74-.08s-.43,0-.64,0l-.37.06c-.84-.06-1.62-.24-2.36-.35-.33-.25-.64-.51-.95-.76a6.73,6.73,0,0,1-1.18-.63,2.24,2.24,0,0,1-.73-.46l-.71-.59a22,22,0,0,0-2-1.15c-.1-.41-.56-.51-.66-.56-.9-.23-2.22-.4-.9.41l.69.64a13.18,13.18,0,0,1,1.22,1.26,10.08,10.08,0,0,1,.7.92c.16.2.34.39.51.61.55.31,1,1.26,1.64,1.91a.17.17,0,0,0,0,.08,7.3,7.3,0,0,0,2.4,1.69c0,.14.68,0,.91-.06a5.91,5.91,0,0,1,1.13-.45,6.25,6.25,0,0,1,1-.79,8.66,8.66,0,0,1,1.89-1.06,1.82,1.82,0,0,0,.9-.6M92.91,57.49a1.19,1.19,0,0,0,1,1.23c.43-.12.88-.22,1.32-.32a8.16,8.16,0,0,0,.2-1.15c-.14-.29-.27-.58-.39-.86s-.1-.4-.14-.6,0-.6-.06-.9a1.12,1.12,0,0,1-.19-.52c0-.47.09-.94.16-1.4-.12-1.35.54-2.91.76-4.12a2,2,0,0,1,.19-.35,13.27,13.27,0,0,1,.61-1.81c.1-.24.64-1.15.46-1.33-.28.12-.46.1-.6.37h-.08c-.13.18-.27.35-.39.53a5.53,5.53,0,0,0-1,1.83,29.4,29.4,0,0,0-1.38,4.35c-.18.25-.36.5-.53.78a3.79,3.79,0,0,0-.74.82H92a5.77,5.77,0,0,0-.32.66c0,.19,0,.41,0,.62l.58,1.35a2.25,2.25,0,0,0,.64.82m49.86-5.72c0-.39,0-.76,0-1.14a3.1,3.1,0,0,1,.1-.36h0v-.69h0c-.06-.33-.1-.66-.13-1a3.6,3.6,0,0,1,0-1.78c-.22-.42-.3-.4-.3-.79s-.27-.74-.38-1.11a18.76,18.76,0,0,0-.44-2.5.22.22,0,0,0-.11,0,3.27,3.27,0,0,0-.41,1.29l-.12.07a1.76,1.76,0,0,0,0,.31,2.26,2.26,0,0,0-.2.26c-.37,2-1.16,4.27-1.36,6.47-.08.28-.16.55-.23.84s-.28,1.48.54,1.72h1.09v0a1.15,1.15,0,0,1,.28-.08c.29-.49.8-.53,1.15-1,.1-.4.37-.24.49-.49m-23.61,8.11a5.38,5.38,0,0,0,.68-2.81,18.88,18.88,0,0,1,.37-2.45c0-.52,0-1,0-1.58,0-.23,0-.47,0-.68v-.82c0-.39,0-.76,0-1.13s0-.74,0-1.09a8.93,8.93,0,0,0,.22-2.6,9.45,9.45,0,0,0,.19-2.27c0-.79.11-1.55.19-2.31.06-.54.14-1.07.22-1.59.27-.57-.06-1.74.31-2.11.1-.52.19-1,.29-1.58s.06-1.17.1-1.73a2.79,2.79,0,0,0-1.52-2.52c-.53,0-.67-.14-.9.21l-1.34.47-1.08.47c-.56,0-1.29.68-1.77.68a2.18,2.18,0,0,0-.37.2l-.7.19c-.25.12-.51.23-.76.38h-.16c-.17.08-.35.16-.52.26-.73.18-1.58.68-2.23.91a7.85,7.85,0,0,1-1.63.7v.06a.39.39,0,0,0-.16,0c-.2.14-.9.51-.9.16l.08-.06q.27-.37.57-.72c.09-.31.08-.63.15-.94a33.87,33.87,0,0,0,2-3.25h.06a3.33,3.33,0,0,1,.78-1.53c0-.11,0-.23.09-.23,0-.16,0-.29.07-.43l.95-.25c.68-.24,1.39-.47,2.09-.68l.47-.23a5.59,5.59,0,0,0,1-.38c.21-.07.43-.15.66-.21a2.06,2.06,0,0,0,1-.26c.51-.39.44-.46,1.2-.52a1.22,1.22,0,0,0,.43-.31c.8-.22,1.63-.84,2.51-1v-.06a5.06,5.06,0,0,1,.68-.09V26.1c.53-.18,1.23-.66,1.81-.82a1.28,1.28,0,0,1,.26-.2c.06-.31,0-.68.19-.85-.07-.65-.17-.59-.56-.86-.2-.06-.39-.12-.58-.16a.66.66,0,0,0-.34-.19V23a2.82,2.82,0,0,0-1-.12,4.41,4.41,0,0,1-2.09.06c-.52-.06-1-.09-1.56-.13a11.38,11.38,0,0,0-1.91-.7l-.12.11a.32.32,0,0,0,0,.17s.05.08.09.12l.84.47V23a9,9,0,0,1,1.42.9,10.32,10.32,0,0,1,1.23.82V25a5.41,5.41,0,0,1-.93.6c-.9.45-2.11,1-2.11,1l-.43.13-.64.28c-.33.1-.6.1-.78.28-.16,0-.31.06-.47.09l-1.34.74a.06.06,0,0,0,0,.06,5.57,5.57,0,0,1-1,.28c.12-.37.26-.82.51-.94a13.82,13.82,0,0,1,.78-2,13.1,13.1,0,0,0,.68-2.78c.1-.18.2-.35.29-.53s0-.25.12-.35a1.91,1.91,0,0,1,.2-.6c.35-1.23.6-3.95-.18-4.79a.53.53,0,0,1-.08-.17,2.57,2.57,0,0,1-.44-.66h-.07c-.06-.08-.09-.14-.13-.2l-.47-.87c-.06-.29-.22-.74-.39-.74s-.18-.24-.25-.34c-.1-.39-.49-.56-.55-.7l-1-.87a2.69,2.69,0,0,0-1-.4c-.16-.42-.35-.56-.62-.56a4,4,0,0,0-.55,2.14,6.57,6.57,0,0,1,.24,1.84c0,.19.06.39.1.6-.17.24.05.82.11,1.25s-.06.86-.08,1.29a26.8,26.8,0,0,1-.66,4.36c-.17,1.5-.55,3.14-.86,4.85,0,0,0,0-.06.05s0,.35-.08.55c-.13.54-.25,1.11-.36,1.67-.1.29-.18.59-.26.89-.25.14-.62.13-.84.34l-1.16.41a3.14,3.14,0,0,0-1.18.41A4.35,4.35,0,0,0,103,32c-.49,0-1,.5-1.38.5l-1.06.58a5.5,5.5,0,0,0-1.24.39A15.65,15.65,0,0,1,97,34.93a3.9,3.9,0,0,0-.49.28,4.1,4.1,0,0,1-1.09.21l-.23-.12a1.91,1.91,0,0,0-.06-.21,1.69,1.69,0,0,0,.15-1.23h-.19c-.07.19-.16.39-.22.58a3.41,3.41,0,0,0-.5,1.77c.12.3.23.59.37.9a6.69,6.69,0,0,1,1,.14,1.75,1.75,0,0,1,.33,0,1.58,1.58,0,0,1,.22-.33,5.84,5.84,0,0,1,1.17-.59c.62-.4,1.31-.75,1.87-1.16a1.09,1.09,0,0,0,.51-.34,2.85,2.85,0,0,0,.77-.25l1.41-.47a.88.88,0,0,1,.54-.25v-.06a5.32,5.32,0,0,0,1-.45c1-.21,2-.94,3.08-1.21a1.67,1.67,0,0,1,.3.08,7.06,7.06,0,0,1-.59,2.28c-.26.92-.49,1.83-.72,2.77-.22.39-.12,1.13-.63,1.47l-3.13,1.46c-.73.27-1.28.7-1.94.91a2.12,2.12,0,0,1-.64.4c-.45.3-.89.62-1.33.93-.38.5-1.13.76-1.42,1.37a2.29,2.29,0,0,0-.87,1.65l0,.06c.35-.12.55-.45.77-.8h.25a1.15,1.15,0,0,1,1-.45A3.94,3.94,0,0,1,99.06,44a1.76,1.76,0,0,1,1.15-.21c.64-.14,1.3-.27,2-.39a5.46,5.46,0,0,1,.45-.39,7,7,0,0,0,1.91-1.23l1.1-.93c.58-.33,1.16-.66,1.77-1,.18-.17,1.48-.8,1.48-.83s.22-.38.49-.38v-.05a1.48,1.48,0,0,1,.29-.22l.29,0a10.6,10.6,0,0,1,1.47-.73l.74-.53a1.51,1.51,0,0,1,.31,0,1.06,1.06,0,0,1,.1-.17c.05,0,.68-.12.68-.33a5.57,5.57,0,0,0,1.81-.93c.16,0,.78,0,.78-.36a16.5,16.5,0,0,1,3.14-.92,2.81,2.81,0,0,1,.2,1.21c-.22,2.44-.41,4.87-.61,7.32-.21,2.94-.45,5.84-.48,8.94q0,.33,0,.69v3c-.07.23-.15.46-.23.72a4.94,4.94,0,0,0-.53-.1,2,2,0,0,1-.79-.09,4.59,4.59,0,0,1-1.37-.34,11.7,11.7,0,0,0-2.71-1.22c-.29-.18-.59-.34-.88-.49a2.27,2.27,0,0,1-.07-.28c.31-.15.07-.78.07-.89.35-.88-.37-1.15.66-1.47,0-.11.24-.29.33-.43a7.75,7.75,0,0,1,.34-.71.52.52,0,0,0-.3-.61l-.13-.19a7.75,7.75,0,0,1-1-.05l-.57.08c-.31-.46.21-.52.55-.66.11-.12.19-.25.35-.25a5.66,5.66,0,0,1,.37-.53,4.24,4.24,0,0,1,0-.51,1.85,1.85,0,0,0-.73-1.2,2.43,2.43,0,0,0-.55.1l-1.21.4a4.76,4.76,0,0,1-1,.55c-.18-.35.44-.58.56-1a6,6,0,0,0,.94-1c.23-.29.46-.59.72-.88a20.72,20.72,0,0,1,2.18-2.42c.37-.42.74-.85,1.14-1.26a1.39,1.39,0,0,1,.6-.64v-.06l.46-.65c.18-.54-.19-.66-.39-.77s-.27-.07-.37-.22a3,3,0,0,0-1.89,0c-.27.1-.55.21-.82.33s-.66.39-1,.61a1.9,1.9,0,0,1-.49.33c-.12.17-.23.48-.44.58a8.52,8.52,0,0,1-1.35,1.13c-.39.24-1.09.57-1.26.92a12.21,12.21,0,0,0-1.12,1c-.18.12-.51.22-.51.39a2.12,2.12,0,0,0-.81.37l-.83.25a15.85,15.85,0,0,1-2.35.28l-.45-.3c-.41,0-.19.34-.1.65.51.31,1,.64,1.52,1a1.08,1.08,0,0,1,.29.13v.06l.8.41.68,0,.65-.25s0,0,0,0a3,3,0,0,0,.7-.47h.06c0-.43.29-.68.49-1A5.43,5.43,0,0,1,108,43c.15-.17.31-.35.46-.5A5.34,5.34,0,0,1,110,41.27c.1-.22.43-.23.75-.38,0,0,.81-.09.81.36-.15.23-.31.46-.45.7-.62,1.19-1.44,2.65-2.2,3.8-.25.7-.93,1.36-1.25,2.1a11.63,11.63,0,0,1-1.73,1.27.22.22,0,0,0,.1.21,10.53,10.53,0,0,0,1.89.45l.54.18a10.52,10.52,0,0,1-.12,1.28c-.17.18-.56.16-.73.16v.24c-.14.56-1.55.89-2,.93-.16.1-.32.1-.18.45a2,2,0,0,1,.49.49l.68.33c.41,0,.84.08,1.27.14,0,.17,0,.35,0,.55a2.67,2.67,0,0,0-.16.73c.14.06.16.16.22.28,0,.56-.14.76.66.76l.7-.23.52.11.67.27a.57.57,0,0,1,.1-.19,4.16,4.16,0,0,1,.55-.1,4.11,4.11,0,0,1,.25-.52,3.14,3.14,0,0,1,.08-.83h.19c.08.14.18.28.28.42a3.7,3.7,0,0,1,1.46,1l.78.56a.24.24,0,0,1,.13,0c.24.13.49.29.74.45.74.56,1.66,1.26,2.52,2,.27.06.6.78,1.34.78a.78.78,0,0,1,.2-.16m33.27-14a5.37,5.37,0,0,0-.56.21,2.93,2.93,0,0,0-.18.26c-.35,0-.58.41-.92.56a2,2,0,0,0-.11-.2,6.14,6.14,0,0,1-.13-1,3.92,3.92,0,0,0,.62-.43,4.67,4.67,0,0,1,1.73-.7.11.11,0,0,1,.06.07,1.28,1.28,0,0,1-.51,1.21m.3,3v2l-.12,1.36a3.77,3.77,0,0,1-1.58-.5l-.61-.39a1.44,1.44,0,0,1,.28-1c0-.21,0-.42,0-.62-.29-.6.18-.9.59-1.09.17-.28.27-.22.56-.31a3.2,3.2,0,0,1,.92-.61,3.14,3.14,0,0,0,0,1.15m10.74,1.25c-.08-.35-.14-.71-.19-1,.11-.12,0-.61-.28-3,0-.29,0-.59,0-.86,0-.55,0-1.1,0-1.64s.07-1.11.13-1.66c0-.32,0-.66,0-1a2.52,2.52,0,0,1,.18-1,3.76,3.76,0,0,1,.17-.83c0-.45,0-.88.08-1.31.06-.72.15-1.5.15-2.07a3.25,3.25,0,0,0,.09-1.11c0-.15,0-.29,0-.43a3.45,3.45,0,0,0,.1-.84c0-.64,0-1.15,0-1.6s0-.73,0-1.09a15.74,15.74,0,0,1,.25-2.1,6,6,0,0,0,.32-2,2,2,0,0,0-.37-1,.48.48,0,0,1,.07-.3c0-.51-.7-.52-.87-.54l-.45-.16c-.45,0-.73.27-1.06.37s-1.05.06-1.13,0l-.11-.12h-.14a1.38,1.38,0,0,0-.06.16c-.06.43-.12.87-.15,1.32l-.3.53a7.82,7.82,0,0,0-.29,2.26c-.27.27-.19.63-.19,1.13a4.16,4.16,0,0,0-.32,1.19c-.17.27-.35.57-.5.86a9.18,9.18,0,0,0-1.49,2.36c-.17.21-.47.39-.47.8a2.47,2.47,0,0,1-1.94,1.15c-.22,0-.43-.06-.65-.08a.53.53,0,0,0-.17,0c-.61,0-1.36,0-1.81-.09a.25.25,0,0,1,0-.12,5,5,0,0,1,.1-.69,7.19,7.19,0,0,1,.13-.83,3.68,3.68,0,0,1,.15-.35c0-.28-.05-.46.12-.51a2.66,2.66,0,0,0,.28-.92,3.78,3.78,0,0,0,.31-.74,2.4,2.4,0,0,1,.47-1.4c0-.22,0-.43,0-.63a1.47,1.47,0,0,0-.94-.62,1.6,1.6,0,0,0-.8,0c-.31.06-.82.19-.92.35a.53.53,0,0,0-.19,0,24.22,24.22,0,0,0-3.18,1.27.38.38,0,0,0-.13.12c-.12,0-.3,0-.3.13a.82.82,0,0,0-.39.17c-.7.14-1.52,1-2.08,1.35a1.29,1.29,0,0,0-.16.18c-.53.4-1,.81-1.54,1.22-.21.2-1.23,1-1.23,1.35a.94.94,0,0,1,.23.1c.69-.43,1.52-.14,2.5-.29a.64.64,0,0,1,.18-.1,5.62,5.62,0,0,1,.58,0l.1-.06c.2-.41.08-.27.64-.35.29-.14.61-.25.92-.37a18.41,18.41,0,0,1,2-1.58c.7-.29,1.38-.91,2.14-1.3,0,0,.14,0,.14-.07.15,0,.33,0,.5,0s.05.28.06.41c-.23.47-.25,1-.54,1.65-.1.6-.32,1.34-.49,2.06s0,1.7-.89,2l-.88.52a4.3,4.3,0,0,0-1.21.61,4.87,4.87,0,0,0-1.27.48,1.33,1.33,0,0,1-.63-.15.71.71,0,0,0-.21,0c-.06.25-.12.21.19.53l.22.56c.11.14.25.29.39.45l.54.27c.42-.05.46-.54.94-.66a2.15,2.15,0,0,1,.78-1c.17-.36.61-.33.72-.68a.3.3,0,0,1,.14,0c.29-.19.37-.43.76-.55-.06.22-.12.43-.17.65-.12.76-.12,1.5-.31,2.42a1,1,0,0,0-.45,1.26,1.6,1.6,0,0,1,.27,0,2.07,2.07,0,0,1,.37-.27h.31a.07.07,0,0,0,0,.06c.2,0,.43-.63.49-.76.31-.22.23-.74.23-1a2.19,2.19,0,0,1,.16-.3c.17-.7.35-1.4.52-2.09s-.17-1.24.75-1.24a1.32,1.32,0,0,1,.3.1l.28.17a5.34,5.34,0,0,0,2,1.46,4,4,0,0,0,1.5.06c.53-.53.14-1.34-.16-1.68a1.06,1.06,0,0,0-.06-.19c.14-.1.33-.19.39-.39a2.11,2.11,0,0,0,.7-1.23c.1-.2.32-.43.32-.58-.18-.18.11-.86.13-.94a5.21,5.21,0,0,1,.34-.56c.25-.28.33-.83.77-.83l.1-.11a6.48,6.48,0,0,1,.64-.25c.05-.1.08-.2.12-.29a2.43,2.43,0,0,0,.45-1c0-.22,0-.43,0-.65s0-.44,0-.66h0v-.68a6.92,6.92,0,0,1,.6-1.65c.08-.1.26-.32.26-.4s.06,0,.1,0a.68.68,0,0,0,.13.18,7.79,7.79,0,0,0-.31,1.93,2.85,2.85,0,0,0-.1,1.13c-.1.62-.17,1.25-.25,1.87a21.2,21.2,0,0,0,.15,3V36c0,.52-.07,1.05-.09,1.57,0,.24,0,.47,0,.73s0,.8-.06,1.21c-.12,0,0,.44,0,.64v.06c0,.43,0,.86,0,1.3,0,.78,0,1.56,0,2.34a3.28,3.28,0,0,0,0,.43c0,.37,0,.74,0,1.13v0c0,.23,0,.47,0,.7a33.08,33.08,0,0,0,.64,4.19,21.08,21.08,0,0,1,.34,2.71v.74a.54.54,0,0,1-.42.29h-1.05l-2.1-.15v0h-.14a.29.29,0,0,1,0-.14s-.06,0-.08,0,0,0,0,.07h-.16a18.71,18.71,0,0,1-2.29-.49,1.63,1.63,0,0,1-.67-.19c-.45-.12-.89-.24-1.34-.33a.39.39,0,0,1,0-.16c.17-.18.4-.21.75-.33.12-.25.1-.19.32-.33V52c.31-.23.62-.47.95-.68.06-.37.42-1.81.26-2a5.16,5.16,0,0,1,.08-.8.83.83,0,0,1-.07-.45c0-.54,0-1.09,0-1.62h0a10.94,10.94,0,0,1,0-1.34l-.09-.19a3.49,3.49,0,0,1-.86-.3,3.44,3.44,0,0,1-1-.23l-.16-.16c0-.37.72-.54,1.15-.76a2.86,2.86,0,0,1,.43,0,.08.08,0,0,1,0-.06c.21-.05.31-.25.43-.46a2.23,2.23,0,0,0,0-.59.47.47,0,0,1,0-.17.19.19,0,0,0-.1,0c-.11-.18-.27-.2-.35-.28a6.12,6.12,0,0,1-1.15-.29c-.32.08-.6.16-.9.26a1.14,1.14,0,0,1-.47.19,9.93,9.93,0,0,1-1.05.86c-.47.27-.91.55-1.36.84a13.07,13.07,0,0,1-1.72,1.13,8.27,8.27,0,0,1-1.15.58c-.15.08-1,.49-1,.62s.33.26.33.38.27.12.43.17A5.28,5.28,0,0,0,149,46.5a2.8,2.8,0,0,0,.1.36,4.21,4.21,0,0,1-.32,1.43c-.46.2-1,.67-1.39.83a1.23,1.23,0,0,1-.51.21c.08.37-.39.37.37.67l.45,0c.31,0,.62,0,.95,0a1.85,1.85,0,0,0,.1.2,1.37,1.37,0,0,0,.49,1.26c.06,0,.12,0,.19.08a1.59,1.59,0,0,1,1.13.47,4.7,4.7,0,0,1,1.12.64c.49,0,1.53,1.07,2.23,1.07.17.08.34.18.51.28a5,5,0,0,1,.57.21l.95.39.51.28a12.21,12.21,0,0,0,2.36.73,19.32,19.32,0,0,0,2.73.75,1.6,1.6,0,0,0,.66.31c0-.1.14-.35.28-.35.29-.55.58-1.07.9-1.6a19.91,19.91,0,0,0,.11-4.68"/><path class="cls-1" d="M49.11,33.32c0-.15,0-.31,0-.46s0-.31,0-.45a.49.49,0,0,1,0-.21.46.46,0,0,1,.2-.11l.34-.13a2.17,2.17,0,0,1,.76-.23c.17,0,.21,0,.22.11v.06c0,.29,0,.58,0,.86s-.16.31-.33.44a2.73,2.73,0,0,1-.52.23,1.7,1.7,0,0,1-.5.1c-.18,0-.19-.08-.21-.21M49,31v-.11a2,2,0,0,1,0-.26,1.87,1.87,0,0,1,0-.21.23.23,0,0,1,0-.11l.09-.07a3.64,3.64,0,0,1,.66-.28,2.67,2.67,0,0,1,.65-.13h0c.15,0,.15,0,.18.13v0l0,.17v.22a1,1,0,0,1,0,.39c0,.09-.18.13-.38.17l-.07,0-.48.12a5.22,5.22,0,0,1-.51.13c-.12,0-.12-.11-.12-.23m.5,3.44c.24-.09.46-.19.68-.29a1.1,1.1,0,0,1,.57-.15h.38c.22,0,.21-.15.26-.44a8.75,8.75,0,0,0,0-1c0-.57,0-1.13,0-1.71,0-.43,0-.84,0-1.27,0-.62-.11-1.23-.18-1.86a1.79,1.79,0,0,0-.12-.67c-.08-.13-.12-.15-.29-.18a.56.56,0,0,0-.31,0c-.22,0-.3.32-.28.49s.11.61.15.92c0,.13.07.56,0,.67a2.86,2.86,0,0,1-1,.37l-.37.13c-.08,0-.12,0-.14-.14a1.12,1.12,0,0,0-.2-.56.65.65,0,0,0-.35-.05c-.17,0-.23.11-.34.19s-.1.18-.1.37c.09,1.38.22,2.87.24,4.36q0,.57,0,1.14a33.43,33.43,0,0,1-.24,5c-.1.75-.24,1.43-.4,2.26,0,.24-.07.59-.14,1s-.24,1.15,0,1.39.23.25.39.26a.87.87,0,0,0,.73-.66,1.85,1.85,0,0,0,0-.56c.13-1.19.29-2.37.42-3.56.07-.77.1-1.53.12-2.29,0-.59,0-1.18,0-1.78a7.93,7.93,0,0,1,.09-1c0-.17.06-.21.16-.24l.19-.07m-7.05.49c-.13.33-.53.56-.65.52a.72.72,0,0,1-.25-.12,3.9,3.9,0,0,1-.68-.79c-.32-.42-.9-.4-1.22-.64a.11.11,0,0,1,0-.19,4.76,4.76,0,0,1,.89-.13,11.55,11.55,0,0,1,1.32-.07,9.72,9.72,0,0,1,2.44.14c-.23.52-1.6.51-1.89,1.28m3.61-1.63a.92.92,0,0,0-.45-.6,2.88,2.88,0,0,0-.86-.12c-.39,0-.8,0-1.22,0s-.69-.1-.91-.13-.17-.18-.18-.34v-.44c0-.3,0-.32.29-.37a7.41,7.41,0,0,1,1.17,0c.31,0,.72,0,1-.06s.4.2.67-.3a1.06,1.06,0,0,0,.1-.59,11.77,11.77,0,0,1-.17-1.41.88.88,0,0,0-.2-.59c-.22-.08-.33-.22-.57-.12s-.24.36-.25.61a6.84,6.84,0,0,1,0,1.35c-.05.12-.28.14-.56.17a10.41,10.41,0,0,1-1.36,0c-.22,0-.2,0-.2-.25,0-.62,0-1.32,0-1.87s.21-.79-.18-1.07a.65.65,0,0,0-.57-.16c-.11,0-.22.29-.25.35-.19.31-.14.29-.11.7,0,.25,0,.49,0,.74a5.61,5.61,0,0,0,0,.58c0,.08,0,.19,0,.3a1.82,1.82,0,0,1-.06.61c0,.07-.17.05-.27.05a5.54,5.54,0,0,1-1.3,0,.35.35,0,0,1-.32-.29,3.25,3.25,0,0,1,.14-1.21c0-.32-.1-.61-.44-.63s-.31.09-.47.28a.86.86,0,0,0-.16.38c-.14.55,0,1.09-.14,1.61a1.08,1.08,0,0,0,.07.77c.09.16.26.19.46.2a12.12,12.12,0,0,0,1.35,0,3.1,3.1,0,0,1,.86,0c.13,0,.22,0,.24.08a.28.28,0,0,1,0,.18c0,.13,0,.32,0,.47a.5.5,0,0,1,0,.18c-.13.38-1.41.31-1.76.35s-.82.08-1.21.1-.48,0-.57.38a4.7,4.7,0,0,0-.08,1.12c-.06,1.69-.06,3.22,0,4.92,0,.86,0,1.73,0,2.56,0,.49.08.83.05,1.32s0,1,.38,1.31c.2.14.31.23.51,0a1.1,1.1,0,0,0,.26-.53,1.29,1.29,0,0,0,0-.65,13.22,13.22,0,0,1-.14-1.61c-.1-1.33-.13-2.68-.16-4,0-.42,0-.9,0-1.35s.06-1,.08-1.47c0-.75.17-.46.46-.36a13.38,13.38,0,0,1,1.15.82,1,1,0,0,1,.35.56,1.86,1.86,0,0,1-.63,0,1,1,0,0,0-.71.17.87.87,0,0,0,0,.69.34.34,0,0,0,.33.25,4,4,0,0,0,.69,0,4.33,4.33,0,0,1,.58-.06.8.8,0,0,1,.36.06c.06,0,.06.06.07.13a3.93,3.93,0,0,1,0,.52,2.26,2.26,0,0,1,0,.27c0,.18.06.19-.12.2a3.39,3.39,0,0,1-.79.05,2,2,0,0,0-.94.17c-.16.08-.09.14-.1.3a1.33,1.33,0,0,0,.05.34.34.34,0,0,0,.24.24,2.19,2.19,0,0,0,.82.05,2.71,2.71,0,0,1,.77,0c.11,0,.06.1.11.19,0,.74,0,2.07,0,2.86,0,.95-.06,1.12-.07,1.93a1.09,1.09,0,0,0,.44,1c.22.17.28.31.48.14a.3.3,0,0,0,.2-.25,8.39,8.39,0,0,0,.1-.86v-.71c0-.82,0-1.44,0-2.28a19.54,19.54,0,0,1,0-2c0-.09,0-.09.13-.1A7.5,7.5,0,0,0,44.13,39a.47.47,0,0,0,.15-.32,1.3,1.3,0,0,0-.1-.47c0-.1,0-.26-.14-.26h-.41c-.32,0-.74,0-1.07,0-.11,0-.13,0-.13-.12a2.38,2.38,0,0,1,.08-1,5.32,5.32,0,0,1,1.13,0,1,1,0,0,0,.39,0c.2-.1.25-.52.25-.72s0-.17,0-.22a.56.56,0,0,0-.12-.2c-.08-.11-.63,0-.79-.13s.08-.21.33-.48A6,6,0,0,1,45,34.21c.15,0,.08.36.1.62s.06.74.06.81c0,.73,0,1.34,0,2,0,.86,0,1.62,0,2.42,0,.41-.06.84-.07,1.28,0,.59-.1,1.2-.13,1.8a1.73,1.73,0,0,0,.1.84c.27.25.55.07.83-.11a.54.54,0,0,0,.17-.17s0-.1,0-.15a5.32,5.32,0,0,0,0-.56c.07-1.25.06-1.27.06-2,0-.87,0-1.61,0-2.47,0-1.44-.07-2.88-.07-4.35a4.17,4.17,0,0,0-.07-1M44.91,56.87c-.2,0-.58,0-.91-.06s-.7-.1-.7-.1a2.14,2.14,0,0,1-.6-.12.32.32,0,0,1-.23-.26,2.33,2.33,0,0,1,0-.34.66.66,0,0,1,.11-.29c.11-.16.57-.07.57-.07l.35,0,.9.15a1,1,0,0,1,.37.11.26.26,0,0,1,.18.23,1.77,1.77,0,0,1-.06.71M44.78,55l-1.71-.27a2,2,0,0,0-1,.07L42,54.9a.94.94,0,0,0-.39.66l-.11.64a.94.94,0,0,0,.25.81,1.58,1.58,0,0,0,.86.38,8.09,8.09,0,0,0,1.13.18s.77.07,1,.06a5.17,5.17,0,0,1-.9.79l-1.18.74,1.47.19a4.84,4.84,0,0,0,.89-.63,3.29,3.29,0,0,0,.81-1.11,2.71,2.71,0,0,0,.13-.48s0-.16.06-.36,0-.28.06-.43a1.23,1.23,0,0,0-.24-.94,1.72,1.72,0,0,0-1-.37M51.5,34.87a3.91,3.91,0,0,1-.72.07,3.82,3.82,0,0,0-.85.09c-.1.12-.25.24-.28.37s.11.42.23.43.38,0,.48.19,0,.24,0,.37,0,.23,0,.29-.53.09-.74.23,0,.39,0,.51c.13.5.54,0,.73.41,0,.55,0,1.07,0,1.64a16.37,16.37,0,0,1-.68,4.14c-.13.52-.13.57-.33,1.21a.45.45,0,0,0,.14.56c.22.2.58.29.71,0a4.08,4.08,0,0,0,.34-.94,23.48,23.48,0,0,0,.64-2.79,24.07,24.07,0,0,0,.12-3.9.15.15,0,0,1,.08-.15c.1-.05.24-.07.25-.13a1.59,1.59,0,0,0-.07-.79c0-.05-.17-.07-.2-.12a1,1,0,0,1,0-.67c.17-.14.41-.13.43-.42s0-.57-.28-.63M48,55.09l.1,1,.48,0,.34,3.37,1-.1L49.46,55ZM63,48.7a.83.83,0,0,0,0,1.66.83.83,0,1,0,0-1.66m-8.53,6.86-.66.25a2.17,2.17,0,0,1-.59.16.28.28,0,0,1-.32-.11,2.07,2.07,0,0,1-.14-.31.77.77,0,0,1,0-.32c0-.19.47-.33.47-.33l.32-.11.87-.3a1.41,1.41,0,0,1,.38-.08.28.28,0,0,1,.27.12,1.81,1.81,0,0,1,.28.66c-.18.1-.53.24-.84.37m1.72-1-.15-.41s-.22-.61-.66-.72a1.72,1.72,0,0,0-1,.14l-1.63.56a2.12,2.12,0,0,0-.86.54.86.86,0,0,0-.07.12.9.9,0,0,0,0,.77l.21.6a1,1,0,0,0,.59.61,1.67,1.67,0,0,0,.94-.07,9.18,9.18,0,0,0,1.08-.36s.72-.31.92-.43a5.48,5.48,0,0,1-.44,1.13c-.26.43-.54.95-.7,1.21l1.4-.52a4.7,4.7,0,0,0,.48-1,3.56,3.56,0,0,0,.21-1.37,3.05,3.05,0,0,0-.12-.48l-.11-.35M54.68,31a.82.82,0,0,1-.47,0l-.62-.16-.07,0c-.13,0-.39-.07-.44-.2a1.18,1.18,0,0,1,0-.2,2.75,2.75,0,0,1,0-.64v0c0-.14,0-.14.17-.14a3.59,3.59,0,0,1,.58.09,4.73,4.73,0,0,1,.63.18l.15,0a.34.34,0,0,1,.18,0s0,0,0,.07a.74.74,0,0,1,0,.33c0,.16.06.6-.15.65m-.07,2.25h-.23a1.84,1.84,0,0,1-.86-.13.7.7,0,0,1-.38-.41,1.73,1.73,0,0,1,0-.31c0-.09,0-.19,0-.28a2,2,0,0,1,0-.42c0-.09,0-.13.2-.11a4.8,4.8,0,0,1,1.14.34c.1,0,.25.07.32.16a.51.51,0,0,1,.05.22,3.53,3.53,0,0,1,0,.73c0,.14,0,.22-.19.22M56.14,42c-.13-1.89-.21-3.62-.25-5.52,0-.93-.09-1.92-.13-2.85s-.07-1.86-.07-2.79a20,20,0,0,1,.16-2.35c0-.19.09-.34-.06-.45s-.1-.14-.28-.15a.65.65,0,0,0-.35.05,1.13,1.13,0,0,0-.18.57,1.66,1.66,0,0,1-.06.33c0,.09,0,.12-.1.14a1.16,1.16,0,0,1-.37,0L54.24,29a3,3,0,0,1-1-.38c-.12-.1-.06-.35-.05-.49,0-.3.05-.62.08-.92a.5.5,0,0,0-.34-.5.9.9,0,0,0-.56.31,2.19,2.19,0,0,0-.1.69c0,.63,0,1.15,0,1.78a13.64,13.64,0,0,0,0,1.43c0,.59.06,1,.09,1.59a9.23,9.23,0,0,0,.13,1c.06.29,0,.42.26.46a1.12,1.12,0,0,0,.28,0,1.47,1.47,0,0,0,.5,0,6.51,6.51,0,0,1,.89.15c.11,0,.25.09.34.1s.15.14.19.29a4,4,0,0,1,.09,1c0,.38,0,.77,0,1.14,0,1.32,0,2.6.11,4,.06.94.12,1.87.15,2.81a1.61,1.61,0,0,0,.23.91c.19.12.16.19.34.17a.62.62,0,0,0,.37-.26,1,1,0,0,0,.15-.74c0-.11-.07-.29-.09-.42-.05-.31-.05-.69-.07-1m8.23-20.36c.16.22.35.46.52.67l.3.4a1.5,1.5,0,0,1,.15.21.7.7,0,0,1,.07.22.41.41,0,0,1,0,.22.52.52,0,0,1-.09.2,1,1,0,0,1-.18.17,1.36,1.36,0,0,1-.2.11.79.79,0,0,1-.2,0l-.19,0a.71.71,0,0,1-.18-.08,1.19,1.19,0,0,1-.23-.23l-.37-.44c-.11-.15-.2-.27-.3-.39s-.11-.14-.16-.21c.36-.28.71-.6,1.07-.87m-3.16,2.58L62.73,23l0,0a.29.29,0,0,0,.08.1l.16.25a.5.5,0,0,1,.09.18.57.57,0,0,1,0,.18,1.21,1.21,0,0,1,0,.19,9.55,9.55,0,0,1-.33.95l-.36.93c.19.3.37.63.57.93.15-.28.29-.63.44-.94a5.53,5.53,0,0,0,.33-.89,4.08,4.08,0,0,0,.09-.65,2.19,2.19,0,0,0,.47.35,1.46,1.46,0,0,0,.48.14,1.4,1.4,0,0,0,.5,0,1.8,1.8,0,0,0,.48-.24,1.43,1.43,0,0,0,.32-.28,1.36,1.36,0,0,0,.21-.34,2,2,0,0,0,.13-.39.77.77,0,0,0,0-.37,1.86,1.86,0,0,0-.19-.37,2.86,2.86,0,0,0-.26-.38l-.78-1-.77-1c-1.26,1.06-2.54,2.09-3.81,3.14.18.2.43.5.6.71m4.93,2.62a1.56,1.56,0,0,0-.07.52,4,4,0,0,0,.05.73c0,.21.06.39.08.53s0,.24,0,.31a1.93,1.93,0,0,1,0,.25.53.53,0,0,1-.06.19h0a.36.36,0,0,1-.1.14.56.56,0,0,1-.15.1.66.66,0,0,1-.56-.05.88.88,0,0,1-.28-.24,1.75,1.75,0,0,1-.21-.39,1.07,1.07,0,0,1-.1-.41,1,1,0,0,1,0-.38,1.12,1.12,0,0,1,.2-.33,1.18,1.18,0,0,1,.33-.29l-.44-.83a2.7,2.7,0,0,0-.57.45,1.6,1.6,0,0,0-.39,1.28,2.43,2.43,0,0,0,.21.81c.09.2.17.38.26.54a1.87,1.87,0,0,0,.32.4,1.31,1.31,0,0,0,.35.27,1.72,1.72,0,0,0,.4.14,2,2,0,0,0,.42,0,1.32,1.32,0,0,0,.39-.1,1.71,1.71,0,0,0,.38-.21,1.15,1.15,0,0,0,.27-.27,1.29,1.29,0,0,0,.17-.33,1.53,1.53,0,0,0,.08-.37,2.64,2.64,0,0,0,0-.48,4.48,4.48,0,0,0-.08-.67c0-.25-.06-.46-.07-.63a1,1,0,0,1,0-.38.39.39,0,0,1,.09-.17.42.42,0,0,1,.15-.11l.19,0a.45.45,0,0,1,.18.07.89.89,0,0,1,.25.23,2.29,2.29,0,0,1,.19.35,1.31,1.31,0,0,1,.11.38,1.05,1.05,0,0,1,0,.31,1,1,0,0,1-.15.26,1.09,1.09,0,0,1-.25.22l.4.87a1.72,1.72,0,0,0,.48-.34,1.42,1.42,0,0,0,.3-.52A1.59,1.59,0,0,0,69,28a3,3,0,0,0-.22-.8,2.39,2.39,0,0,0-.24-.48,1.83,1.83,0,0,0-.29-.37,1.85,1.85,0,0,0-.32-.25A1.3,1.3,0,0,0,67.6,26h0a1.56,1.56,0,0,0-.37,0,1.36,1.36,0,0,0-.36.09,1.34,1.34,0,0,0-.45.31,1.39,1.39,0,0,0-.28.49M46.86,60.81A24.84,24.84,0,1,1,71.71,36,24.88,24.88,0,0,1,46.86,60.81m0-51A26.15,26.15,0,1,0,73,36,26.2,26.2,0,0,0,46.86,9.82M65.19,33.08l4.89-.77-.14-1-4.88.81ZM63,36v0a16,16,0,0,1-4.71,11.35v0h0a16.09,16.09,0,0,1-22.77,0h0a16.09,16.09,0,0,1,0-22.79v0h0a16.08,16.08,0,0,1,11.37-4.71h0a16.11,16.11,0,0,1,11.36,4.72h0v0A16.14,16.14,0,0,1,63,36h0M46.85,18.54A17.44,17.44,0,1,0,64.29,36,17.47,17.47,0,0,0,46.85,18.54M61.2,36,57,40.17V46.1H51.06c-1.4,1.4-2.79,2.81-4.19,4.2q-2.11-2.09-4.21-4.2H36.73V40.17q-2.1-2.09-4.2-4.2l4.2-4.2V25.84h5.94l4.2-4.2,4.19,4.2H57v5.93c1.39,1.41,2.8,2.81,4.2,4.2M58.27,24.6l0,0H51.59l-4.71-4.72h0l-4.73,4.71H35.48s0,0,0,0v6.66c-1.57,1.58-3.14,3.16-4.73,4.73l4.73,4.73v6.67h6.68c1.57,1.57,3.14,3.15,4.73,4.72l4.72-4.72h6.65l0,0V40.69L63,36h0v0l-4.71-4.71ZM69.53,35.33v0h0l-4.07,0v1l4.07,0h0v1.5h.8l0-4h-.79ZM67.09,40l-2-.38-.21.94,2,.38h0l2.39,2.22.27-1L67.9,40.64l0,0,0,0,2.19-.81.14-1.1L67.11,40ZM53.62,36.62s0-.17,0-.25a2.94,2.94,0,0,1,0-.52c0-.22.07-.18.24-.18s.14,0,.16-.1.2-.56,0-.72a1.22,1.22,0,0,0-.38,0c-.18,0-.34.06-.57,0a2.57,2.57,0,0,0-.77,0c-.14,0-.24.15-.22.4a.48.48,0,0,0,.13.34.34.34,0,0,0,.23.05c.07,0,.2,0,.22.06a2.74,2.74,0,0,1,0,.91,2.19,2.19,0,0,1-.49,0c-.21,0-.22.49-.13.65s.48.18.67.33c0,.73,0,1.43,0,2.15,0,1.52.07,2.7,0,4.24a1.35,1.35,0,0,0,.1.62c.09.18.17.29.36.32a.55.55,0,0,0,.7-.47c0-.35-.11-.69-.12-1.11,0-.63,0-1.34-.08-2,0-.93-.06-1.65-.07-2.58a5.34,5.34,0,0,1,.06-1.2c.11-.09.41,0,.5-.24a.65.65,0,0,0,0-.45c0-.12,0-.18-.09-.23s-.34.08-.5-.07M38.29,19.49,36,15.15l-.89.49L37.47,20Zm-5.86-.57,0,0,1.69,1,0,0,0,0-.95.76,0,0v0Zm1.44,3.75-.42-1.08v0l0,0,1.44-1.17h0l1,.56.89-.59-4.7-2.66-.81.66,1.83,5.09Zm-2.93,3.76-1.21-.81v0h0l-.23-1.16v0h0l2.49.44.76-.92-3.44-.44h0v0l-.47-2.53-.8,1,.69,2.95,0,0-1.81-1.26-.54.89,4.14,2.79Zm9.8-9.8c.06.21.11.37.16.5a2.13,2.13,0,0,0,.16.25,1.14,1.14,0,0,0,.22.22,1.34,1.34,0,0,0,.28.18,1.9,1.9,0,0,0,.36.12,1.57,1.57,0,0,0,.45,0,3.64,3.64,0,0,0,.6-.09,5.25,5.25,0,0,0,.58-.16,2.11,2.11,0,0,0,.4-.22,3.32,3.32,0,0,0,.27-.25,1.26,1.26,0,0,0,.19-.28c0-.1.08-.2.11-.3a2.54,2.54,0,0,0,0-.29,2.76,2.76,0,0,0-.06-.51c0-.21-.07-.45-.13-.72l-.49-2.46-1,.15c.24,1.06.47,2.17.69,3.23,0,0,0,.12,0,.14a1.06,1.06,0,0,1,0,.31.73.73,0,0,1-.15.25.75.75,0,0,1-.26.21,1.51,1.51,0,0,1-.36.13,1.29,1.29,0,0,1-.38,0A.69.69,0,0,1,42.1,17a1,1,0,0,1-.24-.17.9.9,0,0,1-.17-.26s0-.12,0-.14c-.24-1.07-.48-2.17-.69-3.23l-1,.26.56,2.45c.07.27.12.5.18.7M28.92,31l-3.05-1,3.77-.93.28-.8-4.56-1.86-.4,1,3.13,1.13-3.84.87-.28,1,4.74,1.5Zm30.93-8.38.47-.58-2-1.59,0,0,0,0,.8-1,0,0,0,0,1.72,1.37.51-.6-1.74-1.4,0,0v0l.74-1,2.12,1.7.55-.61-2.89-2.38-3,4ZM47.1,14.15l0,0L49,17.52l.93.11.46-4.9-1-.14-.25,3.24h-.06l-1.88-3.39-1.08,0-.11,4.93.88,0ZM58.92,15.8l-.9-.52-2.68,2.77-.05,0,.46-3.83-1-.4L54.26,19l.94.45Zm-5.64-2.44-1-.26-1.15,4.79.89.27ZM30.67,48.7a.83.83,0,1,0,.83.83.83.83,0,0,0-.83-.83M25.93,42l0-.06,2.69-2.6-.16-1-4.89,1,.19,1,3.31-.72,0,0-2.85,2.74.29.92,4.82-1.09-.25-.84Zm12.2,12.1.45.18-1.22,3.15.93.37,1.57-4.06-1.39-.54ZM26.53,34.39l-.08,1.37v.05l0,0L24.57,35v-.06l1.91-.58h.05Zm1.78,2.22-1.08-.46h0v0l.13-2v0h0l1-.33.16-1-5.1,1.65,0,1,4.9,2.25Z"/></svg>