<svg id="图层_1" data-name="图层 1" xmlns="http://www.w3.org/2000/svg" viewBox="0 0 278 72"><defs><style>.cls-1{fill:#9a0000;}.cls-2{fill:#231815;}</style></defs><title>logo合集</title><path class="cls-1" d="M66.73,59.21l0,0c-.22-.12-.5-.25-.83-.4s-.66-.29-1-.44v0l.06-.15h0l.26.09a1.27,1.27,0,0,0,.28.08.15.15,0,0,0,.11-.06,4.09,4.09,0,0,0,.47-.91l.28-.6.3-.7.08-.19c0-.08,0-.13,0-.14h-.86l0,0q0-.15.09-.33v0c.5.07,1.08.13,1.73.17l0,.06-.22.41c0,.07-.13.26-.28.57l-.44,1a9.51,9.51,0,0,0-.47,1.12.11.11,0,0,0,0,.1,2.4,2.4,0,0,0,.44.26l0,0Z"/><path class="cls-1" d="M74.13,59.78a1.29,1.29,0,0,1-.2.54,1.27,1.27,0,0,1-.86.52,1.68,1.68,0,0,1-.55,0,1.26,1.26,0,0,1-1-.59.85.85,0,0,1-.09-.56.84.84,0,0,1,.38-.62,1.81,1.81,0,0,1,.45-.18,1,1,0,0,1,.27-1.77,1.5,1.5,0,0,1,.64,0,1.23,1.23,0,0,1,.77.34.69.69,0,0,1,.21.61.91.91,0,0,1-.68.7,1.29,1.29,0,0,1,.54.47A.91.91,0,0,1,74.13,59.78Zm-.71.22a.63.63,0,0,0-.31-.63,4.75,4.75,0,0,0-.5-.31l-.08,0a.89.89,0,0,0-.52.68.84.84,0,0,0,0,.43.76.76,0,0,0,.61.44.7.7,0,0,0,.5-.12A.68.68,0,0,0,73.42,60Zm.24-2a.53.53,0,0,0-.12-.44.65.65,0,0,0-.45-.22.53.53,0,0,0-.44.09.48.48,0,0,0-.2.33.5.5,0,0,0,.15.39,1.33,1.33,0,0,0,.27.22l.2.11.15.09A.69.69,0,0,0,73.66,58Z"/><path class="cls-1" d="M80.43,58.42a2.16,2.16,0,0,1-.12,1.21,2.21,2.21,0,0,1-.68.89,2.14,2.14,0,0,1-1.07.45l-.26-.14.06-.12a.44.44,0,0,0,.23,0,1.21,1.21,0,0,0,.77-.42,1.29,1.29,0,0,0,.21-.37,2.69,2.69,0,0,0,.13-1,3.14,3.14,0,0,1-.45.45,1.31,1.31,0,0,1-.41.12.89.89,0,0,1-.68-.17,1.11,1.11,0,0,1-.38-.74,1.29,1.29,0,0,1,.45-1.24,1.43,1.43,0,0,1,.69-.27,1.17,1.17,0,0,1,1.23.51A1.93,1.93,0,0,1,80.43,58.42Zm-.81-.17a1.45,1.45,0,0,0-.26-.71.49.49,0,0,0-.47-.18.46.46,0,0,0-.42.4,1.22,1.22,0,0,0,0,.43,1,1,0,0,0,.26.61.49.49,0,0,0,.46.15.46.46,0,0,0,.43-.34A.83.83,0,0,0,79.62,58.25Z"/><path class="cls-1" d="M86.74,57.3a1.27,1.27,0,0,1,.11.56,1.29,1.29,0,0,1-.47.9,1.92,1.92,0,0,1-.46.28,1.24,1.24,0,0,1-1.14,0,.8.8,0,0,1-.37-.43.83.83,0,0,1,0-.72,2.62,2.62,0,0,1,.29-.39,1,1,0,0,1-.9-.55,1,1,0,0,1,.22-1.1,1.44,1.44,0,0,1,.52-.37,1.24,1.24,0,0,1,.84-.11.68.68,0,0,1,.49.41.91.91,0,0,1-.21,1,1.25,1.25,0,0,1,.71.12A1,1,0,0,1,86.74,57.3Zm-1.3-1.25a.56.56,0,0,0-.34-.32.68.68,0,0,0-.5,0,.63.63,0,0,0-.33.31.47.47,0,0,0,.33.64,1.08,1.08,0,0,0,.35.05h.4A.71.71,0,0,0,85.44,56.05Zm.81,1.8a.65.65,0,0,0-.59-.38H85a.87.87,0,0,0-.09.85.69.69,0,0,0,.26.33.75.75,0,0,0,.75.07.67.67,0,0,0,.37-.37A.65.65,0,0,0,86.25,57.85Z"/><path class="cls-1" d="M65.42,11a27.17,27.17,0,0,0,0,50A27.15,27.15,0,0,0,95.19,16.8,27.15,27.15,0,0,0,65.42,11Zm.35,49.22A26.38,26.38,0,1,1,76,62.26,26.29,26.29,0,0,1,65.77,60.2Z"/><path class="cls-1" d="M68.17,17.5A20.14,20.14,0,1,0,76,15.92,20,20,0,0,0,68.17,17.5Zm.24,36.44A19.42,19.42,0,1,1,76,55.48,19.37,19.37,0,0,1,68.41,53.94Z"/><path class="cls-1" d="M53,43a1.11,1.11,0,0,1,.53-.07,1,1,0,0,1,.45.2,1.51,1.51,0,0,1,.38.41,3.13,3.13,0,0,1,.29.58l.1.27.94-.35.14-.09a.25.25,0,0,0,.05-.16s0-.1,0-.18,0-.14,0-.19L56,43.3l.7,1.83-.18.07a.74.74,0,0,1-.09-.18.46.46,0,0,0-.1-.14.28.28,0,0,0-.14-.09.26.26,0,0,0-.16,0l-2.36.9a.41.41,0,0,0-.13.08.25.25,0,0,0,0,.16,1.48,1.48,0,0,0,0,.2l0,.18-.19.07-.7-1.85a1.83,1.83,0,0,1-.16-1A.74.74,0,0,1,53,43Zm.46.87a.92.92,0,0,0-.5.37.76.76,0,0,0,0,.61L53,45l1.46-.56,0-.1a.9.9,0,0,0-.4-.51A.76.76,0,0,0,53.42,43.82Z"/><path class="cls-1" d="M52,37.33l0,.2a1.14,1.14,0,0,0-.38.3.65.65,0,0,0-.21.37v.21c0,.09,0,.17,0,.22l.06.51L52.9,39l0-.36a.84.84,0,0,0-.06-.24.45.45,0,0,0-.15-.19.72.72,0,0,0-.21-.09,1.66,1.66,0,0,0-.26-.05l0-.19,1.48-.18,0,.2a1,1,0,0,0-.26.11.6.6,0,0,0-.2.14.35.35,0,0,0-.1.21.73.73,0,0,0,0,.26l0,.36,1-.12a.7.7,0,0,0,.25-.06.24.24,0,0,0,.14-.1.48.48,0,0,0,0-.18,1.85,1.85,0,0,0,0-.3c0-.05,0-.12,0-.21a1.12,1.12,0,0,0,0-.21.6.6,0,0,0-.06-.19.25.25,0,0,0-.09-.13,2,2,0,0,0-.4-.22l-.4-.16,0-.18,1.11-.06L55,40.17l-.2,0a.93.93,0,0,0,0-.19c0-.08,0-.14-.05-.17a.34.34,0,0,0-.12-.12.4.4,0,0,0-.16,0L51.94,40a.26.26,0,0,0-.14,0,.27.27,0,0,0-.1.14c0,.05,0,.11,0,.19a1.49,1.49,0,0,0,0,.19l-.2,0-.36-3.15Z"/><path class="cls-1" d="M55.22,30.71l-.2,1.4c-.36.17-.66.32-.9.46l-.92.53,0,.13,1.12.16a.42.42,0,0,0,.16,0,.34.34,0,0,0,.12-.12.67.67,0,0,0,.06-.12L54.7,33l.19,0-.27,1.89-.19,0a1.64,1.64,0,0,1,0-.2.72.72,0,0,0,0-.17.2.2,0,0,0-.08-.14.3.3,0,0,0-.15-.06l-2.51-.36a.35.35,0,0,0-.15,0,.22.22,0,0,0-.13.11.75.75,0,0,0-.08.18.94.94,0,0,0-.06.18l-.19,0,.27-1.95.2,0a1.34,1.34,0,0,1,0,.19,1,1,0,0,0,0,.19.18.18,0,0,0,.08.14.47.47,0,0,0,.15.06l1.2.17v-.11l-.36-.51c-.14-.2-.26-.35-.35-.46L52,31.78a.4.4,0,0,0-.22-.13s0,0-.07.08a1.43,1.43,0,0,0-.08.28l-.19,0,.22-1.54.19,0a2.21,2.21,0,0,0,0,.48,1.18,1.18,0,0,0,.18.4l.36.5.38.51.8-.47.92-.55a1.7,1.7,0,0,0,.23-.17,1,1,0,0,0,.18-.22.31.31,0,0,0,.06-.13,1,1,0,0,0,0-.14Z"/><path class="cls-1" d="M56.57,27.16,55.83,29l-.18-.08.06-.19a1,1,0,0,0,0-.18.25.25,0,0,0,0-.16.48.48,0,0,0-.13-.09l-2.36-.94a.26.26,0,0,0-.15,0,.26.26,0,0,0-.15.07l-.11.15c0,.07-.08.13-.11.18l-.18-.08.73-1.84.19.07a1.67,1.67,0,0,0,0,.19,1.62,1.62,0,0,0,0,.19.21.21,0,0,0,0,.16.43.43,0,0,0,.13.09l2.36.94.15,0a.3.3,0,0,0,.15-.09.46.46,0,0,0,.1-.14c0-.07.08-.13.11-.18Z"/><path class="cls-1" d="M57.15,19.89l-.1.18a.57.57,0,0,0-.06.25.39.39,0,0,0,.12.25,2.26,2.26,0,0,0,.37.31l2.08,1.5-.26.36-3.55.19,1.37,1a1.65,1.65,0,0,0,.41.25.44.44,0,0,0,.27,0,.78.78,0,0,0,.21-.12l.18-.16.16.11-.89,1.25-.16-.11.1-.21a.63.63,0,0,0,.05-.22.42.42,0,0,0-.1-.24,3.19,3.19,0,0,0-.38-.32l-1.38-1a1.13,1.13,0,0,0-.22-.11.6.6,0,0,0-.23,0,.65.65,0,0,0-.23.09,1,1,0,0,0-.21.16l-.16-.11.78-1.1,3.12-.16-1.11-.8a2.79,2.79,0,0,0-.42-.25.51.51,0,0,0-.27,0,.53.53,0,0,0-.21.11l-.18.16L56.1,21,57,19.78Z"/><path class="cls-1" d="M63.35,17l-.1.1s-.06.07-.09.12a.23.23,0,0,0,0,.17.44.44,0,0,0,.08.15l.26.32.13.16.12.14a2.9,2.9,0,0,1-.4.69,3.39,3.39,0,0,1-.62.67,2.09,2.09,0,0,1-.64.37,1.65,1.65,0,0,1-.69.09,1.57,1.57,0,0,1-.68-.2,2.1,2.1,0,0,1-1-1.21,1.67,1.67,0,0,1-.07-.73,1.54,1.54,0,0,1,.24-.7,2.44,2.44,0,0,1,1-.92,2,2,0,0,1,.44-.14l0-.21.17-.14.84,1-.17.14a2.35,2.35,0,0,0-.9-.4.92.92,0,0,0-.71.2.85.85,0,0,0-.32.8,2.25,2.25,0,0,0,.53,1.08,2.62,2.62,0,0,0,1,.8.81.81,0,0,0,.85-.12,1.16,1.16,0,0,0,.26-.29.88.88,0,0,0,.11-.29L62.54,18a.31.31,0,0,0-.12-.09.24.24,0,0,0-.17,0,.6.6,0,0,0-.18.07l-.17.09L61.77,18l1.46-1.17Z"/><path class="cls-1" d="M71.69,11.59l-.2.09a.62.62,0,0,0-.2.15.31.31,0,0,0-.07.25,2.52,2.52,0,0,0,.08.49l.35,1.28a1.21,1.21,0,0,1-.14,1,1.54,1.54,0,0,1-.93.62,1.84,1.84,0,0,1-1.24,0,1.17,1.17,0,0,1-.65-.82l-.47-1.76a.46.46,0,0,0-.07-.14.48.48,0,0,0-.16-.08h-.33l0-.19L69.43,12l0,.19-.16.07-.15.08a.2.2,0,0,0-.1.13.29.29,0,0,0,0,.16l.47,1.75A1.06,1.06,0,0,0,70,15a.9.9,0,0,0,.73.06.88.88,0,0,0,.59-.44,1.07,1.07,0,0,0,0-.82L71,12.67a1.66,1.66,0,0,0-.17-.46.33.33,0,0,0-.19-.18.49.49,0,0,0-.24,0h-.24l-.05-.19,1.51-.41Z"/><path class="cls-1" d="M78.45,11.33l-.2,0a.5.5,0,0,0-.24.09.46.46,0,0,0-.13.24,2.51,2.51,0,0,0,0,.48l0,2.57h-.45l-2.19-2.8,0,1.68a2.88,2.88,0,0,0,0,.48.48.48,0,0,0,.14.24.68.68,0,0,0,.21.1l.24.06v.2l-1.53,0v-.19l.22,0a.48.48,0,0,0,.22-.08.37.37,0,0,0,.13-.22,2.48,2.48,0,0,0,0-.5l0-1.7a1,1,0,0,0,0-.24.62.62,0,0,0-.12-.19.66.66,0,0,0-.2-.14l-.26-.08v-.2l1.35,0,1.91,2.46,0-1.36a2.14,2.14,0,0,0,0-.49.41.41,0,0,0-.14-.23.51.51,0,0,0-.21-.11l-.23-.06v-.19l1.53,0Z"/><path class="cls-1" d="M82.31,15.62l-1.93-.5.05-.19.2,0a.48.48,0,0,0,.19,0,.26.26,0,0,0,.14-.06.36.36,0,0,0,.08-.15l.63-2.45a.3.3,0,0,0,0-.16.2.2,0,0,0-.1-.13.91.91,0,0,0-.16-.1l-.19-.09,0-.19,1.93.5,0,.19-.19,0a.7.7,0,0,0-.2,0,.18.18,0,0,0-.15.06.35.35,0,0,0-.07.15L81.91,15a.43.43,0,0,0,0,.16.2.2,0,0,0,.1.13.45.45,0,0,0,.16.09l.19.08Z"/><path class="cls-1" d="M89.36,15.14l-.16-.05H89a.65.65,0,0,0-.21,0,1.14,1.14,0,0,0-.19.12l-.44.35-.64.52-.7.58-.72.6-.45-.23c.06-.62.12-1.25.19-1.89s.1-1.09.12-1.34a.51.51,0,0,0,0-.22.56.56,0,0,0-.09-.2.73.73,0,0,0-.1-.13l-.14-.11.1-.17,1.71.9-.09.17A2.84,2.84,0,0,0,87,14c-.07,0-.11,0-.13,0l0,.06s0,0,0,.09,0,.41-.09.78-.08.92-.16,1.66l.88-.74.63-.55.23-.21a1.33,1.33,0,0,0,.14-.17.19.19,0,0,0,0-.18,1.85,1.85,0,0,0-.35-.27l.09-.18,1.28.68Z"/><path class="cls-1" d="M93.25,19.3l-.14-.13a1.21,1.21,0,0,0,.09-.48.66.66,0,0,0-.09-.42.88.88,0,0,0-.14-.15L92.81,18l-.38-.34-.93,1,.27.24A.81.81,0,0,0,92,19a.47.47,0,0,0,.24.05.67.67,0,0,0,.22-.07,1.16,1.16,0,0,0,.23-.14l.15.14-1,1.1L91.65,20a1.14,1.14,0,0,0,.13-.25.69.69,0,0,0,.06-.24.43.43,0,0,0-.06-.22.76.76,0,0,0-.17-.2l-.26-.25-.7.77a1.05,1.05,0,0,0-.16.2.27.27,0,0,0,0,.17.4.4,0,0,0,.08.16l.21.22a.94.94,0,0,1,.16.14l.17.13.17.11a.31.31,0,0,0,.15,0,1.59,1.59,0,0,0,.46-.09,3.6,3.6,0,0,0,.4-.15l.13.13-.8.77-2.47-2.26.13-.15.15.12.16.09a.23.23,0,0,0,.16,0,.51.51,0,0,0,.13-.09l1.71-1.87a.46.46,0,0,0,.08-.13.29.29,0,0,0,0-.17.79.79,0,0,0-.1-.16,1.49,1.49,0,0,0-.11-.15l.13-.15,2.34,2.14Z"/><path class="cls-1" d="M95.11,26.33l-.74-1.16c.17-.39.31-.71.4-1s.2-.55.31-.9L95,23.2l-.91.59a.29.29,0,0,0-.11.11.3.3,0,0,0,0,.17,1.26,1.26,0,0,0,0,.15c0,.06,0,.11.07.16l-.17.11-1-1.61.17-.11.12.15.12.13a.37.37,0,0,0,.16.05A.24.24,0,0,0,93.6,23l2.12-1.37a.63.63,0,0,0,.12-.1.31.31,0,0,0,0-.17.89.89,0,0,0-.06-.2c0-.07-.05-.12-.06-.16l.16-.11L97,22.62a2,2,0,0,1,.38,1,.7.7,0,0,1-.35.64.85.85,0,0,1-.62.14,1.34,1.34,0,0,1-.66-.35c-.06.17-.13.38-.22.61s-.16.47-.24.72c0,.08,0,.18-.09.31a.62.62,0,0,0,0,.3l0,.14.06.11Zm1.31-2.88a.64.64,0,0,0,.33-.46.85.85,0,0,0-.17-.57l-.11-.16-1.25.81.1.16a.81.81,0,0,0,.47.38A.83.83,0,0,0,96.42,23.45Z"/><path class="cls-1" d="M96.11,29.27a2.25,2.25,0,0,1-.11-.61,2.82,2.82,0,0,1,0-.52L95.8,28l-.07-.2L97,27.39l.07.21-.31.3a2.7,2.7,0,0,0-.26.36,1.77,1.77,0,0,0-.15.42,1,1,0,0,0,0,.45.77.77,0,0,0,.33.45.54.54,0,0,0,.45,0,.44.44,0,0,0,.29-.26,1.48,1.48,0,0,0,.08-.53c0-.15,0-.29,0-.41s0-.24,0-.36a1,1,0,0,1,.73-1,.81.81,0,0,1,.41,0,.91.91,0,0,1,.41.14,1.11,1.11,0,0,1,.36.33,1.76,1.76,0,0,1,.27.51,2.13,2.13,0,0,1,.1.55,2.59,2.59,0,0,1,0,.44l.19.1.07.21-1.15.41-.07-.21a3,3,0,0,0,.32-.3,1.71,1.71,0,0,0,.26-.31,1.09,1.09,0,0,0,.13-.34.88.88,0,0,0,0-.39.67.67,0,0,0-.29-.38.49.49,0,0,0-.41,0,.41.41,0,0,0-.28.25,1.23,1.23,0,0,0-.08.52v.4c0,.14,0,.26,0,.37a1.19,1.19,0,0,1-.19.65.94.94,0,0,1-.52.38,1,1,0,0,1-.46,0,1.11,1.11,0,0,1-.44-.16,1.66,1.66,0,0,1-.38-.37A2.25,2.25,0,0,1,96.11,29.27Z"/><path class="cls-1" d="M97.29,34.77l-.21-2,.2,0s0,.11,0,.19a.82.82,0,0,0,0,.18.28.28,0,0,0,.12.12.37.37,0,0,0,.16,0l2.52-.26a.53.53,0,0,0,.15-.05.24.24,0,0,0,.09-.14,1.64,1.64,0,0,0,0-.18,1.83,1.83,0,0,0,0-.21l.2,0,.2,2-.2,0s0-.11,0-.19a.48.48,0,0,0-.06-.18.15.15,0,0,0-.11-.12.29.29,0,0,0-.16,0l-2.52.26a.33.33,0,0,0-.15,0,.32.32,0,0,0-.1.14.68.68,0,0,0,0,.18,1.56,1.56,0,0,0,0,.2Z"/><path class="cls-1" d="M99.48,40.56l0-.2a1.79,1.79,0,0,0,.51-.19c.19-.09.29-.18.32-.28s0-.12,0-.19a2.11,2.11,0,0,0,0-.21l0-.11-2.79-.33a.29.29,0,0,0-.16,0,.29.29,0,0,0-.13.12.63.63,0,0,0-.06.17,1.36,1.36,0,0,0-.06.2l-.2,0,.24-2,.19,0v.21a.92.92,0,0,0,0,.19.24.24,0,0,0,.1.14.33.33,0,0,0,.15,0l2.81.33,0-.11c0-.06,0-.13,0-.21a1.48,1.48,0,0,0,0-.2c0-.09-.08-.21-.24-.34a2.18,2.18,0,0,0-.46-.31l0-.2,1,.12-.41,3.45Z"/><path class="cls-1" d="M98.32,46.76l0-.17a.76.76,0,0,0,0-.15.62.62,0,0,0-.08-.24,1.42,1.42,0,0,0-.14-.23l-.36-.51-.44-.58a1.55,1.55,0,0,0-.24-.28,2.08,2.08,0,0,0-.36-.17l-.48-.18a.45.45,0,0,0-.16,0,.3.3,0,0,0-.15.09,1,1,0,0,0-.11.15l-.1.18-.19-.07.72-1.87.18.07-.05.19a1,1,0,0,0,0,.19.25.25,0,0,0,.05.16.28.28,0,0,0,.14.09l.59.22.14.05.1,0,.14,0,.22,0,.74-.12.65-.12a.86.86,0,0,0,.27-.08,1,1,0,0,0,.2-.11.85.85,0,0,0,.11-.14,1.19,1.19,0,0,0,.09-.15L100,43l-.73,1.91-.19-.07a1.59,1.59,0,0,0,.1-.37c0-.07,0-.11,0-.12H99l-.29,0-.51.07-.77.13.76,1a1.17,1.17,0,0,0,.28.3c.05,0,.1,0,.16,0a1.26,1.26,0,0,0,.17-.3l.19.07-.48,1.24Z"/><path class="cls-1" d="M94.46,36A18.47,18.47,0,1,1,76,17.53,18.47,18.47,0,0,1,94.46,36ZM73.28,20.52A1.46,1.46,0,0,0,71.82,22v1.89a20.56,20.56,0,0,0-4.62,1.69,25.43,25.43,0,0,0-5,3.34A1.41,1.41,0,1,0,64,31a20.87,20.87,0,0,1,7.78-4.26V30a16.43,16.43,0,0,0-5.35,3,26.88,26.88,0,0,0-5.36,6.17,1.41,1.41,0,0,0-.23.76,1.41,1.41,0,0,0,2.6.77,24.14,24.14,0,0,1,4.78-5.52,13.2,13.2,0,0,1,5.38-2.79,1.42,1.42,0,0,0,1.1-1.34V22A1.46,1.46,0,0,0,73.28,20.52Zm4,1.46V31.1a1.42,1.42,0,0,0,1.1,1.34,13.2,13.2,0,0,1,5.38,2.79,24.14,24.14,0,0,1,4.78,5.52,1.41,1.41,0,1,0,2.37-1.53,26.88,26.88,0,0,0-5.36-6.17,16.43,16.43,0,0,0-5.35-3V26.78A20.87,20.87,0,0,1,87.94,31a1.41,1.41,0,1,0,1.83-2.14,25.43,25.43,0,0,0-5-3.34,20.56,20.56,0,0,0-4.62-1.69V22a1.46,1.46,0,1,0-2.92,0ZM87.47,45.39a25.81,25.81,0,0,0-2.07-3.92,17.5,17.5,0,0,0-2.6-3.18,11.48,11.48,0,0,0-3.14-2.18,8.6,8.6,0,0,0-2.21-.7v-.86a1.46,1.46,0,1,0-2.92,0v.86a8.6,8.6,0,0,0-2.21.7,11.48,11.48,0,0,0-3.14,2.18,17.5,17.5,0,0,0-2.6,3.18,25.81,25.81,0,0,0-2.07,3.92A1.41,1.41,0,1,0,67.1,46.5a19,19,0,0,1,4-6.17,7.91,7.91,0,0,1,3.41-2v2.29a1.41,1.41,0,0,1-.85,1.26c-.08.06-.27.16-.36.22a7.21,7.21,0,0,0-1.74,1.64,13,13,0,0,0-2.3,5.17,1.41,1.41,0,0,0,2.76.6,10.15,10.15,0,0,1,1.76-4A3.16,3.16,0,0,1,76,44.05a3.16,3.16,0,0,1,2.19,1.4,10.15,10.15,0,0,1,1.76,4,1.41,1.41,0,0,0,2.76-.6,13,13,0,0,0-2.3-5.17,7.21,7.21,0,0,0-1.74-1.64c-.09-.06-.28-.16-.36-.22a1.41,1.41,0,0,1-.85-1.26V38.3a7.91,7.91,0,0,1,3.41,2,19,19,0,0,1,4,6.17,1.41,1.41,0,1,0,2.59-1.11Z"/><path class="cls-2" d="M123.59,52.35a2.2,2.2,0,0,1-.24,1,2,2,0,0,1-.64.76,2.91,2.91,0,0,1-.88.44,3.88,3.88,0,0,1-1,.13H120V57a.84.84,0,0,0,.06.33.41.41,0,0,0,.25.21,1.39,1.39,0,0,0,.34.07,4.14,4.14,0,0,0,.45,0v.38h-3.23v-.38l.36,0a.91.91,0,0,0,.33-.07.42.42,0,0,0,.23-.2.69.69,0,0,0,.07-.34V51.56a1.14,1.14,0,0,0,0-.33.37.37,0,0,0-.25-.22,2.13,2.13,0,0,0-.4-.1,2.55,2.55,0,0,0-.34,0v-.38h3.44a2.72,2.72,0,0,1,1.71.51A1.62,1.62,0,0,1,123.59,52.35ZM122,53.64a1.48,1.48,0,0,0,.24-.53,2.33,2.33,0,0,0,.06-.49,2.68,2.68,0,0,0-.07-.62,1.35,1.35,0,0,0-.25-.54,1.12,1.12,0,0,0-.49-.39,1.82,1.82,0,0,0-.75-.14H120v3.33h.54a2.08,2.08,0,0,0,.93-.18A1.38,1.38,0,0,0,122,53.64Z"/><path class="cls-2" d="M130.81,55.82l-.15,2.23H124.4v-.38l.42-.05a1.13,1.13,0,0,0,.35-.07.5.5,0,0,0,.24-.21.73.73,0,0,0,.06-.32V51.59a.79.79,0,0,0-.06-.32.44.44,0,0,0-.24-.22,2.66,2.66,0,0,0-.39-.12,1.69,1.69,0,0,0-.38-.06v-.38h5.84V52.3h-.39a2.57,2.57,0,0,0-.47-.84,1.13,1.13,0,0,0-.67-.49l-.39,0h-1.71v3h.85a1.7,1.7,0,0,0,.59-.07.84.84,0,0,0,.34-.26,1.43,1.43,0,0,0,.19-.41,1.9,1.9,0,0,0,.11-.49h.4v3h-.4a2.25,2.25,0,0,0-.11-.54,1.69,1.69,0,0,0-.19-.42.75.75,0,0,0-.38-.27,2,2,0,0,0-.55-.06h-.85v2.26a2.44,2.44,0,0,0,0,.53.51.51,0,0,0,.18.3.89.89,0,0,0,.38.13,5.77,5.77,0,0,0,.68,0h.46l.48,0a3.83,3.83,0,0,0,.42-.08.7.7,0,0,0,.3-.15,3.5,3.5,0,0,0,.51-.78,4.54,4.54,0,0,0,.34-.76Z"/><path class="cls-2" d="M138.59,58.05h-2.12a22.79,22.79,0,0,0-1.36-1.88c-.5-.62-1-1.23-1.57-1.81h-.14V57a.79.79,0,0,0,.06.32.57.57,0,0,0,.24.22,1.33,1.33,0,0,0,.31.09,1.62,1.62,0,0,0,.38.06v.38h-3.12v-.38l.36,0a1.4,1.4,0,0,0,.33-.07.42.42,0,0,0,.23-.2.67.67,0,0,0,.07-.33V51.59a.76.76,0,0,0-.06-.32.47.47,0,0,0-.24-.22l-.34-.12a1.28,1.28,0,0,0-.35-.06v-.38h3.12v.38l-.36,0a1.8,1.8,0,0,0-.33.09.36.36,0,0,0-.24.21.87.87,0,0,0-.06.32v2.62h.11c.32-.27.63-.55.94-.85a11.29,11.29,0,0,0,.84-.87c.28-.33.49-.59.62-.78a1,1,0,0,0,.19-.52c0-.05,0-.09-.1-.13l-.22-.08-.27,0h-.19v-.38h2.83v.38H138l-.15,0-.19,0a2.22,2.22,0,0,0-.38.14,1.14,1.14,0,0,0-.33.23q-.54.63-1.14,1.29c-.4.45-.79.86-1.18,1.22.54.61,1,1.14,1.34,1.57l1.13,1.41a2.19,2.19,0,0,0,.45.46,2.62,2.62,0,0,0,.39.26,1.31,1.31,0,0,0,.35.11,2.75,2.75,0,0,0,.34,0Z"/><path class="cls-2" d="M142.38,58.05H139v-.38l.42,0a1.61,1.61,0,0,0,.38-.07.52.52,0,0,0,.26-.19.62.62,0,0,0,.08-.33V51.58a.76.76,0,0,0-.06-.32.5.5,0,0,0-.28-.21l-.4-.12a2.59,2.59,0,0,0-.4-.06v-.38h3.41v.38a2,2,0,0,0-.39,0,2.81,2.81,0,0,0-.4.08.49.49,0,0,0-.28.21.83.83,0,0,0-.07.32V57a.62.62,0,0,0,.08.31.47.47,0,0,0,.27.22,1.82,1.82,0,0,0,.36.09,1.91,1.91,0,0,0,.43.06Z"/><path class="cls-2" d="M150.85,50.87a2.2,2.2,0,0,0-.46.08,1.77,1.77,0,0,0-.45.17.77.77,0,0,0-.26.51,6.11,6.11,0,0,0-.07,1v5.54h-.46l-4.59-6.19v3.9a4.25,4.25,0,0,0,.09,1,.81.81,0,0,0,.25.5,1.12,1.12,0,0,0,.5.22,2.72,2.72,0,0,0,.5.11v.38h-3.09v-.38a3.15,3.15,0,0,0,.48-.1,1.52,1.52,0,0,0,.43-.17.76.76,0,0,0,.25-.46,5,5,0,0,0,.07-1V52.17a1.67,1.67,0,0,0-.08-.49,1.07,1.07,0,0,0-.23-.38,1.93,1.93,0,0,0-.52-.3,1.67,1.67,0,0,0-.53-.13v-.38h2.16l4.25,5.77v-3.6a4.54,4.54,0,0,0-.08-1,.83.83,0,0,0-.25-.47,1.76,1.76,0,0,0-.48-.2,2.32,2.32,0,0,0-.51-.1v-.38h3.08Z"/><path class="cls-2" d="M158.77,55l-.34,0a1,1,0,0,0-.36.1.47.47,0,0,0-.22.22.78.78,0,0,0-.07.35v.59c0,.42,0,.71,0,.86a3.57,3.57,0,0,0,0,.37,8.46,8.46,0,0,1-1.41.49,6.06,6.06,0,0,1-1.38.17,3.66,3.66,0,0,1-1.39-.27,3.45,3.45,0,0,1-1.17-.77,3.76,3.76,0,0,1-.81-1.23,4.26,4.26,0,0,1-.3-1.63,4.42,4.42,0,0,1,.29-1.6,3.91,3.91,0,0,1,.8-1.28,3.53,3.53,0,0,1,1.21-.83,3.71,3.71,0,0,1,1.49-.3,3.62,3.62,0,0,1,1.11.16,4.09,4.09,0,0,1,.84.38l.21-.36h.43l.05,2.63h-.44a8.63,8.63,0,0,0-.28-.86,3.36,3.36,0,0,0-.42-.77A2,2,0,0,0,156,51a1.77,1.77,0,0,0-.89-.2,2.06,2.06,0,0,0-1,.23,2.12,2.12,0,0,0-.78.69,3.56,3.56,0,0,0-.5,1.11,6.08,6.08,0,0,0-.17,1.48,5.45,5.45,0,0,0,.17,1.36,3.58,3.58,0,0,0,.5,1.1,2.59,2.59,0,0,0,.83.75,2.29,2.29,0,0,0,1.12.27,2.35,2.35,0,0,0,.86-.15,1.4,1.4,0,0,0,.54-.3,3.53,3.53,0,0,0,.05-.56v-.9a1.25,1.25,0,0,0-.06-.4.44.44,0,0,0-.25-.25,2.08,2.08,0,0,0-.48-.12l-.47,0v-.38h3.31Z"/><path class="cls-2" d="M169.65,50.87a2.34,2.34,0,0,0-.44.06,1.36,1.36,0,0,0-.47.18.72.72,0,0,0-.25.5,5.08,5.08,0,0,0-.07.94,39.57,39.57,0,0,1-.27,4.37,2.17,2.17,0,0,1-.68.76,2.9,2.9,0,0,1-.89.42,3.58,3.58,0,0,1-.89.12,3.82,3.82,0,0,1-1.22-.18,2.61,2.61,0,0,1-.89-.48,1.93,1.93,0,0,1-.72-1.51V51.59a.76.76,0,0,0-.06-.32.63.63,0,0,0-.25-.23,1.22,1.22,0,0,0-.34-.12,1.74,1.74,0,0,0-.34-.05v-.38H165v.38a3.15,3.15,0,0,0-.37,0l-.33.08a.41.41,0,0,0-.23.22.83.83,0,0,0-.06.32V55.7a3.63,3.63,0,0,0,.06.64,1.8,1.8,0,0,0,.27.62,1.76,1.76,0,0,0,.56.48,2.24,2.24,0,0,0,1,.18,2.35,2.35,0,0,0,1-.18,1.67,1.67,0,0,0,.63-.49,1.72,1.72,0,0,0,.31-.6,2.3,2.3,0,0,0,.09-.64V52.62a4.34,4.34,0,0,0-.08-1,.83.83,0,0,0-.25-.49,1.51,1.51,0,0,0-.51-.21,2.49,2.49,0,0,0-.5-.08v-.38h3.1Z"/><path class="cls-2" d="M178.16,50.87a2.2,2.2,0,0,0-.46.08,1.77,1.77,0,0,0-.45.17.77.77,0,0,0-.26.51,6.28,6.28,0,0,0-.06,1v5.54h-.47l-4.59-6.19v3.9a4.25,4.25,0,0,0,.09,1,.87.87,0,0,0,.25.5,1.12,1.12,0,0,0,.5.22,2.76,2.76,0,0,0,.51.11v.38h-3.1v-.38a3.48,3.48,0,0,0,.49-.1,1.55,1.55,0,0,0,.42-.17.76.76,0,0,0,.25-.46,5,5,0,0,0,.07-1V52.17a1.67,1.67,0,0,0-.08-.49.94.94,0,0,0-.23-.38,1.93,1.93,0,0,0-.52-.3,1.63,1.63,0,0,0-.52-.13v-.38h2.15l4.25,5.77v-3.6a4.54,4.54,0,0,0-.08-1,.89.89,0,0,0-.24-.47,2,2,0,0,0-.49-.2,2.22,2.22,0,0,0-.51-.1v-.38h3.08Z"/><path class="cls-2" d="M181.86,58.05h-3.41v-.38l.41,0a1.84,1.84,0,0,0,.39-.07.49.49,0,0,0,.25-.19.54.54,0,0,0,.08-.33V51.58a.76.76,0,0,0-.06-.32.51.51,0,0,0-.27-.21l-.41-.12a2.49,2.49,0,0,0-.39-.06v-.38h3.41v.38a2.07,2.07,0,0,0-.4,0l-.4.08a.5.5,0,0,0-.27.21.68.68,0,0,0-.07.32V57a.62.62,0,0,0,.08.31.48.48,0,0,0,.26.22,2.21,2.21,0,0,0,.37.09,1.91,1.91,0,0,0,.43.06Z"/><path class="cls-2" d="M189.84,50.87a1.28,1.28,0,0,0-.34.06,1.06,1.06,0,0,0-.32.13.89.89,0,0,0-.29.29,4,4,0,0,0-.22.42c-.24.56-.59,1.44-1.07,2.64l-1.47,3.73h-.44l-1.48-4c-.48-1.28-.8-2.14-1-2.58a1.16,1.16,0,0,0-.46-.53,1,1,0,0,0-.32-.14,1.25,1.25,0,0,0-.32-.05v-.38h3.12v.38a3.84,3.84,0,0,0-.67.08c-.18,0-.27.1-.27.2a.36.36,0,0,0,0,.14.86.86,0,0,0,0,.13l.64,1.7c.3.79.72,1.91,1.26,3.37.27-.66.58-1.44.93-2.33s.59-1.51.71-1.85a4.37,4.37,0,0,0,.21-.67,2.13,2.13,0,0,0,0-.3.26.26,0,0,0-.11-.21,1.12,1.12,0,0,0-.29-.14,2.33,2.33,0,0,0-.36-.08l-.37,0v-.38h2.82Z"/><path class="cls-2" d="M196.48,55.82l-.14,2.23h-6.27v-.38l.43-.05a1.12,1.12,0,0,0,.34-.07.46.46,0,0,0,.24-.21.72.72,0,0,0,.07-.32V51.59a.79.79,0,0,0-.06-.32.46.46,0,0,0-.25-.22,2.48,2.48,0,0,0-.38-.12,1.69,1.69,0,0,0-.39-.06v-.38h5.84V52.3h-.39a2.53,2.53,0,0,0-.46-.84,1.14,1.14,0,0,0-.68-.49l-.39,0h-1.71v3h.85a1.81,1.81,0,0,0,.6-.07.88.88,0,0,0,.33-.26,1.42,1.42,0,0,0,.2-.41,3.38,3.38,0,0,0,.11-.49h.39v3h-.39a2.94,2.94,0,0,0-.12-.54,1.69,1.69,0,0,0-.19-.42.75.75,0,0,0-.38-.27,2,2,0,0,0-.55-.06h-.85v2.26a2.44,2.44,0,0,0,.05.53.48.48,0,0,0,.19.3.84.84,0,0,0,.37.13,5.89,5.89,0,0,0,.68,0H194l.48,0a3.1,3.1,0,0,0,.42-.08.7.7,0,0,0,.3-.15,2.91,2.91,0,0,0,.51-.78,4.8,4.8,0,0,0,.35-.76Z"/><path class="cls-2" d="M204.63,58.05h-2c-.45-.7-.86-1.31-1.22-1.83s-.76-1-1.18-1.58h-.78V57a.81.81,0,0,0,.06.33.41.41,0,0,0,.25.21,1.19,1.19,0,0,0,.33.07,3.58,3.58,0,0,0,.4,0v.38h-3.17v-.38l.36,0a1,1,0,0,0,.34-.07.4.4,0,0,0,.22-.2.69.69,0,0,0,.07-.34V51.55a.88.88,0,0,0-.05-.33A.37.37,0,0,0,198,51a1.26,1.26,0,0,0-.35-.09,1.63,1.63,0,0,0-.35-.05v-.38h3.49a3.76,3.76,0,0,1,.9.1,2.43,2.43,0,0,1,.76.31,1.64,1.64,0,0,1,.52.56,1.67,1.67,0,0,1,.2.83,2.13,2.13,0,0,1-.13.78,1.63,1.63,0,0,1-.4.58,2.58,2.58,0,0,1-.58.4,4.56,4.56,0,0,1-.74.28l.93,1.25.91,1.23a3,3,0,0,0,.42.47,2.36,2.36,0,0,0,.38.24,1.31,1.31,0,0,0,.35.11,2.75,2.75,0,0,0,.34,0Zm-2.79-5.63a1.46,1.46,0,0,0-.4-1.09,1.49,1.49,0,0,0-1.12-.4h-.91v3.24h.7a1.65,1.65,0,0,0,1.73-1.75Z"/><path class="cls-2" d="M209.63,54.59a1.67,1.67,0,0,1,.35.58,2.13,2.13,0,0,1,.12.74,2.1,2.1,0,0,1-.75,1.66,2.63,2.63,0,0,1-1.83.65,3,3,0,0,1-1-.17,3.92,3.92,0,0,1-.87-.39l-.23.39H205l-.08-2.59h.43a5.88,5.88,0,0,0,.31.87,3.36,3.36,0,0,0,.47.73,2.22,2.22,0,0,0,.65.5,1.86,1.86,0,0,0,.87.19,1.79,1.79,0,0,0,.64-.1,1.13,1.13,0,0,0,.45-.27A1.16,1.16,0,0,0,209,57a1.55,1.55,0,0,0,.08-.55,1.53,1.53,0,0,0-.25-.85A1.57,1.57,0,0,0,208,55l-.8-.31c-.29-.11-.55-.21-.77-.31a2.52,2.52,0,0,1-1-.76,1.94,1.94,0,0,1-.36-1.22,1.85,1.85,0,0,1,.18-.81,2.1,2.1,0,0,1,.5-.66,2.22,2.22,0,0,1,.73-.44,2.58,2.58,0,0,1,.87-.16,2.54,2.54,0,0,1,.94.17,4.36,4.36,0,0,1,.75.37l.22-.36h.42l.05,2.51h-.43a7.29,7.29,0,0,0-.26-.83,2.84,2.84,0,0,0-.38-.71,1.87,1.87,0,0,0-.56-.49,1.67,1.67,0,0,0-.81-.18,1.24,1.24,0,0,0-.86.32,1,1,0,0,0-.36.8,1.34,1.34,0,0,0,.23.81,1.7,1.7,0,0,0,.66.53c.26.12.51.23.76.32l.73.29a5.86,5.86,0,0,1,.61.32A2.09,2.09,0,0,1,209.63,54.59Z"/><path class="cls-2" d="M214.34,58.05h-3.41v-.38l.41,0a1.72,1.72,0,0,0,.39-.07.52.52,0,0,0,.26-.19.62.62,0,0,0,.08-.33V51.58a.76.76,0,0,0-.06-.32.54.54,0,0,0-.28-.21l-.4-.12a2.78,2.78,0,0,0-.4-.06v-.38h3.41v.38a2.15,2.15,0,0,0-.4,0l-.4.08a.5.5,0,0,0-.27.21.68.68,0,0,0-.07.32V57a.62.62,0,0,0,.08.31.48.48,0,0,0,.26.22,2.21,2.21,0,0,0,.37.09,1.91,1.91,0,0,0,.43.06Z"/><path class="cls-2" d="M221.45,52.54h-.37a2.69,2.69,0,0,0-.17-.46,4.91,4.91,0,0,0-.28-.5,3.84,3.84,0,0,0-.35-.43.74.74,0,0,0-.37-.21l-.42,0h-.77V57a.66.66,0,0,0,.07.32.49.49,0,0,0,.26.23c.07,0,.2.06.4.1a3,3,0,0,0,.48.07v.38h-3.57v-.38l.46,0a1.82,1.82,0,0,0,.42-.08.54.54,0,0,0,.26-.2.72.72,0,0,0,.08-.35V50.9h-.72a3.59,3.59,0,0,0-.47,0,.72.72,0,0,0-.36.21,3,3,0,0,0-.35.43,3.15,3.15,0,0,0-.28.51,3,3,0,0,0-.17.45h-.38v-2h6.6Z"/><path class="cls-2" d="M229.17,50.87a.89.89,0,0,0-.29.07.92.92,0,0,0-.28.13,1.51,1.51,0,0,0-.29.2,3.26,3.26,0,0,0-.28.36,14.13,14.13,0,0,0-.77,1.19c-.23.4-.53.91-.88,1.53a2.79,2.79,0,0,0-.26.54,2.34,2.34,0,0,0-.06.61v1.44a.67.67,0,0,0,.07.33.52.52,0,0,0,.27.23,4.26,4.26,0,0,0,.86.17v.38h-3.54v-.38l.45,0a1.6,1.6,0,0,0,.41-.08.47.47,0,0,0,.27-.22.69.69,0,0,0,.07-.34V55.16a.89.89,0,0,0-.1-.32c-.07-.15-.16-.32-.25-.5-.21-.41-.45-.86-.71-1.34l-.67-1.23a4,4,0,0,0-.31-.46,1.69,1.69,0,0,0-.32-.27,1,1,0,0,0-.3-.12,1.39,1.39,0,0,0-.32-.05v-.38h3.22v.38a3.26,3.26,0,0,0-.77.07c-.15,0-.22.1-.22.18a.36.36,0,0,0,0,.11,1.65,1.65,0,0,0,.09.21l.17.31.18.35.5.94.68,1.23c.56-.9,1-1.6,1.28-2.1a3.59,3.59,0,0,0,.44-.91.23.23,0,0,0-.09-.19.67.67,0,0,0-.24-.12,1.63,1.63,0,0,0-.33-.05l-.34,0v-.38h2.63Z"/><path class="cls-1" d="M143,35.27l-.65.07c-.6.18-1.26.42-2,.65s-1.72.61-2.47.06c0-.07,0,0-.06-.13.67-.72.66-1.14,1.69-1.62,0-.71.29-1.56-.07-2,.08-1.06,1.33-.54,2.28-.77a7,7,0,0,0,1.75-.65,4,4,0,0,0,1.36-1.76c.1-.26,0-.8.13-1v-.51c-.05-.1-1.66-.63-1.88-.78a2.37,2.37,0,0,1-.65-.65c-.06-.17,0-.35-.07-.46s-.14-.15-.26-.26a.8.8,0,0,0-.56.27s-.12.07-.15.12,0,.11,0,.17v1.59c-.16.34-.86.55-1.17.77l-.78.85c-.38,0-.41-.17-.65-.33-.56-2.62-.8-4.81-2.59-6.16-.44-.33-.77-1-1.3-1.17-.19.52-.44,1.06-.58,1.58,0,.13,0,.23,0,.36-.32,1.2-.57,2.43-.9,3.71a14.75,14.75,0,0,0-.39,2.2c.29,1.3.65,3,1,4.16.15.56,0,1,.19,1.49.3,1,1.13,3.38,1.82,3.83a3.48,3.48,0,0,0,3.05.33c.31-.13.58-.57.78-.65h1l2.85-.78a6.36,6.36,0,0,0,1.43-.85c.35-.35.37-1,.78-1.42a1.44,1.44,0,0,0-.19-.91A7,7,0,0,0,143,35.27Z"/><path class="cls-1" d="M128.6,26.77a14.41,14.41,0,0,0-.13-2.54c-.12-.56.13-1.28-.07-1.75-.59-1.4-3.14-2.65-4.54-3.38-.54-.28-.55-.82-1.3-1-.17,0-.52.34-.52.45,0,.9.65,1.25,1.1,1.82.28.35.45.75.72,1.11.42.55,1.12,1,1.36,1.75a14.31,14.31,0,0,1,.13,5.39V30c0,.5-.08,1-.13,1.49-.36-.14-.6-.5-1-.65l-.85-.13c-.26-.16-.43-.46-.77-.58s-.76,0-1.17-.13-.59-.52-1.3-.52c-.14,0-.42.23-.39.32.09.55.55.83.71,1.3v.52c.11.41.23,1,.33,1.43.16.74-.32,1.17-.46,1.62-.57,1.86-.9,3.74-2.35,4.7a.38.38,0,0,0-.14.14.85.85,0,0,0,0,.25c0,1.07-.2,3.16.78,3.48l.1.07a5.33,5.33,0,0,0,1.13,0c.35-.18,1-1.09,1.37-1.36.58-.42,1.22-.7,1.82-1.11l.32-.39A12.9,12.9,0,0,0,125,39a.18.18,0,0,1,.19,0c0,.22.14.71,0,.91,0,1.12-.13,1.92.33,2.6a1.73,1.73,0,0,0,.78-.07c.51-.19.75-1,1-1.55a26.52,26.52,0,0,0,1-4.42l.06-1.62a24,24,0,0,0,.26-4.94c0-.67.05-1.34.07-2A5.27,5.27,0,0,1,128.6,26.77Zm-3.38,9.41V37c-.12.27-.72.49-1,.65a5.27,5.27,0,0,1-.72.52,9.83,9.83,0,0,0-1.23.46c-.35.22-.75.55-1.1.78s-1.2.54-1.63.26l-.19-.07c.05-.7.55-1,.84-1.49.57-.93,1.32-1.7,1.89-2.6,0-.15.08-.3.13-.45.2-.32.63-.59.78-1A1.75,1.75,0,0,0,125,32.67a1.17,1.17,0,0,1,.33.07c0,.73,0,1.56,0,2.27C125.28,35.36,125.37,36,125.22,36.18Z"/><path class="cls-1" d="M211.65,24c.2.28.57.5.78.78.68.95.85,2.91,1.23,4.16,1.17,0,1.66-1,2.21-1.69a7.75,7.75,0,0,0-2.6-4.74c-.55-.38-1.2-.54-1.75-.91s-.91-.95-1.63-1.23c-.09,0-.31.19-.32.26v1l.71.58C210.74,22.83,211.19,23.36,211.65,24Z"/><path class="cls-1" d="M225.54,25.79c1-1.3,2.36-2.51,3-4.15.18-.47,1-1.62.45-2.28-.22-.33-.85-.13-1.3-.26-.2-.05-.34-.27-.51-.32s-.61.14-.78.19c-.82.27-1.53.35-2.28.65-.33.14-1.28.71-1.68.46l-.2-.07c.07-1.24,1-2,1.36-3,.13-.3.5-1.07.26-1.43,0-.58-.63-1-1-1.3-.11-.09-.59.07-.58.26a5.28,5.28,0,0,1-1.63,4.09c-.3.2-.56.12-1,.26-.64.22-1.32.87-2.08.32a.89.89,0,0,0-.65.2,1.56,1.56,0,0,0,1,1.36,3.31,3.31,0,0,0,.9,0,1.64,1.64,0,0,1-.71,1.17,1.48,1.48,0,0,0,.07.52c.7.13.83-.23,1.49-.26-.11.74-.7,1.09-1,1.62-.44.09-1.09.15-1.49.2a.09.09,0,0,0-.07.06.84.84,0,0,0,.52.85,5.42,5.42,0,0,1-1.1,1.69c-.15.21-.59.49-.33.91.09.15.2.16.39.19.66-.63,1.77-.93,2.08-1.88,1,.06,1,.31,1.62.71a1.92,1.92,0,0,1-.39,1,2,2,0,0,0,.07.64c.77,0,1.94-1.05,2.47-.71h.13c-.1.44-.59.45-.91.65-.69.43-1.52.7-2.28,1.1-1,.54-2.16,1.15-3.11,1.76l-.85.26c-1.54.91-3,2-4.61,2.92,0,.11,0,.06-.06.13a1.36,1.36,0,0,0,.06.45c2,.42,3.56-.5,4.94-1a23.26,23.26,0,0,0,5.13-3.05c.49-.36.85-1,1.36-1.3a10.62,10.62,0,0,0,1.1-.65h.33c-.11.4-.39.56-.59.85s-.13.34-.19.52l-1,1a3.78,3.78,0,0,1-.52.72,8,8,0,0,0-1.49,1.29,2,2,0,0,0,.06.65c1-.08,1.64-.75,2.41-1.1.46-.22,1-.26,1.42-.52s.46-.52.72-.71c1.26-.94,2.4-1.67,2.14-4a4.21,4.21,0,0,1-1-.32h-1.36C224.39,26.33,225.13,26.32,225.54,25.79ZM223.46,25a8.54,8.54,0,0,0-.64,1.1,1.15,1.15,0,0,1-.33-.06,11.21,11.21,0,0,0-.58-2.41c-.23,0-.35-.07-.52.07-.39.32-.11,1.17-.59,1.56-.19.19-.68-.54-.84-.65.12-1.39,1.45-2.43,2.14-3.31,1.25,0,2.14.64,3.31.71C225.38,23.5,224.14,24,223.46,25Z"/><path class="cls-1" d="M209.57,30.92a13.72,13.72,0,0,1,.71,1.24,2.48,2.48,0,0,0,.72,0,3.3,3.3,0,0,0,1-1.89c.14-.77-1.43-2.68-1.95-2.86a1.42,1.42,0,0,0-.65-.06,11.89,11.89,0,0,0,.2,2.27Z"/><path class="cls-1" d="M220.93,34.69c-.5.65-2.56.61-3.44,1-1.2.49-2.48.9-3.7,1.43-.81.35-1.65.84-2.47,1.17l-.65.13c-.34.14-.72.51-1,.65l-.9.06c-.33.15-.49.47-.72.72,0,1.16.62,1.49.91,2.15.06.13,0,.27.13.44a1.29,1.29,0,0,0,.58.26c.46.1,1.12-.31,1.43-.45a24.54,24.54,0,0,0,3.18-2.08,9,9,0,0,1,1.37-.65c.47-.15.82,0,1.23-.19.76-.32.44-.83,1.56-.46,0,.18.16.32.19.46.13.45-.14,1-.06,1.36a2.54,2.54,0,0,1,.19,1c-.15.17-.21.45-.38.59a7,7,0,0,1-2.21.78c-.52.13-1.16-.22-1.56.06h-.13a.67.67,0,0,0,.13.46c.19.59.55.39,1.17.58s1.24,1,2.27.46c.22-.13.3-.44.58-.52.51-.15,1,.09,1.3-.2s.37-.54.52-.84a6.29,6.29,0,0,0,.46-1,1.85,1.85,0,0,0-.2-1.1c0-.26-.08-.52-.13-.78a4.12,4.12,0,0,1-.65-1.82.35.35,0,0,1,.2-.26,8.88,8.88,0,0,1,2.4-.32c.31-.31.74-.53,1-.91s.16-.6.33-.84c0-.63-.22-.69-.46-1C222.4,34.93,221.83,34.68,220.93,34.69Z"/><path class="cls-1" d="M197.43,26.51c.18-.28.18-.53.45-.72s-.06-.86-.19-.91c-2.43-.54-2.64,1.25-3.9,2.21-.58.44-1.23.73-1.82,1.17h-.13a28.15,28.15,0,0,1-.06-4.42V22.16c0-.12.27-.27.32-.39A2.18,2.18,0,0,0,192,20c-.35-.57-1.08-.72-1.62-1.1-.28-.2-.5-.57-.84-.72-.54-.22-1.12,0-1.56-.32a1.28,1.28,0,0,0-.59.26c-.57,1.49.83,3.59,1.24,4.67a14.3,14.3,0,0,1,.13,4.94c-.18.81.11,2-.33,2.6a16,16,0,0,1-2.92,1.3c-.46.19-1,.48-1.49.64a7.93,7.93,0,0,0-1.56.52,17.54,17.54,0,0,1-2.66,1.5l-.72.06c-.33.11-.76.3-1.1.39a1.77,1.77,0,0,1-.52.07,5.31,5.31,0,0,1-.72-.85c-.09-.12-.2-.19-.27-.14s-.11.06-.12.21c0,2-.2,2.44.72,3.83,1.89.4,3.25-.53,4.48-1.36.54-.37,1.07-.6,1.62-1s.73-.79,1.17-1l.58-.13a8.9,8.9,0,0,1,2.86-.91c0,2.15-1.84,4.34-3.18,5.2a4.61,4.61,0,0,1-.65.38c-.26.11-.5.23-.71.33l-.52.07a6.68,6.68,0,0,0-1,.65c-.44.32-.38.63-.65,1v.12a11.2,11.2,0,0,0,7.53-3.11,6,6,0,0,0,2-2,24.84,24.84,0,0,0,1-3.58c.06-.45.13-.9.19-1.36a6.69,6.69,0,0,1,1.5-1.1c.34-.25.63-.66,1-.91.69-.51,1.39-1,2.08-1.5A5.85,5.85,0,0,0,197.43,26.51Z"/><path class="cls-1" d="M197.56,36.31c-.64-.5-.91-1.24-2.08-1.23a.77.77,0,0,1-.2.13,5.43,5.43,0,0,0,.59,2.85c0,.2.08.39.13.59s.76,1,.39,1.56c.07.59,1.07.81,1.75.58a4.51,4.51,0,0,0,2-1.3C200.08,37.81,198.53,37.07,197.56,36.31Z"/><path class="cls-1" d="M160.87,16.18l.26.2a5.65,5.65,0,0,1,.65,1.3c.26.81.34,2.19-.26,2.59-.09.05,0,.66.19.65a3.39,3.39,0,0,0,2.47-1.62c1.8.05,2.79-.47,2.66-2.27-.17-.19-.25-.5-.45-.65-.53-.41-1.14-.82-1.69-1.17-.25-.17-.58-.17-.84-.33a5.14,5.14,0,0,0-3.18-1.1c-.76.89-.29.87.06,1.62C160.78,15.66,160.83,15.92,160.87,16.18Z"/><path class="cls-1" d="M159.44,28.06a4.93,4.93,0,0,0,2-.26c1.09-.37,2.24-2.29,3.19-3a10.76,10.76,0,0,1,2.07-1.43l.85-.13.84-.91c0-.37-.1-.66-.26-.65h-.78c-.33.22-1,.14-1.36.26-.74.23-1.51.56-2.21.78l-.58.06c-2.15.81-4.39,1.74-6.43,2.6-.14.32-.42.81-.13,1.17C156.88,27.22,158.7,27.87,159.44,28.06Z"/><path class="cls-1" d="M165.94,33.84a7.34,7.34,0,0,0-2.21.07c-.34.11-.49.38-.85.45.07-.42.89-.92,1.17-1.23a5.94,5.94,0,0,1,.72-.78,3.71,3.71,0,0,0,.71-.52c.12-.15.18-.4.33-.52l.32-.06c.17-.16.21-.45.39-.59.55-.4,1.07-.5,1.43-1.1.07-.13-.06-.4-.2-.52a6.12,6.12,0,0,0-3.31-.39,4.79,4.79,0,0,0-1.23.58l-.33.46-1,.13c-.39.24-.72.7-1.1,1-.79.55-1.63,1-2.47,1.49-.37.22-.8-.66-1-.84s-.37-.14-.52-.26-.18,0-.26.07a.64.64,0,0,0-.26.13,9.19,9.19,0,0,1,.07,1.49c-.26,1.07-.73,3-.33,4.28.07.21.31.46.39.65s.06.48.19.72.64.44.78.84c.57-.11,1.55-1.9,2-2.59h0a.68.68,0,0,0,.08-.39v0h0v-1.6a3.33,3.33,0,0,0,.85-.26,1,1,0,0,1,.58.13A15.56,15.56,0,0,1,160,36.7c.05.45.34.61.71.71-.11.89-1.1,1.08-1.69,1.5s-1.47,1-2.21,1.49c-.29.18-.61.21-.9.39s-.34.35-.52.45-.63.2-.91.39-.2.34-.39.39-.49-.15-.65-.19c-.4-.09-.69.19-1,.26-.08,1.6.62,3.23,2.41,3.25a35.28,35.28,0,0,0,2.66-2.8l.84-.71a6.66,6.66,0,0,1,.46-.78c.08-.09.22-.06.32-.13l.72-.78c.22-.16.42-.17.58-.39.13,0,.13,0,.2.07.16.22.16.6.32.84,0,.58.06,1.25-.32,1.43l-.59.13c-.16.12-.22.39-.39.52v.39c.05.09,1.19.46,1.37.58a1.75,1.75,0,0,1,.45.59v.58c.08.18.4.4.52.59s.65.13.84,0l.2-.07a16.09,16.09,0,0,0-.72-5.32c-.19-.52-.9-1.46-.45-2.15,0-1,.66-.69,1.23-1,.8-.48,1.66-.94,2.41-1.49.28-.21.41-.57.64-.84A5.48,5.48,0,0,0,165.94,33.84Z"/><path class="cls-1" d="M169.7,38.19a3.36,3.36,0,0,0-3-1.75,1.29,1.29,0,0,1-.59.07,4.1,4.1,0,0,0,.39,3.44l.52.45c.39.57.6,1.13,1.3,1.36.71.46,1.55-.42,1.89-.64.09-.38.41-1.61.19-1.95C170.32,38.62,169.94,38.52,169.7,38.19Z"/></svg>