<svg width="120" height="120" viewBox="0 0 120 120" fill="none" xmlns="http://www.w3.org/2000/svg">
<rect width="120" height="120" rx="24" fill="white"/>
<path d="M77 56H65V44C65 41.6266 65.7038 39.3066 67.0224 37.3332C68.3409 35.3598 70.2151 33.8217 72.4078 32.9135C74.6005 32.0052 77.0133 31.7676 79.3411 32.2306C81.6689 32.6936 83.8071 33.8365 85.4853 35.5147C87.1635 37.193 88.3064 39.3312 88.7694 41.6589C89.2325 43.9867 88.9948 46.3995 88.0866 48.5922C87.1783 50.7849 85.6402 52.6591 83.6668 53.9776C81.6935 55.2962 79.3734 56 77 56ZM77 36C74.8783 36 72.8434 36.8429 71.3432 38.3432C69.8429 39.8434 69 41.8783 69 44V52H77C79.1217 52 81.1566 51.1572 82.6569 49.6569C84.1571 48.1566 85 46.1217 85 44C85 41.8783 84.1571 39.8434 82.6569 38.3432C81.1566 36.8429 79.1217 36 77 36ZM45 88C41.8174 88 38.7652 86.7357 36.5147 84.4853C34.2643 82.2349 33 79.1826 33 76C33 72.8174 34.2643 69.7652 36.5147 67.5147C38.7652 65.2643 41.8174 64 45 64H57V76C57 79.1826 55.7357 82.2349 53.4853 84.4853C51.2348 86.7357 48.1826 88 45 88ZM53 68H45C43.4178 68 41.871 68.4692 40.5554 69.3482C39.2398 70.2273 38.2145 71.4767 37.609 72.9385C37.0035 74.4003 36.845 76.0089 37.1537 77.5607C37.4624 79.1126 38.2243 80.538 39.3431 81.6569C40.462 82.7757 41.8874 83.5376 43.4393 83.8463C44.9911 84.155 46.5997 83.9965 48.0615 83.391C49.5233 82.7855 50.7727 81.7602 51.6518 80.4446C52.5308 79.129 53 77.5823 53 76V68ZM33 44C33 40.8174 34.2643 37.7652 36.5147 35.5147C38.7652 33.2643 41.8174 32 45 32C48.1826 32 51.2348 33.2643 53.4853 35.5147C55.7357 37.7652 57 40.8174 57 44V56H45C41.8174 56 38.7652 54.7357 36.5147 52.4853C34.2643 50.2349 33 47.1826 33 44ZM53 44C53 42.4178 52.5308 40.871 51.6518 39.5554C50.7727 38.2399 49.5233 37.2145 48.0615 36.609C46.5997 36.0035 44.9911 35.845 43.4393 36.1537C41.8874 36.4624 40.462 37.2243 39.3431 38.3432C38.2243 39.462 37.4624 40.8874 37.1537 42.4393C36.845 43.9911 37.0035 45.5997 37.609 47.0615C38.2145 48.5233 39.2398 49.7727 40.5554 50.6518C41.871 51.5308 43.4178 52 45 52H53V44ZM89 76C89 79.1826 87.7357 82.2349 85.4853 84.4853C83.2349 86.7357 80.1826 88 77 88C73.8174 88 70.7652 86.7357 68.5147 84.4853C66.2643 82.2349 65 79.1826 65 76V64H77C80.1826 64 83.2349 65.2643 85.4853 67.5147C87.7357 69.7652 89 72.8174 89 76ZM69 76C69 77.5823 69.4692 79.129 70.3482 80.4446C71.2273 81.7602 72.4767 82.7855 73.9385 83.391C75.4003 83.9965 77.0089 84.155 78.5607 83.8463C80.1126 83.5376 81.538 82.7757 82.6569 81.6569C83.7757 80.538 84.5376 79.1126 84.8463 77.5607C85.155 76.0089 84.9965 74.4003 84.391 72.9385C83.7855 71.4767 82.7602 70.2273 81.4446 69.3482C80.129 68.4692 78.5823 68 77 68H69V76Z" fill="#1762ee"/>
</svg>
