<svg width="120" height="120" viewBox="0 0 120 120" fill="none" xmlns="http://www.w3.org/2000/svg">
<rect width="120" height="120" rx="24" fill="white"/>
<g clip-path="url(#clip0_88_1375)">
<path d="M59.9433 32.5552C67.6871 32.5552 73.6088 38.4769 73.6088 46.2206C73.6088 53.9644 67.6871 59.8861 59.9433 59.8861C52.1995 59.8861 46.2778 53.9644 46.2778 46.2206C46.2778 38.4769 52.1995 32.5552 59.9433 32.5552ZM59.9433 28C49.9219 28 41.7227 36.1993 41.7227 46.2206C41.7227 56.242 49.9219 64.4413 59.9433 64.4413C69.9647 64.4413 78.1639 56.242 78.1639 46.2206C78.1639 36.1993 69.9647 28 59.9433 28ZM71.7867 71.7295C74.5198 68.9964 78.6195 68.9964 81.3526 71.7295C84.0856 74.4626 84.0856 78.5623 81.3526 81.2954C78.6195 84.0285 74.5198 84.0285 71.7867 81.2954C69.0536 78.5623 69.0536 74.4626 71.7867 71.7295ZM68.5981 68.5409C64.0429 73.0961 64.0429 80.3843 68.5981 84.484C73.1533 88.5836 80.4415 89.0391 84.5412 84.484C88.6408 79.9288 89.0963 72.6406 84.5412 68.5409C79.986 64.4413 73.1533 63.9858 68.5981 68.5409Z" fill="#2361FF"/>
<path d="M59.9428 59.8857C42.1776 59.8857 28.0566 74.0067 28.0566 91.7719H32.6118C32.6118 76.7398 44.9107 64.4409 59.9428 64.4409C61.7648 64.4409 63.5869 64.4409 65.409 64.8964H66.32C68.5976 63.9854 70.8751 63.0744 73.1527 62.6188C69.0531 60.7968 64.4979 59.8857 59.9428 59.8857ZM91.3734 91.3163C90.4623 92.2274 89.0958 92.2274 88.1848 91.3163L79.9855 83.1171L83.1741 79.9284L91.3734 88.1277C91.8289 88.5832 91.8289 90.4053 91.3734 91.3163Z" fill="#2361FF"/>
</g>
<defs>
<clipPath id="clip0_88_1375">
<rect width="64" height="64" fill="#2361FF" transform="translate(28 28)"/>
</clipPath>
</defs>
</svg>
