<svg width="120" height="120" viewBox="0 0 120 120" fill="none" xmlns="http://www.w3.org/2000/svg">
<rect width="120" height="120" rx="24" fill="white"/>
<path fill-rule="evenodd" clip-rule="evenodd" d="M84.6022 55.4509C86.6356 55.4509 87.6523 54.4342 87.6523 52.4008C87.6523 50.3673 86.6356 49.3506 84.6022 49.3506L56.3342 49.3506C56.467 49.5806 56.5849 49.8196 56.687 50.066C56.9936 50.8062 57.1514 51.5995 57.1514 52.4006C57.1514 53.2018 56.9936 53.9951 56.687 54.7352C56.5848 54.9818 56.4669 55.2208 56.334 55.4509L84.6022 55.4509ZM35.7995 49.3506L45.7668 49.3506C45.634 49.5806 45.5161 49.8196 45.414 50.066C45.1074 50.8062 44.9496 51.5995 44.9496 52.4006C44.9496 53.2018 45.1074 53.9951 45.414 54.7352C45.5161 54.9818 45.6341 55.2208 45.7669 55.4509L35.7995 55.4509C33.7661 55.4509 32.7494 54.4342 32.7494 52.4007C32.7494 50.3673 33.7661 49.3506 35.7995 49.3506ZM84.6022 40.1999C86.6356 40.1999 87.6523 39.1832 87.6523 37.1498C87.6523 35.1163 86.6356 34.0996 84.6022 34.0996L77.6845 34.0996C78.2154 35.0192 78.502 36.0699 78.502 37.1501C78.502 38.2301 78.2156 39.2805 77.6849 40.1999L84.6022 40.1999ZM67.1184 40.1999L35.7995 40.1999C33.7661 40.1999 32.7494 39.1832 32.7494 37.1498C32.7494 35.1163 33.7661 34.0996 35.7995 34.0996L67.1188 34.0996C66.5878 35.0192 66.3013 36.0699 66.3013 37.1501C66.3013 38.2301 66.5877 39.2805 67.1184 40.1999ZM87.6523 67.6517C87.6523 69.6852 86.6356 70.7019 84.6022 70.7019L77.6851 70.7019C77.8179 70.4718 77.9359 70.2328 78.038 69.9862C78.3446 69.2461 78.5024 68.4528 78.5024 67.6516C78.5024 66.8504 78.3446 66.0571 78.038 65.317C77.9359 65.0705 77.818 64.8316 77.6852 64.6016L84.6022 64.6016C86.6356 64.6016 87.6523 65.6183 87.6523 67.6517ZM67.1178 64.6016L35.7995 64.6016C33.7661 64.6016 32.7494 65.6183 32.7494 67.6517C32.7494 69.6852 33.7661 70.7019 35.7995 70.7019L67.118 70.7019C66.9851 70.4718 66.8672 70.2328 66.765 69.9862C66.4584 69.2461 66.3006 68.4528 66.3006 67.6516C66.3006 66.8504 66.4584 66.0571 66.765 65.317C66.8671 65.0705 66.9851 64.8316 67.1178 64.6016ZM84.6022 85.9529C86.6356 85.9529 87.6523 84.9361 87.6523 82.9027C87.6523 80.8693 86.6356 79.8525 84.6022 79.8525L56.3342 79.8525C56.467 80.0826 56.5849 80.3215 56.687 80.5679C56.9936 81.3081 57.1514 82.1014 57.1514 82.9026C57.1514 83.7037 56.9936 84.497 56.687 85.2372C56.5848 85.4837 56.4669 85.7228 56.334 85.9529L84.6022 85.9529ZM35.7995 79.8525L45.7668 79.8525C45.634 80.0826 45.5161 80.3215 45.414 80.5679C45.1074 81.3081 44.9496 82.1014 44.9496 82.9026C44.9496 83.7037 45.1074 84.497 45.414 85.2372C45.5161 85.4837 45.6341 85.7228 45.7669 85.9529L35.7995 85.9529C33.7661 85.9529 32.7494 84.9361 32.7494 82.9027C32.7494 80.8693 33.7661 79.8525 35.7995 79.8525Z" fill="#1762ee"/>
</svg>
