<svg width="120" height="120" viewBox="0 0 120 120" fill="none" xmlns="http://www.w3.org/2000/svg">
<rect width="120" height="120" rx="24" fill="white"/>
<path d="M86.125 84.25C87.1606 84.25 88 85.0894 88 86.125C88 87.1606 87.1606 88 86.125 88H33.875C32.8394 88 32 87.1606 32 86.125C32 85.0894 32.8394 84.25 33.875 84.25H86.125ZM67.5 32C69.5711 32 71.25 33.6789 71.25 35.75V78.625C71.25 80.6961 69.5711 82.375 67.5 82.375H52.5C50.4289 82.375 48.75 80.6961 48.75 78.625V35.75C48.75 33.6789 50.4289 32 52.5 32H67.5ZM45.125 41.75C46.1606 41.75 47 42.5894 47 43.625C47 44.6502 46.1773 45.4832 45.156 45.4998L45.125 45.5H35.75V78.625H45.125C46.1606 78.625 47 79.4644 47 80.5C47 81.5252 46.1773 82.3582 45.156 82.375H35.75C33.6996 82.375 32.0336 80.7295 32.0005 78.687L32 78.625V45.5C32 43.4496 33.6455 41.7836 35.688 41.7505L35.75 41.75H45.125ZM84.25 50.9375L84.312 50.938C86.3545 50.9711 88 52.6371 88 54.6875V78.625L87.9995 78.687C87.9664 80.7295 86.3004 82.375 84.25 82.375H74.844C73.8228 82.3582 73 81.5252 73 80.5C73 79.4644 73.8394 78.625 74.875 78.625H84.25V54.6875H74.875L74.844 54.6873C73.8228 54.6707 73 53.8377 73 52.8125C73 51.7769 73.8394 50.9375 74.875 50.9375H84.25ZM67.5 35.75H52.5V78.625H67.5V35.75ZM78.1937 57.8375C80.1187 57.8375 81.3812 58.7375 81.3812 60.4C81.3812 61.325 80.8812 62.05 79.8812 62.45V62.5125C80.9187 62.825 81.6813 63.575 81.6813 64.775C81.6813 66.5125 80.0938 67.4875 78.2438 67.4875C76.7688 67.4875 75.7313 66.975 75.0563 66.1875L76.0812 64.7875C76.6437 65.325 77.2937 65.6875 78.0187 65.6875C78.8812 65.6875 79.4437 65.325 79.4437 64.625C79.4437 63.825 79.0187 63.35 77.0687 63.35V61.7875C78.6562 61.7875 79.1562 61.3 79.1562 60.5625C79.1562 59.925 78.7812 59.575 78.0938 59.575C77.4688 59.575 76.9938 59.8625 76.4313 60.35L75.3063 58.9875C76.1688 58.2625 77.0937 57.8375 78.1937 57.8375ZM41.5063 48.5875C43.3063 48.5875 44.5562 49.7375 44.5562 51.5125C44.5562 53.1125 43.1813 54.875 41.7563 56.3125C42.2188 56.25 42.8563 56.1875 43.2688 56.1875H44.9813V58.0625H38.5312V56.7875C40.8563 54.675 42.4187 52.9875 42.4187 51.6375C42.4187 50.7875 41.9438 50.325 41.2063 50.325C40.5688 50.325 40.0688 50.75 39.6313 51.225L38.4187 50.025C39.3312 49.0625 40.1813 48.5875 41.5063 48.5875ZM61.3688 39.075V46.575H63.0438V48.375H57.1688V46.575H59.1437V41.2875H57.4312V39.9125C58.4312 39.725 59.0813 39.475 59.7313 39.075H61.3688Z" fill="#1762ee"/>
</svg>
