<svg width="120" height="120" viewBox="0 0 120 120" fill="none" xmlns="http://www.w3.org/2000/svg">
<rect width="120" height="120" rx="24" fill="white"/>
<g clip-path="url(#clip0_88_1307)">
<path d="M48.7274 40.72L60.3474 33.908L71.5674 40.316C72.3674 39.116 73.5674 38.316 74.7674 37.512L62.3554 30.3C61.1554 29.9 59.5514 29.9 58.3474 30.3L45.5234 37.912C46.7234 38.312 47.9274 39.512 48.7274 40.716V40.72Z" fill="#1762ee"/>
<path d="M62.3523 73.972V60.348L74.7723 53.536C76.3723 54.74 78.3763 55.94 80.7803 55.94C82.9029 55.9326 84.9365 55.0861 86.4375 53.5852C87.9384 52.0843 88.7849 50.0507 88.7923 47.928C88.7849 45.8054 87.9384 43.7718 86.4375 42.2708C84.9365 40.7699 82.9029 39.9234 80.7803 39.916C78.6576 39.9234 76.6241 40.7699 75.1231 42.2708C73.6222 43.7718 72.7757 45.8054 72.7683 47.928C72.7683 48.728 72.7683 49.528 73.1683 49.932L60.3483 57.144L47.5283 49.932C47.9283 49.132 47.9283 48.732 47.9283 47.932C47.922 45.8087 47.0759 43.7741 45.5749 42.2722C44.0738 40.7704 42.0396 39.9234 39.9163 39.916C37.7937 39.9234 35.7601 40.7699 34.2591 42.2708C32.7582 43.7718 31.9117 45.8054 31.9043 47.928C31.9117 50.0507 32.7582 52.0843 34.2591 53.5852C35.7601 55.0861 37.7937 55.9326 39.9163 55.94C42.3163 55.94 44.3243 54.74 45.9243 53.14L58.3443 60.348V73.972C54.7403 74.772 52.3363 77.976 52.3363 81.584C52.3437 83.7067 53.1902 85.7403 54.6911 87.2412C56.1921 88.7421 58.2257 89.5886 60.3483 89.596C61.5483 89.596 62.7523 89.196 63.9563 88.796V83.588C63.1563 85.188 61.9523 85.988 60.3483 85.988C57.9483 85.988 56.3403 84.388 56.3403 81.984C56.3403 79.58 57.9443 77.976 60.3483 77.976C61.9483 77.976 63.1523 78.776 63.9563 79.98V74.772C63.9563 74.372 63.5563 74.372 63.1563 74.372C62.7523 74.372 62.7523 73.972 62.3523 73.972ZM80.7803 43.924C83.1843 43.924 84.7883 45.524 84.7883 47.928C84.7883 50.332 82.7883 51.936 80.7803 51.936C78.3803 51.936 76.7763 50.336 76.7763 47.928C76.7763 45.528 78.3763 43.924 80.7803 43.924ZM39.9203 51.936C37.5163 51.936 35.9123 50.336 35.9123 47.928C35.9123 45.528 37.5123 43.924 39.9203 43.924C42.3203 43.924 43.9243 45.524 43.9243 47.928C43.9243 50.332 42.3243 51.936 39.9203 51.936Z" fill="#1762ee"/>
<path d="M38.3126 59.948C36.7126 59.948 35.5086 59.548 34.3086 58.748V71.968C34.3086 73.168 35.1086 74.368 36.3086 75.172L48.3286 82.384V81.984C48.3286 80.784 48.7286 79.58 49.1286 78.376L38.3126 71.968V59.948ZM87.9926 65.496H71.9686C69.5646 65.496 67.9606 67.096 67.9606 69.5V87.992C67.9606 90.396 69.5606 92 71.9686 92H87.9926C90.4006 92 92.0006 90.4 92.0006 87.992V69.5C92.0006 67.1 90.4006 65.496 87.9926 65.496ZM87.9926 85.528H85.5926C84.7886 86.728 83.5846 87.528 81.9846 87.528C80.3846 87.528 79.1806 86.728 78.3766 85.528H71.9686V81.52H78.3766C79.1766 80.32 80.3806 79.52 81.9846 79.52C83.5846 79.52 84.7846 80.32 85.5886 81.52H87.9926V85.528ZM87.9926 75.512H81.5846C80.7846 76.712 79.5806 77.512 77.9766 77.512C76.3766 77.512 75.1726 76.712 74.3726 75.512H71.9686V71.5H74.3686C75.1726 70.3 76.3766 69.5 77.9766 69.5C79.5766 69.5 80.7806 70.3 81.5846 71.5H87.9926V75.508V75.512Z" fill="#1762ee"/>
</g>
<defs>
<clipPath id="clip0_88_1307">
<rect width="64" height="64" fill="white" transform="translate(28 28)"/>
</clipPath>
</defs>
</svg>
