<svg width="120" height="120" viewBox="0 0 120 120" fill="none" xmlns="http://www.w3.org/2000/svg">
<rect width="120" height="120" rx="24" fill="white"/>
<path d="M84.8986 31.9932L34.8012 31.9932C32.4006 31.9932 30 33.9937 30 36.7943V71.6028C30 74.4035 32.4006 76.404 34.8012 76.404H46.8041L43.6033 85.2062C43.2032 86.0063 43.6033 86.4064 44.0034 87.2066C44.4035 88.0068 44.8036 88.0068 45.6038 88.0068H75.211C76.0112 88.0068 76.4113 87.6067 76.8114 87.2066C77.2115 86.8065 77.2115 86.0063 77.2115 85.2062L74.0107 76.404H85.6988C88.4995 76.404 90.5 74.4035 90.5 71.6028V36.7943C89.6998 33.9937 87.2992 31.9932 84.8986 31.9932ZM72.0103 84.0059H48.0044L50.8051 76.404H68.8095L72.0103 84.0059ZM85.6988 71.6028C85.6988 72.0029 85.2987 72.403 84.8986 72.403H34.8012C34.4011 72.403 34.001 72.0029 34.001 71.6028V36.7943C34.001 36.3942 34.4011 35.9941 34.8012 35.9941H84.4985C84.8986 35.9941 85.2987 36.3942 85.2987 36.7943V71.6028H85.6988Z" fill="#1762ee"/>
<path d="M70.8111 48.3969L62.8091 55.5986L58.8082 51.5977C58.008 51.1976 56.8077 51.1976 56.0075 51.9978L46.8052 60.3998C46.005 61.2 46.005 62.4003 46.8052 63.2005C46.8052 63.6006 47.6054 64.0007 48.0055 64.0007C48.4056 64.0007 48.8057 64.0007 49.2058 63.6006L57.2078 56.3988L61.2087 60.3998C62.0089 61.2 63.2092 61.2 64.0094 60.3998L73.2117 51.9978C74.0119 51.1976 74.0119 49.9973 73.2117 49.1971C72.4115 48.3969 71.6113 47.5967 70.8111 48.3969Z" fill="#1762ee"/>
</svg>
