<svg width="80" height="80" viewBox="0 0 80 80" fill="none" xmlns="http://www.w3.org/2000/svg">
<rect width="80" height="80" rx="24" fill="white"/>
<path d="M57.5013 45.0003C57.7223 45.0003 57.9343 45.0881 58.0906 45.2444C58.2468 45.4007 58.3346 45.6126 58.3346 45.8337V57.5003C58.3347 57.6954 58.2664 57.8843 58.1415 58.0341C58.0166 58.1839 57.8432 58.2852 57.6513 58.3203L57.5013 58.3337H45.8346C45.6136 58.3337 45.4017 58.2459 45.2454 58.0896C45.0891 57.9333 45.0013 57.7213 45.0013 57.5003V55.8337C45.0013 55.7242 45.0229 55.6159 45.0647 55.5148C45.1066 55.4137 45.168 55.3218 45.2454 55.2444C45.3228 55.167 45.4146 55.1056 45.5157 55.0638C45.6168 55.0219 45.7252 55.0003 45.8346 55.0003H55.0013V45.8337C55.0013 45.7242 55.0229 45.6159 55.0647 45.5148C55.1066 45.4137 55.168 45.3218 55.2454 45.2444C55.3228 45.167 55.4146 45.1056 55.5157 45.0638C55.6168 45.0219 55.7252 45.0003 55.8346 45.0003H57.5013ZM24.168 45.0003C24.389 45.0003 24.6009 45.0881 24.7572 45.2444C24.9135 45.4007 25.0013 45.6126 25.0013 45.8337V55.0003H34.168C34.2774 55.0003 34.3858 55.0219 34.4869 55.0638C34.588 55.1056 34.6798 55.167 34.7572 55.2444C34.8346 55.3218 34.896 55.4137 34.9379 55.5148C34.9797 55.6159 35.0013 55.7242 35.0013 55.8337V57.5003C35.0013 57.7213 34.9135 57.9333 34.7572 58.0896C34.6009 58.2459 34.389 58.3337 34.168 58.3337H22.5013C22.2803 58.3337 22.0683 58.2459 21.912 58.0896C21.7558 57.9333 21.668 57.7213 21.668 57.5003V45.8337C21.668 45.6126 21.7558 45.4007 21.912 45.2444C22.0683 45.0881 22.2803 45.0003 22.5013 45.0003H24.168ZM47.5013 45.0003C47.7223 45.0003 47.9343 45.0881 48.0906 45.2444C48.2468 45.4007 48.3346 45.6126 48.3346 45.8337V47.5003C48.3346 47.7213 48.2468 47.9333 48.0906 48.0896C47.9343 48.2459 47.7223 48.3337 47.5013 48.3337H32.5013C32.2803 48.3337 32.0683 48.2459 31.912 48.0896C31.7558 47.9333 31.668 47.7213 31.668 47.5003V45.8337C31.668 45.6126 31.7558 45.4007 31.912 45.2444C32.0683 45.0881 32.2803 45.0003 32.5013 45.0003H47.5013ZM39.168 38.3337C39.2774 38.3337 39.3858 38.3552 39.4869 38.3971C39.588 38.439 39.6798 38.5004 39.7572 38.5777C39.8346 38.6551 39.896 38.747 39.9379 38.8481C39.9797 38.9492 40.0013 39.0576 40.0013 39.167V40.8337C40.0013 40.9431 39.9797 41.0515 39.9379 41.1526C39.896 41.2537 39.8346 41.3455 39.7572 41.4229C39.6798 41.5003 39.588 41.5617 39.4869 41.6036C39.3858 41.6454 39.2774 41.667 39.168 41.667H32.5013C32.3919 41.667 32.2835 41.6454 32.1824 41.6036C32.0813 41.5617 31.9894 41.5003 31.912 41.4229C31.8347 41.3455 31.7733 41.2537 31.7314 41.1526C31.6895 41.0515 31.668 40.9431 31.668 40.8337V39.167C31.668 39.0576 31.6895 38.9492 31.7314 38.8481C31.7733 38.747 31.8347 38.6551 31.912 38.5777C31.9894 38.5004 32.0813 38.439 32.1824 38.3971C32.2835 38.3552 32.3919 38.3337 32.5013 38.3337H39.168ZM47.5013 31.667C47.7223 31.667 47.9343 31.7548 48.0906 31.9111C48.2468 32.0674 48.3346 32.2793 48.3346 32.5003V34.167C48.3346 34.388 48.2468 34.6 48.0906 34.7562C47.9343 34.9125 47.7223 35.0003 47.5013 35.0003H32.5013C32.2803 35.0003 32.0683 34.9125 31.912 34.7562C31.7558 34.6 31.668 34.388 31.668 34.167V32.5003C31.668 32.2793 31.7558 32.0674 31.912 31.9111C32.0683 31.7548 32.2803 31.667 32.5013 31.667H47.5013ZM34.168 21.667C34.389 21.667 34.6009 21.7548 34.7572 21.9111C34.9135 22.0674 35.0013 22.2793 35.0013 22.5003V24.167C35.0013 24.388 34.9135 24.6 34.7572 24.7562C34.6009 24.9125 34.389 25.0003 34.168 25.0003H25.0013V34.167C25.0013 34.388 24.9135 34.6 24.7572 34.7562C24.6009 34.9125 24.389 35.0003 24.168 35.0003H22.5013C22.2803 35.0003 22.0683 34.9125 21.912 34.7562C21.7558 34.6 21.668 34.388 21.668 34.167V22.5003C21.668 22.2793 21.7558 22.0674 21.912 21.9111C22.0683 21.7548 22.2803 21.667 22.5013 21.667H34.168ZM57.5013 21.667C57.7223 21.667 57.9343 21.7548 58.0906 21.9111C58.2468 22.0674 58.3346 22.2793 58.3346 22.5003V34.167C58.3346 34.388 58.2468 34.6 58.0906 34.7562C57.9343 34.9125 57.7223 35.0003 57.5013 35.0003H55.8346C55.7252 35.0003 55.6168 34.9788 55.5157 34.9369C55.4146 34.895 55.3228 34.8336 55.2454 34.7562C55.168 34.6789 55.1066 34.587 55.0647 34.4859C55.0229 34.3848 55.0013 34.2764 55.0013 34.167V25.0003H45.8346C45.6136 25.0003 45.4017 24.9125 45.2454 24.7562C45.0891 24.6 45.0013 24.388 45.0013 24.167V22.5003C45.0013 22.2793 45.0891 22.0674 45.2454 21.9111C45.4017 21.7548 45.6136 21.667 45.8346 21.667H57.5013Z" fill="#1762ee"/>
</svg>
