<svg width="120" height="120" viewBox="0 0 120 120" fill="none" xmlns="http://www.w3.org/2000/svg">
<rect width="120" height="120" rx="24" fill="white"/>
<path d="M85.0375 55.8879C85.0562 55.7691 85.0625 55.6504 85.0625 55.5316V42.3754C85.0625 40.1566 83.65 38.5066 82.4688 37.5191C81.1187 36.3879 79.2438 35.3941 76.9 34.5691C72.3688 32.9691 66.3875 32.0879 60.0625 32.0879C53.7375 32.0879 47.7563 32.9691 43.225 34.5691C40.8813 35.3941 39.0063 36.3879 37.6562 37.5191C36.475 38.5066 35.0625 40.1566 35.0625 42.3754V55.9879C35.0625 56.1066 35.0688 56.2254 35.0875 56.3441C35.3 57.6879 36.0313 58.9316 37.2375 60.0441C36 61.2066 35.0625 62.6941 35.0625 64.5379V78.1504C35.0625 78.2691 35.0688 78.3879 35.0875 78.5066C35.5563 81.4691 38.5312 83.9441 43.675 85.6629C48.15 87.1629 53.9688 87.9879 60.0625 87.9879C66.0938 87.9879 71.9313 87.0754 76.5 85.4191C81.6125 83.5691 84.5625 81.0191 85.0375 78.0504C85.0562 77.9316 85.0625 77.8129 85.0625 77.6941V64.5379C85.0625 63.2441 84.5812 61.5379 82.6625 59.8504C84.0062 58.6441 84.8062 57.3129 85.0375 55.8879ZM39.5625 55.7566V48.5441C40.6125 49.1441 41.8375 49.6941 43.225 50.1879C47.7563 51.7879 53.7375 52.6691 60.0625 52.6691C66.3875 52.6691 72.3688 51.7879 76.9 50.1879C78.2875 49.6941 79.5125 49.1441 80.5625 48.5441V55.3004C80.2812 56.2379 78.4625 57.7566 74.9688 59.0254C70.875 60.5066 65.5813 61.3254 60.0625 61.3254C54.4437 61.3254 49.1313 60.5816 45.1063 59.2379C41.6375 58.0754 39.8375 56.6504 39.5625 55.7566ZM44.725 38.8129C48.7875 37.3754 54.2312 36.5879 60.0625 36.5879C65.8875 36.5879 71.3375 37.3816 75.4 38.8129C79.1875 40.1504 80.5625 41.6816 80.5625 42.3754C80.5625 43.0754 79.1875 44.6004 75.4 45.9379C71.3375 47.3754 65.8938 48.1629 60.0625 48.1629C54.2375 48.1629 48.7875 47.3691 44.725 45.9379C40.9375 44.6066 39.5625 43.0754 39.5625 42.3754C39.5625 41.6754 40.9375 40.1504 44.725 38.8129ZM74.9688 81.1816C70.875 82.6629 65.5813 83.4816 60.0625 83.4816C54.4437 83.4816 49.1313 82.7379 45.1063 81.3941C41.6375 80.2316 39.8375 78.8129 39.5625 77.9191V70.7004C40.6125 71.3004 41.8375 71.8504 43.225 72.3441C47.7563 73.9441 53.7375 74.8254 60.0625 74.8254C66.3875 74.8254 72.3688 73.9441 76.9 72.3441C78.2875 71.8504 79.5125 71.3004 80.5625 70.7004V77.4566C80.2812 78.3941 78.4625 79.9129 74.9688 81.1816ZM80.5625 64.5379C80.5625 65.2379 79.1875 66.7629 75.4 68.1004C71.3375 69.5379 65.8938 70.3254 60.0625 70.3254C54.2375 70.3254 48.7875 69.5316 44.725 68.1004C40.9375 66.7629 39.5625 65.2316 39.5625 64.5379C39.5625 64.1191 40.0312 63.4004 41.2937 62.5816C42.025 62.9066 42.825 63.2129 43.6812 63.5004C48.1562 65.0004 53.975 65.8254 60.0687 65.8254C66.1 65.8254 71.9375 64.9129 76.5062 63.2566C77.2375 62.9941 77.925 62.7129 78.5687 62.4191C79.9375 63.2504 80.5625 64.0504 80.5625 64.5379Z" fill="#1762ee"/>
<path d="M73.625 54.5752C73.625 55.1719 73.8621 55.7442 74.284 56.1662C74.706 56.5881 75.2783 56.8252 75.875 56.8252C76.4717 56.8252 77.044 56.5881 77.466 56.1662C77.8879 55.7442 78.125 55.1719 78.125 54.5752C78.125 53.9785 77.8879 53.4062 77.466 52.9842C77.044 52.5622 76.4717 52.3252 75.875 52.3252C75.2783 52.3252 74.706 52.5622 74.284 52.9842C73.8621 53.4062 73.625 53.9785 73.625 54.5752Z" fill="#1762ee"/>
<path d="M73.625 76.7373C73.625 77.334 73.8621 77.9063 74.284 78.3283C74.706 78.7503 75.2783 78.9873 75.875 78.9873C76.4717 78.9873 77.044 78.7503 77.466 78.3283C77.8879 77.9063 78.125 77.334 78.125 76.7373C78.125 76.1406 77.8879 75.5683 77.466 75.1463C77.044 74.7244 76.4717 74.4873 75.875 74.4873C75.2783 74.4873 74.706 74.7244 74.284 75.1463C73.8621 75.5683 73.625 76.1406 73.625 76.7373Z" fill="#1762ee"/>
</svg>
