<svg width="120" height="120" viewBox="0 0 120 120" fill="none" xmlns="http://www.w3.org/2000/svg">
<rect width="120" height="120" rx="24" fill="white"/>
<path d="M80.112 39.9521C75.776 39.9521 72.224 43.5521 72.224 47.9521C72.224 48.7521 72.224 49.1521 72.62 49.9521L60 57.1521L47.38 49.9521C47.776 49.1521 47.776 48.7521 47.776 47.9521C47.776 43.5521 44.224 39.9521 39.888 39.9521C35.548 39.9521 32 43.5521 32 47.9521C32 52.3521 35.548 55.9521 39.888 55.9521C42.252 55.9521 44.224 54.7521 45.804 53.1521L58.028 60.3521V74.3521C54.48 75.1521 52.112 78.3521 52.112 81.9521C52.112 86.3521 55.66 89.9521 60 89.9521C64.34 89.9521 67.888 86.3521 67.888 81.9521C67.888 78.3521 65.52 75.1521 61.972 74.3521V60.3521L74.592 53.5521C75.776 54.7521 77.748 55.9521 80.112 55.9521C84.452 55.9521 88 52.3521 88 47.9521C88 43.5521 84.452 39.9521 80.112 39.9521ZM39.888 51.9521C37.52 51.9521 35.944 50.3521 35.944 47.9521C35.944 45.5521 37.52 43.9521 39.888 43.9521C42.252 43.9521 43.832 45.5521 43.832 47.9521C43.832 50.3521 42.252 51.9521 39.888 51.9521ZM63.944 81.9521C63.944 84.3521 61.972 85.9521 60 85.9521C57.632 85.9521 56.056 84.3521 56.056 81.9521C56.056 79.5521 57.632 77.9521 60 77.9521C62.368 77.9521 63.944 79.5521 63.944 81.9521ZM80.112 51.9521C77.748 51.9521 76.168 50.3521 76.168 47.9521C76.168 45.5521 77.748 43.9521 80.112 43.9521C82.48 43.9521 84.056 45.5521 84.056 47.9521C84.056 50.3521 82.084 51.9521 80.112 51.9521Z" fill="#1762ee"/>
<path d="M38.3072 59.9518C36.7312 59.9518 35.5472 59.5518 34.3672 58.7518V71.9518C34.3672 73.1518 35.1552 74.3518 36.3392 75.1518L48.1672 82.3518V81.9518C48.1672 80.7518 48.5632 79.5518 48.9552 78.3518L38.3072 71.9518V59.9518ZM81.6872 71.9518L71.0432 77.9518C71.4352 79.1518 71.8312 80.3518 71.8312 81.5518V81.9518L83.6592 74.7518C84.8432 73.9518 85.6352 72.7518 85.6352 71.5518V58.7518C84.4512 59.1518 82.8752 59.5518 81.6872 59.9518V71.9518ZM48.5592 40.7518L59.9992 33.9518L71.0392 40.3518C71.8312 39.1518 73.0152 38.3518 74.1992 37.5518L61.9672 30.3518C60.7832 29.9518 59.2072 29.9518 58.0232 30.3518L45.4032 37.9518C46.5872 38.3518 47.7712 39.5518 48.5592 40.7518Z" fill="#1762ee"/>
</svg>
