<?xml version="1.0" encoding="utf-8"?>
<!-- Generator: Adobe Illustrator 24.0.0, SVG Export Plug-In . SVG Version: 6.00 Build 0)  -->
<svg version="1.1" id="图层_1" xmlns="http://www.w3.org/2000/svg" xmlns:xlink="http://www.w3.org/1999/xlink" x="0px" y="0px"
	 viewBox="0 0 36 36" style="enable-background:new 0 0 36 36;" xml:space="preserve">
<style type="text/css">
	.st0{fill:#2C58EA;}
	.st1{fill:#FFFFFF;}
</style>
<path class="st0" d="M32,36H4c-2.2,0-4-1.8-4-4V4c0-2.2,1.8-4,4-4h28c2.2,0,4,1.8,4,4v28C36,34.2,34.2,36,32,36z"/>
<path class="st1" d="M29.9,24.9H14.2v-1.5c0-0.3-0.2-0.5-0.5-0.5H10c-0.3,0-0.5,0.2-0.5,0.5v1.5H6.1c-0.2,0-0.4,0.2-0.4,0.5v2.4
	c0,0.3,0.2,0.5,0.4,0.5h3.4v1.2c0,0.3,0.2,0.5,0.5,0.5h3.7c0.3,0,0.5-0.2,0.5-0.5v-1.2h15.7c0.2,0,0.4-0.2,0.4-0.5v-2.4
	C30.3,25.1,30.1,24.9,29.9,24.9z M29.9,7.9H14.2V6.6c0-0.3-0.2-0.5-0.5-0.5H10c-0.3,0-0.5,0.2-0.5,0.5v1.4H6.1
	c-0.2,0-0.4,0.3-0.4,0.5v2.4c0,0.3,0.2,0.5,0.4,0.5h3.4v1.2c0,0.3,0.2,0.5,0.5,0.5h3.7c0.3,0,0.5-0.2,0.5-0.5v-1.2h15.7
	c0.2,0,0.4-0.2,0.4-0.5V8.4C30.3,8.2,30.1,7.9,29.9,7.9z M29.9,16.1h-4.4v-1.2c0-0.3-0.2-0.5-0.5-0.5h-3.7c-0.3,0-0.5,0.2-0.5,0.5
	v1.2H6.1c-0.2,0-0.4,0.2-0.4,0.5V19c0,0.3,0.2,0.5,0.4,0.5h14.7V21c0,0.3,0.2,0.5,0.5,0.5H25c0.3,0,0.5-0.2,0.5-0.5v-1.5h4.4
	c0.2,0,0.4-0.2,0.4-0.5v-2.4C30.3,16.4,30.1,16.1,29.9,16.1z"/>
</svg>
